<svg xmlns="http://www.w3.org/2000/svg" xmlns:xlink="http://www.w3.org/1999/xlink" width="95" height="95" viewBox="0 0 95 95"><defs><style>.a{fill:#fff;}.b,.h{opacity:0.71;}.c{fill:#d1d1d1;}.d{fill:#f4f4f4;}.e{fill:#53bce9;}.f{fill:#435054;}.g{fill:#47c97f;}.h{fill:#707070;}.i{filter:url(#a);}</style><filter id="a" x="0" y="0" width="95" height="95" filterUnits="userSpaceOnUse"><feOffset input="SourceAlpha"/><feGaussianBlur stdDeviation="2" result="b"/><feFlood flood-opacity="0.161"/><feComposite operator="in" in2="b"/><feComposite in="SourceGraphic"/></filter></defs><g transform="translate(5.766 6)"><g class="i" transform="matrix(1, 0, 0, 1, -5.77, -6)"><rect class="a" width="83" height="83" rx="5" transform="translate(6 6)"/></g><g transform="translate(10.808 10.574)"><g class="b" transform="translate(12.897 13.243)"><path class="c" d="M32.97,131.809H2.269A2.269,2.269,0,0,1,0,129.539V105.886a2.269,2.269,0,0,1,2.269-2.269H35.24v25.922A2.269,2.269,0,0,1,32.97,131.809Z" transform="translate(0 -99.61)"/><rect class="d" width="30.265" height="23.009" transform="translate(2.488 6.703)"/><path class="e" d="M150.891,217.633l-.14-.337a1.343,1.343,0,0,0-1.24-.827H144.5a1.343,1.343,0,0,0-1.24.827l-.14.337a1.343,1.343,0,0,1-1.24.827h0a1.343,1.343,0,0,0-1.343,1.343v6.1a1.343,1.343,0,0,0,1.343,1.343h10.249a1.343,1.343,0,0,0,1.343-1.343v-6.1a1.343,1.343,0,0,0-1.343-1.343h0A1.343,1.343,0,0,1,150.891,217.633Z" transform="translate(-129.387 -203.508)"/><circle class="f" cx="2.584" cy="2.584" r="2.584" transform="translate(15.035 16.182)"/><circle class="g" cx="7.089" cy="7.089" r="7.089" transform="translate(26.451 0)"/><g transform="translate(29.187 2.736)"><path class="a" d="M415.45,96.307a.622.622,0,0,1-.622-.622V88.223a.622.622,0,0,1,1.244,0v7.462A.622.622,0,0,1,415.45,96.307Z" transform="translate(-411.097 -87.601)"/><path class="a" d="M375.894,135.862h-7.462a.622.622,0,0,1,0-1.244h7.462a.622.622,0,0,1,0,1.244Z" transform="translate(-367.81 -130.887)"/></g></g><path class="h" d="M14,0h2V1H14V0Zm6,0h2V1H20Zm6,0h2V1H26Zm6,0h2V1H32Zm6,0h2V1H38Zm6,0h2V1H44Zm5.994.141q.593.084,1.168.218h0l.021,0h0l.031.007h0l.031.007h0l.021,0h0L51.3.391h0l.021,0,.011,0h0L51.351.4h0l.02.005.011,0h0l.02.005h0l.02.005.011,0h0l.02.005h0l.02.005.01,0h0l.02.005h0l.02.005.01,0h0l.02.005h0l.02.005.01,0h0l.02.005.01,0,.011,0,.01,0h0l.019.005.011,0,.011,0,.01,0h0l.02.005.01,0,.011,0,.009,0h0l.019.005.01,0,.011,0,.01,0,.011,0,.01,0,.01,0,.012,0,.009,0,.011,0,.01,0,.01,0,.011,0,.009,0,.01,0h0l.01,0,.01,0,.011,0-.281.96a12.968,12.968,0,0,0-1.813-.393l.141-.99Zm5.578,2.081.168.11h0l.017.011h0l.007,0h0l.008.006h0l.008.005h0l.006,0h0l.008.005h0l.006,0,.008.005,0,0,.007,0,.008.005.008.005.006,0,.009.006,0,0,0,0,0,0,.008.005,0,0,0,0,0,0,0,0h0l.01.007h0l.005,0h0l.005,0h0l.018.013h0l.025.017h0l.025.018h0a14.06,14.06,0,0,1,1.182.92l-.655.755A13.1,13.1,0,0,0,55.03,3.063l.542-.841Zm4.21,4.212.1.154h0l.005.008h0l.005.009h0l0,.008v0l0,.007h0l0,.008v0l0,.006,0,0,0,.006v0l0,.007,0,0,0,0,0,0,0,0,0,.008,0,0,0,0,0,0,0,0v0l.006.011h0l0,.006h0a13.962,13.962,0,0,1,.78,1.469l-.91.416a13.016,13.016,0,0,0-.89-1.628l.841-.541Zm2.079,5.579v.258h0v.153h0V12.5h0v.175h0v.077h0v.077h0v.021h0v.055h0v.021h0v.055h0v.022h0v.021h0v.01h0v.021h0v.021h0v.055h0v.043h0v.033h0v.043h0v.056h0v.021h0V13.4h0v.022h0v.056h0v.043h0v.033h0V13.6h0v.056h0v.021h0v.056h0v.022h0v.056h0v.021h0V13.9h0v.021h0v.023s0,.007,0,.01v0s0,.006,0,.008v0s0,.007,0,.01,0,0,0,0,0,.006,0,.008,0,0,0,0S62,14,62,14v.006H61V14a13.172,13.172,0,0,0-.13-1.847l.99-.141ZM61,18.006h1v2H61Zm0,6h1v2H61Zm0,6h1v2H61Zm0,6h1v2H61Zm0,6h1v2H61Zm0,6h1c0,.187,0,.372-.011.557h0v.022h0v.022h0v.033h0v.022h0v.022h0V48.7h0v.022h0v.021h0v.022h0l0,.033h0v.022h0v.022h0v.011h0v.022h0V48.9h0v.022h0v.011h0v.022h0v.022h0l0,.055h0l0,.022h0l0,.022h0v.011h0l0,.022h0l0,.022h0l0,.022h0v.011h0l0,.022h0l0,.022h0c0,.044-.008.088-.012.133h0q-.031.331-.078.657l-.99-.142A13.168,13.168,0,0,0,61,48.006Zm-1.174,5.4.909.416q-.18.394-.384.774h0l0,.008h0l0,.009h0l0,.008v0l0,.007v0l0,.008v0l0,.006,0,0,0,.006v0l0,.008,0,0,0,0,0,0,0,0,0,.005,0,.006,0,0,0,0,0,0,0,0,0,.007,0,0,0,0,0,0,0,.005h0l-.007.013h0l0,.006h0l-.011.02h0q-.225.406-.477.8l-.84-.542A13.013,13.013,0,0,0,59.826,53.408Zm-3.319,4.423.655.756a14.054,14.054,0,0,1-1.6,1.2l-.541-.841A13.1,13.1,0,0,0,56.506,57.831ZM51.654,60.48l.281.96c-.093.027-.185.053-.279.078l-.01,0h0l-.02.005h0l-.02.005-.01,0-.011,0-.01,0-.01,0-.011,0-.009,0-.012,0-.009,0-.009,0-.012,0-.009,0-.008,0-.013,0-.009,0-.019,0-.009,0h0l-.022.006h0l-.022.006h0a13.935,13.935,0,0,1-1.407.274l-.14-.99A12.969,12.969,0,0,0,51.654,60.48ZM43.987,61h2v1h-2Zm-6,0h2v1h-2Zm-6,0h2v1h-2Zm-6,0h2v1h-2Zm-6,0h2v1h-2Zm-6,0h2v1h-2Zm-5.4-1.177a12.943,12.943,0,0,0,1.737.65l-.282.959a13.89,13.89,0,0,1-1.871-.7ZM4.165,56.5a13.13,13.13,0,0,0,1.311,1.314l-.656.755q-.377-.328-.731-.682h0l-.022-.022h0l-.021-.021h0l-.016-.016h0l0,0h0l-.014-.015,0,0,0,0,0,0-.014-.014,0,0,0,0,0,0-.007-.007,0,0,0,0,0,0,0,0,0,0,0,0-.006-.006,0,0,0,0,0,0,0,0,0,0-.006-.006,0,0,0,0,0,0,0-.005,0,0L3.9,57.7l0,0,0,0,0,0-.005-.006h0l-.006-.007,0,0,0,0,0,0-.006-.006h0l-.006-.006,0,0-.005-.005v0l-.013-.014h0l-.006-.007h0l-.014-.015h0L3.808,57.6h0l-.014-.015h0q-.2-.209-.385-.427ZM1.519,51.648a12.945,12.945,0,0,0,.646,1.738l-.91.415-.064-.142h0l-.012-.028h0l-.009-.02h0l0-.007h0l-.006-.013h0l0-.006v0l0-.005v0l0-.009v0l0-.005v0l0,0,0,0,0-.008,0,0,0,0,0,0,0-.006,0-.006,0,0,0,0,0,0,0-.005,0-.006,0-.005,0,0,0,0,0,0,0-.008,0,0,0,0,0,0,0,0,0,0,0-.008,0,0,0-.005,0,0,0-.006,0,0,0-.007v0l0-.006v0l0-.008v0l0-.007v0l0-.006v0l0-.008v0l0-.007v0l0-.007v0l0-.009v0l0-.007v0l0-.009h0l0-.007v0l0-.006v0l0-.008v0l0-.007v0l0-.007v0l0-.009v0l0-.007v0l0-.008v0l0-.008v0L1,53.2v0l0-.008v0l0-.006v0l0-.006v0l0-.008v0l0-.006v0l0-.006v0l0-.008v0l0-.006v0l0-.008v0l0-.007v0l0-.006v0l0-.008v0l0-.005,0,0,0-.005,0,0,0-.007,0,0,0,0,0,0,0-.006,0-.006,0-.005,0,0,0,0,0,0,0-.008,0,0,0,0,0,0,0,0,0-.008v0l0-.005v0l0-.005v0l0-.009v0l0,0v0l0,0v0l0-.009v0l0-.005v0L.878,52.89v0l0-.005v0l0-.009v0l0-.005v0l0-.006v0l0-.011v0l0-.006v0l-.007-.019v0l0-.006h0l-.007-.02v0l-.008-.021h0l0-.007h0l-.008-.021h0l0-.007h0L.808,52.7h0L.8,52.668h0l-.007-.021h0l0-.007h0l-.007-.021h0l-.01-.029h0l-.01-.029h0l-.01-.029h0l-.007-.022h0l-.01-.029h0l-.007-.022h0l0-.007h0l-.007-.021h0l0-.007h0L.7,52.394v0L.7,52.372h0l0-.007h0l-.007-.021h0l0-.007h0l-.007-.021v0l0-.006v0l0-.012v0l0-.006v0l0-.006h0l0-.012v0l0-.006v0l0-.012h0l0-.005v0l0-.005v0l0-.008v0l0,0v-.009l0-.007,0-.005,0-.005v0l0-.005v0l0-.008v0l0-.006v0l0-.008h0l0-.009v0l0-.007v0l-.006-.019v0l0-.009h0L.6,52.061h0l-.039-.131ZM0,45.981H1v2H0Zm0-6H1v2H0Zm0-6H1v2H0Zm0-6H1v2H0Zm0-6H1v2H0Zm0-6H1v2H0Zm.569-5.946.959.283a12.967,12.967,0,0,0-.4,1.812l-.99-.142q.077-.534.193-1.054h0l0-.021h0l0-.009h0l0-.01h0l0-.009v0l0-.009h0l0-.009v0l0-.007v0l0-.008v-.024l0-.007V10.79l0-.009v-.012l0-.02v0l0-.007h0l0-.015h0l0-.007h0Q.47,10.373.569,10.035Zm2.864-5.22.754.656A13.1,13.1,0,0,0,3.072,6.955l-.84-.543q.364-.563.78-1.089h0L3.032,5.3h0l.019-.024h0l.013-.016h0L3.07,5.25h0l.006-.007h0l.006-.008h0l0-.006,0,0,0-.006h0L3.1,5.209l0,0,0-.006,0,0,0-.006h0l.006-.007,0,0,0,0,0,0,0,0,0,0,0,0,0,0,0,0,0,0,0,0,.006-.008,0,0,0,0,0,0,.014-.017h0l0-.006h0Q3.308,4.96,3.433,4.816ZM8.2,1.252l.414.91A13.014,13.014,0,0,0,6.99,3.05l-.54-.842L6.5,2.177h0l.026-.017h0l.017-.011h0l.008-.005h0l.017-.011h0l.008,0h0L6.6,2.116h0l.007,0h0L6.615,2.1h0l.008,0h0l.007,0h0l.008-.005h0l.007,0h0l.008,0h0l.008-.005h0l.006,0h0l.007,0h0l.008,0h0l.006,0,0,0,.007,0h0l.008,0,.008,0,0,0,.007,0,0,0,.005,0,.008-.005,0,0,.008,0h0l.006,0L6.784,2l0,0,.008,0,0,0,.005,0,0,0,.005,0,0,0,.008,0,.008,0,0,0,.006,0h0l.007,0,.008,0,0,0,.006,0,0,0,.006,0,.008,0,0,0,.007,0,0,0,.005,0,.008,0,0,0,.007,0,0,0,.005,0,.008,0,0,0,.007,0,.008,0,.008,0,0,0,.006,0,.008,0,0,0,0,0,.006,0,0,0,.008,0,0,0,.005,0,.006,0,.008,0,.008,0,.007,0,.008,0,.008,0,0,0,.007,0,.008,0,0,0,.005,0,0,0,.007,0,.008,0,0,0,.005,0,0,0,.006,0,.008,0,0,0,.006,0,0,0,.005,0,.008,0,0,0,.006,0,.005,0,.008,0,.008,0,.008,0,.008,0,.009,0,0,0,.008,0,.008,0,0,0,.005,0,0,0,.008,0,.008,0,0,0,.006,0,0,0,.007,0,.009,0,0,0,.008,0h0l.006,0,.008,0,0,0,.008,0h0l.006,0,.009,0,0,0,.008,0h0l.006,0,0,0,.006,0h0l.008,0h0l.006,0,0,0,.007,0h0l.008,0h0l.006,0h0l.007,0h0l.007,0h0l.006,0h0l.008,0h0l.007,0,0,0,.006,0h0l.008,0h0l.007,0h0l.007,0h0l.008,0h0l.007,0h0l.008,0h0l.009,0h0l.007,0h0l.008,0h0l.009,0h0l.007,0h0l.017-.009h0l.007,0h0l.009,0h0l.008,0h0l.008,0h0l.009,0h0l.008,0h0l.008,0h0l.009,0h0l.008,0h0l.018-.009h0l.009,0h0l.018-.009h0l.028-.014h0L7.8,1.446h0c.135-.067.27-.131.407-.193ZM14,0V1a13.172,13.172,0,0,0-1.829.128l-.139-.99q.594-.084,1.2-.117H14Z" transform="translate(0.427 0.426)"/></g></g></svg>