<svg xmlns="http://www.w3.org/2000/svg" xmlns:xlink="http://www.w3.org/1999/xlink" width="98.839" height="99.434" viewBox="0 0 98.839 99.434"><defs><style>.a{fill:#ef4646;}.b{opacity:0.2;}.c{fill:#fff;}.d{filter:url(#a);}</style><filter id="a" x="0" y="0.107" width="98.839" height="99.327" filterUnits="userSpaceOnUse"><feOffset dy="14" input="SourceAlpha"/><feGaussianBlur stdDeviation="4.5" result="b"/><feFlood flood-opacity="0.051"/><feComposite operator="in" in2="b"/><feComposite in="SourceGraphic"/></filter></defs><g transform="translate(13.199 0)"><g class="d" transform="matrix(1, 0, 0, 1, -13.2, 0)"><path class="a" d="M64.3,65.763c-11.007,8.985-45.376,8.985-56.159,0-11.007-8.985-9.884-47.4,0-57.507s46.275-10.109,56.159,0S75.307,56.778,64.3,65.763Z" transform="translate(13.2 -0.57)"/></g><g class="b" transform="translate(0.334 0)"><path class="c" d="M36.62,49.471C26.737,57.333,15.729,61.376,5.4,61.6-2.241,48.572-.669,16.9,8.316,7.689,16.4-.623,41.787-2.2,56.388,2.971,59.983,17.8,52.57,36.666,36.62,49.471Z" transform="translate(-0.509 0)"/></g><g transform="translate(21.385 14.652)"><path class="c" d="M139.191,92.764h0a5.466,5.466,0,0,1,5.391,5.391c0,3.369-1.573,22.239-1.573,20.442a3.9,3.9,0,0,1-3.819,3.594h0a3.9,3.9,0,0,1-3.819-3.594c-1.8-21.79-1.573-20.442-1.573-20.442A5.191,5.191,0,0,1,139.191,92.764ZM133.8,130.278a5.391,5.391,0,1,1,5.391,5.391A5.463,5.463,0,0,1,133.8,130.278Z" transform="translate(-124.79 -92.764)"/></g></g></svg>