<svg xmlns="http://www.w3.org/2000/svg" width="23.333" height="17.971" viewBox="0 0 23.333 17.971"><defs><style>.a{fill:#3a3a3a;}</style></defs><g transform="translate(23.333 76.801) rotate(180)"><g transform="translate(0 66.873)"><path class="a" d="M22.391,235.318H.943a.943.943,0,1,0,0,1.885H22.391a.943.943,0,1,0,0-1.885Z" transform="translate(0 -235.318)"/></g><g transform="translate(0 58.83)"><path class="a" d="M2.276,67.816l7.377-7.377a.943.943,0,0,0-1.333-1.333L.276,67.149a.943.943,0,0,0,0,1.333l8.043,8.043a.943.943,0,0,0,1.333-1.333Z" transform="translate(0 -58.83)"/></g></g></svg>