<svg xmlns="http://www.w3.org/2000/svg" width="17.667" height="17.667" viewBox="0 0 17.667 17.667"><defs><style>.a{fill:#3a3a3a;}</style></defs><path class="a" d="M9.523,4.762V8.548l2.512,2.512a.69.69,0,0,1-.976.976L8.345,9.321a.69.69,0,0,1-.2-.488V4.762a.69.69,0,0,1,1.38,0ZM11.548,0H6.119A6.1,6.1,0,0,0,2.107,1.5V.69a.69.69,0,1,0-1.38,0V3.4a.692.692,0,0,0,.69.69H4.131a.69.69,0,1,0,0-1.38H2.825A4.755,4.755,0,0,1,6.119,1.38h5.429a4.744,4.744,0,0,1,4.739,4.739v5.429a4.744,4.744,0,0,1-4.739,4.739H6.119A4.744,4.744,0,0,1,1.38,11.548V8.833a.69.69,0,0,0-1.38,0v2.714a6.126,6.126,0,0,0,6.119,6.119h5.429a6.126,6.126,0,0,0,6.119-6.119V6.119A6.126,6.126,0,0,0,11.548,0Z"/></svg>