<svg xmlns="http://www.w3.org/2000/svg" width="20.986" height="19.419" viewBox="0 0 20.986 19.419"><g transform="translate(-7.237 -99.476)"><path d="M20.761,16.919a3.395,3.395,0,1,0-3.431-3.431A3.439,3.439,0,0,0,20.761,16.919Zm-.073-5.388h0a2.029,2.029,0,0,1,2.03,2.03,1.994,1.994,0,0,1-3.987,0A2.014,2.014,0,0,1,20.688,11.531Z" transform="translate(-3.099 91.693)"/><path d="M38.086,20.678a6.928,6.928,0,0,0-4.9-1.752H32.63A4.728,4.728,0,0,1,32,20.394a6.979,6.979,0,0,1,1.191-.068,5.841,5.841,0,0,1,3.7,1.118v5.037h1.4V20.888Z" transform="translate(-10.072 87.515)"/><path d="M30.311,8.18a1.708,1.708,0,1,1,1.611,2.377,1.235,1.235,0,0,1-.493-.068,4.732,4.732,0,0,1,.073.981v.42c.136,0,.278.068.42.068A3.114,3.114,0,0,0,31.99,5.73a3.006,3.006,0,0,0-2.66,1.542A2.951,2.951,0,0,1,30.311,8.18Z" transform="translate(-8.803 93.785)"/><path d="M10.3,20.534a4.782,4.782,0,0,1-.63-1.469H9.1a7.162,7.162,0,0,0-4.9,1.679l-.21.21v5.593H5.4V21.51a5.968,5.968,0,0,1,3.7-1.118A5.927,5.927,0,0,1,10.3,20.534Z" transform="translate(3.237 87.449)"/><path d="M10.908,11.855a.84.84,0,0,0,.42-.073v-.42a4.079,4.079,0,0,1,.073-.976,1.235,1.235,0,0,1-.493.068,1.679,1.679,0,0,1,0-3.358,1.764,1.764,0,0,1,1.611,1.049,6.9,6.9,0,0,1,1.049-.981,3.108,3.108,0,1,0-2.66,4.69Z" transform="translate(1.435 93.82)"/><path d="M24.594,27.919l-.142-.21A7.053,7.053,0,0,0,19,25.327a7.2,7.2,0,0,0-5.525,2.382l-.142.21v5.315a1.183,1.183,0,0,0,1.191,1.191h8.956a1.224,1.224,0,0,0,1.186-1.191h0V27.919Zm-1.4,5.1H14.731V28.406A5.976,5.976,0,0,1,19,26.728a5.647,5.647,0,0,1,4.2,1.679Z" transform="translate(-1.197 84.471)"/></g></svg>