<svg xmlns="http://www.w3.org/2000/svg" width="22.527" height="26.282" viewBox="0 0 22.527 26.282">
  <defs>
    <style>
      .cls-1 {
        fill: #535353;
      }
    </style>
  </defs>
  <path id="notification" class="cls-1" d="M50.167,23.118l-1.34-3.351a6.525,6.525,0,0,1-.47-2.44V11.264a9.368,9.368,0,0,0-6.618-8.922,2.807,2.807,0,0,0-5.536,0,9.368,9.368,0,0,0-6.618,8.922v6.063a6.525,6.525,0,0,1-.47,2.44l-1.34,3.351a.939.939,0,0,0,.872,1.287h7.135a3.649,3.649,0,0,0,6.38,0H49.3a.939.939,0,0,0,.872-1.287Zm-20.136-.59.826-2.064a8.408,8.408,0,0,0,.6-3.137V11.264a7.509,7.509,0,1,1,15.018,0v6.063a8.408,8.408,0,0,0,.6,3.137l.826,2.064Z" transform="translate(-27.707 0)"/>
</svg>
