<svg xmlns="http://www.w3.org/2000/svg" width="17.516" height="17.971" viewBox="0 0 17.516 17.971"><defs><style>.a{fill:#3a3a3a;}</style></defs><g transform="translate(-0.324 0)"><path class="a" d="M16.592,232.326a1.877,1.877,0,0,1-1.877,1.877H2.463l2.471-2.471-.885-.885L.51,234.386a.626.626,0,0,0,0,.885l3.539,3.539.885-.885-2.471-2.471H14.715a3.132,3.132,0,0,0,3.128-3.128v-2.5H16.592Zm0,0" transform="translate(-0.003 -220.839)"/><path class="a" d="M1.575,6.483A1.877,1.877,0,0,1,3.452,4.607H15.7L13.233,7.077l.885.885,3.539-3.539a.626.626,0,0,0,0-.885L14.118,0l-.885.885L15.7,3.355H3.452A3.132,3.132,0,0,0,.324,6.483v2.5H1.575Zm0,0"/></g></svg>