<svg xmlns="http://www.w3.org/2000/svg" width="182.216" height="47.091">
    <defs>
        <linearGradient id="b" x1=".504" y1=".976" x2=".496" y2=".045" gradientUnits="objectBoundingBox">
            <stop offset="0" stop-color="#d7a025"/>
            <stop offset="1" stop-color="#f2d516"/>
        </linearGradient>
        <clipPath id="a">
            <path data-name="Path 97" d="M594.547 203.816a23.57 23.57 0 0 0-25.427-11.692c5.236 2.726 8.751 7.711 8.751 13.377 0 5.559-3.371 10.436-8.428 13.2 5.128 6.6 9.432 12.158 13.09 16.067a22 22 0 0 0 1.65 1.578 10.811 10.811 0 0 0 1.112-.574 23.531 23.531 0 0 0 9.253-31.955m-22.774 26c-2.654-3.479-6.778-9.612-8.177-11.441 5.344-2.008 9.074-6.707 9.074-12.194 0-5.451-3.694-10.15-9-12.158a3.487 3.487 0 0 1-.395.179c-.036 0-.036.036-.072.036a22.172 22.172 0 0 0-4.34 2.869 23.476 23.476 0 0 0-6.456 8.571 22.374 22.374 0 0 0-2.008 9.109v.215a23.493 23.493 0 0 0 28.4 23.2c-2.078-1.751-4.122-4.548-7.027-8.385Z" transform="translate(-550.397 -191.635)"/>
        </clipPath>
    </defs>
    <g data-name="Group 294">
        <g data-name="Group 293" style="clip-path:url(#a)">
            <path data-name="Rectangle 164" transform="translate(-.035 -1.555)" style="fill:url(#b)" d="M0 0h50.461v50.21H0z"/>
        </g>
    </g>
    <g data-name="Group 1050">
        <path data-name="Path 98" d="M100.213 24.873c-.185 0-.247.185-.37.617-.247 1.6-.741 2.407-1.79 2.839a11.053 11.053 0 0 1-3.765.432c-3.827 0-4.444-.494-4.567-3.209-.062-.8 0-5.37 0-6.666v-3.518c0-.185.062-.247.247-.247.679 0 4.567.062 5.616.185 1.543.185 1.852.8 2.037 1.358a3.452 3.452 0 0 1 .185 1.3c0 .185.062.37.247.37.247 0 .247-.432.247-.741a25.272 25.272 0 0 1 .185-2.53c.123-1.3.309-1.975.309-2.222s-.062-.309-.185-.309c-.185 0-.309.185-.617.494a2.746 2.746 0 0 1-1.852.555c-.926.062-5.74.062-6.234.062-.185 0-.247-.123-.247-.37v-10.8c0-.247.062-.37.247-.37.432 0 4.691.062 5.37.123 2.1.247 2.53.679 2.777 1.358a4.565 4.565 0 0 1 .247 1.419c0 .309.062.494.309.494.185 0 .247-.247.247-.432.062-.494.185-2.222.185-2.592.123-1.111.309-1.543.309-1.852 0-.185-.062-.37-.185-.37-.185 0-.37.185-.556.185a8.308 8.308 0 0 1-1.666.185c-.926.062-8.7.062-8.949.062l-1.6-.062C85.53.559 84.481.559 83.555.559c-.432 0-.617.062-.617.309 0 .185.185.247.309.247a10.1 10.1 0 0 1 1.358.123c1.3.247 1.6.926 1.666 2.222.062 1.234.062 2.345.062 8.455v6.912c0 3.765 0 6.851-.185 8.517-.185 1.111-.37 1.975-1.111 2.16a7.713 7.713 0 0 1-1.173.185c-.247 0-.309.123-.309.247 0 .247.185.309.617.309.617 0 1.481-.062 2.284-.062.8-.062 1.481-.062 1.543-.062.617 0 1.543.062 3.024.123 1.543.062 3.7.123 6.6.123 1.543 0 1.852 0 2.1-.987a38.394 38.394 0 0 0 .494-3.827c.247-.37.247-.679 0-.679"/>
        <path data-name="Path 99" d="M131.874 16.047c.185 0 .309-.062.309-.247 0-.247-.185-.309-.617-.309-1.173 0-3.641.123-3.826.123s-2.654-.123-4.444-.123c-.432 0-.617.062-.617.309 0 .185.185.247.309.247a10.087 10.087 0 0 1 1.358.123c1.543.432 1.79.864 1.79 4.012v6.666a1.317 1.317 0 0 1-.8 1.358 10.036 10.036 0 0 1-4.444.8 14.217 14.217 0 0 1-10.245-4.2 16.069 16.069 0 0 1-4.135-10.862c0-4.567 1.6-8.147 3.888-9.937a12.557 12.557 0 0 1 8.394-2.592c5.061 0 8.209 1.666 9.2 3.148a5.094 5.094 0 0 1 .8 2.592c.062.37.062.617.247.617.247 0 .37-.185.37-.8 0-3.888.247-5 .247-5.555 0-.185-.062-.309-.494-.37a23.2 23.2 0 0 1-3.148-.37 30.6 30.6 0 0 0-5.987-.679c-3.024 0-6.912.247-10.43 2.469-3.456 2.222-6.542 6.6-6.542 12.9a15.547 15.547 0 0 0 4.629 11.171c4.32 3.827 9.875 4.2 12.9 4.2a18.742 18.742 0 0 0 8.27-1.79c.494-.247.494-.37.494-2.1v-4.382c0-1.666 0-2.839.062-4.073.062-1.358.37-2.037 1.42-2.222.555-.062.8-.123 1.049-.123"/>
        <path data-name="Path 100" d="M160.573 29.625a5.276 5.276 0 0 1-1.543-.247c-.8-.247-1.975-.864-3.394-4.32-2.407-5.925-8.517-22.1-9.134-23.576-.494-1.234-.617-1.42-.864-1.42s-.37.247-.864 1.543l-8.827 24.257c-.679 1.975-1.481 3.456-3.271 3.7a7.086 7.086 0 0 1-1.111.062c-.185 0-.37.062-.37.247 0 .247.247.309.741.309 1.852 0 4.012-.123 4.444-.123s2.1.123 3.024.123c.37 0 .617-.062.617-.309 0-.185-.123-.247-.37-.247h-.37c-.679 0-1.481-.37-1.481-1.111a7.545 7.545 0 0 1 .556-2.592l2.345-6.912a.391.391 0 0 1 .37-.309h8.394c.185 0 .247.062.37.247l3.641 9.628c.247.617 0 .987-.247 1.049-.185.062-.247.123-.247.247 0 .247.432.247 1.173.247 2.716.062 5.555.062 6.172.062.432 0 .8-.062.8-.309a.6.6 0 0 0-.556-.247m-11.665-12.405h-7.468c-.123 0-.185-.062-.123-.247l3.456-10.554c.185-.617.37-.617.617 0l3.7 10.554c.007.124.007.248-.18.248Z"/>
        <path data-name="Path 101" d="M181.783 24.749c-.247 0-.309.185-.37.494a5.618 5.618 0 0 1-.987 2.345c-.926 1.111-2.654 1.173-4.752 1.173-3.024 0-4.073-.247-4.691-.926-.679-.679-.864-3.209-.864-8.949v-6.974c0-6.11 0-7.221.062-8.455.062-1.358.37-2.037 1.543-2.222a12.737 12.737 0 0 1 1.3-.123c.185 0 .309-.062.309-.247 0-.247-.185-.309-.617-.309-1.173 0-4.012.123-4.2.123s-2.654-.123-4.444-.123c-.432 0-.617.062-.617.309 0 .185.185.247.309.247a10.1 10.1 0 0 1 1.358.123c1.3.247 1.6.926 1.666 2.222.062 1.234.062 2.345.062 8.455v6.913c0 3.765 0 6.851-.185 8.517-.185 1.111-.37 1.975-1.111 2.16a7.718 7.718 0 0 1-1.173.185c-.247 0-.309.123-.309.247 0 .247.185.309.617.309.617 0 1.42-.062 2.222-.062s1.42-.062 1.6-.062c1.111 0 2.345.062 4.012.123s3.7.123 6.48.123c2.1 0 2.222-.185 2.469-1.049a25.6 25.6 0 0 0 .617-3.888c-.062-.555-.123-.679-.308-.679"/>
        <path data-name="Path 102" d="M82.835 29.686c-.062 0-.123-.062-.185-.062a9 9 0 0 1-1.543-.123 8.286 8.286 0 0 1-4.752-2.839c-2.284-2.407-4.937-5.925-8.147-10 3.518-3.271 4.752-6.172 4.752-9.011a6.724 6.724 0 0 0-2.716-5.308C68.144.862 65.553.615 63.085.615c-1.234 0-4.2.123-4.629.123-.185 0-2.654-.123-4.444-.123-.432 0-.617.062-.617.309 0 .185.185.247.309.247a10.094 10.094 0 0 1 1.358.123c1.3.247 1.6.926 1.666 2.222.062 1.234.062 2.345.062 8.455v6.912c0 3.765 0 6.851-.185 8.517-.185 1.111-.37 1.975-1.111 2.16a7.72 7.72 0 0 1-1.173.185c-.247 0-.309.124-.309.247 0 .247.185.309.617.309 1.173 0 3.641-.123 3.7-.123.185 0 2.654.123 4.814.123.432 0 .617-.123.617-.309 0-.123-.062-.247-.309-.247a10.354 10.354 0 0 1-1.79-.185c-1.173-.185-1.419-.987-1.543-2.16-.185-1.666-.185-4.752-.185-8.517V2.654a.55.55 0 0 1 .309-.494 10.817 10.817 0 0 1 2.592-.247c4.2 0 6.789 2.962 6.789 7.838 0 2.962-.988 5.061-2.407 6.048a7.034 7.034 0 0 1-2.592.988c.062 0 .185.247.185.309.124.123.185.309.309.432.555.741 1.111 1.543 1.666 2.284a87.546 87.546 0 0 0 1.852 2.53l1.111 1.481c2.222 2.962 3.58 4.876 5.308 5.74.987.555 1.975.741 4.2.741h2.777c.432 0 .679 0 .8-.123a.321.321 0 0 1-.123-.247c0-.123 0-.185.124-.247"/>
        <path data-name="Path 103" d="M56.357 42.154a7.289 7.289 0 0 1-.37 3.086 3.938 3.938 0 0 1-1.6 1.6c-.123.123-.37.185-.432.247h-.062a.06.06 0 0 1-.062-.062c0-.062.062-.123.124-.185a.907.907 0 0 0 .37-.309c.741-.679 1.049-1.234 1.049-3.95v-5.308c0-.37-.062-.555-.432-.555h-.37a.06.06 0 0 1-.062-.062c0-.062.062-.062.185-.062h2.407c.124 0 .185 0 .185.062a.06.06 0 0 1-.062.062h-.247c-.309.062-.37.185-.37.555v4.876Z"/>
        <path data-name="Path 104" d="M67.775 39.623v-2.286c0-.37-.062-.555-.432-.555h-.37a.06.06 0 0 1-.062-.062c0-.062.062-.062.185-.062h3.95c.185 0 .432-.062.494-.062a.215.215 0 0 0 .123-.062c.062 0 .062.062.062.123a2.335 2.335 0 0 0-.062.494c0 .123-.062.555-.062.679a.133.133 0 0 1-.123.123c-.062 0-.062-.062-.062-.123a.918.918 0 0 0-.062-.37c-.062-.185-.185-.247-.8-.309-.185 0-1.481-.062-1.6-.062-.062 0-.062.062-.062.123v2.839c0 .062 0 .123.062.123h1.852a1.232 1.232 0 0 0 .556-.123c.062-.062.123-.123.185-.123s.062 0 .062.062a3.415 3.415 0 0 0-.062.555c0 .185-.062.617-.062.679s0 .185-.123.185c-.062 0-.062-.062-.062-.123a.92.92 0 0 0-.062-.37c-.062-.123-.124-.247-.556-.309a16.2 16.2 0 0 0-1.666-.062.06.06 0 0 0-.062.062v2.654c0 .679.247.864 1.3.864a3.418 3.418 0 0 0 1.111-.123c.309-.123.432-.309.494-.741 0-.123.062-.185.123-.185s.062.062.062.185a7.115 7.115 0 0 1-.124.987c-.062.247-.185.247-.617.247a16.262 16.262 0 0 1-1.913-.062h-2.037c-.123 0-.185 0-.185-.062s0-.062.062-.062c.123 0 .247-.062.37-.062.185-.062.247-.247.309-.556a21.31 21.31 0 0 0 .062-2.284v-1.79Z"/>
        <path data-name="Path 105" d="M90.062 42.956c.309-.864 1.3-3.888 1.728-5.246a1.726 1.726 0 0 0 .123-.679c0-.185-.062-.309-.617-.309a.133.133 0 0 1-.123-.123c0-.062.062-.062.185-.062h2.037c.123 0 .123 0 .123.062s0 .123-.123.123a.918.918 0 0 0-.37.062c-.309.124-.494.555-.741 1.111-.494 1.358-1.6 4.691-2.037 5.863-.309.8-.37.926-.494.926s-.185-.123-.37-.555l-2.16-5.74c-.37.926-1.852 4.752-2.284 5.74-.185.432-.247.555-.37.555s-.185-.123-.432-.8l-1.975-6.234c-.185-.555-.309-.679-.555-.8a1.534 1.534 0 0 0-.494-.062.133.133 0 0 1-.123-.123c0-.062.062-.062.185-.062h2.469c.123 0 .185 0 .185.062a.133.133 0 0 1-.123.123.917.917 0 0 0-.37.062c-.062 0-.124.062-.124.247a5.826 5.826 0 0 0 .185.987c.185.679 1.3 4.505 1.481 4.937l2.345-5.863c.185-.432.247-.494.309-.494s.185.123.309.494Z"/>
        <path data-name="Path 106" d="M103.377 39.623v-2.286c0-.37-.062-.555-.432-.555h-.37a.06.06 0 0 1-.062-.062c0-.062.062-.062.185-.062h3.95c.185 0 .432-.062.494-.062a.215.215 0 0 0 .123-.062c.062 0 .062.062.062.123a2.335 2.335 0 0 0-.062.494c0 .123-.062.555-.062.679a.133.133 0 0 1-.123.123c-.062 0-.062-.062-.062-.123a.918.918 0 0 0-.062-.37c-.062-.185-.185-.247-.8-.309-.185 0-1.481-.062-1.6-.062-.062 0-.062.062-.062.123v2.839c0 .062 0 .123.062.123h1.852a1.232 1.232 0 0 0 .555-.123c.062-.062.123-.123.185-.123s.062 0 .062.062a3.415 3.415 0 0 0-.062.555c0 .185-.062.617-.062.679s0 .185-.123.185c-.062 0-.062-.062-.062-.123a.918.918 0 0 0-.062-.37c-.062-.123-.123-.247-.555-.309a16.2 16.2 0 0 0-1.666-.062.06.06 0 0 0-.062.062v2.654c0 .679.247.864 1.3.864a3.417 3.417 0 0 0 1.111-.123c.309-.123.432-.309.494-.741 0-.123.062-.185.123-.185s.062.062.062.185a7.12 7.12 0 0 1-.123.987c-.062.247-.185.247-.617.247a16.26 16.26 0 0 1-1.913-.062h-2.037c-.123 0-.185 0-.185-.062s0-.062.062-.062c.123 0 .247-.062.37-.062.185-.062.247-.247.309-.556a21.31 21.31 0 0 0 .062-2.284v-1.79Z"/>
        <path data-name="Path 107" d="M119.245 41.475c0 1.543 0 2.16.247 2.345.185.185.617.247 1.481.247a1.869 1.869 0 0 0 1.358-.309 1.1 1.1 0 0 0 .247-.617.133.133 0 0 1 .123-.123c.062 0 .062.062.062.185a4.167 4.167 0 0 1-.185 1.049c-.062.247-.123.309-.679.309a16.82 16.82 0 0 1-1.913-.062h-2.284c-.123 0-.185 0-.185-.062s0-.062.062-.062a.783.783 0 0 0 .37-.062c.185-.062.247-.247.309-.555a21.333 21.333 0 0 0 .062-2.284v-4.135c0-.37-.062-.555-.432-.555h-.37a.06.06 0 0 1-.062-.062c0-.062.062-.062.185-.062h2.469c.123 0 .185 0 .185.062a.06.06 0 0 1-.062.062h-.37c-.309.062-.37.247-.432.617v4.073Z"/>
        <path data-name="Path 108" d="M133.937 41.475c0 1.543 0 2.16.247 2.345.185.185.617.247 1.481.247a1.869 1.869 0 0 0 1.358-.309 1.1 1.1 0 0 0 .247-.617.133.133 0 0 1 .123-.123c.062 0 .062.062.062.185a4.165 4.165 0 0 1-.185 1.049c-.062.247-.123.309-.679.309a16.824 16.824 0 0 1-1.913-.062h-2.284c-.123 0-.185 0-.185-.062s0-.062.062-.062a.783.783 0 0 0 .37-.062c.185-.062.247-.247.308-.555a21.333 21.333 0 0 0 .062-2.284v-4.135c0-.37-.062-.555-.432-.555h-.37a.06.06 0 0 1-.062-.062c0-.062.062-.062.185-.062h2.469c.123 0 .185 0 .185.062a.06.06 0 0 1-.062.062h-.37c-.309.062-.37.247-.432.617v4.073Z"/>
        <path data-name="Path 109" d="M147.639 39.623v-2.286c0-.37-.062-.555-.432-.555h-.37a.06.06 0 0 1-.062-.062c0-.062.062-.062.185-.062h3.95c.185 0 .432-.062.494-.062a.216.216 0 0 0 .123-.062c.062 0 .062.062.062.123a2.339 2.339 0 0 0-.062.494c0 .123-.062.555-.062.679a.133.133 0 0 1-.123.123c-.062 0-.062-.062-.062-.123a.917.917 0 0 0-.062-.37c-.062-.185-.185-.247-.8-.309-.185 0-1.481-.062-1.6-.062-.062 0-.062.062-.062.123v2.839c0 .062 0 .123.062.123h1.852a1.233 1.233 0 0 0 .555-.123c.062-.062.123-.123.185-.123s.062 0 .062.062a3.408 3.408 0 0 0-.062.555c0 .185-.062.617-.062.679s0 .185-.123.185c-.062 0-.062-.062-.062-.123a.918.918 0 0 0-.062-.37c-.062-.123-.123-.247-.555-.309a16.2 16.2 0 0 0-1.666-.062.06.06 0 0 0-.062.062v2.654c0 .679.247.864 1.3.864a3.418 3.418 0 0 0 1.111-.123c.309-.123.432-.309.494-.741 0-.123.062-.185.123-.185s.062.062.062.185a7.121 7.121 0 0 1-.123.987c-.062.247-.185.247-.617.247a16.261 16.261 0 0 1-1.913-.062h-2.037c-.123 0-.185 0-.185-.062s0-.062.062-.062c.123 0 .247-.062.37-.062.185-.062.247-.247.309-.556a21.289 21.289 0 0 0 .062-2.284v-1.79Z"/>
        <path data-name="Path 110" d="M162.651 39.623v-2.284c0-.37-.062-.555-.432-.555h-.37a.06.06 0 0 1-.062-.062c0-.062.062-.062.185-.062h2.654a4.149 4.149 0 0 1 2.1.432 1.834 1.834 0 0 1 .741 1.42 2.986 2.986 0 0 1-1.358 2.407c.926 1.111 1.667 2.037 2.345 2.716a2.244 2.244 0 0 0 1.234.741 1.086 1.086 0 0 0 .37.062.216.216 0 0 1 .123.062c0 .062-.062.062-.247.062h-.679a2.528 2.528 0 0 1-1.173-.185 5.921 5.921 0 0 1-1.543-1.543 12.736 12.736 0 0 1-1.173-1.543c-.062-.062-.062-.062-.124-.062h-1.419c-.062 0-.062 0-.062.062v.247a21.927 21.927 0 0 0 .062 2.284c.062.309.123.494.432.556.123 0 .37.062.494.062a.06.06 0 0 1 .062.062c0 .062-.062.062-.185.062-.617 0-1.3-.062-1.358-.062 0 0-.741.062-1.111.062-.123 0-.185 0-.185-.062s0-.062.062-.062a.783.783 0 0 0 .37-.062c.185-.062.247-.247.309-.556a21.331 21.331 0 0 0 .062-2.284v-1.913Zm.988.864c0 .062 0 .123.062.123a4.727 4.727 0 0 0 1.234.185 1.285 1.285 0 0 0 .8-.185 1.88 1.88 0 0 0 .679-1.6 1.819 1.819 0 0 0-1.913-2.037c-.309 0-.679.062-.8.062-.062 0-.062.062-.062.123Z"/>
        <path data-name="Path 111" d="M177.895 44.376c-.124-.062-.185-.123-.185-.37 0-.494.062-.926.062-1.111 0-.123 0-.185.062-.185a.133.133 0 0 1 .123.124.917.917 0 0 0 .062.37 1.65 1.65 0 0 0 1.728 1.049c1.111 0 1.666-.617 1.666-1.419 0-.741-.432-1.111-1.419-1.852l-.494-.37c-1.173-.864-1.6-1.543-1.6-2.222 0-1.234.987-1.975 2.469-1.975a6.216 6.216 0 0 1 1.173.123 1.086 1.086 0 0 0 .37.062c.062 0 .123 0 .123.062a8.675 8.675 0 0 0-.062 1.111c0 .185 0 .247-.062.247s-.062-.062-.123-.123a1.178 1.178 0 0 0-.185-.494c-.062-.123-.432-.494-1.419-.494-.8 0-1.481.37-1.481 1.111 0 .679.37 1.049 1.42 1.79l.309.185c1.358.926 1.79 1.6 1.79 2.53a2.024 2.024 0 0 1-1.049 1.79 3.463 3.463 0 0 1-1.79.37 7.059 7.059 0 0 1-1.481-.309"/>
    </g>
</svg>
