<svg xmlns="http://www.w3.org/2000/svg" width="20.986" height="16.863" viewBox="0 0 20.986 16.863"><g transform="translate(-55.5 -71.869)"><g transform="translate(-0.017 -1)"><g transform="translate(59.993 24.464)"><g transform="translate(0 61.599)"><path d="M7.709,235.318H.325a.325.325,0,1,0,0,.649H7.709a.325.325,0,1,0,0-.649Z" transform="translate(0 -235.318)"/><path d="M.325,235.068H7.709a.575.575,0,1,1,0,1.149H.325a.575.575,0,1,1,0-1.149Zm7.385.649a.075.075,0,1,0,0-.149H.325a.075.075,0,1,0,0,.149Z" transform="translate(0 -235.318)"/></g><g transform="translate(0 58.83)"><path d="M.784,61.924l2.54-2.54a.325.325,0,0,0-.459-.459L.1,61.694a.325.325,0,0,0,0,.459l2.769,2.769a.325.325,0,1,0,.459-.459Z" transform="translate(0 -58.83)"/><path d="M3.094,65.267a.571.571,0,0,1-.406-.168L-.081,62.33a.575.575,0,0,1,0-.812l2.769-2.769a.575.575,0,0,1,.813.812L1.137,61.924,3.5,64.287a.575.575,0,0,1-.406.981Zm0-6.187a.073.073,0,0,0-.053.022L.272,61.871a.075.075,0,0,0,0,.105l2.769,2.769a.074.074,0,0,0,.105,0,.075.075,0,0,0,0-.105L.43,61.924l2.717-2.717a.075.075,0,0,0,0-.105A.073.073,0,0,0,3.094,59.08Z" transform="translate(0 -58.83)"/></g></g><g transform="translate(63.993 83.294)"><g transform="translate(0 2.769)"><path d="M.325,235.318H7.709a.325.325,0,1,1,0,.649H.325a.325.325,0,1,1,0-.649Z" transform="translate(0 -235.318)"/><path d="M.325,235.068H7.709a.575.575,0,1,1,0,1.149H.325a.575.575,0,1,1,0-1.149Zm7.385.649a.075.075,0,1,0,0-.149H.325a.075.075,0,1,0,0,.149Z" transform="translate(0 -235.318)"/></g><g transform="translate(4.615 0)"><path d="M2.635,61.924.1,59.384a.325.325,0,0,1,.459-.459l2.769,2.769a.325.325,0,0,1,0,.459L.554,64.922A.325.325,0,0,1,.1,64.463Z" transform="translate(0 -58.83)"/><path d="M.325,65.267a.575.575,0,0,1-.406-.981l2.363-2.363L-.081,59.561a.575.575,0,0,1,.406-.981.571.571,0,0,1,.406.168L3.5,61.517a.575.575,0,0,1,0,.812L.731,65.1A.571.571,0,0,1,.325,65.267Zm0-6.187a.075.075,0,0,0-.053.127l2.717,2.717L.272,64.64a.075.075,0,0,0,.105.105l2.769-2.769a.075.075,0,0,0,0-.105L.377,59.1A.073.073,0,0,0,.325,59.08Z" transform="translate(0 -58.83)"/></g></g></g><g transform="translate(48.263 -27.608)"><path d="M20.761,16.919a3.395,3.395,0,1,0-3.431-3.431A3.439,3.439,0,0,0,20.761,16.919Zm-.073-5.388h0a2.029,2.029,0,0,1,2.03,2.03,1.994,1.994,0,0,1-3.987,0A2.014,2.014,0,0,1,20.688,11.531Z" transform="translate(-3.099 91.693)"/><path d="M38.086,20.678a6.928,6.928,0,0,0-4.9-1.752H32.63A4.728,4.728,0,0,1,32,20.394a6.979,6.979,0,0,1,1.191-.068,5.841,5.841,0,0,1,3.7,1.118v5.037h1.4V20.888Z" transform="translate(-10.072 87.515)"/><path d="M30.311,8.18a1.708,1.708,0,1,1,1.611,2.377,1.235,1.235,0,0,1-.493-.068,4.732,4.732,0,0,1,.073.981v.42c.136,0,.278.068.42.068A3.114,3.114,0,0,0,31.99,5.73a3.006,3.006,0,0,0-2.66,1.542A2.951,2.951,0,0,1,30.311,8.18Z" transform="translate(-8.803 93.785)"/><path d="M10.3,20.534a4.782,4.782,0,0,1-.63-1.469H9.1a7.162,7.162,0,0,0-4.9,1.679l-.21.21v5.593H5.4V21.51a5.968,5.968,0,0,1,3.7-1.118A5.927,5.927,0,0,1,10.3,20.534Z" transform="translate(3.237 87.449)"/><path d="M10.908,11.855a.84.84,0,0,0,.42-.073v-.42a4.079,4.079,0,0,1,.073-.976,1.235,1.235,0,0,1-.493.068,1.679,1.679,0,0,1,0-3.358,1.764,1.764,0,0,1,1.611,1.049,6.9,6.9,0,0,1,1.049-.981,3.108,3.108,0,1,0-2.66,4.69Z" transform="translate(1.435 93.82)"/></g></g></svg>