<svg id="scheme" xmlns="http://www.w3.org/2000/svg" width="32.222" height="25.707">
    <defs>
        <style>
            .cls-1{fill:#fe9738}.cls-2{fill:#fe860a}.cls-3{fill:#fee45a}.cls-4{fill:#fed402}.cls-5{fill:#fac600}.cls-6{fill:#e8b800}
        </style>
    </defs>
    <g id="Group_357" data-name="Group 357" transform="translate(20.365)">
        <path id="Path_120" data-name="Path 120" class="cls-1" d="M325.694 52.024a6.1 6.1 0 0 1-1.922 2.5.435.435 0 0 0 0 .7 6.1 6.1 0 0 1 1.922 2.5.437.437 0 0 0 .8 0 6.1 6.1 0 0 1 1.922-2.5.435.435 0 0 0 0-.7 6.1 6.1 0 0 1-1.922-2.5.437.437 0 0 0-.8 0Z" transform="translate(-323.597 -51.762)"/>
        <path id="Path_121" data-name="Path 121" class="cls-1" d="M429.725 127.948a5.1 5.1 0 0 1-1.606 2.09.363.363 0 0 0 0 .583 5.1 5.1 0 0 1 1.606 2.09.365.365 0 0 0 .669 0 5.1 5.1 0 0 1 1.606-2.09.363.363 0 0 0 0-.583 5.1 5.1 0 0 1-1.606-2.09.365.365 0 0 0-.669 0Z" transform="translate(-421.403 -122.948)"/>
    </g>
    <path id="Path_122" data-name="Path 122" class="cls-1" d="M37.066 180.117a5.1 5.1 0 0 1-1.606 2.09.363.363 0 0 0 0 .583 5.1 5.1 0 0 1 1.606 2.09.365.365 0 0 0 .669 0 5.1 5.1 0 0 1 1.606-2.09.363.363 0 0 0 0-.583 5.1 5.1 0 0 1-1.606-2.09.365.365 0 0 0-.669 0Z" transform="translate(-33.09 -171.834)"/>
    <g id="Group_358" data-name="Group 358" transform="translate(3.556)">
        <path id="Path_123" data-name="Path 123" class="cls-2" d="M354.377 55.222a6.1 6.1 0 0 0-1.922 2.5.437.437 0 0 1-.8 0 7.246 7.246 0 0 0-.354-.706 4.559 4.559 0 0 1 1.22-1.794.435.435 0 0 0 0-.7 4.565 4.565 0 0 1-1.22-1.795 7.246 7.246 0 0 0 .354-.706.437.437 0 0 1 .8 0 6.1 6.1 0 0 0 1.922 2.5.435.435 0 0 1 0 .7Z" transform="translate(-332.748 -51.761)"/>
        <path id="Path_124" data-name="Path 124" class="cls-2" d="M451.862 130.62a5.1 5.1 0 0 0-1.607 2.09.365.365 0 0 1-.67 0 5.724 5.724 0 0 0-.419-.795 3.751 3.751 0 0 1 .939-1.3.364.364 0 0 0 0-.584 3.743 3.743 0 0 1-.939-1.295 5.775 5.775 0 0 0 .419-.795.365.365 0 0 1 .67 0 5.09 5.09 0 0 0 1.607 2.09.364.364 0 0 1 0 .589Z" transform="translate(-424.455 -122.947)"/>
        <path id="Path_125" data-name="Path 125" class="cls-2" d="M59.2 182.788a5.1 5.1 0 0 0-1.607 2.09.365.365 0 0 1-.669 0 5.817 5.817 0 0 0-.419-.795 4.092 4.092 0 0 1 1.036-1.3.363.363 0 0 0 0-.583 4.092 4.092 0 0 1-1.036-1.3 5.853 5.853 0 0 0 .419-.795.365.365 0 0 1 .669 0 5.1 5.1 0 0 0 1.607 2.09.363.363 0 0 1 0 .593Z" transform="translate(-56.508 -171.832)"/>
    </g>
    <path id="Path_126" data-name="Path 126" class="cls-3" d="M8.969 361.528a.707.707 0 0 0-.666-.47H2.426a.707.707 0 0 0-.666.47l-1.719 4.827a.707.707 0 0 0 .666.945h9.313a.707.707 0 0 0 .666-.945Z" transform="translate(0 -341.593)"/>
    <path id="Path_127" data-name="Path 127" class="cls-3" d="M179.731 361.528a.707.707 0 0 0-.666-.47h-5.876a.707.707 0 0 0-.666.47l-1.718 4.827a.707.707 0 0 0 .666.945h9.313a.707.707 0 0 0 .666-.945Z" transform="translate(-160.015 -341.593)"/>
    <path id="Path_128" data-name="Path 128" class="cls-3" d="M350.494 361.528a.707.707 0 0 0-.666-.47h-5.876a.707.707 0 0 0-.666.47l-1.718 4.827a.707.707 0 0 0 .666.945h9.313a.707.707 0 0 0 .666-.945Z" transform="translate(-320.031 -341.593)"/>
    <path id="Path_129" data-name="Path 129" class="cls-4" d="M110.476 367.3h-1.556a.707.707 0 0 0 .666-.945l-1.718-4.827a.708.708 0 0 0-.666-.47h1.556a.708.708 0 0 1 .666.47l1.718 4.827a.707.707 0 0 1-.666.945Z" transform="translate(-100.455 -341.595)"/>
    <path id="Path_130" data-name="Path 130" class="cls-4" d="M281.237 367.3h-1.556a.707.707 0 0 0 .666-.945l-1.718-4.827a.707.707 0 0 0-.666-.47h1.556a.707.707 0 0 1 .666.47l1.718 4.827a.707.707 0 0 1-.666.945Z" transform="translate(-260.47 -341.595)"/>
    <path id="Path_131" data-name="Path 131" class="cls-4" d="M452 367.3h-1.556a.707.707 0 0 0 .666-.945l-1.718-4.827a.707.707 0 0 0-.666-.47h1.556a.707.707 0 0 1 .666.47l1.718 4.827a.707.707 0 0 1-.666.945Z" transform="translate(-420.484 -341.595)"/>
    <path id="Path_132" data-name="Path 132" class="cls-3" d="M179.219 165.007a.707.707 0 0 0-.666-.47h-5.876a.708.708 0 0 0-.666.47l-1.718 4.827a.707.707 0 0 0 .666.945h9.313a.707.707 0 0 0 .666-.945Z" transform="translate(-159.535 -157.44)"/>
    <path id="Path_133" data-name="Path 133" class="cls-4" d="M280.723 170.774h-1.556a.707.707 0 0 0 .666-.945L278.115 165a.708.708 0 0 0-.666-.471H279a.708.708 0 0 1 .666.471l1.718 4.827a.708.708 0 0 1-.661.947Z" transform="translate(-259.988 -157.435)"/>
    <g id="Group_359" data-name="Group 359" transform="translate(5.341 13.266)">
        <path id="Path_134" data-name="Path 134" class="cls-5" d="M93.838 263.019a.707.707 0 0 0-.666-.47h-5.877a.707.707 0 0 0-.666.47l-1.718 4.827a.707.707 0 0 0 .666.945h9.313a.707.707 0 0 0 .666-.945Z" transform="translate(-84.869 -262.549)"/>
        <path id="Path_135" data-name="Path 135" class="cls-5" d="M264.6 263.019a.707.707 0 0 0-.666-.47h-5.877a.707.707 0 0 0-.666.47l-1.718 4.827a.707.707 0 0 0 .666.945h9.313a.707.707 0 0 0 .666-.945Z" transform="translate(-244.884 -262.549)"/>
    </g>
    <path id="Path_136" data-name="Path 136" class="cls-6" d="M195.341 268.791h-1.556a.708.708 0 0 0 .666-.945l-1.718-4.827a.707.707 0 0 0-.666-.47h1.556a.707.707 0 0 1 .666.47l1.718 4.827a.708.708 0 0 1-.666.945Z" transform="translate(-179.979 -249.283)"/>
    <path id="Path_137" data-name="Path 137" class="cls-6" d="M366.1 268.791h-1.556a.708.708 0 0 0 .666-.945l-1.718-4.827a.706.706 0 0 0-.666-.47h1.556a.706.706 0 0 1 .666.47l1.718 4.827a.708.708 0 0 1-.666.945Z" transform="translate(-339.995 -249.283)"/>
</svg>
