<svg xmlns="http://www.w3.org/2000/svg" width="18" height="18" viewBox="0 0 18 18"><defs><style>.a{fill:#3a7bd1;}.b{fill:none;}</style></defs><path class="a" d="M7.4,8.4H6.8V9.6h.6Zm7.2,1.2h.6V8.4h-.6Zm-7.2,2.4H6.8v1.2h.6ZM14.6,13.2h.6V12h-.6ZM7.4,4.8H6.8V6h.6ZM12.2,6h.6V4.8h-.6ZM14.6.6l.424-.424L14.847,0H14.6Zm3.6,3.6h.6V3.952l-.176-.176ZM7.4,9.6h7.2V8.4H7.4Zm0,3.6,7.2.008V12l-7.2-.007ZM7.4,6l4.8,0V4.8l-4.8,0ZM17,16.8H5V18H17ZM4.4,16.2V1.8H3.2V16.2ZM5,1.2h9.6V0H5Zm12.6,3v12h1.2V4.2ZM14.176,1.024l3.6,3.6.848-.847-3.6-3.6ZM5,16.8a.6.6,0,0,1-.6-.6H3.2A1.8,1.8,0,0,0,5,18ZM17,18a1.8,1.8,0,0,0,1.8-1.8H17.6a.6.6,0,0,1-.6.6ZM4.4,1.8A.6.6,0,0,1,5,1.2V0A1.8,1.8,0,0,0,3.2,1.8Z" transform="translate(-2)"/><path class="b" d="M0,0H18V18H0Z"/></svg>