<svg xmlns="http://www.w3.org/2000/svg" xmlns:xlink="http://www.w3.org/1999/xlink" width="98.839" height="99.434" viewBox="0 0 98.839 99.434"><defs><style>.a{fill:#8dc640;}.b{opacity:0.2;}.c{fill:#fff;}.d{filter:url(#a);}</style><filter id="a" x="0" y="0.107" width="98.839" height="99.327" filterUnits="userSpaceOnUse"><feOffset dy="14" input="SourceAlpha"/><feGaussianBlur stdDeviation="4.5" result="b"/><feFlood flood-opacity="0.051"/><feComposite operator="in" in2="b"/><feComposite in="SourceGraphic"/></filter></defs><g transform="translate(13.199 0)"><g class="d" transform="matrix(1, 0, 0, 1, -13.2, 0)"><path class="a" d="M64.3,65.763c-11.007,8.985-45.376,8.985-56.159,0-11.007-8.985-9.884-47.4,0-57.507s46.275-10.109,56.159,0S75.307,56.778,64.3,65.763Z" transform="translate(13.2 -0.57)"/></g><g class="b" transform="translate(0.334 0)"><path class="c" d="M36.62,49.471C26.736,57.333,15.729,61.376,5.4,61.6-2.241,48.572-.669,16.9,8.316,7.689,16.4-.623,41.787-2.2,56.388,2.971,59.983,17.8,52.57,36.666,36.62,49.471Z" transform="translate(-0.509 0)"/></g><path class="c" d="M100.471,141.359a4.8,4.8,0,0,1-4.043-2.022L83.848,123.164a5.122,5.122,0,0,1,8.087-6.29l8.536,11.007L119.341,103.4a5.122,5.122,0,1,1,8.087,6.29l-22.913,29.652A5.875,5.875,0,0,1,100.471,141.359Z" transform="translate(-69.417 -85.374)"/></g></svg>