<svg id="Layer_1" data-name="Layer 1" xmlns="http://www.w3.org/2000/svg" viewBox="0 0 623 623"><path d="M689.5,684q-154.9,0-309.81,0c-1.38,0-1.69-.31-1.69-1.69q.06-309.81,0-619.62c0-1.38.31-1.69,1.69-1.69q309.81.06,619.62,0c1.38,0,1.69.31,1.69,1.69q-.06,309.81,0,619.62c0,1.38-.31,1.69-1.69,1.69Q844.41,683.94,689.5,684Z" transform="translate(-378 -61)" fill="#fdfdfd"/><path d="M689.33,679.18q-146,0-291.93,0a17.82,17.82,0,0,1-9.94-2.58,10.31,10.31,0,0,1-3.75-5,19.49,19.49,0,0,1-1.26-7.7q0-291.57,0-583.12c0-4.12.79-8,3.39-11.33A9.2,9.2,0,0,1,390,66.74a20.75,20.75,0,0,1,7.7-1.29H940.07c13.82,0,27.63,0,41.44,0A17.33,17.33,0,0,1,991.1,68a10.49,10.49,0,0,1,3.79,5,18.51,18.51,0,0,1,1.29,7.5V663.64c0,4.17-.69,8.13-3.34,11.53-1.19,1.52-2.94,2.17-4.6,2.84a19.51,19.51,0,0,1-7.35,1.17Z" transform="translate(-378 -61)" fill="#f9f9f9"/><path d="M990.28,70.24c1.44.24,2,1.25,2.63,2.48,2.14,4,1.79,8.33,1.79,12.61q0,289.8,0,579.62c0,3.64-1,7.2-3.87,9.8A9.58,9.58,0,0,1,985.7,677c-7.26,1.18-14.57.65-21.84.65q-280.7.06-561.39,0c-1.82,0-3.65-.08-5.46,0a7.3,7.3,0,0,1-3.14-.76c.13-.8.72-.71,1.26-.64a40.29,40.29,0,0,0,5.15.11H979.39a24.87,24.87,0,0,0,3.86-.11c.63-.2,1.29-.34,1.94-.51,3.59-1,6.27-2.9,7.28-6.68a10.85,10.85,0,0,1,.79-2,6.08,6.08,0,0,0,.15-2.44q0-291.4,0-582.8c0-.61,0-1.22,0-1.83a6,6,0,0,0-.09-2.42,33.49,33.49,0,0,0-3.21-6.86A.77.77,0,0,1,990.28,70.24Z" transform="translate(-378 -61)" fill="#f5f5f5"/><path d="M393.51,677c-3.69,0-6.19-2.08-7.87-5.47-1.53-3.08-1.72-6.21-1.72-9.49q0-290.82,0-581.65c0-3.12,1.1-5.87,2.26-8.64a2.61,2.61,0,0,1,2.19-1.48l.08.26c-1.28,2.23-2.66,4.43-3.12,7a7.13,7.13,0,0,0-.07,2.44c0,.67,0,1.35,0,2q0,291.33,0,582.66a8.46,8.46,0,0,0,.1,2.46,10.44,10.44,0,0,0,7.82,8.9A.81.81,0,0,1,393.51,677Z" transform="translate(-378 -61)" fill="#f5f5f5"/><path d="M990.28,70.24v.37a1.13,1.13,0,0,1-.9,0,20.4,20.4,0,0,0-7.58-1.93,51.27,51.27,0,0,0-5.28-.48q-287.26,0-574.54,0a32.72,32.72,0,0,0-12.06,1.92c-.51.19-1,.45-1.57.07h0a6.77,6.77,0,0,1,4.53-2.52,63.23,63.23,0,0,1,10.83-.78H976a12.84,12.84,0,0,1,4,.35c1.14.37,2.43-.36,3.29-.16C985.78,67.7,988.54,68,990.28,70.24Z" transform="translate(-378 -61)" fill="#f4f4f4"/><path d="M393.51,677l-.37-.74c1.17-.93,2.57-.3,3.83-.59,1.29,0,2.58,0,3.87,0H977.7c1.29,0,2.58,0,3.87,0,.83.27,2-.33,2.45,1a4.78,4.78,0,0,1-2.69.36H797.55q-200,0-400,0c-1.24,0-2.47-.55-3.71,0Z" transform="translate(-378 -61)" fill="#f4f4f4"/><path d="M396.82,676.23h-3.68c-4.54-.79-7.28-3.78-8.11-8.84,0-.75.18-1.55-.36-2.21V79.45c.54-.66.31-1.46.36-2.21a13.63,13.63,0,0,1,3.32-7c4.12-2.15,8.68-2.52,13.14-2.52q288.16-.09,576.32,0c4.23,0,8.73.15,12.47,2.86a18,18,0,0,1,3.32,6.63c0,.75-.18,1.55.37,2.21V665.18c-.55.66-.32,1.46-.37,2.21a3.35,3.35,0,0,0-.3.67c-1,5.1-4.39,7.65-9.28,8.54-.65-.67-1.47-.25-2.21-.37.21-1.22,1.18-1.13,2-1.11a2.73,2.73,0,0,0,2.26-.79c2.09-1.1,3.92-2.45,4.72-4.82a3.29,3.29,0,0,1,.82-1.21,23.8,23.8,0,0,0,.65-5.44c.09-2.21,0-4.42,0-6.63q0-286.28,0-572.55a24,24,0,0,0-.78-7.21,3.51,3.51,0,0,1-.8-1.42,6.47,6.47,0,0,0-4.49-4.23,2.82,2.82,0,0,1-1.45-.75c-1.93-1.08-4.1-.19-6.1-.73a6,6,0,0,0-1.47,0H401.38A33.71,33.71,0,0,0,394,70a2.68,2.68,0,0,1-1.4.78,6.27,6.27,0,0,0-4.87,4.37,4.22,4.22,0,0,1-.76,1.23,58.61,58.61,0,0,0-.6,7.48V662.32a38.74,38.74,0,0,0,.61,6c1.19,2.7,2.81,5,5.72,6.1.62.73,1.45.66,2.3.7S396.71,675,396.82,676.23Z" transform="translate(-378 -61)" fill="#f3f3f3"/><path d="M993.6,667.39a1.35,1.35,0,0,1,.37-2.21C993.85,665.92,994.27,666.74,993.6,667.39Z" transform="translate(-378 -61)" fill="#f4f4f4"/><path d="M994,79.45a1.35,1.35,0,0,1-.37-2.21C994.27,77.89,993.85,78.72,994,79.45Z" transform="translate(-378 -61)" fill="#f4f4f4"/><path d="M385,77.24a1.36,1.36,0,0,1-.36,2.21C384.78,78.72,384.37,77.89,385,77.24Z" transform="translate(-378 -61)" fill="#f4f4f4"/><path d="M384.67,665.18a1.36,1.36,0,0,1,.36,2.21C384.37,666.74,384.78,665.92,384.67,665.18Z" transform="translate(-378 -61)" fill="#f4f4f4"/><path d="M396.82,676.23a2.23,2.23,0,0,0-2.27-.67,1.83,1.83,0,0,1-2.15-.81,2.47,2.47,0,0,1,1.88-.58c1,0,2,0,2.94,0H981.85c1.46,0,2.94-.29,4.38.23-.19,1.28-1.13,1.29-2.07,1.17a2.4,2.4,0,0,0-2.35.67Z" transform="translate(-378 -61)" fill="#eee"/><path d="M986.23,674.39a4.82,4.82,0,0,1-2.7.36H392.4a9.17,9.17,0,0,1-5.52-5.52,22.32,22.32,0,0,1-.52-6.56q-.09-30,0-60,0-259.69,0-519.39a27.57,27.57,0,0,1,.53-7.47c.93-3.4,3.28-5.21,6.63-5.9,2.05-.85,4.23-.13,6.33-.53a6.82,6.82,0,0,1,1.28,0q288.21,0,576.4,0c1.9,0,3.78.29,5.69.17.68,0,1.53-.12,1.91.76,3.55.26,5.66,2.25,6.28,5.9a1.27,1.27,0,0,1,.71,1.37c-.08,1.78.2,3.55.2,5.33q0,289.81,0,579.62c0,1.6-.3,3.18-.21,4.78a1.9,1.9,0,0,1-.72,1.62A6.77,6.77,0,0,1,986.23,674.39Z" transform="translate(-378 -61)" fill="#fefefe"/><path d="M991.39,668.86a10.07,10.07,0,0,0,.38-2.89q0-293.67,0-587.32a4.42,4.42,0,0,0-.36-2.51c1.14-1,1.08.27,1.05.67-.14,2.16.43,4.26.43,6.4q0,204.33,0,408.66,0,85.17,0,170.35c0,1.88-.21,3.77-.4,5.66C992.4,668.38,992.41,669.26,991.39,668.86Z" transform="translate(-378 -61)" fill="#ececec"/><path d="M386.88,75.77V669.23c-1.37-1.74-.47-3.92-1.09-5.81a4.2,4.2,0,0,1,0-1.28q0-289.5,0-579c0-2.09.59-4.12.41-6.22C386.14,76.51,386.05,75.79,386.88,75.77Z" transform="translate(-378 -61)" fill="#ececec"/><path d="M985.12,70.24a4.78,4.78,0,0,0-2.69-.36H393.51c-.51-.09-.72-.39-.15-.59a4.28,4.28,0,0,1,2.15-.33c2.15.45,4.24-.22,6.37-.22q287.82.06,575.65.06c2.36,0,4.71.23,7.07.35C985.45,69.18,986,69.35,985.12,70.24Z" transform="translate(-378 -61)" fill="#ececec"/><path d="M558.15,286.49c.64-7,7.31-13.33,14.4-13.66a5.35,5.35,0,0,1,2.18-.15H755.19c1.08.28.66,1.06.43,1.6a58.62,58.62,0,0,0-4.28,16.88,1.68,1.68,0,0,1-.8,1.55,10.76,10.76,0,0,1-3.66.28H580.58c-4.09,0-3.75-.22-3.75,3.83V455.93c0,3.45,0,3.45,3.38,3.45H792.37c3.54,0,3.54,0,3.54-3.5q0-52.86,0-105.71a8.38,8.38,0,0,1,.32-3.45c.85-1,2-.8,3.08-.69a46.54,46.54,0,0,0,13.88-1c.7-.14,1.43-.48,2.11.09a3.2,3.2,0,0,0-.39,2.12q0,57.12,0,114.23c-.46.69.07,1.52-.34,2.22-.68,7.29-7.69,14.12-14.77,14.39a4.47,4.47,0,0,1-2,.15q-111.47,0-222.92,0a4.53,4.53,0,0,1-2-.15c-7.56-.19-14.24-7-14.75-14-.4-.57.08-1.3-.35-1.85V288.7C558.27,288,557.73,287.18,558.15,286.49Z" transform="translate(-378 -61)" fill="#ddd"/><path d="M750.79,292.39a56,56,0,0,1,4.87-19.52.9.9,0,0,1,.25-.39,51,51,0,0,1,37-28.15c1.56-.3,3.14-.43,4.71-.64,1-.33,2,.12,3-.28h3.17c1.09.43,2.26-.05,3.36.29,13.42,1.46,24.79,7.05,33.78,17.16A49.87,49.87,0,0,1,853.28,287a61.86,61.86,0,0,1,.76,6.91,5.73,5.73,0,0,1,0,2.54,52.05,52.05,0,0,1-5.84,22.42,51.25,51.25,0,0,1-11.81,15,53.49,53.49,0,0,1-15.53,9.48,20.25,20.25,0,0,1-5.55,1.79,56.48,56.48,0,0,1-12,1.71,61,61,0,0,1-6.74-.29c-2.82.44-5.52-.37-8.1-1.2-21.45-6.95-34.17-21.46-37.76-43.84a52.69,52.69,0,0,1-.3-7.53A2.19,2.19,0,0,1,750.79,292.39Z" transform="translate(-378 -61)" fill="#7cd7a3"/><path d="M583.43,157.52c-7,0-13.94,0-20.92.06a41.91,41.91,0,0,0-5.22.59c-1,.14-1.63.07-1.78-1.14-.22-1.84-.6-3.66-.88-5.5-.11-.71.5-.53.87-.59,1.27-.17,2.54-.32,3.81-.47.83-.3,1.75.15,2.57-.28l7-.08c4.62-.24,9.25-.05,13.87-.1.42,0,1,0,1,.55C583.63,152.88,584.17,155.23,583.43,157.52Z" transform="translate(-378 -61)" fill="#999"/><path d="M918.66,296c-1.9,0-3.8-.12-5.69-.05-1.14,0-1.46-.35-1.45-1.46,0-4.35,0-8.7,0-13,2.32-.73,4.68-.2,7-.28.48,0,.5.46.5.83,0,4.6,0,9.19,0,13.79C918.94,295.89,918.76,296,918.66,296Z" transform="translate(-378 -61)" fill="#999"/><path d="M918.66,427.18c-1.95,0-3.91-.09-5.86-.06-.94,0-1.28-.27-1.27-1.24,0-4,.05-8.07,0-12.1,0-1.08.4-1.36,1.4-1.33,2,.06,3.91,0,5.87,0,.44,3.54.14,7.09.16,10.63C919,424.45,919.41,425.87,918.66,427.18Z" transform="translate(-378 -61)" fill="#999"/><path d="M568.88,601.66c0-1.95.09-3.91.06-5.86,0-.94.27-1.28,1.24-1.27q6.06.08,12.1,0c1.07,0,1.36.4,1.33,1.4-.06,2,0,3.91,0,5.87-3.54.44-7.09.14-10.63.16C571.61,602,570.19,602.41,568.88,601.66Z" transform="translate(-378 -61)" fill="#999"/><path d="M918.74,383.35c-2,0-3.91-.07-5.87,0-1.07,0-1.35-.38-1.34-1.39,0-4,.06-7.95,0-11.92,0-1.21.5-1.41,1.53-1.38,1.9,0,3.79,0,5.69,0,.46.46.24,1,.24,1.56q0,5.79,0,11.57C919,382.31,919.2,382.89,918.74,383.35Z" transform="translate(-378 -61)" fill="#999"/><path d="M758.57,150.15c0,2,0,3.93,0,5.89,0,1-.21,1.45-1.31,1.43q-6.07-.08-12.15,0c-1,0-1.22-.42-1.21-1.32,0-1.84,0-3.68-.06-5.52a.92.92,0,0,1,1-.62C749.43,150.09,754,149.82,758.57,150.15Z" transform="translate(-378 -61)" fill="#999"/><path d="M802.4,150.23c0,1.89-.06,3.78,0,5.67,0,1.07-.31,1.57-1.45,1.56q-6,0-12.08,0c-.89,0-1.16-.34-1.15-1.19,0-2,0-4,0-6,2.47-.5,5-.19,7.45-.2S800,149.73,802.4,150.23Z" transform="translate(-378 -61)" fill="#999"/><path d="M671.26,150.23c0,1.9-.07,3.8,0,5.7,0,1.09-.36,1.54-1.48,1.53-4,0-8,0-12,0-1.12,0-1.32-.47-1.3-1.44.06-2,0-3.92,0-5.88A116.77,116.77,0,0,1,671.26,150.23Z" transform="translate(-378 -61)" fill="#999"/><path d="M474.52,397.89c0,4.2-.09,8.4,0,12.6,0,1.41-.35,2-1.85,1.91-1.76-.1-3.53,0-5.29,0-.54-.25-.32-.74-.33-1.13,0-4.11,0-8.21,0-12.32,0-1.12.3-1.57,1.45-1.44C470.45,397.77,472.53,397.16,474.52,397.89Z" transform="translate(-378 -61)" fill="#999"/><path d="M627.43,150.15c0,2,0,3.93,0,5.89,0,1-.2,1.45-1.31,1.43q-6.07-.08-12.15,0c-1,0-1.22-.42-1.2-1.32,0-1.84,0-3.68-.06-5.52a.91.91,0,0,1,1-.62C618.29,150.09,622.86,149.82,627.43,150.15Z" transform="translate(-378 -61)" fill="#999"/><path d="M467.26,485.05c1.89,0,3.79.07,5.68,0,1.09,0,1.54.32,1.53,1.46-.05,3.91,0,7.82,0,11.73,0,1.11-.42,1.52-1.52,1.49-1.89-.05-3.79,0-5.68,0-.48-.52-.24-1.17-.24-1.75q0-5.61,0-11.2C467,486.22,466.78,485.58,467.26,485.05Z" transform="translate(-378 -61)" fill="#999"/><path d="M467.26,353.91c1.9,0,3.79.07,5.68,0,1.1,0,1.54.33,1.53,1.46-.05,3.91,0,7.83,0,11.74,0,1.1-.41,1.52-1.52,1.49-1.89-.05-3.79,0-5.68,0-.46-.46-.24-1.05-.25-1.57,0-3.86,0-7.71,0-11.57C467,355,466.8,354.37,467.26,353.91Z" transform="translate(-378 -61)" fill="#999"/><path d="M903,212.32c-.7.13-.73-.49-.88-.8a80.37,80.37,0,0,0-5.76-10.34c-.48-.7-.12-.91.42-1.24,1.49-.91,3-1.83,4.41-2.85.88-.63,1.39-.52,1.88.41,1.93,3.68,4.12,7.22,5.83,11,.14.29.53.68,0,.93C906.92,210.43,904.94,211.37,903,212.32Z" transform="translate(-378 -61)" fill="#999"/><path d="M474.66,238.55l-5.86-1c-.53-.08-1-.22-.82-.9,1.07-4,1.18-8.13,2.54-12,.4-1.16,1-1.43,2-1.06,1.77.61,4.22.68,5.15,1.91s-.61,3.38-.94,5.16c-.38,2-.73,4.07-1.17,6.09C475.43,237.45,475.55,238.52,474.66,238.55Z" transform="translate(-378 -61)" fill="#999"/><path d="M883.39,576.75c0,.49-.27.62-.5.82a97.54,97.54,0,0,1-10.39,7.81c-.58.38-.77.27-1.08-.21q-1.5-2.4-3-4.76c-.34-.52-.52-.95.15-1.36a103,103,0,0,0,9.2-6.76c.82-.63,1.26-.68,1.91.1,1.09,1.32,2.26,2.57,3.39,3.86A5.19,5.19,0,0,1,883.39,576.75Z" transform="translate(-378 -61)" fill="#999"/><path d="M497.43,190c-.25.3-.49.56-.7.84-2.19,2.93-4.43,5.83-6.54,8.82-.7,1-1.15,1.2-2.15.4a36.25,36.25,0,0,0-3.62-2.36,1.29,1.29,0,0,1-.48-2.09,87.52,87.52,0,0,1,7.5-9.87c.42-.45.59-.48,1-.15l4.48,3.78A4.8,4.8,0,0,1,497.43,190Z" transform="translate(-378 -61)" fill="#999"/><path d="M539.21,597.69c-2.48-.9-5.09-1.83-7.68-2.8a24.46,24.46,0,0,0-3.33-1.39c-1.8-.41-1.63-1.26-1-2.54s1.06-2.45,1.58-3.69a1.28,1.28,0,0,1,2-.76,83.11,83.11,0,0,0,10.41,3.94c.52.17,1.17.29.83,1.24-.6,1.66-1.07,3.37-1.53,5.07A1.15,1.15,0,0,1,539.21,597.69Z" transform="translate(-378 -61)" fill="#999"/><path d="M918.91,503.06c-.25,3.1.07,6.22-.43,9.32-.24,1.51-.46,2.43-2.36,1.82a25.73,25.73,0,0,0-4.15-.52c-.76-.1-1.13-.25-1-1.36a64.41,64.41,0,0,0,.56-10.75c-.07-1.33.26-1.88,1.7-1.78,1.83.12,3.67,0,5.51,0C919.27,500.85,918.94,502,918.91,503.06Z" transform="translate(-378 -61)" fill="#999"/><path d="M506.84,571.44l-.61.72-2.52,2.89c-1.77,2-1.78,2-3.63.17l-7.38-7.39c-.8-.81-1.18-1.42.17-2.25a21.24,21.24,0,0,0,3.39-3c.57-.54,1.1-.81,1.71-.13a75.71,75.71,0,0,0,8.4,8.4A4.08,4.08,0,0,1,506.84,571.44Z" transform="translate(-378 -61)" fill="#999"/><path d="M714.58,157.52H700.53c-.74-2.3-.21-4.65-.28-7,0-.59.57-.53,1-.53h12.64c.42,0,1-.06,1,.53C714.79,152.87,715.31,155.22,714.58,157.52Z" transform="translate(-378 -61)" fill="#999"/><path d="M474.52,266.75V280.8c-2.3.73-4.65.21-7,.28-.59,0-.53-.57-.53-1q0-6.33,0-12.65c0-.41-.06-1,.53-1C469.87,266.54,472.22,266,474.52,266.75Z" transform="translate(-378 -61)" fill="#999"/><path d="M474.52,310.88c0,4-.12,7.93,0,11.89,0,1.54-.28,2.22-2,2.06s-3.53,0-5.3,0c-.44-3-.1-5.94-.19-8.9,0-1.52,0-3.05,0-4.57,0-.5,0-1.05.68-1.05,2.13,0,4.26-.13,6.39.08C474.3,310.37,474.44,310.64,474.52,310.88Z" transform="translate(-378 -61)" fill="#999"/><path d="M918.8,339.53c-1.77,0-3.55-.13-5.3,0s-2-.52-2-2.07c.09-3.84,0-7.68,0-11.52.16-.65.45-1,1.24-1,1.72.06,3.43,0,5.15,0,.58,0,1.14,0,1.12.82C918.88,330.37,919.24,335,918.8,339.53Z" transform="translate(-378 -61)" fill="#999"/><path d="M474.52,442.39v13.39c-2.3.73-4.66.21-7,.28-.58,0-.51-.59-.51-1,0-4.22,0-8.45,0-12.67,0-.68.22-1,.95-1,1.84,0,3.67,0,5.51,0C474.23,441.36,474.34,441.88,474.52,442.39Z" transform="translate(-378 -61)" fill="#999"/><path d="M911.47,470.52q0-6.7,0-13.4c.16-.65.45-1,1.25-1,1.71.06,3.42.05,5.14,0,.9,0,1.14.36,1.14,1.2,0,4.1,0,8.2,0,12.3,0,1-.31,1.34-1.26,1.25C915.66,470.65,913.53,471.26,911.47,470.52Z" transform="translate(-378 -61)" fill="#999"/><path d="M872.2,166.46a23.59,23.59,0,0,1,2.58,1.44c2.5,1.83,4.94,3.74,7.42,5.6.91.68,1.11,1.31.2,2.21-1.16,1.16-2.21,2.44-3.3,3.68-.47.52-.89.71-1.51.11-2.61-2.52-5.72-4.37-8.69-6.41-.78-.53-1-.7-.34-1.58a39.34,39.34,0,0,0,2.73-4.28A1.36,1.36,0,0,1,872.2,166.46Z" transform="translate(-378 -61)" fill="#999"/><path d="M830.27,594.21c-.46-1,.63-1.06,1.58-1.15a76.3,76.3,0,0,0,10.4-2c.91-.23,1.32-.21,1.56.78a48.89,48.89,0,0,0,1.37,4.72c.3.89.23,1.42-.78,1.56-4.11.56-8.09,1.78-12.22,2.22-.68.07-.95-.07-1-.81C831,598,830.63,596.35,830.27,594.21Z" transform="translate(-378 -61)" fill="#999"/><path d="M627.42,594.87v6.87c-.33.39-.79.25-1.2.25H613.75a1.52,1.52,0,0,1-1.06-.19v-7A114.92,114.92,0,0,1,627.42,594.87Z" transform="translate(-378 -61)" fill="#989898"/><path d="M475.29,538.89a23.55,23.55,0,0,1-3.24-7.53c-.07-.3.08-.71-.08-.9-1.87-2.3.13-2.27,1.55-2.71,4.55-1.41,4.56-1.44,6,3a48.43,48.43,0,0,0,2.69,6.79c.59,1.18.31,1.76-.85,2.22-1.47.6-2.9,1.27-4.32,2-.89.43-1.24,0-1.44-.75C475.23,540.35,475.75,539.54,475.29,538.89Z" transform="translate(-378 -61)" fill="#999"/><path d="M743.85,601.74v-6.87c2.35-.5,4.73-.21,7.09-.2,2.54,0,5.1-.32,7.64.2v6.87c-.46.46-1,.24-1.57.24-3.86,0-7.71,0-11.57,0C744.89,602,744.31,602.2,743.85,601.74Z" transform="translate(-378 -61)" fill="#999"/><path d="M714.74,594.79q0,3.5,0,7c-3.53.44-7.09.14-10.63.16-1.35,0-2.77.45-4.08-.3,0-1.89,0-3.77,0-5.66.29-.49,0-1.4,1.05-1.37C705.63,594.74,710.19,594.46,714.74,594.79Z" transform="translate(-378 -61)" fill="#999"/><path d="M787.68,601.8v-7c4.55-.33,9.11,0,13.66-.16,1.09,0,.76.88,1,1.37v5.66c-.19.47-.6.33-.94.33H788.55A1.32,1.32,0,0,1,787.68,601.8Z" transform="translate(-378 -61)" fill="#999"/><path d="M671.24,596v5.66c-.25.54-.74.32-1.13.33-4.1,0-8.21,0-12.31,0-1.1,0-1.54-.28-1.47-1.43.09-1.59,0-3.19,0-4.78,0-.86.26-1.19,1.15-1.18,4.16,0,8.33.06,12.49,0C671.16,594.58,671,595.38,671.24,596Z" transform="translate(-378 -61)" fill="#999"/><path d="M909.49,542.67c-.07.12-.12.23-.18.34-1.88,3.6-3.14,7.51-5.57,10.83-.4.55-.61,1-1.39.42-1.46-1-3-2-4.54-2.92-.72-.42-.73-.77-.34-1.43a103.7,103.7,0,0,0,5-9.7c.34-.73.68-.91,1.38-.58,1.59.76,3.2,1.47,4.78,2.25C909,542,909.59,542.05,909.49,542.67Z" transform="translate(-378 -61)" fill="#999"/><path d="M918,245.22c0,1.9,0,3.8,0,5.69,0,.93-.25,1.25-1.23,1.3-5.15.24-5.1.27-5.32-4.83-.11-2.41-.37-4.81-.68-7.2-.15-1.16.23-1.69,1.34-1.83,1.63-.2,3.25-.4,4.88-.64,1.12-.16,1,.65,1,1.28C918,241.07,918,243.15,918,245.22Z" transform="translate(-378 -61)" fill="#999"/><path d="M845.5,153.55c-.6,1.91-1.27,3.81-1.77,5.74-.25,1-.6,1.09-1.53.87a76.68,76.68,0,0,0-11.33-2.33c-.57-.05-.81-.32-.69-1,.28-1.55.5-3.11.66-4.67.09-.92.54-1.05,1.32-.91,3,.57,6.08,1.11,9.12,1.66.53.09,1.08.14,1.62.21C843.71,153.63,844.7,153,845.5,153.55Z" transform="translate(-378 -61)" fill="#999"/><path d="M529.68,165.46c0,.55-.45.61-.74.75a93,93,0,0,0-10.41,5.72c-.57.38-.83.21-1.14-.31-.91-1.5-1.81-3-2.83-4.43-.69-.94-.33-1.34.48-1.86a6.86,6.86,0,0,1,4.58-.7,2.86,2.86,0,0,0,3.45-2.46c.35-1.6,1.58-2,2.75-2.62.35-.18.79-.25,1,.07C528.1,161.42,528.66,163.58,529.68,165.46Z" transform="translate(-378 -61)" fill="#999"/><path d="M572.91,478.06H799.82c-.55.58-1.27.34-1.91.34q-111.54,0-223.08,0C574.19,478.4,573.47,478.64,572.91,478.06Z" transform="translate(-378 -61)" fill="#fcfcfc"/><path d="M755.91,272.48l-.25.39-2.76,0H572.55c.68-.63,1.52-.33,2.29-.33Q665.37,272.47,755.91,272.48Z" transform="translate(-378 -61)" fill="#fcfcfc"/><path d="M671.24,596a1.53,1.53,0,0,0-1.8-1.31c-3.8.08-7.6.07-11.4,0-1.21,0-1.66.36-1.56,1.57.14,1.76-.71,4,.31,5.17s3.35.4,5.09.39a69.61,69.61,0,0,0,9.36-.17c-.28.69-.9.52-1.42.52-4.05,0-8.1,0-12.15,0-1.07,0-1.58-.27-1.53-1.44.08-1.66.06-3.32,0-5,0-1.07.42-1.37,1.42-1.36,4.11,0,8.22.05,12.33,0C671.13,594.41,671.39,595,671.24,596Z" transform="translate(-378 -61)" fill="#fcfcfc"/><path d="M474.52,442.39a1.44,1.44,0,0,0-1.39-.94c-6-.44-6-.46-6,5.42,0,2.57,0,5.15,0,7.73,0,1,.27,1.46,1.34,1.39,2-.14,4,.2,6-.21-1.07,1.11-2.43.46-3.63.49-4.08.1-4.08,0-4.08-4,0-3.07.09-6.14,0-9.21-.06-1.58.51-2,2-1.92a44.09,44.09,0,0,0,4.6,0C474.25,441.17,474.64,441.51,474.52,442.39Z" transform="translate(-378 -61)" fill="#fcfcfc"/><path d="M911.47,470.52c2.13.41,4.28.09,6.42.19.88,0,1-.51,1-1.19q0-6.07,0-12.15c0-.58,0-1.14-.82-1.14-1.85,0-3.69,0-5.53,0-.65,0-.75.52-1,.9-.12-.87.27-1.21,1.14-1.19,1.78,0,3.56,0,5.34,0,1,0,1.24.47,1.24,1.36,0,4.17,0,8.34,0,12.51,0,.56,0,1.22-.76,1.22-2.2,0-4.4,0-6.6-.1C911.7,470.91,911.59,470.65,911.47,470.52Z" transform="translate(-378 -61)" fill="#fcfcfc"/><path d="M714.58,157.52c.42-2.12.09-4.27.19-6.41,0-.83-.42-1-1.15-1q-6.06,0-12.14,0c-.73,0-1.19.2-1.15,1,.1,2.14-.22,4.29.19,6.41-.83-.4-.52-1.17-.5-1.78.05-1.88-.8-4.28.33-5.5s3.59-.35,5.46-.41c2.56-.08,5.14,0,7.7,0,1.17,0,1.68.3,1.61,1.54-.08,1.59,0,3.18,0,4.78C715.09,156.63,715.27,157.24,714.58,157.52Z" transform="translate(-378 -61)" fill="#fcfcfc"/><path d="M474.52,266.75c-2.12-.43-4.26-.09-6.39-.2-.86,0-1,.47-1,1.17q0,6,0,12.11c0,.7.13,1.2,1,1.16,2.13-.1,4.27.23,6.39-.19-.46.88-1.3.52-2,.5-1.82,0-4.14.78-5.33-.32s-.35-3.47-.4-5.28c-.07-2.63,0-5.26,0-7.89,0-1.16.3-1.68,1.55-1.61,1.58.09,3.17,0,4.77,0C473.63,266.23,474.24,266.06,474.52,266.75Z" transform="translate(-378 -61)" fill="#fcfcfc"/><path d="M918.8,339.53q0-6.58.05-13.17c0-.62.06-1.28-.87-1.28-1.83,0-3.66,0-5.49,0-.64,0-.74.53-1,.91-.12-.87.26-1.21,1.13-1.2,1.84,0,3.67,0,5.5,0,.65,0,1.07.21,1.07.94q0,6.67-.07,13.37C919.11,339.24,918.91,339.38,918.8,339.53Z" transform="translate(-378 -61)" fill="#fcfcfc"/><path d="M583.43,157.52c.42-2.12.1-4.27.19-6.41.06-1.16-.77-1-1.5-1l-13.24,0c.71-.55,1.54-.28,2.3-.28,3.73,0,7.47,0,11.19,0,1.17,0,1.68.31,1.61,1.55-.08,1.58,0,3.18,0,4.77C584,156.63,584.12,157.24,583.43,157.52Z" transform="translate(-378 -61)" fill="#fcfcfc"/><path d="M918.66,296c.43-4.58.08-9.18.19-13.76,0-.69-.27-1-1-1-2.13.09-4.28-.23-6.41.19,1-1.07,2.3-.47,3.44-.49,4.28-.09,4.28,0,4.28,4.29,0,3,0,6,0,9C919.17,294.87,919.49,295.63,918.66,296Z" transform="translate(-378 -61)" fill="#fcfcfc"/><path d="M474.52,397.89c-2.12-.42-4.27-.1-6.4-.19-.7,0-1,.3-1,1,.12,4.58-.23,9.17.2,13.75-.69-.28-.52-.89-.52-1.41,0-4,0-8.06,0-12.09,0-1.18.33-1.66,1.56-1.6,1.58.09,3.17,0,4.76,0C473.63,397.38,474.24,397.2,474.52,397.89Z" transform="translate(-378 -61)" fill="#fcfcfc"/><path d="M474.52,310.88c-2.19-1.18-4.53-.36-6.8-.46-.76,0-.57.82-.57,1.32q0,6.52.05,13.05c-.13-.26-.36-.52-.36-.79,0-4.27,0-8.55,0-12.83,0-.61.13-1.1.88-1.1h6.05C474.28,310.07,474.51,310.37,474.52,310.88Z" transform="translate(-378 -61)" fill="#fcfcfc"/><path d="M714.74,594.79c-4.38,0-8.75,0-13.12-.1-1.07,0-1.33.55-1.59,1.31-.07-.84-.1-1.58,1.13-1.56,4.25,0,8.51,0,12.76,0A2.94,2.94,0,0,1,714.74,594.79Z" transform="translate(-378 -61)" fill="#fcfcfc"/><path d="M802.38,596c-.26-.76-.52-1.33-1.59-1.31-4.37.1-8.74.08-13.12.1.38-.43.88-.34,1.36-.34,4,0,7.91,0,11.86,0C802.09,594.41,802.59,594.8,802.38,596Z" transform="translate(-378 -61)" fill="#fcfcfc"/><path d="M758.57,150.15l-13.23-.07a1.64,1.64,0,0,0-1.48.55c0-.63.38-.82.95-.82l13.31.06C758.27,149.88,758.42,150.05,758.57,150.15Z" transform="translate(-378 -61)" fill="#fcfcfc"/><path d="M627.43,150.15l-13.24-.07a1.63,1.63,0,0,0-1.47.55c0-.63.38-.82.95-.82l13.31.06C627.13,149.88,627.28,150.05,627.43,150.15Z" transform="translate(-378 -61)" fill="#fcfcfc"/><path d="M467.26,353.91c-.2,4.9-.19,9.81,0,14.71-.54-.3-.44-.82-.44-1.3q0-6.06,0-12.11C466.82,354.73,466.72,354.2,467.26,353.91Z" transform="translate(-378 -61)" fill="#fcfcfc"/><path d="M918.74,383.35c.19-4.9.2-9.8,0-14.7.54.29.44.81.44,1.29q0,6.06,0,12.12C919.18,382.53,919.28,383.06,918.74,383.35Z" transform="translate(-378 -61)" fill="#fcfcfc"/><path d="M918.66,427.18c.41-4.9.14-9.81.14-14.71.76,4.83.42,9.68.16,14.52C919,427.06,918.76,427.12,918.66,427.18Z" transform="translate(-378 -61)" fill="#fcfcfc"/><path d="M743.85,601.74q7.35.28,14.71,0c-.3.54-.82.44-1.3.44q-6.06,0-12.11,0C744.67,602.18,744.15,602.28,743.85,601.74Z" transform="translate(-378 -61)" fill="#fcfcfc"/><path d="M627.42,594.87c-4.91-.29-9.82-.15-14.73-.08a1.35,1.35,0,0,1,1.18-.34h12.24C626.59,594.45,627.11,594.35,627.42,594.87Z" transform="translate(-378 -61)" fill="#fcfcfc"/><path d="M758.57,594.87q-7.37-.36-14.73,0c.27-.45.71-.42,1.13-.42h12.46C757.86,594.45,758.3,594.42,758.57,594.87Z" transform="translate(-378 -61)" fill="#fcfcfc"/><path d="M467.26,485.05c-.2,4.91-.19,9.81,0,14.71-.54-.3-.44-.82-.44-1.3q0-6,0-12.11C466.82,485.87,466.72,485.35,467.26,485.05Z" transform="translate(-378 -61)" fill="#fefefe"/><path d="M568.88,601.66c4.9.41,9.81.14,14.71.14-4.83.76-9.68.42-14.52.16C569,602,568.94,601.76,568.88,601.66Z" transform="translate(-378 -61)" fill="#fcfcfc"/><path d="M612.69,601.8c4.91.06,9.82.17,14.72-.06-.24.46-.68.45-1.11.45H613.67A1.07,1.07,0,0,1,612.69,601.8Z" transform="translate(-378 -61)" fill="#fcfcfc"/><path d="M700,601.66c4.9.41,9.81.14,14.71.14-4.83.76-9.68.42-14.52.16C700.14,602,700.09,601.76,700,601.66Z" transform="translate(-378 -61)" fill="#fcfcfc"/><path d="M787.68,601.8c4.9,0,9.8.27,14.7-.14-.18.51-.61.52-1,.52-4.23,0-8.45,0-12.68,0A1,1,0,0,1,787.68,601.8Z" transform="translate(-378 -61)" fill="#fcfcfc"/><path d="M671.26,150.23c-4.91-.29-9.82-.14-14.73-.08a1.37,1.37,0,0,1,1.18-.34H670C670.42,149.81,670.94,149.72,671.26,150.23Z" transform="translate(-378 -61)" fill="#fcfcfc"/><path d="M802.4,150.23q-7.36-.36-14.72,0c.26-.44.7-.42,1.13-.42h12.46C801.7,149.81,802.14,149.79,802.4,150.23Z" transform="translate(-378 -61)" fill="#fcfcfc"/><path d="M807.18,243.69c-1.13,0-2.28.23-3.36-.29C804.94,243.5,806.1,243.07,807.18,243.69Z" transform="translate(-378 -61)" fill="#fcfcfc"/><path d="M918.91,503.06c-.06-1.09-.12-2.18-.17-3.27C919.54,500.84,919.27,502,918.91,503.06Z" transform="translate(-378 -61)" fill="#fcfcfc"/><path d="M800.65,243.41a6.17,6.17,0,0,1-3,.28C798.6,243.08,799.65,243.49,800.65,243.41Z" transform="translate(-378 -61)" fill="#fcfcfc"/><path d="M561.88,150.19a4.81,4.81,0,0,1-2.57.28C560.11,149.91,561,150.29,561.88,150.19Z" transform="translate(-378 -61)" fill="#fcfcfc"/><path d="M845.5,153.55c-.85-.25-1.8.14-2.6-.41C843.76,153.28,844.74,152.75,845.5,153.55Z" transform="translate(-378 -61)" fill="#fcfcfc"/><path d="M854,296.41v-2.54A2.46,2.46,0,0,1,854,296.41Z" transform="translate(-378 -61)" fill="#fcfcfc"/><path d="M475.29,538.89c.62.63.21,1.42.33,2.13C475,540.39,475.39,539.6,475.29,538.89Z" transform="translate(-378 -61)" fill="#fefefe"/><path d="M814.59,463.67c.08-.75-.29-1.56.34-2.22C814.82,462.19,815.22,463,814.59,463.67Z" transform="translate(-378 -61)" fill="#fcfcfc"/><path d="M558.15,286.49c-.09.74.29,1.56-.34,2.21C557.91,288,557.52,287.15,558.15,286.49Z" transform="translate(-378 -61)" fill="#fcfcfc"/><path d="M557.81,462.19c.58.53.29,1.22.35,1.85C557.56,463.51,557.89,462.81,557.81,462.19Z" transform="translate(-378 -61)" fill="#fcfcfc"/><path d="M750.79,292.39a50.5,50.5,0,0,0,3.38,21.08c7.12,17.48,20,28.25,38.39,32.33,1.31.29,2.64.48,4,.72v111c0,2.43,0,2.43-2.35,2.43q-107.8,0-215.63,0c-1.82,0-2.37-.38-2.37-2.31q.09-81.57,0-163.15c0-1.35,0-2.24,1.86-2.24q86.28.09,172.55.05Z" transform="translate(-378 -61)" fill="#f6f6f6"/><path d="M797.93,278.19c0-3.31,0-6.62,0-9.94,0-2.83,1.84-4.84,4.38-4.91s4.54,2,4.55,5c0,6.81,0,13.62,0,20.43,0,1.47.41,1.85,1.85,1.84,6.87-.07,13.75,0,20.62,0a4.43,4.43,0,0,1,4.21,2.43,4.29,4.29,0,0,1-.22,4.7,4.89,4.89,0,0,1-4.48,2c-6.62,0-13.25.07-19.87,0-1.75,0-2.13.52-2.11,2.17.09,6.8,0,13.62,0,20.43a4.25,4.25,0,0,1-2.88,4.26,4.75,4.75,0,0,1-5.17-1.44,4.87,4.87,0,0,1-.88-3.3c0-6.75,0-13.5,0-20.25,0-1.44-.38-1.88-1.85-1.86-6.75.08-13.5.05-20.25,0-3,0-4.92-1.62-5.14-4.17-.24-2.89,1.71-5,4.82-5,6.74,0,13.49-.09,20.24,0,1.84,0,2.26-.54,2.19-2.27C797.83,284.94,797.93,281.57,797.93,278.19Z" transform="translate(-378 -61)" fill="#fefefe"/><path d="M686.24,416.5H649.61c-6.24,0-10.39-4.12-10.39-10.35q0-21.92,0-43.82a9.74,9.74,0,0,1,9.53-9.9c4.58-.25,7.86-2.4,9.6-6.75,2.39-6,5.3-7.92,11.77-7.92,11,0,22,0,33,0,3.61,0,6.93.87,9.27,3.95a17.45,17.45,0,0,1,2.08,4.08,9.9,9.9,0,0,0,9.29,6.62c5.59.29,9.75,4.32,9.77,9.91q.1,22.28,0,44.55a9.87,9.87,0,0,1-10.06,9.62Q704.85,416.52,686.24,416.5Z" transform="translate(-378 -61)" fill="#83ceee"/><path d="M667.57,380.26a18.8,18.8,0,1,1,18.83,18.88A19,19,0,0,1,667.57,380.26Z" transform="translate(-378 -61)" fill="#798184"/></svg>