<svg xmlns="http://www.w3.org/2000/svg" width="95" height="95">
    <defs>
        <filter id="a" x="0" y="0" width="95" height="95" filterUnits="userSpaceOnUse">
            <feOffset/>
            <feGaussianBlur stdDeviation="2" result="b"/>
            <feFlood flood-opacity=".161"/>
            <feComposite operator="in" in2="b"/>
            <feComposite in="SourceGraphic"/>
        </filter>
        <style>
            .a{fill:#fff}
        </style>
    </defs>
    <rect class="a" width="83" height="83" rx="5" transform="translate(5.996 6)" style="filter:url(#a)"/>
    <g transform="translate(29.471 29.817)" style="opacity:.71">
        <path d="M32.97 131.809H2.269A2.269 2.269 0 0 1 0 129.539v-23.653a2.269 2.269 0 0 1 2.269-2.269H35.24v25.922a2.269 2.269 0 0 1-2.27 2.27Z" transform="translate(0 -99.61)" style="fill:#d1d1d1"/>
        <path transform="translate(2.488 6.703)" style="fill:#f4f4f4" d="M0 0h30.265v23.009H0z"/>
        <path d="m150.891 217.633-.14-.337a1.343 1.343 0 0 0-1.24-.827H144.5a1.343 1.343 0 0 0-1.24.827l-.14.337a1.343 1.343 0 0 1-1.24.827 1.343 1.343 0 0 0-1.343 1.343v6.1a1.343 1.343 0 0 0 1.343 1.343h10.249a1.343 1.343 0 0 0 1.343-1.343v-6.1a1.343 1.343 0 0 0-1.343-1.343 1.343 1.343 0 0 1-1.238-.827Z" transform="translate(-129.387 -203.508)" style="fill:#53bce9"/>
        <circle cx="2.584" cy="2.584" r="2.584" transform="translate(15.035 16.182)" style="fill:#435054"/>
        <circle cx="7.089" cy="7.089" r="7.089" transform="translate(26.451)" style="fill:#47c97f"/>
        <path class="a" d="M33.54 11.442a.622.622 0 0 1-.622-.622V3.358a.622.622 0 0 1 1.244 0v7.462a.622.622 0 0 1-.622.622Z"/>
        <path class="a" d="M37.271 7.711h-7.462a.622.622 0 0 1 0-1.244h7.462a.622.622 0 0 1 0 1.244Z"/>
    </g>
    <path d="M14 0h2v1h-2V0Zm6 0h2v1h-2Zm6 0h2v1h-2Zm6 0h2v1h-2Zm6 0h2v1h-2Zm6 0h2v1h-2Zm5.994.141q.593.084 1.168.218h.021l.031.007.031.007h.021l.034.018h.032l.019.009.02.005h.011l.02.005.02.005h.011l.02.005.02.005h.01l.02.005.02.005h.01l.02.005.02.005h.01l.02.005h.031l.019.005h.032l.02.005h.03l.019.005H51.929l-.281.96a12.968 12.968 0 0 0-1.813-.393l.141-.99Zm5.578 2.081.168.11.017.011h.007l.008.006.008.005h.006l.008.005h.006l.008.005h.007l.008.005.008.005h.006l.009.006.008.005.01.007h.01l.018.013.025.017.025.018a14.06 14.06 0 0 1 1.182.92l-.655.755a13.1 13.1 0 0 0-1.439-1.052l.542-.841Zm4.21 4.212.1.154.005.008.005.009V6.655l.006.011v.006a13.962 13.962 0 0 1 .78 1.469l-.91.416a13.016 13.016 0 0 0-.89-1.628l.841-.541Zm2.079 5.579V13.972c0 .003 0 0 0 0v.008c0 .002 0 0 0 0L62 14v.006h-1V14a13.172 13.172 0 0 0-.13-1.847l.99-.141ZM61 18.006h1v2h-1Zm0 6h1v2h-1Zm0 6h1v2h-1Zm0 6h1v2h-1Zm0 6h1v2h-1Zm0 6h1c0 .187 0 .372-.011.557V49.208c0 .044-.008.088-.012.133q-.031.331-.078.657l-.99-.142a13.168 13.168 0 0 0 .091-1.85Zm-1.174 5.4.909.416q-.18.394-.384.774V54.679l-.007.013v.006l-.011.02q-.225.406-.477.8l-.84-.542a13.013 13.013 0 0 0 .81-1.568Zm-3.319 4.423.655.756a14.054 14.054 0 0 1-1.6 1.2l-.541-.841a13.1 13.1 0 0 0 1.485-1.113Zm-4.853 2.651.281.96c-.093.027-.185.053-.279.078h-.01l-.02.005-.02.005h-.17l-.022.006-.022.006a13.935 13.935 0 0 1-1.407.274l-.14-.99a12.969 12.969 0 0 0 1.809-.344Zm-7.667.52h2v1h-2Zm-6 0h2v1h-2Zm-6 0h2v1h-2Zm-6 0h2v1h-2Zm-6 0h2v1h-2Zm-6 0h2v1h-2Zm-5.4-1.177a12.943 12.943 0 0 0 1.737.65l-.282.959a13.89 13.89 0 0 1-1.871-.7ZM4.165 56.5a13.13 13.13 0 0 0 1.311 1.314l-.656.755q-.377-.328-.731-.682l-.022-.022-.021-.021-.016-.016-.014-.015-.014-.014-.007-.007-.006-.006-.006-.006v-.005L3.9 57.7l-.005-.006-.006-.007-.006-.006-.006-.006-.005-.005-.013-.014-.006-.007-.014-.015-.031-.034-.014-.015q-.2-.209-.385-.427Zm-2.646-4.852a12.945 12.945 0 0 0 .646 1.738l-.91.415-.064-.142-.012-.028-.009-.02v-.007l-.006-.013V53.355L1 53.2V53.034l-.122-.144v-.042l-.007-.019v-.006l-.007-.02-.008-.021v-.007l-.008-.021v-.007l-.04-.047-.008-.032-.007-.021v-.007l-.007-.021-.01-.029-.01-.029-.01-.029-.007-.022-.01-.029-.007-.022v-.007l-.007-.021v-.007l-.025-.03V52.365l-.007-.021v-.007l-.007-.021V52.169L.68 52.15v-.009l-.08-.08-.039-.131ZM0 45.981h1v2H0Zm0-6h1v2H0Zm0-6h1v2H0Zm0-6h1v2H0Zm0-6h1v2H0Zm0-6h1v2H0Zm.569-5.946.959.283a12.967 12.967 0 0 0-.4 1.812l-.99-.142q.077-.534.193-1.054V10.72q.139-.347.238-.685Zm2.864-5.22.754.656a13.1 13.1 0 0 0-1.115 1.484l-.84-.543q.364-.563.78-1.089l.02-.023.019-.024.013-.016.006-.01.006-.007.006-.008v-.012l.018-.014v-.012l.006-.007.006-.008.014-.017v-.006q.182-.199.307-.343ZM8.2 1.252l.414.91a13.014 13.014 0 0 0-1.624.888l-.54-.842.05-.031.026-.017.017-.011.008-.005.017-.011h.008l.024-.017h.007l.008-.016h.015l.008-.005h.015l.008-.005h.062l.008-.005h.014L6.784 2H7.41l.017-.009H7.501l.018-.009h.009l.018-.009.028-.014.226-.513c.135-.067.27-.131.407-.193ZM14 0v1a13.172 13.172 0 0 0-1.829.128l-.139-.99q.594-.084 1.2-.117H14Z" transform="translate(17.001 17)" style="fill:#707070;opacity:.71"/>
</svg>
