<svg id="Layer_1" data-name="Layer 1" xmlns="http://www.w3.org/2000/svg" viewBox="0 0 619 619"><path d="M997,707H378V88H997Z" transform="translate(-378 -88)" fill="#fefefe"/><path d="M800.79,115.14c63.33.31,109.28,30.59,136.55,86,29.07,59,20.63,116.76-22.86,165.63-41.91,47.07-87.71,90.7-132.05,135.6-48.59,49.22-98.87,96.86-145.81,147.59-44.71,48.32-124,47.52-166.66,5.55-43.49-42.74-46.52-119.73,1.88-166.45,65.51-63.23,129-128.51,194.15-192.15,34.53-33.76,76.93-35.46,107.34-6.42,29.91,28.57,28.58,76.72-4.68,110.47-57.94,58.78-116.72,116.74-175.18,175-4.28,4.27-8.23,9.44-13.4,12.1-7.76,4-16.83,5.05-23.62-2.06s-6.14-16.25-1.47-23.63c4.45-7,11.34-12.57,17.34-18.58q78.45-78.58,156.95-157.13c6.84-6.85,13.85-13.69,19.68-21.37,11.75-15.46,12.72-31.57-1.79-45.78-14.35-14.06-30.64-12.09-46.59-2.4-4.09,2.49-7.58,6.09-11,9.51-63.64,63.36-127.71,126.3-190.66,190.35-34.43,35-34.47,77.62-2.58,109.9,26.52,26.83,69.41,30.58,99.37,7,15.18-11.94,28.38-26.46,42.05-40.24Q758.27,472.09,878.57,350.3c34.8-35.28,45.28-77.6,27.91-123.6-29.88-79.11-125.93-99.93-188-40.45-71,68.05-140.09,138.15-210,207.34C492,409.81,475.72,426.13,459,442c-9.94,9.41-19.08,26.16-35.68,10.4-19-18,.45-27.84,10.53-37.95q99-99.26,198.73-197.74c19.81-19.67,39.16-39.85,59.55-58.9C725,127,756.52,115.2,800.79,115.14Z" transform="translate(-378 -88)"/></svg>