<svg id="Layer_1" data-name="Layer 1" xmlns="http://www.w3.org/2000/svg" viewBox="0 0 654 654"><path d="M1001,260.39V299c-7.45,20.29-13,41.15-29.75,57.1-14.28,13.63-12.32,33-12.44,50.92-.44,65.51.65,131-.49,196.51-.86,49.83-12.12,61.3-62.22,61.54Q676.74,666.1,457.36,665c-49.31-.31-60.19-12.15-60.86-62.73-.84-64.22-.55-128.45-.07-192.67.18-25.32-5.12-46.72-22.78-66.88-27.93-31.88-31.44-70.42-12.84-107.83,21.11-42.49,45.43-83.41,69.36-124.45,15.63-26.81,38.65-39.08,70-39q177,.33,354.07,0c33.16-.11,56.24,13.74,72.31,41.83C953.88,161,984.56,207.06,1001,260.39Z" transform="translate(-347 -38)" fill="#010101"/><path d="M1001,260.39,896.15,86.17h-439c-32.89,57.91-69,116.65-99.78,178.09C345,288.84,362.1,314,379.42,333.76c8.16,9.33,19.08,16.25,30.62,25.82V647.93H944.48V358c27-12.67,40.91-36.64,56.52-59.08V692H347V38h654Z" transform="translate(-347 -38)" fill="#fefefe"/><path d="M653.79,617.94c0-53.73.53-105-.15-156.34-.67-50.32-23.15-69.32-79.75-69.19-54.41.12-75.57,18.36-76.28,67.9-.75,52.28-.17,104.59-.17,156.24-20.45,5.87-36.59,5.12-55.1,1.25V366.22c29.38-4.13,58.12-13.17,78.34-37.68,70.76,46.79,99.89,46.72,156.29-1.12,22.23,17.13,44.1,35.84,76.16,35.83s55.43-15.42,78.51-36.38c22.61,21.79,46.87,37.63,80.68,36.75V617.94Z" transform="translate(-347 -38)" fill="#fdfdfd"/><path d="M474.62,118.25H880l73.65,129.44H402.13C426.61,204,450,162.22,474.62,118.25Z" transform="translate(-347 -38)" fill="#fdfdfd"/><path d="M622.6,618.72H532.19V437c23.78-20.73,51.07-12.71,83.7-7.59C628.9,490.75,618.39,552.94,622.6,618.72Z" transform="translate(-347 -38)" fill="#fbfbfb"/><path d="M540.78,283.94H657c-4.65,30.86-23.14,44.43-50.79,47C574.15,333.94,554.17,318,540.78,283.94Z" transform="translate(-347 -38)" fill="#fafafa"/><path d="M848.65,284H964.39c-2.93,29.59-21.43,42.53-46.25,46.49C884.9,335.79,862.48,320.63,848.65,284Z" transform="translate(-347 -38)" fill="#fafafa"/><path d="M390.06,284.62H504.14c-6.46,29.5-24.33,44.89-53.47,46.36C419.38,332.55,398.53,318.76,390.06,284.62Z" transform="translate(-347 -38)" fill="#fafafa"/><path d="M696.35,283.8h115c-4.79,30.16-23.18,44.23-50.49,47C728.72,334,707.34,319.7,696.35,283.8Z" transform="translate(-347 -38)" fill="#fafafa"/><path d="M769.85,548.46c-14.05,0-28.15.77-42.14-.16-28.67-1.9-44.52-16.78-44.26-46.64.81-89.61-15.94-113.53,101.78-109.65,60.07,2,72.06,12.14,72.3,71.3,0,9,.17,17.91,0,26.86-1,44.39-13.6,57.32-57,58.57-10.21.29-20.43,0-30.65,0Z" transform="translate(-347 -38)" fill="#040404"/><path d="M823.05,514.34H716.53c-2.47-29.17-3.29-56.57,1-86,34.6-7.28,68.38-3.45,103.31-2.37C827.53,456.63,825.4,483.94,823.05,514.34Z" transform="translate(-347 -38)" fill="#fbfbfb"/></svg>