<svg id="Layer_1" data-name="Layer 1" xmlns="http://www.w3.org/2000/svg" width="612.27" height="611.63" viewBox="0 0 612.27 611.63"><path d="M354.37,660.38c-79.4,0-158.8.43-238.2-.17-46.1-.35-67.48-21.63-67.64-67.64q-.69-197.15,0-394.27c.14-45.93,20.9-68.5,67.09-68,27.23.27,37.53-7.59,33.37-34.42-1.24-8-.49-16.43.12-24.6,1.08-14.27,8.11-23.16,23.49-22.17,14.4.89,16,11.48,17.61,23.12,7.71,57.21,7.9,57.18,67.66,57.18,72.55,0,145.16-1.69,217.64.77,32.73,1.11,49.46-5.67,43.2-41.6-1.38-7.9-.29-16.43.83-24.51C520.8,55,526.67,49.71,536.1,49c11-.86,19.74,3.9,21.44,14.53a168.38,168.38,0,0,1,1.63,40.8c-1.72,19.88,6,24.88,25.48,25.72,60.68,2.61,75.63,19.49,75.7,80.48q.2,186.87,0,373.74c-.1,56.64-19.39,75.88-76,76.08C507.69,660.59,431,660.38,354.37,660.38Z" transform="translate(-48.18 -48.9)" fill="#010101"/><path d="M354.63,619.13c-76.61,0-153.23-.73-229.82.4-26.39.39-36.32-8.71-36-35.6,1.16-87.54,1-175.11,0-262.66-.22-20.43,4.25-28.35,26.79-28.21q238,1.45,476.07.07c21.06-.1,28.21,5.17,27.9,27.18-1.2,87.54-1.44,175.13,0,262.66.5,30-12.26,37-39.31,36.59C505.13,618.35,429.87,619.14,354.63,619.13Z" transform="translate(-48.18 -48.9)" fill="#fefefe"/><path d="M354.23,252.59c-76.53,0-153.07-.64-229.59.38-23.81.31-40.11-1.72-35.81-32.24,3.21-22.81-8-50.24,33.64-49.85q231.62,2.15,463.26,0c41.49-.38,30.7,26.8,33.87,49.77,4.21,30.46-11.87,32.65-35.79,32.33C507.29,251.94,430.76,252.59,354.23,252.59Z" transform="translate(-48.18 -48.9)" fill="#fcfcfc"/><path d="M352.83,578.77c-25.87,0-51.76.4-77.61-.2-10.08-.24-18.52-4.79-20.19-16.35-1.59-11,3.22-21.06,13.54-21.68,29.1-1.74,24.95-21.6,25.17-40.42.66-57.32,49-85.62,100-58.85,20.47,10.75,20.77,30.1,21.32,49.39.62,21.56-8,47.59,27.55,51.1,9.13.9,11.67,10.52,11,19.3-1.12,14.23-11.92,17.56-23.16,17.85-25.86.67-51.75.21-77.63.21Z" transform="translate(-48.18 -48.9)" fill="#020202"/><path d="M379,372.6c.64,22.87-7.78,33.5-25.93,33-16-.43-24.69-10.35-23.41-26.41,1.41-17.67,6.4-40.68,23.87-41.59C373.43,336.57,372.62,362.32,379,372.6Z" transform="translate(-48.18 -48.9)" fill="#080808"/><path d="M376.58,507.94c1.64,17,1.34,31.13-23.75,30.43-27.5-.77-19.64-19.47-20.78-34.13-1.22-15.82-.94-28.27,21.91-28.58C380.18,475.3,377.32,491.07,376.58,507.94Z" transform="translate(-48.18 -48.9)" fill="#e3e3e3"/></svg>