<svg xmlns="http://www.w3.org/2000/svg" width="16.377" height="16.111" viewBox="0 0 16.377 16.111"><g transform="translate(0 1.387)"><path d="M15.05,17.593a8.132,8.132,0,0,0-2.429-2.1c-.432-.246-.954-.274-1.2.165a9.856,9.856,0,0,1-.779.852,1.451,1.451,0,0,1-2.064-.2L7.009,14.739,5.442,13.171a1.451,1.451,0,0,1-.2-2.064,9.855,9.855,0,0,1,.852-.779c.439-.247.412-.768.165-1.2A8.132,8.132,0,0,0,4.155,6.7a1.073,1.073,0,0,0-1.261.19L2.2,7.581c-2.2,2.2-1.115,4.676,1.081,6.872L5.29,16.46,7.3,18.467c2.2,2.2,4.676,3.278,6.872,1.081l.693-.693A1.075,1.075,0,0,0,15.05,17.593Z" transform="translate(-0.726 -6.299)" fill="#52c306"/><path d="M10.824,20.292a3.9,3.9,0,0,1-.88-.1,7.8,7.8,0,0,1-3.567-2.26L2.363,13.913c-2.728-2.727-3.1-5.237-1.081-7.257l.693-.693a1.339,1.339,0,0,1,1.582-.238A8.238,8.238,0,0,1,5.763,8.258a1.35,1.35,0,0,1,.178,1.018.908.908,0,0,1-.422.545,9.05,9.05,0,0,0-.783.708,1.181,1.181,0,0,0,.172,1.718l3.135,3.135a1.182,1.182,0,0,0,1.718.172,9.251,9.251,0,0,0,.708-.783.908.908,0,0,1,.545-.422,1.344,1.344,0,0,1,1.016.176,8.25,8.25,0,0,1,2.535,2.209h0a1.34,1.34,0,0,1-.238,1.582l-.693.693A3.923,3.923,0,0,1,10.824,20.292ZM2.925,6.114a.8.8,0,0,0-.565.235l-.693.693C-.125,8.835.239,11.017,2.749,13.527l4.014,4.014c2.51,2.511,4.693,2.874,6.486,1.081l.693-.693a.8.8,0,0,0,.142-.941h0A7.589,7.589,0,0,0,11.757,15a.842.842,0,0,0-.6-.123.368.368,0,0,0-.228.187L10.9,15.1a8.069,8.069,0,0,1-.835.9,1.722,1.722,0,0,1-2.411-.237L4.523,12.633a1.722,1.722,0,0,1-.238-2.411,8.076,8.076,0,0,1,.9-.836l.041-.028a.368.368,0,0,0,.187-.228.839.839,0,0,0-.125-.6A7.928,7.928,0,0,0,3.3,6.207.807.807,0,0,0,2.925,6.114Z" transform="translate(0 -5.567)" fill="#388f04"/></g><path d="M31.273,43.419h-.028a5.7,5.7,0,0,1-3.166-1.442.273.273,0,0,1,.383-.389A5.235,5.235,0,0,0,31.3,42.874a.273.273,0,0,1-.028.545Z" transform="translate(-20.355 -30.311)" fill="#388f04"/><path d="M12.907,23.056a.271.271,0,0,1-.173-.063A5.213,5.213,0,0,1,11,19.809a.273.273,0,0,1,.543-.057,4.739,4.739,0,0,0,1.54,2.82.273.273,0,0,1-.174.484Z" transform="translate(-7.995 -14.316)" fill="#388f04"/><g transform="translate(7.196)"><path d="M26.635.487a.273.273,0,0,0,0,.546A8.372,8.372,0,0,1,35,9.4a.273.273,0,0,0,.546,0A8.918,8.918,0,0,0,26.635.487Z" transform="translate(-26.362 -0.487)" fill="#efce4a"/><path d="M26.635,7.517a.273.273,0,1,0,0,.546,6.45,6.45,0,0,1,6.443,6.443.273.273,0,1,0,.546,0A7,7,0,0,0,26.635,7.517Z" transform="translate(-26.362 -5.598)" fill="#efce4a"/><path d="M26.635,14.547a.273.273,0,0,0,0,.546,4.53,4.53,0,0,1,4.524,4.524.273.273,0,1,0,.546,0A5.076,5.076,0,0,0,26.635,14.547Z" transform="translate(-26.362 -10.709)" fill="#efce4a"/></g></svg>