<svg id="Layer_1" data-name="Layer 1" xmlns="http://www.w3.org/2000/svg" viewBox="0 0 726 726"><path d="M1011.44,387.26c0,112.3-.54,224.6.55,336.88.18,18.34-3.55,21.92-21.87,21.86Q649,744.79,307.85,746c-18.31.06-21.91-3.54-21.85-21.85q1.22-341.14,0-682.3c-.06-18.31,3.54-21.91,21.85-21.85Q649,21.21,990.12,20c18.32-.06,22,3.52,21.87,21.86C1010.91,157,1011.44,272.13,1011.44,387.26Z" transform="translate(-286 -20)" fill="#fefefe"/><path d="M643.68,668.71c-80.89,0-161.78.29-242.67-.09-62.57-.3-90-28.08-90.19-91.25q-.45-155.4,0-310.8c.22-57.46,31.1-88.4,88.89-90.48,9.92-.35,19.92-.81,29.78,0,35.32,3,64.61,2.52,75.34-43.63,6.71-28.85,35.71-43,66.77-43.43,48.25-.64,96.51-.8,144.75,0,38.56.63,64.09,20.94,75.28,57.35,6.61,21.51,16.21,31.83,41.34,30.16,123.55-8.21,152.82,18.94,147,147.89-3.86,85-.43,170.27-.88,255.42-.32,59.59-29,88.37-88.49,88.72C808.3,669.06,726,668.71,643.68,668.71Z" transform="translate(-286 -20)"/><path d="M641.81,626.06c-78.06,0-156.14-.76-234.18.33-37.77.53-53.81-14.83-53.31-53.3,1.32-99.34,1.52-198.72-.09-298-.64-39.15,14.94-55.14,53.15-51.37,9.84,1,20-.82,29.77.29,52.16,5.9,95.45-.11,104.24-65.24,2.48-18.37,19.55-27,38.35-27.16,42.58-.33,85.16-.15,127.74-.12,29.95,0,42,19.14,47.37,45,7.45,35.76,26.73,49,65.44,48.44,127.84-1.95,114-16,114.35,111.62.24,78.07-1.3,156.17.6,234.19,1,40.42-15,56.5-55,55.81C800.79,625.1,721.29,626.06,641.81,626.06Z" transform="translate(-286 -20)" fill="#fefefe"/><path d="M814.16,411.6c.81,89-77.52,168.68-167.32,170.25C558,583.41,478.1,505.76,475.71,415.46S554.35,242.77,645.08,243C734.21,243.24,813.35,322.15,814.16,411.6Z" transform="translate(-286 -20)" fill="#020202"/><path d="M892.33,288.52c-2.74,13.87-10,21.42-22.75,21.87-13,.46-21.14-5.91-21.44-19.66-.32-15.26,7.13-23.67,22.76-22.53C883.89,269.14,889.63,278.15,892.33,288.52Z" transform="translate(-286 -20)" fill="#0f0f0f"/><path d="M642.25,534c-68.51-.73-119.45-52.89-119.24-122.1.21-69.74,55.1-123.63,124.57-122.28,67.08,1.3,119.67,55.56,119.55,123.35C767,482.86,713.48,534.73,642.25,534Z" transform="translate(-286 -20)" fill="#fefefe"/></svg>