<svg id="Layer_1" data-name="Layer 1" xmlns="http://www.w3.org/2000/svg" width="670.07" height="580.34" viewBox="0 0 670.07 580.34"><path d="M357.68,648.71c-80.89,0-161.78.29-242.67-.09-62.57-.3-90-28.08-90.19-91.25q-.45-155.4,0-310.8c.22-57.46,31.1-88.4,88.89-90.48,9.92-.35,19.92-.81,29.78,0,35.32,3,64.61,2.52,75.34-43.63,6.71-28.85,35.71-43,66.77-43.43,48.25-.64,96.51-.8,144.75,0,38.56.63,64.09,20.94,75.28,57.35,6.61,21.51,16.21,31.83,41.34,30.16,123.55-8.21,152.82,18.94,147,147.89-3.86,85-.43,170.27-.88,255.42-.32,59.59-29,88.37-88.49,88.72C522.3,649.06,440,648.71,357.68,648.71Z" transform="translate(-24.59 -68.49)"/><path d="M355.81,606.06c-78.06,0-156.14-.76-234.18.33-37.77.53-53.81-14.83-53.31-53.3,1.32-99.34,1.52-198.72-.09-298-.64-39.15,14.94-55.14,53.15-51.37,9.84,1,20-.82,29.77.29,52.16,5.9,95.45-.11,104.24-65.24,2.48-18.37,19.55-27,38.35-27.16,42.58-.33,85.16-.15,127.74-.12,29.95,0,42,19.14,47.37,45,7.45,35.76,26.73,49,65.44,48.44,127.84-2,114-16,114.35,111.62.24,78.07-1.3,156.17.6,234.19,1,40.42-15,56.5-55,55.81C514.79,605.1,435.29,606.06,355.81,606.06Z" transform="translate(-24.59 -68.49)" fill="#fefefe"/><path d="M528.16,391.6c.81,89-77.52,168.68-167.32,170.25C272,563.41,192.1,485.76,189.71,395.46S268.35,222.77,359.08,223C448.21,223.24,527.35,302.15,528.16,391.6Z" transform="translate(-24.59 -68.49)" fill="#020202"/><path d="M606.33,268.52c-2.74,13.87-10,21.42-22.75,21.87-13,.46-21.14-5.91-21.44-19.66-.32-15.26,7.13-23.67,22.76-22.53C597.89,249.14,603.63,258.15,606.33,268.52Z" transform="translate(-24.59 -68.49)" fill="#0f0f0f"/><path d="M356.25,514C287.74,513.27,236.8,461.11,237,391.9c.21-69.74,55.1-123.63,124.57-122.28,67.08,1.3,119.67,55.56,119.55,123.35C481,462.86,427.48,514.73,356.25,514Z" transform="translate(-24.59 -68.49)" fill="#fefefe"/></svg>