<svg id="Layer_1" data-name="Layer 1" xmlns="http://www.w3.org/2000/svg" width="477.35" height="542.6" viewBox="0 0 477.35 542.6"><path d="M213.44,549c-24.73-5.81-49.57-11.2-74.14-17.59a294.66,294.66,0,0,1-39.58-13.25C70.18,505.8,40.39,490.21,39.78,454c-.6-35,28.4-50.53,56.37-63.45,27.44-12.67,56.52-20.16,91.71-25.08-20.19-31.54-39.41-60.66-57.71-90.36-63.84-103.59-7.65-238.4,110-263.93C314.28-4.88,374,19.81,419.24,78.65,462.46,135,465.11,211.34,428,272.56c-18.25,30.14-37.81,59.49-58.41,91.76,36.33,7.79,69.74,14.3,99.83,30.42,24.27,13,47.93,28.64,47.7,59.58-.21,29.33-22.71,44.21-45.92,57.26-41.92,23.57-89.54,26.17-134.8,37.42Z" transform="translate(-39.77 -6.4)" fill="#010101"/><path d="M278.11,448.87C233,376.78,187.53,310.57,149,240.53c-32.21-58.57-10.55-132.6,42.53-173,54.21-41.21,125.12-39.67,178.4,3.87,49.73,40.64,68.79,115.48,36.83,172C367.94,312.14,323.19,377.5,278.11,448.87Z" transform="translate(-39.77 -6.4)" fill="#fefefe"/><path d="M279.6,516.65c-61.74.85-122.23-5.74-178.71-33.08-12.61-6.11-27.23-12.73-28.36-28.22-1.31-18,15.31-24.62,28.12-31.81,27.52-15.46,58.55-20.39,88.78-27.75,12.83-3.13,19.58,2.12,25.91,12.65,14.37,23.88,29.91,47,44.89,70.57,12.34,19.36,24.32,18.57,36.32-.32,10.36-16.3,23.34-31.45,30.76-49,14.2-33.48,36.54-39.54,68.6-28.05,23.17,8.31,47.84,12.7,68.67,26.82,26.89,18.23,26.93,33.93-1,50.71-43.57,26.19-93,31.52-142,37.21C307.74,518,293.59,516.65,279.6,516.65Z" transform="translate(-39.77 -6.4)" fill="#fefefe"/><path d="M357.64,183.43c-.54,44.58-36.09,78.25-81.56,77.25-43.75-1-77-34.79-77-78.4,0-44.18,35.95-80.18,79.77-79.84S358.18,139.35,357.64,183.43Z" transform="translate(-39.77 -6.4)" fill="#020202"/><path d="M324.71,181.14c.45,26.25-19.17,47.81-44.62,49-24.93,1.2-47.07-19.72-48.14-45.49-1.21-28.86,18-49.52,46.18-49.61C305.11,135,324.24,153.92,324.71,181.14Z" transform="translate(-39.77 -6.4)" fill="#fbfbfb"/></svg>