<svg id="Layer_1" data-name="Layer 1" xmlns="http://www.w3.org/2000/svg" viewBox="0 0 549 549"><path d="M591.44,659H378V110H927V659H714.42c2-17.74,16.79-13.27,27.11-14.68,39.91-5.45,78.39-15.11,113.12-36.2,39.41-23.93,41.12-57.11,4.24-85-26.43-20-57.92-27.84-89.44-35.69-27.76-6.92-29.7-12.19-15.82-37.82,12.84-23.71,28.6-45.62,43-68.37,43.31-68.36,31.11-158.4-28.4-212.22-61.3-55.44-148.66-59.77-210.5-10.43-69.48,55.42-88,142.62-45.61,216.76,13.38,23.38,30.35,44.53,44,67.74,18.42,31.26,15.9,37.37-18.9,45.78-28.47,6.88-56.46,14.88-80.69,31.94-40.22,28.32-38.55,63.63,3.93,89,32.05,19.13,67.66,27.36,103.88,34C574.59,645.78,589.6,641.29,591.44,659Z" transform="translate(-378 -110)" fill="#fefefe"/><path d="M591.44,659c-24.73-5.81-49.57-11.2-74.14-17.59a295.13,295.13,0,0,1-39.58-13.25c-29.54-12.36-59.33-27.95-59.94-64.12-.6-35,28.4-50.53,56.37-63.45,27.44-12.67,56.52-20.16,91.71-25.08-20.19-31.54-39.41-60.66-57.71-90.36-63.84-103.59-7.65-238.4,110-263.93,74.13-16.1,133.88,8.59,179.09,67.43C840.46,245,843.11,321.34,806,382.56c-18.25,30.14-37.81,59.49-58.41,91.76,36.33,7.79,69.74,14.3,99.83,30.42,24.27,13,47.93,28.64,47.7,59.58-.21,29.33-22.71,44.21-45.92,57.26-41.92,23.57-89.54,26.17-134.8,37.42Z" transform="translate(-378 -110)" fill="#010101"/><path d="M656.11,558.87C611,486.78,565.53,420.57,527,350.53c-32.21-58.57-10.55-132.6,42.53-173,54.21-41.21,125.12-39.67,178.4,3.87,49.73,40.64,68.79,115.48,36.83,172C745.94,422.14,701.19,487.5,656.11,558.87Z" transform="translate(-378 -110)" fill="#fefefe"/><path d="M657.6,626.65c-61.74.85-122.23-5.74-178.71-33.08-12.61-6.11-27.23-12.73-28.36-28.22-1.31-18,15.31-24.62,28.12-31.81,27.52-15.46,58.55-20.39,88.78-27.75,12.83-3.13,19.58,2.12,25.91,12.65,14.37,23.88,29.91,47,44.89,70.57,12.34,19.36,24.32,18.57,36.32-.32,10.36-16.3,23.34-31.45,30.76-49,14.2-33.48,36.54-39.54,68.6-28.05,23.17,8.31,47.84,12.7,68.67,26.82,26.89,18.23,26.93,33.93-1,50.71-43.57,26.19-93,31.52-142.05,37.21C685.74,628,671.59,626.65,657.6,626.65Z" transform="translate(-378 -110)" fill="#fefefe"/><path d="M735.64,293.43c-.54,44.58-36.09,78.25-81.56,77.25-43.75-1-77-34.79-77-78.4,0-44.18,35.95-80.18,79.77-79.84S736.18,249.35,735.64,293.43Z" transform="translate(-378 -110)" fill="#020202"/><path d="M702.71,291.14c.45,26.25-19.17,47.81-44.62,49-24.93,1.2-47.07-19.72-48.14-45.49-1.21-28.86,18-49.52,46.18-49.61C683.11,245,702.24,263.92,702.71,291.14Z" transform="translate(-378 -110)" fill="#fbfbfb"/></svg>