<svg id="Layer_1" data-name="Layer 1" xmlns="http://www.w3.org/2000/svg" viewBox="0 0 786 786"><path d="M1018.51,619.46c0,46.09-.76,92.2.44,138.26.4,15.24-1.85,19.3-18.61,19.25q-373.47-1.15-746.95,0c-19,.06-20.42-6.29-20.39-22q.67-371,0-742c0-15.65,1.37-22,20.38-22q373.47,1.27,747,0C1017-9,1019.4-5,1019,10.27c-1.25,43-.44,86-.44,129-63.14-41.72-134.43-31.76-204-31.85q-233.18-.3-466.35.08c-72.86.21-90.67,17.51-91.1,89.54q-1.08,182.3,0,364.61c.43,72,18.24,89.38,91.1,89.54,187.77.41,375.57-1.44,563.29,1.36C953.13,653.21,983,630.59,1018.51,619.46Z" transform="translate(-233 9)" fill="#fdfdfd"/><path d="M1018.51,619.46c-20.34,37.27-50.79,51.75-94,51.4-196.84-1.57-393.71-.42-590.57-.83-66.53-.14-91.16-25.45-91.29-92.24q-.37-198.31,0-396.63c.13-66.57,25.12-92.29,91.27-92.42,196.86-.4,393.72.77,590.57-.86,43.33-.36,73.36,14.76,94,51.43Z" transform="translate(-233 9)"/><path d="M289.39,188.75c105,90.91,203.24,173.77,298.57,259.88,31.47,28.42,52,30.65,84.6,1.09,95.38-86.55,194-169.58,291.32-254,14.44,10,7.73,23.39,7.79,34.31.59,115.2-.54,230.43.91,345.62.44,34.3-11.93,45.26-45.83,45.06q-297.35-1.77-594.73-.08c-32.12.16-43.36-11.3-43.08-43C290,451.82,289.39,326,289.39,188.75Z" transform="translate(-233 9)" fill="#fefefe"/><path d="M950.56,142.89C847.79,232.15,750.15,316.2,653.62,401.51c-17.49,15.46-28.4,15.2-45.7-.06-96.6-85.24-194.23-169.3-297-258.56Z" transform="translate(-233 9)" fill="#fefefe"/></svg>