<svg xmlns="http://www.w3.org/2000/svg" width="36.396" height="30.049" viewBox="0 0 36.396 30.049"><g transform="translate(-224 111.049)"><g transform="translate(224 -101)"><g fill="none" stroke="#000" stroke-width="1"><rect width="32" height="20" rx="2" stroke="none"/><rect x="0.5" y="0.5" width="31" height="19" rx="1.5" fill="none"/></g><g fill="none" stroke="#000" stroke-width="1"><rect width="32" height="20" rx="2" stroke="none"/><rect x="0.5" y="0.5" width="31" height="19" rx="1.5" fill="none"/></g><g fill="none" stroke="#000" stroke-width="1"><rect width="32" height="20" rx="2" stroke="none"/><rect x="0.5" y="0.5" width="31" height="19" rx="1.5" fill="none"/></g><g fill="none" stroke="#000" stroke-width="1"><rect width="32" height="20" rx="2" stroke="none"/><rect x="0.5" y="0.5" width="31" height="19" rx="1.5" fill="none"/></g><g fill="none" stroke="#000" stroke-width="1"><rect width="32" height="20" rx="2" stroke="none"/><rect x="0.5" y="0.5" width="31" height="19" rx="1.5" fill="none"/></g><g fill="none" stroke="#000" stroke-width="1"><rect width="32" height="20" rx="2" stroke="none"/><rect x="0.5" y="0.5" width="31" height="19" rx="1.5" fill="none"/></g><g fill="none" stroke="#000" stroke-width="1"><rect width="32" height="20" rx="2" stroke="none"/><rect x="0.5" y="0.5" width="31" height="19" rx="1.5" fill="none"/></g><g fill="none" stroke="#000" stroke-width="1"><rect width="32" height="20" rx="2" stroke="none"/><rect x="0.5" y="0.5" width="31" height="19" rx="1.5" fill="none"/></g><g transform="translate(2.946 2.705)" fill="none"><path d="M4.925,0H21.9l2.339,2.745L26,4.631v6.262L24.237,12.7,21.9,14.589H4.925c-.552,0-4.817-3.7-4.817-3.7V4.631l2.1-2.376Z" stroke="none"/><path d="M 5.286291122436523 0.9999961853027344 L 2.907566070556641 2.974749565124512 L 1.108760833740234 5.009589195251465 L 1.108760833740234 10.43380832672119 C 2.389726638793945 11.52964210510254 4.465993881225586 13.23759269714355 5.097328186035156 13.58901596069336 L 21.5450325012207 13.58901596069336 L 23.5621452331543 11.96231937408447 L 25 10.48596096038818 L 25 5.025616645812988 L 23.47546005249023 3.393476486206055 L 21.43626403808594 0.9999961853027344 L 5.286291122436523 0.9999961853027344 M 4.925291061401367 -3.814697265625e-06 L 21.89801025390625 -3.814697265625e-06 L 24.23666000366211 2.744956016540527 L 26 4.630955696105957 L 26 10.8924560546875 L 24.23666000366211 12.70301628112793 L 21.89801025390625 14.58901596069336 L 4.925291061401367 14.58901596069336 C 4.373010635375977 14.58901596069336 0.1087608337402344 10.8924560546875 0.1087608337402344 10.8924560546875 L 0.1087608337402344 4.630955696105957 L 2.209470748901367 2.254595756530762 L 4.925291061401367 -3.814697265625e-06 Z" stroke="none" fill="#000"/></g><g transform="translate(2.946 2.705)" fill="none"><path d="M4.925,0H21.9l2.339,2.745L26,4.631v6.262L24.237,12.7,21.9,14.589H4.925c-.552,0-4.817-3.7-4.817-3.7V4.631l2.1-2.376Z" stroke="none"/><path d="M 5.286291122436523 0.9999961853027344 L 2.907566070556641 2.974749565124512 L 1.108760833740234 5.009589195251465 L 1.108760833740234 10.43380832672119 C 2.389726638793945 11.52964210510254 4.465993881225586 13.23759269714355 5.097328186035156 13.58901596069336 L 21.5450325012207 13.58901596069336 L 23.5621452331543 11.96231937408447 L 25 10.48596096038818 L 25 5.025616645812988 L 23.47546005249023 3.393476486206055 L 21.43626403808594 0.9999961853027344 L 5.286291122436523 0.9999961853027344 M 4.925291061401367 -3.814697265625e-06 L 21.89801025390625 -3.814697265625e-06 L 24.23666000366211 2.744956016540527 L 26 4.630955696105957 L 26 10.8924560546875 L 24.23666000366211 12.70301628112793 L 21.89801025390625 14.58901596069336 L 4.925291061401367 14.58901596069336 C 4.373010635375977 14.58901596069336 0.1087608337402344 10.8924560546875 0.1087608337402344 10.8924560546875 L 0.1087608337402344 4.630955696105957 L 2.209470748901367 2.254595756530762 L 4.925291061401367 -3.814697265625e-06 Z" stroke="none" fill="#000"/></g><g transform="translate(2.946 2.705)" fill="none"><path d="M4.925,0H21.9l2.339,2.745L26,4.631v6.262L24.237,12.7,21.9,14.589H4.925c-.552,0-4.817-3.7-4.817-3.7V4.631l2.1-2.376Z" stroke="none"/><path d="M 5.286291122436523 0.9999961853027344 L 2.907566070556641 2.974749565124512 L 1.108760833740234 5.009589195251465 L 1.108760833740234 10.43380832672119 C 2.389726638793945 11.52964210510254 4.465993881225586 13.23759269714355 5.097328186035156 13.58901596069336 L 21.5450325012207 13.58901596069336 L 23.5621452331543 11.96231937408447 L 25 10.48596096038818 L 25 5.025616645812988 L 23.47546005249023 3.393476486206055 L 21.43626403808594 0.9999961853027344 L 5.286291122436523 0.9999961853027344 M 4.925291061401367 -3.814697265625e-06 L 21.89801025390625 -3.814697265625e-06 L 24.23666000366211 2.744956016540527 L 26 4.630955696105957 L 26 10.8924560546875 L 24.23666000366211 12.70301628112793 L 21.89801025390625 14.58901596069336 L 4.925291061401367 14.58901596069336 C 4.373010635375977 14.58901596069336 0.1087608337402344 10.8924560546875 0.1087608337402344 10.8924560546875 L 0.1087608337402344 4.630955696105957 L 2.209470748901367 2.254595756530762 L 4.925291061401367 -3.814697265625e-06 Z" stroke="none" fill="#000"/></g><g transform="translate(2.946 2.705)" fill="none"><path d="M4.925,0H21.9l2.339,2.745L26,4.631v6.262L24.237,12.7,21.9,14.589H4.925c-.552,0-4.817-3.7-4.817-3.7V4.631l2.1-2.376Z" stroke="none"/><path d="M 5.286291122436523 0.9999961853027344 L 2.907566070556641 2.974749565124512 L 1.108760833740234 5.009589195251465 L 1.108760833740234 10.43380832672119 C 2.389726638793945 11.52964210510254 4.465993881225586 13.23759269714355 5.097328186035156 13.58901596069336 L 21.5450325012207 13.58901596069336 L 23.5621452331543 11.96231937408447 L 25 10.48596096038818 L 25 5.025616645812988 L 23.47546005249023 3.393476486206055 L 21.43626403808594 0.9999961853027344 L 5.286291122436523 0.9999961853027344 M 4.925291061401367 -3.814697265625e-06 L 21.89801025390625 -3.814697265625e-06 L 24.23666000366211 2.744956016540527 L 26 4.630955696105957 L 26 10.8924560546875 L 24.23666000366211 12.70301628112793 L 21.89801025390625 14.58901596069336 L 4.925291061401367 14.58901596069336 C 4.373010635375977 14.58901596069336 0.1087608337402344 10.8924560546875 0.1087608337402344 10.8924560546875 L 0.1087608337402344 4.630955696105957 L 2.209470748901367 2.254595756530762 L 4.925291061401367 -3.814697265625e-06 Z" stroke="none" fill="#000"/></g><g transform="translate(2.946 2.705)" fill="none"><path d="M4.925,0H21.9l2.339,2.745L26,4.631v6.262L24.237,12.7,21.9,14.589H4.925c-.552,0-4.817-3.7-4.817-3.7V4.631l2.1-2.376Z" stroke="none"/><path d="M 5.286291122436523 0.9999961853027344 L 2.907566070556641 2.974749565124512 L 1.108760833740234 5.009589195251465 L 1.108760833740234 10.43380832672119 C 2.389726638793945 11.52964210510254 4.465993881225586 13.23759269714355 5.097328186035156 13.58901596069336 L 21.5450325012207 13.58901596069336 L 23.5621452331543 11.96231937408447 L 25 10.48596096038818 L 25 5.025616645812988 L 23.47546005249023 3.393476486206055 L 21.43626403808594 0.9999961853027344 L 5.286291122436523 0.9999961853027344 M 4.925291061401367 -3.814697265625e-06 L 21.89801025390625 -3.814697265625e-06 L 24.23666000366211 2.744956016540527 L 26 4.630955696105957 L 26 10.8924560546875 L 24.23666000366211 12.70301628112793 L 21.89801025390625 14.58901596069336 L 4.925291061401367 14.58901596069336 C 4.373010635375977 14.58901596069336 0.1087608337402344 10.8924560546875 0.1087608337402344 10.8924560546875 L 0.1087608337402344 4.630955696105957 L 2.209470748901367 2.254595756530762 L 4.925291061401367 -3.814697265625e-06 Z" stroke="none" fill="#000"/></g><g transform="translate(2.946 2.705)" fill="none"><path d="M4.925,0H21.9l2.339,2.745L26,4.631v6.262L24.237,12.7,21.9,14.589H4.925c-.552,0-4.817-3.7-4.817-3.7V4.631l2.1-2.376Z" stroke="none"/><path d="M 5.286291122436523 0.9999961853027344 L 2.907566070556641 2.974749565124512 L 1.108760833740234 5.009589195251465 L 1.108760833740234 10.43380832672119 C 2.389726638793945 11.52964210510254 4.465993881225586 13.23759269714355 5.097328186035156 13.58901596069336 L 21.5450325012207 13.58901596069336 L 23.5621452331543 11.96231937408447 L 25 10.48596096038818 L 25 5.025616645812988 L 23.47546005249023 3.393476486206055 L 21.43626403808594 0.9999961853027344 L 5.286291122436523 0.9999961853027344 M 4.925291061401367 -3.814697265625e-06 L 21.89801025390625 -3.814697265625e-06 L 24.23666000366211 2.744956016540527 L 26 4.630955696105957 L 26 10.8924560546875 L 24.23666000366211 12.70301628112793 L 21.89801025390625 14.58901596069336 L 4.925291061401367 14.58901596069336 C 4.373010635375977 14.58901596069336 0.1087608337402344 10.8924560546875 0.1087608337402344 10.8924560546875 L 0.1087608337402344 4.630955696105957 L 2.209470748901367 2.254595756530762 L 4.925291061401367 -3.814697265625e-06 Z" stroke="none" fill="#000"/></g><g transform="translate(2.946 2.705)" fill="none"><path d="M4.925,0H21.9l2.339,2.745L26,4.631v6.262L24.237,12.7,21.9,14.589H4.925c-.552,0-4.817-3.7-4.817-3.7V4.631l2.1-2.376Z" stroke="none"/><path d="M 5.286291122436523 0.9999961853027344 L 2.907566070556641 2.974749565124512 L 1.108760833740234 5.009589195251465 L 1.108760833740234 10.43380832672119 C 2.389726638793945 11.52964210510254 4.465993881225586 13.23759269714355 5.097328186035156 13.58901596069336 L 21.5450325012207 13.58901596069336 L 23.5621452331543 11.96231937408447 L 25 10.48596096038818 L 25 5.025616645812988 L 23.47546005249023 3.393476486206055 L 21.43626403808594 0.9999961853027344 L 5.286291122436523 0.9999961853027344 M 4.925291061401367 -3.814697265625e-06 L 21.89801025390625 -3.814697265625e-06 L 24.23666000366211 2.744956016540527 L 26 4.630955696105957 L 26 10.8924560546875 L 24.23666000366211 12.70301628112793 L 21.89801025390625 14.58901596069336 L 4.925291061401367 14.58901596069336 C 4.373010635375977 14.58901596069336 0.1087608337402344 10.8924560546875 0.1087608337402344 10.8924560546875 L 0.1087608337402344 4.630955696105957 L 2.209470748901367 2.254595756530762 L 4.925291061401367 -3.814697265625e-06 Z" stroke="none" fill="#000"/></g><g transform="translate(2.946 2.705)" fill="none" stroke-linejoin="bevel"><path d="M4.925,0H21.9l2.339,2.745L26,4.631v6.262L24.237,12.7,21.9,14.589H4.925c-.552,0-4.817-3.7-4.817-3.7V4.631L2.282,2.26Z" stroke="none"/><path d="M 5.29450798034668 0.9999961853027344 L 2.978507995605469 2.980172157287598 L 1.108760833740234 5.019936561584473 L 1.108760833740234 10.43380832672119 C 2.389726638793945 11.52964210510254 4.465993881225586 13.23759269714355 5.097328186035156 13.58901596069336 L 21.5450325012207 13.58901596069336 L 23.5621452331543 11.96231937408447 L 25 10.48596096038818 L 25 5.025616645812988 L 23.47546005249023 3.393476486206055 L 21.43626403808594 0.9999961853027344 L 5.29450798034668 0.9999961853027344 M 4.925291061401367 -3.814697265625e-06 L 21.89801025390625 -3.814697265625e-06 L 24.23666000366211 2.744956016540527 L 26 4.630955696105957 L 26 10.8924560546875 L 24.23666000366211 12.70301628112793 L 21.89801025390625 14.58901596069336 L 4.925291061401367 14.58901596069336 C 4.373010635375977 14.58901596069336 0.1087608337402344 10.8924560546875 0.1087608337402344 10.8924560546875 L 0.1087608337402344 4.630955696105957 L 2.282421112060547 2.259646415710449 L 4.925291061401367 -3.814697265625e-06 Z" stroke="none" fill="#000"/></g><g transform="translate(12 6)" fill="none" stroke="#000" stroke-width="1"><circle cx="4" cy="4" r="4" stroke="none"/><circle cx="4" cy="4" r="3.5" fill="none"/></g><g transform="translate(12 6)" fill="none" stroke="#000" stroke-width="1"><circle cx="4" cy="4" r="4" stroke="none"/><circle cx="4" cy="4" r="3.5" fill="none"/></g><g transform="translate(12 6)" fill="none" stroke="#000" stroke-width="1"><circle cx="4" cy="4" r="4" stroke="none"/><circle cx="4" cy="4" r="3.5" fill="none"/></g><g transform="translate(12 6)" fill="none" stroke="#000" stroke-width="1"><circle cx="4" cy="4" r="4" stroke="none"/><circle cx="4" cy="4" r="3.5" fill="none"/></g><g transform="translate(12 6)" fill="none" stroke="#000" stroke-width="1"><circle cx="4" cy="4" r="4" stroke="none"/><circle cx="4" cy="4" r="3.5" fill="none"/></g><g transform="translate(12 6)" fill="none" stroke="#000" stroke-width="1"><circle cx="4" cy="4" r="4" stroke="none"/><circle cx="4" cy="4" r="3.5" fill="none"/></g><g transform="translate(12 6)" fill="none" stroke="#000" stroke-width="1"><circle cx="4" cy="4" r="4" stroke="none"/><circle cx="4" cy="4" r="3.5" fill="none"/></g><g transform="translate(12 6)" fill="none" stroke="#000" stroke-width="1"><circle cx="4" cy="4" r="4" stroke="none"/><circle cx="4" cy="4" r="3.5" fill="none"/></g><g transform="translate(23 9)" fill="#fff" stroke="#000" stroke-width="1"><circle cx="1" cy="1" r="1" stroke="none"/><circle cx="1" cy="1" r="0.5" fill="none"/></g><g transform="translate(23 9)" fill="#fff" stroke="#000" stroke-width="1"><circle cx="1" cy="1" r="1" stroke="none"/><circle cx="1" cy="1" r="0.5" fill="none"/></g><g transform="translate(23 9)" fill="#fff" stroke="#000" stroke-width="1"><circle cx="1" cy="1" r="1" stroke="none"/><circle cx="1" cy="1" r="0.5" fill="none"/></g><g transform="translate(23 9)" fill="#fff" stroke="#000" stroke-width="1"><circle cx="1" cy="1" r="1" stroke="none"/><circle cx="1" cy="1" r="0.5" fill="none"/></g><g transform="translate(23 9)" fill="#fff" stroke="#000" stroke-width="1"><circle cx="1" cy="1" r="1" stroke="none"/><circle cx="1" cy="1" r="0.5" fill="none"/></g><g transform="translate(23 9)" fill="#fff" stroke="#000" stroke-width="1"><circle cx="1" cy="1" r="1" stroke="none"/><circle cx="1" cy="1" r="0.5" fill="none"/></g><g transform="translate(23 9)" fill="#fff" stroke="#000" stroke-width="1"><circle cx="1" cy="1" r="1" stroke="none"/><circle cx="1" cy="1" r="0.5" fill="none"/></g><g transform="translate(23 9)" fill="#fff" stroke="#000" stroke-width="1"><circle cx="1" cy="1" r="1" stroke="none"/><circle cx="1" cy="1" r="0.5" fill="none"/></g><g transform="translate(7 9)" fill="#fff" stroke="#000" stroke-width="1"><circle cx="1" cy="1" r="1" stroke="none"/><circle cx="1" cy="1" r="0.5" fill="none"/></g><g transform="translate(7 9)" fill="#fff" stroke="#000" stroke-width="1"><circle cx="1" cy="1" r="1" stroke="none"/><circle cx="1" cy="1" r="0.5" fill="none"/></g><g transform="translate(7 9)" fill="#fff" stroke="#000" stroke-width="1"><circle cx="1" cy="1" r="1" stroke="none"/><circle cx="1" cy="1" r="0.5" fill="none"/></g><g transform="translate(7 9)" fill="#fff" stroke="#000" stroke-width="1"><circle cx="1" cy="1" r="1" stroke="none"/><circle cx="1" cy="1" r="0.5" fill="none"/></g><g transform="translate(7 9)" fill="#fff" stroke="#000" stroke-width="1"><circle cx="1" cy="1" r="1" stroke="none"/><circle cx="1" cy="1" r="0.5" fill="none"/></g><g transform="translate(7 9)" fill="#fff" stroke="#000" stroke-width="1"><circle cx="1" cy="1" r="1" stroke="none"/><circle cx="1" cy="1" r="0.5" fill="none"/></g><g transform="translate(7 9)" fill="#fff" stroke="#000" stroke-width="1"><circle cx="1" cy="1" r="1" stroke="none"/><circle cx="1" cy="1" r="0.5" fill="none"/></g><g transform="translate(7 9)" fill="#fff" stroke="#000" stroke-width="1"><circle cx="1" cy="1" r="1" stroke="none"/><circle cx="1" cy="1" r="0.5" fill="none"/></g><g fill="none" stroke="#000" stroke-width="1"><rect width="32" height="20" rx="2" stroke="none"/><rect x="0.5" y="0.5" width="31" height="19" rx="1.5" fill="none"/></g><g fill="none" stroke="#000" stroke-width="1"><rect width="32" height="20" rx="2" stroke="none"/><rect x="0.5" y="0.5" width="31" height="19" rx="1.5" fill="none"/></g><g fill="none" stroke="#000" stroke-width="1"><rect width="32" height="20" rx="2" stroke="none"/><rect x="0.5" y="0.5" width="31" height="19" rx="1.5" fill="none"/></g><g fill="none" stroke="#000" stroke-width="1"><rect width="32" height="20" rx="2" stroke="none"/><rect x="0.5" y="0.5" width="31" height="19" rx="1.5" fill="none"/></g><g fill="none" stroke="#000" stroke-width="1"><rect width="32" height="20" rx="2" stroke="none"/><rect x="0.5" y="0.5" width="31" height="19" rx="1.5" fill="none"/></g><g fill="none" stroke="#000" stroke-width="1"><rect width="32" height="20" rx="2" stroke="none"/><rect x="0.5" y="0.5" width="31" height="19" rx="1.5" fill="none"/></g><g fill="none" stroke="#000" stroke-width="1"><rect width="32" height="20" rx="2" stroke="none"/><rect x="0.5" y="0.5" width="31" height="19" rx="1.5" fill="none"/></g><g fill="none" stroke="#000" stroke-width="1"><rect width="32" height="20" rx="2" stroke="none"/><rect x="0.5" y="0.5" width="31" height="19" rx="1.5" fill="none"/></g><g transform="translate(2.946 2.705)" fill="none"><path d="M4.925,0H21.9l2.339,2.745L26,4.631v6.262L24.237,12.7,21.9,14.589H4.925c-.552,0-4.817-3.7-4.817-3.7V4.631l2.1-2.376Z" stroke="none"/><path d="M 5.286291122436523 0.9999961853027344 L 2.907566070556641 2.974749565124512 L 1.108760833740234 5.009589195251465 L 1.108760833740234 10.43380832672119 C 2.389726638793945 11.52964210510254 4.465993881225586 13.23759269714355 5.097328186035156 13.58901596069336 L 21.5450325012207 13.58901596069336 L 23.5621452331543 11.96231937408447 L 25 10.48596096038818 L 25 5.025616645812988 L 23.47546005249023 3.393476486206055 L 21.43626403808594 0.9999961853027344 L 5.286291122436523 0.9999961853027344 M 4.925291061401367 -3.814697265625e-06 L 21.89801025390625 -3.814697265625e-06 L 24.23666000366211 2.744956016540527 L 26 4.630955696105957 L 26 10.8924560546875 L 24.23666000366211 12.70301628112793 L 21.89801025390625 14.58901596069336 L 4.925291061401367 14.58901596069336 C 4.373010635375977 14.58901596069336 0.1087608337402344 10.8924560546875 0.1087608337402344 10.8924560546875 L 0.1087608337402344 4.630955696105957 L 2.209470748901367 2.254595756530762 L 4.925291061401367 -3.814697265625e-06 Z" stroke="none" fill="#000"/></g><g transform="translate(2.946 2.705)" fill="none"><path d="M4.925,0H21.9l2.339,2.745L26,4.631v6.262L24.237,12.7,21.9,14.589H4.925c-.552,0-4.817-3.7-4.817-3.7V4.631l2.1-2.376Z" stroke="none"/><path d="M 5.286291122436523 0.9999961853027344 L 2.907566070556641 2.974749565124512 L 1.108760833740234 5.009589195251465 L 1.108760833740234 10.43380832672119 C 2.389726638793945 11.52964210510254 4.465993881225586 13.23759269714355 5.097328186035156 13.58901596069336 L 21.5450325012207 13.58901596069336 L 23.5621452331543 11.96231937408447 L 25 10.48596096038818 L 25 5.025616645812988 L 23.47546005249023 3.393476486206055 L 21.43626403808594 0.9999961853027344 L 5.286291122436523 0.9999961853027344 M 4.925291061401367 -3.814697265625e-06 L 21.89801025390625 -3.814697265625e-06 L 24.23666000366211 2.744956016540527 L 26 4.630955696105957 L 26 10.8924560546875 L 24.23666000366211 12.70301628112793 L 21.89801025390625 14.58901596069336 L 4.925291061401367 14.58901596069336 C 4.373010635375977 14.58901596069336 0.1087608337402344 10.8924560546875 0.1087608337402344 10.8924560546875 L 0.1087608337402344 4.630955696105957 L 2.209470748901367 2.254595756530762 L 4.925291061401367 -3.814697265625e-06 Z" stroke="none" fill="#000"/></g><g transform="translate(2.946 2.705)" fill="none"><path d="M4.925,0H21.9l2.339,2.745L26,4.631v6.262L24.237,12.7,21.9,14.589H4.925c-.552,0-4.817-3.7-4.817-3.7V4.631l2.1-2.376Z" stroke="none"/><path d="M 5.286291122436523 0.9999961853027344 L 2.907566070556641 2.974749565124512 L 1.108760833740234 5.009589195251465 L 1.108760833740234 10.43380832672119 C 2.389726638793945 11.52964210510254 4.465993881225586 13.23759269714355 5.097328186035156 13.58901596069336 L 21.5450325012207 13.58901596069336 L 23.5621452331543 11.96231937408447 L 25 10.48596096038818 L 25 5.025616645812988 L 23.47546005249023 3.393476486206055 L 21.43626403808594 0.9999961853027344 L 5.286291122436523 0.9999961853027344 M 4.925291061401367 -3.814697265625e-06 L 21.89801025390625 -3.814697265625e-06 L 24.23666000366211 2.744956016540527 L 26 4.630955696105957 L 26 10.8924560546875 L 24.23666000366211 12.70301628112793 L 21.89801025390625 14.58901596069336 L 4.925291061401367 14.58901596069336 C 4.373010635375977 14.58901596069336 0.1087608337402344 10.8924560546875 0.1087608337402344 10.8924560546875 L 0.1087608337402344 4.630955696105957 L 2.209470748901367 2.254595756530762 L 4.925291061401367 -3.814697265625e-06 Z" stroke="none" fill="#000"/></g><g transform="translate(2.946 2.705)" fill="none"><path d="M4.925,0H21.9l2.339,2.745L26,4.631v6.262L24.237,12.7,21.9,14.589H4.925c-.552,0-4.817-3.7-4.817-3.7V4.631l2.1-2.376Z" stroke="none"/><path d="M 5.286291122436523 0.9999961853027344 L 2.907566070556641 2.974749565124512 L 1.108760833740234 5.009589195251465 L 1.108760833740234 10.43380832672119 C 2.389726638793945 11.52964210510254 4.465993881225586 13.23759269714355 5.097328186035156 13.58901596069336 L 21.5450325012207 13.58901596069336 L 23.5621452331543 11.96231937408447 L 25 10.48596096038818 L 25 5.025616645812988 L 23.47546005249023 3.393476486206055 L 21.43626403808594 0.9999961853027344 L 5.286291122436523 0.9999961853027344 M 4.925291061401367 -3.814697265625e-06 L 21.89801025390625 -3.814697265625e-06 L 24.23666000366211 2.744956016540527 L 26 4.630955696105957 L 26 10.8924560546875 L 24.23666000366211 12.70301628112793 L 21.89801025390625 14.58901596069336 L 4.925291061401367 14.58901596069336 C 4.373010635375977 14.58901596069336 0.1087608337402344 10.8924560546875 0.1087608337402344 10.8924560546875 L 0.1087608337402344 4.630955696105957 L 2.209470748901367 2.254595756530762 L 4.925291061401367 -3.814697265625e-06 Z" stroke="none" fill="#000"/></g><g transform="translate(2.946 2.705)" fill="none"><path d="M4.925,0H21.9l2.339,2.745L26,4.631v6.262L24.237,12.7,21.9,14.589H4.925c-.552,0-4.817-3.7-4.817-3.7V4.631l2.1-2.376Z" stroke="none"/><path d="M 5.286291122436523 0.9999961853027344 L 2.907566070556641 2.974749565124512 L 1.108760833740234 5.009589195251465 L 1.108760833740234 10.43380832672119 C 2.389726638793945 11.52964210510254 4.465993881225586 13.23759269714355 5.097328186035156 13.58901596069336 L 21.5450325012207 13.58901596069336 L 23.5621452331543 11.96231937408447 L 25 10.48596096038818 L 25 5.025616645812988 L 23.47546005249023 3.393476486206055 L 21.43626403808594 0.9999961853027344 L 5.286291122436523 0.9999961853027344 M 4.925291061401367 -3.814697265625e-06 L 21.89801025390625 -3.814697265625e-06 L 24.23666000366211 2.744956016540527 L 26 4.630955696105957 L 26 10.8924560546875 L 24.23666000366211 12.70301628112793 L 21.89801025390625 14.58901596069336 L 4.925291061401367 14.58901596069336 C 4.373010635375977 14.58901596069336 0.1087608337402344 10.8924560546875 0.1087608337402344 10.8924560546875 L 0.1087608337402344 4.630955696105957 L 2.209470748901367 2.254595756530762 L 4.925291061401367 -3.814697265625e-06 Z" stroke="none" fill="#000"/></g><g transform="translate(2.946 2.705)" fill="none"><path d="M4.925,0H21.9l2.339,2.745L26,4.631v6.262L24.237,12.7,21.9,14.589H4.925c-.552,0-4.817-3.7-4.817-3.7V4.631l2.1-2.376Z" stroke="none"/><path d="M 5.286291122436523 0.9999961853027344 L 2.907566070556641 2.974749565124512 L 1.108760833740234 5.009589195251465 L 1.108760833740234 10.43380832672119 C 2.389726638793945 11.52964210510254 4.465993881225586 13.23759269714355 5.097328186035156 13.58901596069336 L 21.5450325012207 13.58901596069336 L 23.5621452331543 11.96231937408447 L 25 10.48596096038818 L 25 5.025616645812988 L 23.47546005249023 3.393476486206055 L 21.43626403808594 0.9999961853027344 L 5.286291122436523 0.9999961853027344 M 4.925291061401367 -3.814697265625e-06 L 21.89801025390625 -3.814697265625e-06 L 24.23666000366211 2.744956016540527 L 26 4.630955696105957 L 26 10.8924560546875 L 24.23666000366211 12.70301628112793 L 21.89801025390625 14.58901596069336 L 4.925291061401367 14.58901596069336 C 4.373010635375977 14.58901596069336 0.1087608337402344 10.8924560546875 0.1087608337402344 10.8924560546875 L 0.1087608337402344 4.630955696105957 L 2.209470748901367 2.254595756530762 L 4.925291061401367 -3.814697265625e-06 Z" stroke="none" fill="#000"/></g><g transform="translate(2.946 2.705)" fill="none"><path d="M4.925,0H21.9l2.339,2.745L26,4.631v6.262L24.237,12.7,21.9,14.589H4.925c-.552,0-4.817-3.7-4.817-3.7V4.631l2.1-2.376Z" stroke="none"/><path d="M 5.286291122436523 0.9999961853027344 L 2.907566070556641 2.974749565124512 L 1.108760833740234 5.009589195251465 L 1.108760833740234 10.43380832672119 C 2.389726638793945 11.52964210510254 4.465993881225586 13.23759269714355 5.097328186035156 13.58901596069336 L 21.5450325012207 13.58901596069336 L 23.5621452331543 11.96231937408447 L 25 10.48596096038818 L 25 5.025616645812988 L 23.47546005249023 3.393476486206055 L 21.43626403808594 0.9999961853027344 L 5.286291122436523 0.9999961853027344 M 4.925291061401367 -3.814697265625e-06 L 21.89801025390625 -3.814697265625e-06 L 24.23666000366211 2.744956016540527 L 26 4.630955696105957 L 26 10.8924560546875 L 24.23666000366211 12.70301628112793 L 21.89801025390625 14.58901596069336 L 4.925291061401367 14.58901596069336 C 4.373010635375977 14.58901596069336 0.1087608337402344 10.8924560546875 0.1087608337402344 10.8924560546875 L 0.1087608337402344 4.630955696105957 L 2.209470748901367 2.254595756530762 L 4.925291061401367 -3.814697265625e-06 Z" stroke="none" fill="#000"/></g><g transform="translate(2.946 2.705)" fill="none" stroke-linejoin="bevel"><path d="M4.925,0H21.9l2.339,2.745L26,4.631v6.262L24.237,12.7,21.9,14.589H4.925c-.552,0-4.817-3.7-4.817-3.7V4.631L2.282,2.26Z" stroke="none"/><path d="M 5.29450798034668 0.9999961853027344 L 2.978507995605469 2.980172157287598 L 1.108760833740234 5.019936561584473 L 1.108760833740234 10.43380832672119 C 2.389726638793945 11.52964210510254 4.465993881225586 13.23759269714355 5.097328186035156 13.58901596069336 L 21.5450325012207 13.58901596069336 L 23.5621452331543 11.96231937408447 L 25 10.48596096038818 L 25 5.025616645812988 L 23.47546005249023 3.393476486206055 L 21.43626403808594 0.9999961853027344 L 5.29450798034668 0.9999961853027344 M 4.925291061401367 -3.814697265625e-06 L 21.89801025390625 -3.814697265625e-06 L 24.23666000366211 2.744956016540527 L 26 4.630955696105957 L 26 10.8924560546875 L 24.23666000366211 12.70301628112793 L 21.89801025390625 14.58901596069336 L 4.925291061401367 14.58901596069336 C 4.373010635375977 14.58901596069336 0.1087608337402344 10.8924560546875 0.1087608337402344 10.8924560546875 L 0.1087608337402344 4.630955696105957 L 2.282421112060547 2.259646415710449 L 4.925291061401367 -3.814697265625e-06 Z" stroke="none" fill="#000"/></g><g transform="translate(12 6)" fill="none" stroke="#000" stroke-width="1"><circle cx="4" cy="4" r="4" stroke="none"/><circle cx="4" cy="4" r="3.5" fill="none"/></g><g transform="translate(12 6)" fill="none" stroke="#000" stroke-width="1"><circle cx="4" cy="4" r="4" stroke="none"/><circle cx="4" cy="4" r="3.5" fill="none"/></g><g transform="translate(12 6)" fill="none" stroke="#000" stroke-width="1"><circle cx="4" cy="4" r="4" stroke="none"/><circle cx="4" cy="4" r="3.5" fill="none"/></g><g transform="translate(12 6)" fill="none" stroke="#000" stroke-width="1"><circle cx="4" cy="4" r="4" stroke="none"/><circle cx="4" cy="4" r="3.5" fill="none"/></g><g transform="translate(12 6)" fill="none" stroke="#000" stroke-width="1"><circle cx="4" cy="4" r="4" stroke="none"/><circle cx="4" cy="4" r="3.5" fill="none"/></g><g transform="translate(12 6)" fill="none" stroke="#000" stroke-width="1"><circle cx="4" cy="4" r="4" stroke="none"/><circle cx="4" cy="4" r="3.5" fill="none"/></g><g transform="translate(12 6)" fill="none" stroke="#000" stroke-width="1"><circle cx="4" cy="4" r="4" stroke="none"/><circle cx="4" cy="4" r="3.5" fill="none"/></g><g transform="translate(12 6)" fill="none" stroke="#000" stroke-width="1"><circle cx="4" cy="4" r="4" stroke="none"/><circle cx="4" cy="4" r="3.5" fill="none"/></g><g transform="translate(23 9)" fill="#fff" stroke="#000" stroke-width="1"><circle cx="1" cy="1" r="1" stroke="none"/><circle cx="1" cy="1" r="0.5" fill="none"/></g><g transform="translate(23 9)" fill="#fff" stroke="#000" stroke-width="1"><circle cx="1" cy="1" r="1" stroke="none"/><circle cx="1" cy="1" r="0.5" fill="none"/></g><g transform="translate(23 9)" fill="#fff" stroke="#000" stroke-width="1"><circle cx="1" cy="1" r="1" stroke="none"/><circle cx="1" cy="1" r="0.5" fill="none"/></g><g transform="translate(23 9)" fill="#fff" stroke="#000" stroke-width="1"><circle cx="1" cy="1" r="1" stroke="none"/><circle cx="1" cy="1" r="0.5" fill="none"/></g><g transform="translate(23 9)" fill="#fff" stroke="#000" stroke-width="1"><circle cx="1" cy="1" r="1" stroke="none"/><circle cx="1" cy="1" r="0.5" fill="none"/></g><g transform="translate(23 9)" fill="#fff" stroke="#000" stroke-width="1"><circle cx="1" cy="1" r="1" stroke="none"/><circle cx="1" cy="1" r="0.5" fill="none"/></g><g transform="translate(23 9)" fill="#fff" stroke="#000" stroke-width="1"><circle cx="1" cy="1" r="1" stroke="none"/><circle cx="1" cy="1" r="0.5" fill="none"/></g><g transform="translate(23 9)" fill="#fff" stroke="#000" stroke-width="1"><circle cx="1" cy="1" r="1" stroke="none"/><circle cx="1" cy="1" r="0.5" fill="none"/></g><g transform="translate(7 9)" fill="#fff" stroke="#000" stroke-width="1"><circle cx="1" cy="1" r="1" stroke="none"/><circle cx="1" cy="1" r="0.5" fill="none"/></g><g transform="translate(7 9)" fill="#fff" stroke="#000" stroke-width="1"><circle cx="1" cy="1" r="1" stroke="none"/><circle cx="1" cy="1" r="0.5" fill="none"/></g><g transform="translate(7 9)" fill="#fff" stroke="#000" stroke-width="1"><circle cx="1" cy="1" r="1" stroke="none"/><circle cx="1" cy="1" r="0.5" fill="none"/></g><g transform="translate(7 9)" fill="#fff" stroke="#000" stroke-width="1"><circle cx="1" cy="1" r="1" stroke="none"/><circle cx="1" cy="1" r="0.5" fill="none"/></g><g transform="translate(7 9)" fill="#fff" stroke="#000" stroke-width="1"><circle cx="1" cy="1" r="1" stroke="none"/><circle cx="1" cy="1" r="0.5" fill="none"/></g><g transform="translate(7 9)" fill="#fff" stroke="#000" stroke-width="1"><circle cx="1" cy="1" r="1" stroke="none"/><circle cx="1" cy="1" r="0.5" fill="none"/></g><g transform="translate(7 9)" fill="#fff" stroke="#000" stroke-width="1"><circle cx="1" cy="1" r="1" stroke="none"/><circle cx="1" cy="1" r="0.5" fill="none"/></g><g transform="translate(7 9)" fill="#fff" stroke="#000" stroke-width="1"><circle cx="1" cy="1" r="1" stroke="none"/><circle cx="1" cy="1" r="0.5" fill="none"/></g></g><g transform="translate(-27.262 -23.913)"><g transform="translate(270 -90.605)"><g transform="translate(-17.657 12.479) rotate(-17)" style="isolation:isolate"><g fill="none" stroke="#000" stroke-linejoin="round" stroke-width="1"><rect width="30.814" height="20" rx="2" stroke="none"/><rect x="0.5" y="0.5" width="29.814" height="19" rx="1.5" fill="none"/></g><g fill="none" stroke="#000" stroke-linejoin="round" stroke-width="1"><rect width="30.814" height="20" rx="2" stroke="none"/><rect x="0.5" y="0.5" width="29.814" height="19" rx="1.5" fill="none"/></g><g fill="none" stroke="#000" stroke-linejoin="round" stroke-width="1"><rect width="30.814" height="20" rx="2" stroke="none"/><rect x="0.5" y="0.5" width="29.814" height="19" rx="1.5" fill="none"/></g><g fill="none" stroke="#000" stroke-linejoin="round" stroke-width="1"><rect width="30.814" height="20" rx="2" stroke="none"/><rect x="0.5" y="0.5" width="29.814" height="19" rx="1.5" fill="none"/></g><g fill="none" stroke="#000" stroke-linejoin="round" stroke-width="1"><rect width="30.814" height="20" rx="2" stroke="none"/><rect x="0.5" y="0.5" width="29.814" height="19" rx="1.5" fill="none"/></g><g fill="none" stroke="#000" stroke-linejoin="round" stroke-width="1"><rect width="30.814" height="20" rx="2" stroke="none"/><rect x="0.5" y="0.5" width="29.814" height="19" rx="1.5" fill="none"/></g><g fill="none" stroke="#000" stroke-linejoin="round" stroke-width="1"><rect width="30.814" height="20" rx="2" stroke="none"/><rect x="0.5" y="0.5" width="29.814" height="19" rx="1.5" fill="none"/></g><g fill="none" stroke="#000" stroke-linejoin="round" stroke-width="1"><rect width="30.814" height="20" rx="2" stroke="none"/><rect x="0.5" y="0.5" width="29.814" height="19" rx="1.5" fill="none"/></g><g transform="translate(2.946 2.705)" fill="none" stroke-linejoin="round"><path d="M4.7,0H20.9l2.232,2.745,1.683,1.886v6.262L23.131,12.7,20.9,14.589H4.7c-.527,0-4.6-3.7-4.6-3.7V4.631l2-2.376Z" stroke="none"/><path d="M 5.078744888305664 0.9999961853027344 L 2.827823638916016 2.958374977111816 L 1.108757019042969 4.996381759643555 L 1.108757019042969 10.4478006362915 C 2.31712532043457 11.53115844726562 4.273801803588867 13.21875762939453 4.892057418823242 13.58901596069336 L 20.53372383117676 13.58901596069336 L 22.43966674804688 11.97816848754883 L 23.81375694274902 10.49953556060791 L 23.81375694274902 5.012187957763672 L 22.38499641418457 3.410666465759277 C 22.37481689453125 3.399255752563477 22.36490631103516 3.387616157531738 22.35525703430176 3.37575626373291 L 20.42389678955078 0.9999961853027344 L 5.078744888305664 0.9999961853027344 M 4.704616546630859 -3.814697265625e-06 L 20.89970779418945 -3.814697265625e-06 L 23.13120651245117 2.744956016540527 L 24.81375694274902 4.630955696105957 L 24.81375694274902 10.8924560546875 L 23.13120651245117 12.70301628112793 L 20.89970779418945 14.58901596069336 L 4.704616546630859 14.58901596069336 C 4.177637100219727 14.58901596069336 0.1087570190429688 10.8924560546875 0.1087570190429688 10.8924560546875 L 0.1087570190429688 4.630955696105957 L 2.113227844238281 2.254595756530762 L 4.704616546630859 -3.814697265625e-06 Z" stroke="none" fill="#000"/></g><g transform="translate(2.946 2.705)" fill="none" stroke-linejoin="round"><path d="M4.7,0H20.9l2.232,2.745,1.683,1.886v6.262L23.131,12.7,20.9,14.589H4.7c-.527,0-4.6-3.7-4.6-3.7V4.631l2-2.376Z" stroke="none"/><path d="M 5.078744888305664 0.9999961853027344 L 2.827823638916016 2.958374977111816 L 1.108757019042969 4.996381759643555 L 1.108757019042969 10.4478006362915 C 2.31712532043457 11.53115844726562 4.273801803588867 13.21875762939453 4.892057418823242 13.58901596069336 L 20.53372383117676 13.58901596069336 L 22.43966674804688 11.97816848754883 L 23.81375694274902 10.49953556060791 L 23.81375694274902 5.012187957763672 L 22.38499641418457 3.410666465759277 C 22.37481689453125 3.399255752563477 22.36490631103516 3.387616157531738 22.35525703430176 3.37575626373291 L 20.42389678955078 0.9999961853027344 L 5.078744888305664 0.9999961853027344 M 4.704616546630859 -3.814697265625e-06 L 20.89970779418945 -3.814697265625e-06 L 23.13120651245117 2.744956016540527 L 24.81375694274902 4.630955696105957 L 24.81375694274902 10.8924560546875 L 23.13120651245117 12.70301628112793 L 20.89970779418945 14.58901596069336 L 4.704616546630859 14.58901596069336 C 4.177637100219727 14.58901596069336 0.1087570190429688 10.8924560546875 0.1087570190429688 10.8924560546875 L 0.1087570190429688 4.630955696105957 L 2.113227844238281 2.254595756530762 L 4.704616546630859 -3.814697265625e-06 Z" stroke="none" fill="#000"/></g><g transform="translate(2.946 2.705)" fill="none" stroke-linejoin="round"><path d="M4.7,0H20.9l2.232,2.745,1.683,1.886v6.262L23.131,12.7,20.9,14.589H4.7c-.527,0-4.6-3.7-4.6-3.7V4.631l2-2.376Z" stroke="none"/><path d="M 5.078744888305664 0.9999961853027344 L 2.827823638916016 2.958374977111816 L 1.108757019042969 4.996381759643555 L 1.108757019042969 10.4478006362915 C 2.31712532043457 11.53115844726562 4.273801803588867 13.21875762939453 4.892057418823242 13.58901596069336 L 20.53372383117676 13.58901596069336 L 22.43966674804688 11.97816848754883 L 23.81375694274902 10.49953556060791 L 23.81375694274902 5.012187957763672 L 22.38499641418457 3.410666465759277 C 22.37481689453125 3.399255752563477 22.36490631103516 3.387616157531738 22.35525703430176 3.37575626373291 L 20.42389678955078 0.9999961853027344 L 5.078744888305664 0.9999961853027344 M 4.704616546630859 -3.814697265625e-06 L 20.89970779418945 -3.814697265625e-06 L 23.13120651245117 2.744956016540527 L 24.81375694274902 4.630955696105957 L 24.81375694274902 10.8924560546875 L 23.13120651245117 12.70301628112793 L 20.89970779418945 14.58901596069336 L 4.704616546630859 14.58901596069336 C 4.177637100219727 14.58901596069336 0.1087570190429688 10.8924560546875 0.1087570190429688 10.8924560546875 L 0.1087570190429688 4.630955696105957 L 2.113227844238281 2.254595756530762 L 4.704616546630859 -3.814697265625e-06 Z" stroke="none" fill="#000"/></g><g transform="translate(2.946 2.705)" fill="none" stroke-linejoin="round"><path d="M4.7,0H20.9l2.232,2.745,1.683,1.886v6.262L23.131,12.7,20.9,14.589H4.7c-.527,0-4.6-3.7-4.6-3.7V4.631l2-2.376Z" stroke="none"/><path d="M 5.078744888305664 0.9999961853027344 L 2.827823638916016 2.958374977111816 L 1.108757019042969 4.996381759643555 L 1.108757019042969 10.4478006362915 C 2.31712532043457 11.53115844726562 4.273801803588867 13.21875762939453 4.892057418823242 13.58901596069336 L 20.53372383117676 13.58901596069336 L 22.43966674804688 11.97816848754883 L 23.81375694274902 10.49953556060791 L 23.81375694274902 5.012187957763672 L 22.38499641418457 3.410666465759277 C 22.37481689453125 3.399255752563477 22.36490631103516 3.387616157531738 22.35525703430176 3.37575626373291 L 20.42389678955078 0.9999961853027344 L 5.078744888305664 0.9999961853027344 M 4.704616546630859 -3.814697265625e-06 L 20.89970779418945 -3.814697265625e-06 L 23.13120651245117 2.744956016540527 L 24.81375694274902 4.630955696105957 L 24.81375694274902 10.8924560546875 L 23.13120651245117 12.70301628112793 L 20.89970779418945 14.58901596069336 L 4.704616546630859 14.58901596069336 C 4.177637100219727 14.58901596069336 0.1087570190429688 10.8924560546875 0.1087570190429688 10.8924560546875 L 0.1087570190429688 4.630955696105957 L 2.113227844238281 2.254595756530762 L 4.704616546630859 -3.814697265625e-06 Z" stroke="none" fill="#000"/></g><g transform="translate(2.946 2.705)" fill="none" stroke-linejoin="round"><path d="M4.7,0H20.9l2.232,2.745,1.683,1.886v6.262L23.131,12.7,20.9,14.589H4.7c-.527,0-4.6-3.7-4.6-3.7V4.631l2-2.376Z" stroke="none"/><path d="M 5.078744888305664 0.9999961853027344 L 2.827823638916016 2.958374977111816 L 1.108757019042969 4.996381759643555 L 1.108757019042969 10.4478006362915 C 2.31712532043457 11.53115844726562 4.273801803588867 13.21875762939453 4.892057418823242 13.58901596069336 L 20.53372383117676 13.58901596069336 L 22.43966674804688 11.97816848754883 L 23.81375694274902 10.49953556060791 L 23.81375694274902 5.012187957763672 L 22.38499641418457 3.410666465759277 C 22.37481689453125 3.399255752563477 22.36490631103516 3.387616157531738 22.35525703430176 3.37575626373291 L 20.42389678955078 0.9999961853027344 L 5.078744888305664 0.9999961853027344 M 4.704616546630859 -3.814697265625e-06 L 20.89970779418945 -3.814697265625e-06 L 23.13120651245117 2.744956016540527 L 24.81375694274902 4.630955696105957 L 24.81375694274902 10.8924560546875 L 23.13120651245117 12.70301628112793 L 20.89970779418945 14.58901596069336 L 4.704616546630859 14.58901596069336 C 4.177637100219727 14.58901596069336 0.1087570190429688 10.8924560546875 0.1087570190429688 10.8924560546875 L 0.1087570190429688 4.630955696105957 L 2.113227844238281 2.254595756530762 L 4.704616546630859 -3.814697265625e-06 Z" stroke="none" fill="#000"/></g><g transform="translate(2.946 2.705)" fill="none" stroke-linejoin="round"><path d="M4.7,0H20.9l2.232,2.745,1.683,1.886v6.262L23.131,12.7,20.9,14.589H4.7c-.527,0-4.6-3.7-4.6-3.7V4.631l2-2.376Z" stroke="none"/><path d="M 5.078744888305664 0.9999961853027344 L 2.827823638916016 2.958374977111816 L 1.108757019042969 4.996381759643555 L 1.108757019042969 10.4478006362915 C 2.31712532043457 11.53115844726562 4.273801803588867 13.21875762939453 4.892057418823242 13.58901596069336 L 20.53372383117676 13.58901596069336 L 22.43966674804688 11.97816848754883 L 23.81375694274902 10.49953556060791 L 23.81375694274902 5.012187957763672 L 22.38499641418457 3.410666465759277 C 22.37481689453125 3.399255752563477 22.36490631103516 3.387616157531738 22.35525703430176 3.37575626373291 L 20.42389678955078 0.9999961853027344 L 5.078744888305664 0.9999961853027344 M 4.704616546630859 -3.814697265625e-06 L 20.89970779418945 -3.814697265625e-06 L 23.13120651245117 2.744956016540527 L 24.81375694274902 4.630955696105957 L 24.81375694274902 10.8924560546875 L 23.13120651245117 12.70301628112793 L 20.89970779418945 14.58901596069336 L 4.704616546630859 14.58901596069336 C 4.177637100219727 14.58901596069336 0.1087570190429688 10.8924560546875 0.1087570190429688 10.8924560546875 L 0.1087570190429688 4.630955696105957 L 2.113227844238281 2.254595756530762 L 4.704616546630859 -3.814697265625e-06 Z" stroke="none" fill="#000"/></g><g transform="translate(2.946 2.705)" fill="none" stroke-linejoin="round"><path d="M4.7,0H20.9l2.232,2.745,1.683,1.886v6.262L23.131,12.7,20.9,14.589H4.7c-.527,0-4.6-3.7-4.6-3.7V4.631l2-2.376Z" stroke="none"/><path d="M 5.078744888305664 0.9999961853027344 L 2.827823638916016 2.958374977111816 L 1.108757019042969 4.996381759643555 L 1.108757019042969 10.4478006362915 C 2.31712532043457 11.53115844726562 4.273801803588867 13.21875762939453 4.892057418823242 13.58901596069336 L 20.53372383117676 13.58901596069336 L 22.43966674804688 11.97816848754883 L 23.81375694274902 10.49953556060791 L 23.81375694274902 5.012187957763672 L 22.38499641418457 3.410666465759277 C 22.37481689453125 3.399255752563477 22.36490631103516 3.387616157531738 22.35525703430176 3.37575626373291 L 20.42389678955078 0.9999961853027344 L 5.078744888305664 0.9999961853027344 M 4.704616546630859 -3.814697265625e-06 L 20.89970779418945 -3.814697265625e-06 L 23.13120651245117 2.744956016540527 L 24.81375694274902 4.630955696105957 L 24.81375694274902 10.8924560546875 L 23.13120651245117 12.70301628112793 L 20.89970779418945 14.58901596069336 L 4.704616546630859 14.58901596069336 C 4.177637100219727 14.58901596069336 0.1087570190429688 10.8924560546875 0.1087570190429688 10.8924560546875 L 0.1087570190429688 4.630955696105957 L 2.113227844238281 2.254595756530762 L 4.704616546630859 -3.814697265625e-06 Z" stroke="none" fill="#000"/></g><g transform="translate(2.946 2.705)" fill="none" stroke-linejoin="round"><path d="M4.7,0H20.9l2.232,2.745,1.683,1.886v6.262L23.131,12.7,20.9,14.589H4.7c-.527,0-4.6-3.7-4.6-3.7V4.631L2.183,2.26Z" stroke="none"/><path d="M 5.08709716796875 0.9999961853027344 L 2.895532608032227 2.96375560760498 L 1.108757019042969 5.006587982177734 L 1.108757019042969 10.4478006362915 C 2.31712532043457 11.53115844726562 4.273801803588867 13.21875762939453 4.892057418823242 13.58901596069336 L 20.53372383117676 13.58901596069336 L 22.43966674804688 11.97816848754883 L 23.81375694274902 10.49953556060791 L 23.81375694274902 5.012187957763672 L 22.38499641418457 3.410666465759277 C 22.37481689453125 3.399255752563477 22.36490631103516 3.387616157531738 22.35525703430176 3.37575626373291 L 20.42389678955078 0.9999961853027344 L 5.08709716796875 0.9999961853027344 M 4.704616546630859 -3.814697265625e-06 L 20.89970779418945 -3.814697265625e-06 L 23.13120651245117 2.744956016540527 L 24.81375694274902 4.630955696105957 L 24.81375694274902 10.8924560546875 L 23.13120651245117 12.70301628112793 L 20.89970779418945 14.58901596069336 L 4.704616546630859 14.58901596069336 C 4.177637100219727 14.58901596069336 0.1087570190429688 10.8924560546875 0.1087570190429688 10.8924560546875 L 0.1087570190429688 4.630955696105957 L 2.182836532592773 2.259646415710449 L 4.704616546630859 -3.814697265625e-06 Z" stroke="none" fill="#000"/></g><g transform="translate(11.407 6)" fill="none" stroke="#000" stroke-linejoin="round" stroke-width="1"><circle cx="4" cy="4" r="4" stroke="none"/><circle cx="4" cy="4" r="3.5" fill="none"/></g><g transform="translate(11.407 6)" fill="none" stroke="#000" stroke-linejoin="round" stroke-width="1"><circle cx="4" cy="4" r="4" stroke="none"/><circle cx="4" cy="4" r="3.5" fill="none"/></g><g transform="translate(11.407 6)" fill="none" stroke="#000" stroke-linejoin="round" stroke-width="1"><circle cx="4" cy="4" r="4" stroke="none"/><circle cx="4" cy="4" r="3.5" fill="none"/></g><g transform="translate(11.407 6)" fill="none" stroke="#000" stroke-linejoin="round" stroke-width="1"><circle cx="4" cy="4" r="4" stroke="none"/><circle cx="4" cy="4" r="3.5" fill="none"/></g><g transform="translate(11.407 6)" fill="none" stroke="#000" stroke-linejoin="round" stroke-width="1"><circle cx="4" cy="4" r="4" stroke="none"/><circle cx="4" cy="4" r="3.5" fill="none"/></g><g transform="translate(11.407 6)" fill="none" stroke="#000" stroke-linejoin="round" stroke-width="1"><circle cx="4" cy="4" r="4" stroke="none"/><circle cx="4" cy="4" r="3.5" fill="none"/></g><g transform="translate(11.407 6)" fill="none" stroke="#000" stroke-linejoin="round" stroke-width="1"><circle cx="4" cy="4" r="4" stroke="none"/><circle cx="4" cy="4" r="3.5" fill="none"/></g><g transform="translate(11.407 6)" fill="none" stroke="#000" stroke-linejoin="round" stroke-width="1"><circle cx="4" cy="4" r="4" stroke="none"/><circle cx="4" cy="4" r="3.5" fill="none"/></g><g transform="translate(22.091 9)" fill="#fff" stroke="#000" stroke-linejoin="round" stroke-width="1"><circle cx="1" cy="1" r="1" stroke="none"/><circle cx="1" cy="1" r="0.5" fill="none"/></g><g transform="translate(22.091 9)" fill="#fff" stroke="#000" stroke-linejoin="round" stroke-width="1"><circle cx="1" cy="1" r="1" stroke="none"/><circle cx="1" cy="1" r="0.5" fill="none"/></g><g transform="translate(22.091 9)" fill="#fff" stroke="#000" stroke-linejoin="round" stroke-width="1"><circle cx="1" cy="1" r="1" stroke="none"/><circle cx="1" cy="1" r="0.5" fill="none"/></g><g transform="translate(22.091 9)" fill="#fff" stroke="#000" stroke-linejoin="round" stroke-width="1"><circle cx="1" cy="1" r="1" stroke="none"/><circle cx="1" cy="1" r="0.5" fill="none"/></g><g transform="translate(22.091 9)" fill="#fff" stroke="#000" stroke-linejoin="round" stroke-width="1"><circle cx="1" cy="1" r="1" stroke="none"/><circle cx="1" cy="1" r="0.5" fill="none"/></g><g transform="translate(22.091 9)" fill="#fff" stroke="#000" stroke-linejoin="round" stroke-width="1"><circle cx="1" cy="1" r="1" stroke="none"/><circle cx="1" cy="1" r="0.5" fill="none"/></g><g transform="translate(22.091 9)" fill="#fff" stroke="#000" stroke-linejoin="round" stroke-width="1"><circle cx="1" cy="1" r="1" stroke="none"/><circle cx="1" cy="1" r="0.5" fill="none"/></g><g transform="translate(22.091 9)" fill="#fff" stroke="#000" stroke-linejoin="round" stroke-width="1"><circle cx="1" cy="1" r="1" stroke="none"/><circle cx="1" cy="1" r="0.5" fill="none"/></g><g transform="translate(6.723 9)" fill="#fff" stroke="#000" stroke-linejoin="round" stroke-width="1"><circle cx="1" cy="1" r="1" stroke="none"/><circle cx="1" cy="1" r="0.5" fill="none"/></g><g transform="translate(6.723 9)" fill="#fff" stroke="#000" stroke-linejoin="round" stroke-width="1"><circle cx="1" cy="1" r="1" stroke="none"/><circle cx="1" cy="1" r="0.5" fill="none"/></g><g transform="translate(6.723 9)" fill="#fff" stroke="#000" stroke-linejoin="round" stroke-width="1"><circle cx="1" cy="1" r="1" stroke="none"/><circle cx="1" cy="1" r="0.5" fill="none"/></g><g transform="translate(6.723 9)" fill="#fff" stroke="#000" stroke-linejoin="round" stroke-width="1"><circle cx="1" cy="1" r="1" stroke="none"/><circle cx="1" cy="1" r="0.5" fill="none"/></g><g transform="translate(6.723 9)" fill="#fff" stroke="#000" stroke-linejoin="round" stroke-width="1"><circle cx="1" cy="1" r="1" stroke="none"/><circle cx="1" cy="1" r="0.5" fill="none"/></g><g transform="translate(6.723 9)" fill="#fff" stroke="#000" stroke-linejoin="round" stroke-width="1"><circle cx="1" cy="1" r="1" stroke="none"/><circle cx="1" cy="1" r="0.5" fill="none"/></g><g transform="translate(6.723 9)" fill="#fff" stroke="#000" stroke-linejoin="round" stroke-width="1"><circle cx="1" cy="1" r="1" stroke="none"/><circle cx="1" cy="1" r="0.5" fill="none"/></g><g transform="translate(6.723 9)" fill="#fff" stroke="#000" stroke-linejoin="round" stroke-width="1"><circle cx="1" cy="1" r="1" stroke="none"/><circle cx="1" cy="1" r="0.5" fill="none"/></g><g fill="none" stroke="#000" stroke-linejoin="round" stroke-width="1"><rect width="30.814" height="20" rx="2" stroke="none"/><rect x="0.5" y="0.5" width="29.814" height="19" rx="1.5" fill="none"/></g><g fill="none" stroke="#000" stroke-linejoin="round" stroke-width="1"><rect width="30.814" height="20" rx="2" stroke="none"/><rect x="0.5" y="0.5" width="29.814" height="19" rx="1.5" fill="none"/></g><g fill="none" stroke="#000" stroke-linejoin="round" stroke-width="1"><rect width="30.814" height="20" rx="2" stroke="none"/><rect x="0.5" y="0.5" width="29.814" height="19" rx="1.5" fill="none"/></g><g fill="none" stroke="#000" stroke-linejoin="round" stroke-width="1"><rect width="30.814" height="20" rx="2" stroke="none"/><rect x="0.5" y="0.5" width="29.814" height="19" rx="1.5" fill="none"/></g><g fill="none" stroke="#000" stroke-linejoin="round" stroke-width="1"><rect width="30.814" height="20" rx="2" stroke="none"/><rect x="0.5" y="0.5" width="29.814" height="19" rx="1.5" fill="none"/></g><g fill="none" stroke="#000" stroke-linejoin="round" stroke-width="1"><rect width="30.814" height="20" rx="2" stroke="none"/><rect x="0.5" y="0.5" width="29.814" height="19" rx="1.5" fill="none"/></g><g fill="none" stroke="#000" stroke-linejoin="round" stroke-width="1"><rect width="30.814" height="20" rx="2" stroke="none"/><rect x="0.5" y="0.5" width="29.814" height="19" rx="1.5" fill="none"/></g><g fill="none" stroke="#000" stroke-linejoin="round" stroke-width="1"><rect width="30.814" height="20" rx="2" stroke="none"/><rect x="0.5" y="0.5" width="29.814" height="19" rx="1.5" fill="none"/></g><g transform="translate(2.946 2.705)" fill="none" stroke-linejoin="round"><path d="M4.7,0H20.9l2.232,2.745,1.683,1.886v6.262L23.131,12.7,20.9,14.589H4.7c-.527,0-4.6-3.7-4.6-3.7V4.631l2-2.376Z" stroke="none"/><path d="M 5.078744888305664 0.9999961853027344 L 2.827823638916016 2.958374977111816 L 1.108757019042969 4.996381759643555 L 1.108757019042969 10.4478006362915 C 2.31712532043457 11.53115844726562 4.273801803588867 13.21875762939453 4.892057418823242 13.58901596069336 L 20.53372383117676 13.58901596069336 L 22.43966674804688 11.97816848754883 L 23.81375694274902 10.49953556060791 L 23.81375694274902 5.012187957763672 L 22.38499641418457 3.410666465759277 C 22.37481689453125 3.399255752563477 22.36490631103516 3.387616157531738 22.35525703430176 3.37575626373291 L 20.42389678955078 0.9999961853027344 L 5.078744888305664 0.9999961853027344 M 4.704616546630859 -3.814697265625e-06 L 20.89970779418945 -3.814697265625e-06 L 23.13120651245117 2.744956016540527 L 24.81375694274902 4.630955696105957 L 24.81375694274902 10.8924560546875 L 23.13120651245117 12.70301628112793 L 20.89970779418945 14.58901596069336 L 4.704616546630859 14.58901596069336 C 4.177637100219727 14.58901596069336 0.1087570190429688 10.8924560546875 0.1087570190429688 10.8924560546875 L 0.1087570190429688 4.630955696105957 L 2.113227844238281 2.254595756530762 L 4.704616546630859 -3.814697265625e-06 Z" stroke="none" fill="#000"/></g><g transform="translate(2.946 2.705)" fill="none" stroke-linejoin="round"><path d="M4.7,0H20.9l2.232,2.745,1.683,1.886v6.262L23.131,12.7,20.9,14.589H4.7c-.527,0-4.6-3.7-4.6-3.7V4.631l2-2.376Z" stroke="none"/><path d="M 5.078744888305664 0.9999961853027344 L 2.827823638916016 2.958374977111816 L 1.108757019042969 4.996381759643555 L 1.108757019042969 10.4478006362915 C 2.31712532043457 11.53115844726562 4.273801803588867 13.21875762939453 4.892057418823242 13.58901596069336 L 20.53372383117676 13.58901596069336 L 22.43966674804688 11.97816848754883 L 23.81375694274902 10.49953556060791 L 23.81375694274902 5.012187957763672 L 22.38499641418457 3.410666465759277 C 22.37481689453125 3.399255752563477 22.36490631103516 3.387616157531738 22.35525703430176 3.37575626373291 L 20.42389678955078 0.9999961853027344 L 5.078744888305664 0.9999961853027344 M 4.704616546630859 -3.814697265625e-06 L 20.89970779418945 -3.814697265625e-06 L 23.13120651245117 2.744956016540527 L 24.81375694274902 4.630955696105957 L 24.81375694274902 10.8924560546875 L 23.13120651245117 12.70301628112793 L 20.89970779418945 14.58901596069336 L 4.704616546630859 14.58901596069336 C 4.177637100219727 14.58901596069336 0.1087570190429688 10.8924560546875 0.1087570190429688 10.8924560546875 L 0.1087570190429688 4.630955696105957 L 2.113227844238281 2.254595756530762 L 4.704616546630859 -3.814697265625e-06 Z" stroke="none" fill="#000"/></g><g transform="translate(2.946 2.705)" fill="none" stroke-linejoin="round"><path d="M4.7,0H20.9l2.232,2.745,1.683,1.886v6.262L23.131,12.7,20.9,14.589H4.7c-.527,0-4.6-3.7-4.6-3.7V4.631l2-2.376Z" stroke="none"/><path d="M 5.078744888305664 0.9999961853027344 L 2.827823638916016 2.958374977111816 L 1.108757019042969 4.996381759643555 L 1.108757019042969 10.4478006362915 C 2.31712532043457 11.53115844726562 4.273801803588867 13.21875762939453 4.892057418823242 13.58901596069336 L 20.53372383117676 13.58901596069336 L 22.43966674804688 11.97816848754883 L 23.81375694274902 10.49953556060791 L 23.81375694274902 5.012187957763672 L 22.38499641418457 3.410666465759277 C 22.37481689453125 3.399255752563477 22.36490631103516 3.387616157531738 22.35525703430176 3.37575626373291 L 20.42389678955078 0.9999961853027344 L 5.078744888305664 0.9999961853027344 M 4.704616546630859 -3.814697265625e-06 L 20.89970779418945 -3.814697265625e-06 L 23.13120651245117 2.744956016540527 L 24.81375694274902 4.630955696105957 L 24.81375694274902 10.8924560546875 L 23.13120651245117 12.70301628112793 L 20.89970779418945 14.58901596069336 L 4.704616546630859 14.58901596069336 C 4.177637100219727 14.58901596069336 0.1087570190429688 10.8924560546875 0.1087570190429688 10.8924560546875 L 0.1087570190429688 4.630955696105957 L 2.113227844238281 2.254595756530762 L 4.704616546630859 -3.814697265625e-06 Z" stroke="none" fill="#000"/></g><g transform="translate(2.946 2.705)" fill="none" stroke-linejoin="round"><path d="M4.7,0H20.9l2.232,2.745,1.683,1.886v6.262L23.131,12.7,20.9,14.589H4.7c-.527,0-4.6-3.7-4.6-3.7V4.631l2-2.376Z" stroke="none"/><path d="M 5.078744888305664 0.9999961853027344 L 2.827823638916016 2.958374977111816 L 1.108757019042969 4.996381759643555 L 1.108757019042969 10.4478006362915 C 2.31712532043457 11.53115844726562 4.273801803588867 13.21875762939453 4.892057418823242 13.58901596069336 L 20.53372383117676 13.58901596069336 L 22.43966674804688 11.97816848754883 L 23.81375694274902 10.49953556060791 L 23.81375694274902 5.012187957763672 L 22.38499641418457 3.410666465759277 C 22.37481689453125 3.399255752563477 22.36490631103516 3.387616157531738 22.35525703430176 3.37575626373291 L 20.42389678955078 0.9999961853027344 L 5.078744888305664 0.9999961853027344 M 4.704616546630859 -3.814697265625e-06 L 20.89970779418945 -3.814697265625e-06 L 23.13120651245117 2.744956016540527 L 24.81375694274902 4.630955696105957 L 24.81375694274902 10.8924560546875 L 23.13120651245117 12.70301628112793 L 20.89970779418945 14.58901596069336 L 4.704616546630859 14.58901596069336 C 4.177637100219727 14.58901596069336 0.1087570190429688 10.8924560546875 0.1087570190429688 10.8924560546875 L 0.1087570190429688 4.630955696105957 L 2.113227844238281 2.254595756530762 L 4.704616546630859 -3.814697265625e-06 Z" stroke="none" fill="#000"/></g><g transform="translate(2.946 2.705)" fill="none" stroke-linejoin="round"><path d="M4.7,0H20.9l2.232,2.745,1.683,1.886v6.262L23.131,12.7,20.9,14.589H4.7c-.527,0-4.6-3.7-4.6-3.7V4.631l2-2.376Z" stroke="none"/><path d="M 5.078744888305664 0.9999961853027344 L 2.827823638916016 2.958374977111816 L 1.108757019042969 4.996381759643555 L 1.108757019042969 10.4478006362915 C 2.31712532043457 11.53115844726562 4.273801803588867 13.21875762939453 4.892057418823242 13.58901596069336 L 20.53372383117676 13.58901596069336 L 22.43966674804688 11.97816848754883 L 23.81375694274902 10.49953556060791 L 23.81375694274902 5.012187957763672 L 22.38499641418457 3.410666465759277 C 22.37481689453125 3.399255752563477 22.36490631103516 3.387616157531738 22.35525703430176 3.37575626373291 L 20.42389678955078 0.9999961853027344 L 5.078744888305664 0.9999961853027344 M 4.704616546630859 -3.814697265625e-06 L 20.89970779418945 -3.814697265625e-06 L 23.13120651245117 2.744956016540527 L 24.81375694274902 4.630955696105957 L 24.81375694274902 10.8924560546875 L 23.13120651245117 12.70301628112793 L 20.89970779418945 14.58901596069336 L 4.704616546630859 14.58901596069336 C 4.177637100219727 14.58901596069336 0.1087570190429688 10.8924560546875 0.1087570190429688 10.8924560546875 L 0.1087570190429688 4.630955696105957 L 2.113227844238281 2.254595756530762 L 4.704616546630859 -3.814697265625e-06 Z" stroke="none" fill="#000"/></g><g transform="translate(2.946 2.705)" fill="none" stroke-linejoin="round"><path d="M4.7,0H20.9l2.232,2.745,1.683,1.886v6.262L23.131,12.7,20.9,14.589H4.7c-.527,0-4.6-3.7-4.6-3.7V4.631l2-2.376Z" stroke="none"/><path d="M 5.078744888305664 0.9999961853027344 L 2.827823638916016 2.958374977111816 L 1.108757019042969 4.996381759643555 L 1.108757019042969 10.4478006362915 C 2.31712532043457 11.53115844726562 4.273801803588867 13.21875762939453 4.892057418823242 13.58901596069336 L 20.53372383117676 13.58901596069336 L 22.43966674804688 11.97816848754883 L 23.81375694274902 10.49953556060791 L 23.81375694274902 5.012187957763672 L 22.38499641418457 3.410666465759277 C 22.37481689453125 3.399255752563477 22.36490631103516 3.387616157531738 22.35525703430176 3.37575626373291 L 20.42389678955078 0.9999961853027344 L 5.078744888305664 0.9999961853027344 M 4.704616546630859 -3.814697265625e-06 L 20.89970779418945 -3.814697265625e-06 L 23.13120651245117 2.744956016540527 L 24.81375694274902 4.630955696105957 L 24.81375694274902 10.8924560546875 L 23.13120651245117 12.70301628112793 L 20.89970779418945 14.58901596069336 L 4.704616546630859 14.58901596069336 C 4.177637100219727 14.58901596069336 0.1087570190429688 10.8924560546875 0.1087570190429688 10.8924560546875 L 0.1087570190429688 4.630955696105957 L 2.113227844238281 2.254595756530762 L 4.704616546630859 -3.814697265625e-06 Z" stroke="none" fill="#000"/></g><g transform="translate(2.946 2.705)" fill="none" stroke-linejoin="round"><path d="M4.7,0H20.9l2.232,2.745,1.683,1.886v6.262L23.131,12.7,20.9,14.589H4.7c-.527,0-4.6-3.7-4.6-3.7V4.631l2-2.376Z" stroke="none"/><path d="M 5.078744888305664 0.9999961853027344 L 2.827823638916016 2.958374977111816 L 1.108757019042969 4.996381759643555 L 1.108757019042969 10.4478006362915 C 2.31712532043457 11.53115844726562 4.273801803588867 13.21875762939453 4.892057418823242 13.58901596069336 L 20.53372383117676 13.58901596069336 L 22.43966674804688 11.97816848754883 L 23.81375694274902 10.49953556060791 L 23.81375694274902 5.012187957763672 L 22.38499641418457 3.410666465759277 C 22.37481689453125 3.399255752563477 22.36490631103516 3.387616157531738 22.35525703430176 3.37575626373291 L 20.42389678955078 0.9999961853027344 L 5.078744888305664 0.9999961853027344 M 4.704616546630859 -3.814697265625e-06 L 20.89970779418945 -3.814697265625e-06 L 23.13120651245117 2.744956016540527 L 24.81375694274902 4.630955696105957 L 24.81375694274902 10.8924560546875 L 23.13120651245117 12.70301628112793 L 20.89970779418945 14.58901596069336 L 4.704616546630859 14.58901596069336 C 4.177637100219727 14.58901596069336 0.1087570190429688 10.8924560546875 0.1087570190429688 10.8924560546875 L 0.1087570190429688 4.630955696105957 L 2.113227844238281 2.254595756530762 L 4.704616546630859 -3.814697265625e-06 Z" stroke="none" fill="#000"/></g><g transform="translate(2.946 2.705)" fill="none" stroke-linejoin="round"><path d="M4.7,0H20.9l2.232,2.745,1.683,1.886v6.262L23.131,12.7,20.9,14.589H4.7c-.527,0-4.6-3.7-4.6-3.7V4.631L2.183,2.26Z" stroke="none"/><path d="M 5.08709716796875 0.9999961853027344 L 2.895532608032227 2.96375560760498 L 1.108757019042969 5.006587982177734 L 1.108757019042969 10.4478006362915 C 2.31712532043457 11.53115844726562 4.273801803588867 13.21875762939453 4.892057418823242 13.58901596069336 L 20.53372383117676 13.58901596069336 L 22.43966674804688 11.97816848754883 L 23.81375694274902 10.49953556060791 L 23.81375694274902 5.012187957763672 L 22.38499641418457 3.410666465759277 C 22.37481689453125 3.399255752563477 22.36490631103516 3.387616157531738 22.35525703430176 3.37575626373291 L 20.42389678955078 0.9999961853027344 L 5.08709716796875 0.9999961853027344 M 4.704616546630859 -3.814697265625e-06 L 20.89970779418945 -3.814697265625e-06 L 23.13120651245117 2.744956016540527 L 24.81375694274902 4.630955696105957 L 24.81375694274902 10.8924560546875 L 23.13120651245117 12.70301628112793 L 20.89970779418945 14.58901596069336 L 4.704616546630859 14.58901596069336 C 4.177637100219727 14.58901596069336 0.1087570190429688 10.8924560546875 0.1087570190429688 10.8924560546875 L 0.1087570190429688 4.630955696105957 L 2.182836532592773 2.259646415710449 L 4.704616546630859 -3.814697265625e-06 Z" stroke="none" fill="#000"/></g><g transform="translate(11.407 6)" fill="none" stroke="#000" stroke-linejoin="round" stroke-width="1"><circle cx="4" cy="4" r="4" stroke="none"/><circle cx="4" cy="4" r="3.5" fill="none"/></g><g transform="translate(11.407 6)" fill="none" stroke="#000" stroke-linejoin="round" stroke-width="1"><circle cx="4" cy="4" r="4" stroke="none"/><circle cx="4" cy="4" r="3.5" fill="none"/></g><g transform="translate(11.407 6)" fill="none" stroke="#000" stroke-linejoin="round" stroke-width="1"><circle cx="4" cy="4" r="4" stroke="none"/><circle cx="4" cy="4" r="3.5" fill="none"/></g><g transform="translate(11.407 6)" fill="none" stroke="#000" stroke-linejoin="round" stroke-width="1"><circle cx="4" cy="4" r="4" stroke="none"/><circle cx="4" cy="4" r="3.5" fill="none"/></g><g transform="translate(11.407 6)" fill="none" stroke="#000" stroke-linejoin="round" stroke-width="1"><circle cx="4" cy="4" r="4" stroke="none"/><circle cx="4" cy="4" r="3.5" fill="none"/></g><g transform="translate(11.407 6)" fill="none" stroke="#000" stroke-linejoin="round" stroke-width="1"><circle cx="4" cy="4" r="4" stroke="none"/><circle cx="4" cy="4" r="3.5" fill="none"/></g><g transform="translate(11.407 6)" fill="none" stroke="#000" stroke-linejoin="round" stroke-width="1"><circle cx="4" cy="4" r="4" stroke="none"/><circle cx="4" cy="4" r="3.5" fill="none"/></g><g transform="translate(11.407 6)" fill="none" stroke="#000" stroke-linejoin="round" stroke-width="1"><circle cx="4" cy="4" r="4" stroke="none"/><circle cx="4" cy="4" r="3.5" fill="none"/></g><g transform="translate(22.091 9)" fill="#fff" stroke="#000" stroke-linejoin="round" stroke-width="1"><circle cx="1" cy="1" r="1" stroke="none"/><circle cx="1" cy="1" r="0.5" fill="none"/></g><g transform="translate(22.091 9)" fill="#fff" stroke="#000" stroke-linejoin="round" stroke-width="1"><circle cx="1" cy="1" r="1" stroke="none"/><circle cx="1" cy="1" r="0.5" fill="none"/></g><g transform="translate(22.091 9)" fill="#fff" stroke="#000" stroke-linejoin="round" stroke-width="1"><circle cx="1" cy="1" r="1" stroke="none"/><circle cx="1" cy="1" r="0.5" fill="none"/></g><g transform="translate(22.091 9)" fill="#fff" stroke="#000" stroke-linejoin="round" stroke-width="1"><circle cx="1" cy="1" r="1" stroke="none"/><circle cx="1" cy="1" r="0.5" fill="none"/></g><g transform="translate(22.091 9)" fill="#fff" stroke="#000" stroke-linejoin="round" stroke-width="1"><circle cx="1" cy="1" r="1" stroke="none"/><circle cx="1" cy="1" r="0.5" fill="none"/></g><g transform="translate(22.091 9)" fill="#fff" stroke="#000" stroke-linejoin="round" stroke-width="1"><circle cx="1" cy="1" r="1" stroke="none"/><circle cx="1" cy="1" r="0.5" fill="none"/></g><g transform="translate(22.091 9)" fill="#fff" stroke="#000" stroke-linejoin="round" stroke-width="1"><circle cx="1" cy="1" r="1" stroke="none"/><circle cx="1" cy="1" r="0.5" fill="none"/></g><g transform="translate(22.091 9)" fill="#fff" stroke="#000" stroke-linejoin="round" stroke-width="1"><circle cx="1" cy="1" r="1" stroke="none"/><circle cx="1" cy="1" r="0.5" fill="none"/></g><g transform="translate(6.723 9)" fill="#fff" stroke="#000" stroke-linejoin="round" stroke-width="1"><circle cx="1" cy="1" r="1" stroke="none"/><circle cx="1" cy="1" r="0.5" fill="none"/></g><g transform="translate(6.723 9)" fill="#fff" stroke="#000" stroke-linejoin="round" stroke-width="1"><circle cx="1" cy="1" r="1" stroke="none"/><circle cx="1" cy="1" r="0.5" fill="none"/></g><g transform="translate(6.723 9)" fill="#fff" stroke="#000" stroke-linejoin="round" stroke-width="1"><circle cx="1" cy="1" r="1" stroke="none"/><circle cx="1" cy="1" r="0.5" fill="none"/></g><g transform="translate(6.723 9)" fill="#fff" stroke="#000" stroke-linejoin="round" stroke-width="1"><circle cx="1" cy="1" r="1" stroke="none"/><circle cx="1" cy="1" r="0.5" fill="none"/></g><g transform="translate(6.723 9)" fill="#fff" stroke="#000" stroke-linejoin="round" stroke-width="1"><circle cx="1" cy="1" r="1" stroke="none"/><circle cx="1" cy="1" r="0.5" fill="none"/></g><g transform="translate(6.723 9)" fill="#fff" stroke="#000" stroke-linejoin="round" stroke-width="1"><circle cx="1" cy="1" r="1" stroke="none"/><circle cx="1" cy="1" r="0.5" fill="none"/></g><g transform="translate(6.723 9)" fill="#fff" stroke="#000" stroke-linejoin="round" stroke-width="1"><circle cx="1" cy="1" r="1" stroke="none"/><circle cx="1" cy="1" r="0.5" fill="none"/></g><g transform="translate(6.723 9)" fill="#fff" stroke="#000" stroke-linejoin="round" stroke-width="1"><circle cx="1" cy="1" r="1" stroke="none"/><circle cx="1" cy="1" r="0.5" fill="none"/></g></g><rect width="30.539" height="19" transform="translate(-18 13.605)" fill="#fff"/></g></g><g transform="translate(224 -101)"><g fill="none" stroke="#000" stroke-width="1"><rect width="32" height="20" rx="2" stroke="none"/><rect x="0.5" y="0.5" width="31" height="19" rx="1.5" fill="none"/></g><g fill="none" stroke="#000" stroke-width="1"><rect width="32" height="20" rx="2" stroke="none"/><rect x="0.5" y="0.5" width="31" height="19" rx="1.5" fill="none"/></g><g fill="none" stroke="#000" stroke-width="1"><rect width="32" height="20" rx="2" stroke="none"/><rect x="0.5" y="0.5" width="31" height="19" rx="1.5" fill="none"/></g><g fill="none" stroke="#000" stroke-width="1"><rect width="32" height="20" rx="2" stroke="none"/><rect x="0.5" y="0.5" width="31" height="19" rx="1.5" fill="none"/></g><g fill="none" stroke="#000" stroke-width="1"><rect width="32" height="20" rx="2" stroke="none"/><rect x="0.5" y="0.5" width="31" height="19" rx="1.5" fill="none"/></g><g fill="none" stroke="#000" stroke-width="1"><rect width="32" height="20" rx="2" stroke="none"/><rect x="0.5" y="0.5" width="31" height="19" rx="1.5" fill="none"/></g><g fill="none" stroke="#000" stroke-width="1"><rect width="32" height="20" rx="2" stroke="none"/><rect x="0.5" y="0.5" width="31" height="19" rx="1.5" fill="none"/></g><g fill="none" stroke="#000" stroke-width="1"><rect width="32" height="20" rx="2" stroke="none"/><rect x="0.5" y="0.5" width="31" height="19" rx="1.5" fill="none"/></g><g transform="translate(2.946 2.705)" fill="none"><path d="M4.925,0H21.9l2.339,2.745L26,4.631v6.262L24.237,12.7,21.9,14.589H4.925c-.552,0-4.817-3.7-4.817-3.7V4.631l2.1-2.376Z" stroke="none"/><path d="M 5.286291122436523 0.9999961853027344 L 2.907566070556641 2.974749565124512 L 1.108760833740234 5.009589195251465 L 1.108760833740234 10.43380832672119 C 2.389726638793945 11.52964210510254 4.465993881225586 13.23759269714355 5.097328186035156 13.58901596069336 L 21.5450325012207 13.58901596069336 L 23.5621452331543 11.96231937408447 L 25 10.48596096038818 L 25 5.025616645812988 L 23.47546005249023 3.393476486206055 L 21.43626403808594 0.9999961853027344 L 5.286291122436523 0.9999961853027344 M 4.925291061401367 -3.814697265625e-06 L 21.89801025390625 -3.814697265625e-06 L 24.23666000366211 2.744956016540527 L 26 4.630955696105957 L 26 10.8924560546875 L 24.23666000366211 12.70301628112793 L 21.89801025390625 14.58901596069336 L 4.925291061401367 14.58901596069336 C 4.373010635375977 14.58901596069336 0.1087608337402344 10.8924560546875 0.1087608337402344 10.8924560546875 L 0.1087608337402344 4.630955696105957 L 2.209470748901367 2.254595756530762 L 4.925291061401367 -3.814697265625e-06 Z" stroke="none" fill="#000"/></g><g transform="translate(2.946 2.705)" fill="none"><path d="M4.925,0H21.9l2.339,2.745L26,4.631v6.262L24.237,12.7,21.9,14.589H4.925c-.552,0-4.817-3.7-4.817-3.7V4.631l2.1-2.376Z" stroke="none"/><path d="M 5.286291122436523 0.9999961853027344 L 2.907566070556641 2.974749565124512 L 1.108760833740234 5.009589195251465 L 1.108760833740234 10.43380832672119 C 2.389726638793945 11.52964210510254 4.465993881225586 13.23759269714355 5.097328186035156 13.58901596069336 L 21.5450325012207 13.58901596069336 L 23.5621452331543 11.96231937408447 L 25 10.48596096038818 L 25 5.025616645812988 L 23.47546005249023 3.393476486206055 L 21.43626403808594 0.9999961853027344 L 5.286291122436523 0.9999961853027344 M 4.925291061401367 -3.814697265625e-06 L 21.89801025390625 -3.814697265625e-06 L 24.23666000366211 2.744956016540527 L 26 4.630955696105957 L 26 10.8924560546875 L 24.23666000366211 12.70301628112793 L 21.89801025390625 14.58901596069336 L 4.925291061401367 14.58901596069336 C 4.373010635375977 14.58901596069336 0.1087608337402344 10.8924560546875 0.1087608337402344 10.8924560546875 L 0.1087608337402344 4.630955696105957 L 2.209470748901367 2.254595756530762 L 4.925291061401367 -3.814697265625e-06 Z" stroke="none" fill="#000"/></g><g transform="translate(2.946 2.705)" fill="none"><path d="M4.925,0H21.9l2.339,2.745L26,4.631v6.262L24.237,12.7,21.9,14.589H4.925c-.552,0-4.817-3.7-4.817-3.7V4.631l2.1-2.376Z" stroke="none"/><path d="M 5.286291122436523 0.9999961853027344 L 2.907566070556641 2.974749565124512 L 1.108760833740234 5.009589195251465 L 1.108760833740234 10.43380832672119 C 2.389726638793945 11.52964210510254 4.465993881225586 13.23759269714355 5.097328186035156 13.58901596069336 L 21.5450325012207 13.58901596069336 L 23.5621452331543 11.96231937408447 L 25 10.48596096038818 L 25 5.025616645812988 L 23.47546005249023 3.393476486206055 L 21.43626403808594 0.9999961853027344 L 5.286291122436523 0.9999961853027344 M 4.925291061401367 -3.814697265625e-06 L 21.89801025390625 -3.814697265625e-06 L 24.23666000366211 2.744956016540527 L 26 4.630955696105957 L 26 10.8924560546875 L 24.23666000366211 12.70301628112793 L 21.89801025390625 14.58901596069336 L 4.925291061401367 14.58901596069336 C 4.373010635375977 14.58901596069336 0.1087608337402344 10.8924560546875 0.1087608337402344 10.8924560546875 L 0.1087608337402344 4.630955696105957 L 2.209470748901367 2.254595756530762 L 4.925291061401367 -3.814697265625e-06 Z" stroke="none" fill="#000"/></g><g transform="translate(2.946 2.705)" fill="none"><path d="M4.925,0H21.9l2.339,2.745L26,4.631v6.262L24.237,12.7,21.9,14.589H4.925c-.552,0-4.817-3.7-4.817-3.7V4.631l2.1-2.376Z" stroke="none"/><path d="M 5.286291122436523 0.9999961853027344 L 2.907566070556641 2.974749565124512 L 1.108760833740234 5.009589195251465 L 1.108760833740234 10.43380832672119 C 2.389726638793945 11.52964210510254 4.465993881225586 13.23759269714355 5.097328186035156 13.58901596069336 L 21.5450325012207 13.58901596069336 L 23.5621452331543 11.96231937408447 L 25 10.48596096038818 L 25 5.025616645812988 L 23.47546005249023 3.393476486206055 L 21.43626403808594 0.9999961853027344 L 5.286291122436523 0.9999961853027344 M 4.925291061401367 -3.814697265625e-06 L 21.89801025390625 -3.814697265625e-06 L 24.23666000366211 2.744956016540527 L 26 4.630955696105957 L 26 10.8924560546875 L 24.23666000366211 12.70301628112793 L 21.89801025390625 14.58901596069336 L 4.925291061401367 14.58901596069336 C 4.373010635375977 14.58901596069336 0.1087608337402344 10.8924560546875 0.1087608337402344 10.8924560546875 L 0.1087608337402344 4.630955696105957 L 2.209470748901367 2.254595756530762 L 4.925291061401367 -3.814697265625e-06 Z" stroke="none" fill="#000"/></g><g transform="translate(2.946 2.705)" fill="none"><path d="M4.925,0H21.9l2.339,2.745L26,4.631v6.262L24.237,12.7,21.9,14.589H4.925c-.552,0-4.817-3.7-4.817-3.7V4.631l2.1-2.376Z" stroke="none"/><path d="M 5.286291122436523 0.9999961853027344 L 2.907566070556641 2.974749565124512 L 1.108760833740234 5.009589195251465 L 1.108760833740234 10.43380832672119 C 2.389726638793945 11.52964210510254 4.465993881225586 13.23759269714355 5.097328186035156 13.58901596069336 L 21.5450325012207 13.58901596069336 L 23.5621452331543 11.96231937408447 L 25 10.48596096038818 L 25 5.025616645812988 L 23.47546005249023 3.393476486206055 L 21.43626403808594 0.9999961853027344 L 5.286291122436523 0.9999961853027344 M 4.925291061401367 -3.814697265625e-06 L 21.89801025390625 -3.814697265625e-06 L 24.23666000366211 2.744956016540527 L 26 4.630955696105957 L 26 10.8924560546875 L 24.23666000366211 12.70301628112793 L 21.89801025390625 14.58901596069336 L 4.925291061401367 14.58901596069336 C 4.373010635375977 14.58901596069336 0.1087608337402344 10.8924560546875 0.1087608337402344 10.8924560546875 L 0.1087608337402344 4.630955696105957 L 2.209470748901367 2.254595756530762 L 4.925291061401367 -3.814697265625e-06 Z" stroke="none" fill="#000"/></g><g transform="translate(2.946 2.705)" fill="none"><path d="M4.925,0H21.9l2.339,2.745L26,4.631v6.262L24.237,12.7,21.9,14.589H4.925c-.552,0-4.817-3.7-4.817-3.7V4.631l2.1-2.376Z" stroke="none"/><path d="M 5.286291122436523 0.9999961853027344 L 2.907566070556641 2.974749565124512 L 1.108760833740234 5.009589195251465 L 1.108760833740234 10.43380832672119 C 2.389726638793945 11.52964210510254 4.465993881225586 13.23759269714355 5.097328186035156 13.58901596069336 L 21.5450325012207 13.58901596069336 L 23.5621452331543 11.96231937408447 L 25 10.48596096038818 L 25 5.025616645812988 L 23.47546005249023 3.393476486206055 L 21.43626403808594 0.9999961853027344 L 5.286291122436523 0.9999961853027344 M 4.925291061401367 -3.814697265625e-06 L 21.89801025390625 -3.814697265625e-06 L 24.23666000366211 2.744956016540527 L 26 4.630955696105957 L 26 10.8924560546875 L 24.23666000366211 12.70301628112793 L 21.89801025390625 14.58901596069336 L 4.925291061401367 14.58901596069336 C 4.373010635375977 14.58901596069336 0.1087608337402344 10.8924560546875 0.1087608337402344 10.8924560546875 L 0.1087608337402344 4.630955696105957 L 2.209470748901367 2.254595756530762 L 4.925291061401367 -3.814697265625e-06 Z" stroke="none" fill="#000"/></g><g transform="translate(2.946 2.705)" fill="none"><path d="M4.925,0H21.9l2.339,2.745L26,4.631v6.262L24.237,12.7,21.9,14.589H4.925c-.552,0-4.817-3.7-4.817-3.7V4.631l2.1-2.376Z" stroke="none"/><path d="M 5.286291122436523 0.9999961853027344 L 2.907566070556641 2.974749565124512 L 1.108760833740234 5.009589195251465 L 1.108760833740234 10.43380832672119 C 2.389726638793945 11.52964210510254 4.465993881225586 13.23759269714355 5.097328186035156 13.58901596069336 L 21.5450325012207 13.58901596069336 L 23.5621452331543 11.96231937408447 L 25 10.48596096038818 L 25 5.025616645812988 L 23.47546005249023 3.393476486206055 L 21.43626403808594 0.9999961853027344 L 5.286291122436523 0.9999961853027344 M 4.925291061401367 -3.814697265625e-06 L 21.89801025390625 -3.814697265625e-06 L 24.23666000366211 2.744956016540527 L 26 4.630955696105957 L 26 10.8924560546875 L 24.23666000366211 12.70301628112793 L 21.89801025390625 14.58901596069336 L 4.925291061401367 14.58901596069336 C 4.373010635375977 14.58901596069336 0.1087608337402344 10.8924560546875 0.1087608337402344 10.8924560546875 L 0.1087608337402344 4.630955696105957 L 2.209470748901367 2.254595756530762 L 4.925291061401367 -3.814697265625e-06 Z" stroke="none" fill="#000"/></g><g transform="translate(2.946 2.705)" fill="none" stroke-linejoin="bevel"><path d="M4.925,0H21.9l2.339,2.745L26,4.631v6.262L24.237,12.7,21.9,14.589H4.925c-.552,0-4.817-3.7-4.817-3.7V4.631L2.282,2.26Z" stroke="none"/><path d="M 5.29450798034668 0.9999961853027344 L 2.978507995605469 2.980172157287598 L 1.108760833740234 5.019936561584473 L 1.108760833740234 10.43380832672119 C 2.389726638793945 11.52964210510254 4.465993881225586 13.23759269714355 5.097328186035156 13.58901596069336 L 21.5450325012207 13.58901596069336 L 23.5621452331543 11.96231937408447 L 25 10.48596096038818 L 25 5.025616645812988 L 23.47546005249023 3.393476486206055 L 21.43626403808594 0.9999961853027344 L 5.29450798034668 0.9999961853027344 M 4.925291061401367 -3.814697265625e-06 L 21.89801025390625 -3.814697265625e-06 L 24.23666000366211 2.744956016540527 L 26 4.630955696105957 L 26 10.8924560546875 L 24.23666000366211 12.70301628112793 L 21.89801025390625 14.58901596069336 L 4.925291061401367 14.58901596069336 C 4.373010635375977 14.58901596069336 0.1087608337402344 10.8924560546875 0.1087608337402344 10.8924560546875 L 0.1087608337402344 4.630955696105957 L 2.282421112060547 2.259646415710449 L 4.925291061401367 -3.814697265625e-06 Z" stroke="none" fill="#000"/></g><g transform="translate(12 6)" fill="none" stroke="#000" stroke-width="1"><circle cx="4" cy="4" r="4" stroke="none"/><circle cx="4" cy="4" r="3.5" fill="none"/></g><g transform="translate(12 6)" fill="none" stroke="#000" stroke-width="1"><circle cx="4" cy="4" r="4" stroke="none"/><circle cx="4" cy="4" r="3.5" fill="none"/></g><g transform="translate(12 6)" fill="none" stroke="#000" stroke-width="1"><circle cx="4" cy="4" r="4" stroke="none"/><circle cx="4" cy="4" r="3.5" fill="none"/></g><g transform="translate(12 6)" fill="none" stroke="#000" stroke-width="1"><circle cx="4" cy="4" r="4" stroke="none"/><circle cx="4" cy="4" r="3.5" fill="none"/></g><g transform="translate(12 6)" fill="none" stroke="#000" stroke-width="1"><circle cx="4" cy="4" r="4" stroke="none"/><circle cx="4" cy="4" r="3.5" fill="none"/></g><g transform="translate(12 6)" fill="none" stroke="#000" stroke-width="1"><circle cx="4" cy="4" r="4" stroke="none"/><circle cx="4" cy="4" r="3.5" fill="none"/></g><g transform="translate(12 6)" fill="none" stroke="#000" stroke-width="1"><circle cx="4" cy="4" r="4" stroke="none"/><circle cx="4" cy="4" r="3.5" fill="none"/></g><g transform="translate(12 6)" fill="none" stroke="#000" stroke-width="1"><circle cx="4" cy="4" r="4" stroke="none"/><circle cx="4" cy="4" r="3.5" fill="none"/></g><g transform="translate(23 9)" fill="#fff" stroke="#000" stroke-width="1"><circle cx="1" cy="1" r="1" stroke="none"/><circle cx="1" cy="1" r="0.5" fill="none"/></g><g transform="translate(23 9)" fill="#fff" stroke="#000" stroke-width="1"><circle cx="1" cy="1" r="1" stroke="none"/><circle cx="1" cy="1" r="0.5" fill="none"/></g><g transform="translate(23 9)" fill="#fff" stroke="#000" stroke-width="1"><circle cx="1" cy="1" r="1" stroke="none"/><circle cx="1" cy="1" r="0.5" fill="none"/></g><g transform="translate(23 9)" fill="#fff" stroke="#000" stroke-width="1"><circle cx="1" cy="1" r="1" stroke="none"/><circle cx="1" cy="1" r="0.5" fill="none"/></g><g transform="translate(23 9)" fill="#fff" stroke="#000" stroke-width="1"><circle cx="1" cy="1" r="1" stroke="none"/><circle cx="1" cy="1" r="0.5" fill="none"/></g><g transform="translate(23 9)" fill="#fff" stroke="#000" stroke-width="1"><circle cx="1" cy="1" r="1" stroke="none"/><circle cx="1" cy="1" r="0.5" fill="none"/></g><g transform="translate(23 9)" fill="#fff" stroke="#000" stroke-width="1"><circle cx="1" cy="1" r="1" stroke="none"/><circle cx="1" cy="1" r="0.5" fill="none"/></g><g transform="translate(23 9)" fill="#fff" stroke="#000" stroke-width="1"><circle cx="1" cy="1" r="1" stroke="none"/><circle cx="1" cy="1" r="0.5" fill="none"/></g><g transform="translate(7 9)" fill="#fff" stroke="#000" stroke-width="1"><circle cx="1" cy="1" r="1" stroke="none"/><circle cx="1" cy="1" r="0.5" fill="none"/></g><g transform="translate(7 9)" fill="#fff" stroke="#000" stroke-width="1"><circle cx="1" cy="1" r="1" stroke="none"/><circle cx="1" cy="1" r="0.5" fill="none"/></g><g transform="translate(7 9)" fill="#fff" stroke="#000" stroke-width="1"><circle cx="1" cy="1" r="1" stroke="none"/><circle cx="1" cy="1" r="0.5" fill="none"/></g><g transform="translate(7 9)" fill="#fff" stroke="#000" stroke-width="1"><circle cx="1" cy="1" r="1" stroke="none"/><circle cx="1" cy="1" r="0.5" fill="none"/></g><g transform="translate(7 9)" fill="#fff" stroke="#000" stroke-width="1"><circle cx="1" cy="1" r="1" stroke="none"/><circle cx="1" cy="1" r="0.5" fill="none"/></g><g transform="translate(7 9)" fill="#fff" stroke="#000" stroke-width="1"><circle cx="1" cy="1" r="1" stroke="none"/><circle cx="1" cy="1" r="0.5" fill="none"/></g><g transform="translate(7 9)" fill="#fff" stroke="#000" stroke-width="1"><circle cx="1" cy="1" r="1" stroke="none"/><circle cx="1" cy="1" r="0.5" fill="none"/></g><g transform="translate(7 9)" fill="#fff" stroke="#000" stroke-width="1"><circle cx="1" cy="1" r="1" stroke="none"/><circle cx="1" cy="1" r="0.5" fill="none"/></g><g fill="none" stroke="#000" stroke-width="1"><rect width="32" height="20" rx="2" stroke="none"/><rect x="0.5" y="0.5" width="31" height="19" rx="1.5" fill="none"/></g><g fill="none" stroke="#000" stroke-width="1"><rect width="32" height="20" rx="2" stroke="none"/><rect x="0.5" y="0.5" width="31" height="19" rx="1.5" fill="none"/></g><g fill="none" stroke="#000" stroke-width="1"><rect width="32" height="20" rx="2" stroke="none"/><rect x="0.5" y="0.5" width="31" height="19" rx="1.5" fill="none"/></g><g fill="none" stroke="#000" stroke-width="1"><rect width="32" height="20" rx="2" stroke="none"/><rect x="0.5" y="0.5" width="31" height="19" rx="1.5" fill="none"/></g><g fill="none" stroke="#000" stroke-width="1"><rect width="32" height="20" rx="2" stroke="none"/><rect x="0.5" y="0.5" width="31" height="19" rx="1.5" fill="none"/></g><g fill="none" stroke="#000" stroke-width="1"><rect width="32" height="20" rx="2" stroke="none"/><rect x="0.5" y="0.5" width="31" height="19" rx="1.5" fill="none"/></g><g fill="none" stroke="#000" stroke-width="1"><rect width="32" height="20" rx="2" stroke="none"/><rect x="0.5" y="0.5" width="31" height="19" rx="1.5" fill="none"/></g><g fill="none" stroke="#000" stroke-width="1"><rect width="32" height="20" rx="2" stroke="none"/><rect x="0.5" y="0.5" width="31" height="19" rx="1.5" fill="none"/></g><g transform="translate(2.946 2.705)" fill="none"><path d="M4.925,0H21.9l2.339,2.745L26,4.631v6.262L24.237,12.7,21.9,14.589H4.925c-.552,0-4.817-3.7-4.817-3.7V4.631l2.1-2.376Z" stroke="none"/><path d="M 5.286291122436523 0.9999961853027344 L 2.907566070556641 2.974749565124512 L 1.108760833740234 5.009589195251465 L 1.108760833740234 10.43380832672119 C 2.389726638793945 11.52964210510254 4.465993881225586 13.23759269714355 5.097328186035156 13.58901596069336 L 21.5450325012207 13.58901596069336 L 23.5621452331543 11.96231937408447 L 25 10.48596096038818 L 25 5.025616645812988 L 23.47546005249023 3.393476486206055 L 21.43626403808594 0.9999961853027344 L 5.286291122436523 0.9999961853027344 M 4.925291061401367 -3.814697265625e-06 L 21.89801025390625 -3.814697265625e-06 L 24.23666000366211 2.744956016540527 L 26 4.630955696105957 L 26 10.8924560546875 L 24.23666000366211 12.70301628112793 L 21.89801025390625 14.58901596069336 L 4.925291061401367 14.58901596069336 C 4.373010635375977 14.58901596069336 0.1087608337402344 10.8924560546875 0.1087608337402344 10.8924560546875 L 0.1087608337402344 4.630955696105957 L 2.209470748901367 2.254595756530762 L 4.925291061401367 -3.814697265625e-06 Z" stroke="none" fill="#000"/></g><g transform="translate(2.946 2.705)" fill="none"><path d="M4.925,0H21.9l2.339,2.745L26,4.631v6.262L24.237,12.7,21.9,14.589H4.925c-.552,0-4.817-3.7-4.817-3.7V4.631l2.1-2.376Z" stroke="none"/><path d="M 5.286291122436523 0.9999961853027344 L 2.907566070556641 2.974749565124512 L 1.108760833740234 5.009589195251465 L 1.108760833740234 10.43380832672119 C 2.389726638793945 11.52964210510254 4.465993881225586 13.23759269714355 5.097328186035156 13.58901596069336 L 21.5450325012207 13.58901596069336 L 23.5621452331543 11.96231937408447 L 25 10.48596096038818 L 25 5.025616645812988 L 23.47546005249023 3.393476486206055 L 21.43626403808594 0.9999961853027344 L 5.286291122436523 0.9999961853027344 M 4.925291061401367 -3.814697265625e-06 L 21.89801025390625 -3.814697265625e-06 L 24.23666000366211 2.744956016540527 L 26 4.630955696105957 L 26 10.8924560546875 L 24.23666000366211 12.70301628112793 L 21.89801025390625 14.58901596069336 L 4.925291061401367 14.58901596069336 C 4.373010635375977 14.58901596069336 0.1087608337402344 10.8924560546875 0.1087608337402344 10.8924560546875 L 0.1087608337402344 4.630955696105957 L 2.209470748901367 2.254595756530762 L 4.925291061401367 -3.814697265625e-06 Z" stroke="none" fill="#000"/></g><g transform="translate(2.946 2.705)" fill="none"><path d="M4.925,0H21.9l2.339,2.745L26,4.631v6.262L24.237,12.7,21.9,14.589H4.925c-.552,0-4.817-3.7-4.817-3.7V4.631l2.1-2.376Z" stroke="none"/><path d="M 5.286291122436523 0.9999961853027344 L 2.907566070556641 2.974749565124512 L 1.108760833740234 5.009589195251465 L 1.108760833740234 10.43380832672119 C 2.389726638793945 11.52964210510254 4.465993881225586 13.23759269714355 5.097328186035156 13.58901596069336 L 21.5450325012207 13.58901596069336 L 23.5621452331543 11.96231937408447 L 25 10.48596096038818 L 25 5.025616645812988 L 23.47546005249023 3.393476486206055 L 21.43626403808594 0.9999961853027344 L 5.286291122436523 0.9999961853027344 M 4.925291061401367 -3.814697265625e-06 L 21.89801025390625 -3.814697265625e-06 L 24.23666000366211 2.744956016540527 L 26 4.630955696105957 L 26 10.8924560546875 L 24.23666000366211 12.70301628112793 L 21.89801025390625 14.58901596069336 L 4.925291061401367 14.58901596069336 C 4.373010635375977 14.58901596069336 0.1087608337402344 10.8924560546875 0.1087608337402344 10.8924560546875 L 0.1087608337402344 4.630955696105957 L 2.209470748901367 2.254595756530762 L 4.925291061401367 -3.814697265625e-06 Z" stroke="none" fill="#000"/></g><g transform="translate(2.946 2.705)" fill="none"><path d="M4.925,0H21.9l2.339,2.745L26,4.631v6.262L24.237,12.7,21.9,14.589H4.925c-.552,0-4.817-3.7-4.817-3.7V4.631l2.1-2.376Z" stroke="none"/><path d="M 5.286291122436523 0.9999961853027344 L 2.907566070556641 2.974749565124512 L 1.108760833740234 5.009589195251465 L 1.108760833740234 10.43380832672119 C 2.389726638793945 11.52964210510254 4.465993881225586 13.23759269714355 5.097328186035156 13.58901596069336 L 21.5450325012207 13.58901596069336 L 23.5621452331543 11.96231937408447 L 25 10.48596096038818 L 25 5.025616645812988 L 23.47546005249023 3.393476486206055 L 21.43626403808594 0.9999961853027344 L 5.286291122436523 0.9999961853027344 M 4.925291061401367 -3.814697265625e-06 L 21.89801025390625 -3.814697265625e-06 L 24.23666000366211 2.744956016540527 L 26 4.630955696105957 L 26 10.8924560546875 L 24.23666000366211 12.70301628112793 L 21.89801025390625 14.58901596069336 L 4.925291061401367 14.58901596069336 C 4.373010635375977 14.58901596069336 0.1087608337402344 10.8924560546875 0.1087608337402344 10.8924560546875 L 0.1087608337402344 4.630955696105957 L 2.209470748901367 2.254595756530762 L 4.925291061401367 -3.814697265625e-06 Z" stroke="none" fill="#000"/></g><g transform="translate(2.946 2.705)" fill="none"><path d="M4.925,0H21.9l2.339,2.745L26,4.631v6.262L24.237,12.7,21.9,14.589H4.925c-.552,0-4.817-3.7-4.817-3.7V4.631l2.1-2.376Z" stroke="none"/><path d="M 5.286291122436523 0.9999961853027344 L 2.907566070556641 2.974749565124512 L 1.108760833740234 5.009589195251465 L 1.108760833740234 10.43380832672119 C 2.389726638793945 11.52964210510254 4.465993881225586 13.23759269714355 5.097328186035156 13.58901596069336 L 21.5450325012207 13.58901596069336 L 23.5621452331543 11.96231937408447 L 25 10.48596096038818 L 25 5.025616645812988 L 23.47546005249023 3.393476486206055 L 21.43626403808594 0.9999961853027344 L 5.286291122436523 0.9999961853027344 M 4.925291061401367 -3.814697265625e-06 L 21.89801025390625 -3.814697265625e-06 L 24.23666000366211 2.744956016540527 L 26 4.630955696105957 L 26 10.8924560546875 L 24.23666000366211 12.70301628112793 L 21.89801025390625 14.58901596069336 L 4.925291061401367 14.58901596069336 C 4.373010635375977 14.58901596069336 0.1087608337402344 10.8924560546875 0.1087608337402344 10.8924560546875 L 0.1087608337402344 4.630955696105957 L 2.209470748901367 2.254595756530762 L 4.925291061401367 -3.814697265625e-06 Z" stroke="none" fill="#000"/></g><g transform="translate(2.946 2.705)" fill="none"><path d="M4.925,0H21.9l2.339,2.745L26,4.631v6.262L24.237,12.7,21.9,14.589H4.925c-.552,0-4.817-3.7-4.817-3.7V4.631l2.1-2.376Z" stroke="none"/><path d="M 5.286291122436523 0.9999961853027344 L 2.907566070556641 2.974749565124512 L 1.108760833740234 5.009589195251465 L 1.108760833740234 10.43380832672119 C 2.389726638793945 11.52964210510254 4.465993881225586 13.23759269714355 5.097328186035156 13.58901596069336 L 21.5450325012207 13.58901596069336 L 23.5621452331543 11.96231937408447 L 25 10.48596096038818 L 25 5.025616645812988 L 23.47546005249023 3.393476486206055 L 21.43626403808594 0.9999961853027344 L 5.286291122436523 0.9999961853027344 M 4.925291061401367 -3.814697265625e-06 L 21.89801025390625 -3.814697265625e-06 L 24.23666000366211 2.744956016540527 L 26 4.630955696105957 L 26 10.8924560546875 L 24.23666000366211 12.70301628112793 L 21.89801025390625 14.58901596069336 L 4.925291061401367 14.58901596069336 C 4.373010635375977 14.58901596069336 0.1087608337402344 10.8924560546875 0.1087608337402344 10.8924560546875 L 0.1087608337402344 4.630955696105957 L 2.209470748901367 2.254595756530762 L 4.925291061401367 -3.814697265625e-06 Z" stroke="none" fill="#000"/></g><g transform="translate(2.946 2.705)" fill="none"><path d="M4.925,0H21.9l2.339,2.745L26,4.631v6.262L24.237,12.7,21.9,14.589H4.925c-.552,0-4.817-3.7-4.817-3.7V4.631l2.1-2.376Z" stroke="none"/><path d="M 5.286291122436523 0.9999961853027344 L 2.907566070556641 2.974749565124512 L 1.108760833740234 5.009589195251465 L 1.108760833740234 10.43380832672119 C 2.389726638793945 11.52964210510254 4.465993881225586 13.23759269714355 5.097328186035156 13.58901596069336 L 21.5450325012207 13.58901596069336 L 23.5621452331543 11.96231937408447 L 25 10.48596096038818 L 25 5.025616645812988 L 23.47546005249023 3.393476486206055 L 21.43626403808594 0.9999961853027344 L 5.286291122436523 0.9999961853027344 M 4.925291061401367 -3.814697265625e-06 L 21.89801025390625 -3.814697265625e-06 L 24.23666000366211 2.744956016540527 L 26 4.630955696105957 L 26 10.8924560546875 L 24.23666000366211 12.70301628112793 L 21.89801025390625 14.58901596069336 L 4.925291061401367 14.58901596069336 C 4.373010635375977 14.58901596069336 0.1087608337402344 10.8924560546875 0.1087608337402344 10.8924560546875 L 0.1087608337402344 4.630955696105957 L 2.209470748901367 2.254595756530762 L 4.925291061401367 -3.814697265625e-06 Z" stroke="none" fill="#000"/></g><g transform="translate(2.946 2.705)" fill="none" stroke-linejoin="bevel"><path d="M4.925,0H21.9l2.339,2.745L26,4.631v6.262L24.237,12.7,21.9,14.589H4.925c-.552,0-4.817-3.7-4.817-3.7V4.631L2.282,2.26Z" stroke="none"/><path d="M 5.29450798034668 0.9999961853027344 L 2.978507995605469 2.980172157287598 L 1.108760833740234 5.019936561584473 L 1.108760833740234 10.43380832672119 C 2.389726638793945 11.52964210510254 4.465993881225586 13.23759269714355 5.097328186035156 13.58901596069336 L 21.5450325012207 13.58901596069336 L 23.5621452331543 11.96231937408447 L 25 10.48596096038818 L 25 5.025616645812988 L 23.47546005249023 3.393476486206055 L 21.43626403808594 0.9999961853027344 L 5.29450798034668 0.9999961853027344 M 4.925291061401367 -3.814697265625e-06 L 21.89801025390625 -3.814697265625e-06 L 24.23666000366211 2.744956016540527 L 26 4.630955696105957 L 26 10.8924560546875 L 24.23666000366211 12.70301628112793 L 21.89801025390625 14.58901596069336 L 4.925291061401367 14.58901596069336 C 4.373010635375977 14.58901596069336 0.1087608337402344 10.8924560546875 0.1087608337402344 10.8924560546875 L 0.1087608337402344 4.630955696105957 L 2.282421112060547 2.259646415710449 L 4.925291061401367 -3.814697265625e-06 Z" stroke="none" fill="#000"/></g><g transform="translate(12 6)" fill="none" stroke="#000" stroke-width="1"><circle cx="4" cy="4" r="4" stroke="none"/><circle cx="4" cy="4" r="3.5" fill="none"/></g><g transform="translate(12 6)" fill="none" stroke="#000" stroke-width="1"><circle cx="4" cy="4" r="4" stroke="none"/><circle cx="4" cy="4" r="3.5" fill="none"/></g><g transform="translate(12 6)" fill="none" stroke="#000" stroke-width="1"><circle cx="4" cy="4" r="4" stroke="none"/><circle cx="4" cy="4" r="3.5" fill="none"/></g><g transform="translate(12 6)" fill="none" stroke="#000" stroke-width="1"><circle cx="4" cy="4" r="4" stroke="none"/><circle cx="4" cy="4" r="3.5" fill="none"/></g><g transform="translate(12 6)" fill="none" stroke="#000" stroke-width="1"><circle cx="4" cy="4" r="4" stroke="none"/><circle cx="4" cy="4" r="3.5" fill="none"/></g><g transform="translate(12 6)" fill="none" stroke="#000" stroke-width="1"><circle cx="4" cy="4" r="4" stroke="none"/><circle cx="4" cy="4" r="3.5" fill="none"/></g><g transform="translate(12 6)" fill="none" stroke="#000" stroke-width="1"><circle cx="4" cy="4" r="4" stroke="none"/><circle cx="4" cy="4" r="3.5" fill="none"/></g><g transform="translate(12 6)" fill="none" stroke="#000" stroke-width="1"><circle cx="4" cy="4" r="4" stroke="none"/><circle cx="4" cy="4" r="3.5" fill="none"/></g><g transform="translate(23 9)" fill="#fff" stroke="#000" stroke-width="1"><circle cx="1" cy="1" r="1" stroke="none"/><circle cx="1" cy="1" r="0.5" fill="none"/></g><g transform="translate(23 9)" fill="#fff" stroke="#000" stroke-width="1"><circle cx="1" cy="1" r="1" stroke="none"/><circle cx="1" cy="1" r="0.5" fill="none"/></g><g transform="translate(23 9)" fill="#fff" stroke="#000" stroke-width="1"><circle cx="1" cy="1" r="1" stroke="none"/><circle cx="1" cy="1" r="0.5" fill="none"/></g><g transform="translate(23 9)" fill="#fff" stroke="#000" stroke-width="1"><circle cx="1" cy="1" r="1" stroke="none"/><circle cx="1" cy="1" r="0.5" fill="none"/></g><g transform="translate(23 9)" fill="#fff" stroke="#000" stroke-width="1"><circle cx="1" cy="1" r="1" stroke="none"/><circle cx="1" cy="1" r="0.5" fill="none"/></g><g transform="translate(23 9)" fill="#fff" stroke="#000" stroke-width="1"><circle cx="1" cy="1" r="1" stroke="none"/><circle cx="1" cy="1" r="0.5" fill="none"/></g><g transform="translate(23 9)" fill="#fff" stroke="#000" stroke-width="1"><circle cx="1" cy="1" r="1" stroke="none"/><circle cx="1" cy="1" r="0.5" fill="none"/></g><g transform="translate(23 9)" fill="#fff" stroke="#000" stroke-width="1"><circle cx="1" cy="1" r="1" stroke="none"/><circle cx="1" cy="1" r="0.5" fill="none"/></g><g transform="translate(7 9)" fill="#fff" stroke="#000" stroke-width="1"><circle cx="1" cy="1" r="1" stroke="none"/><circle cx="1" cy="1" r="0.5" fill="none"/></g><g transform="translate(7 9)" fill="#fff" stroke="#000" stroke-width="1"><circle cx="1" cy="1" r="1" stroke="none"/><circle cx="1" cy="1" r="0.5" fill="none"/></g><g transform="translate(7 9)" fill="#fff" stroke="#000" stroke-width="1"><circle cx="1" cy="1" r="1" stroke="none"/><circle cx="1" cy="1" r="0.5" fill="none"/></g><g transform="translate(7 9)" fill="#fff" stroke="#000" stroke-width="1"><circle cx="1" cy="1" r="1" stroke="none"/><circle cx="1" cy="1" r="0.5" fill="none"/></g><g transform="translate(7 9)" fill="#fff" stroke="#000" stroke-width="1"><circle cx="1" cy="1" r="1" stroke="none"/><circle cx="1" cy="1" r="0.5" fill="none"/></g><g transform="translate(7 9)" fill="#fff" stroke="#000" stroke-width="1"><circle cx="1" cy="1" r="1" stroke="none"/><circle cx="1" cy="1" r="0.5" fill="none"/></g><g transform="translate(7 9)" fill="#fff" stroke="#000" stroke-width="1"><circle cx="1" cy="1" r="1" stroke="none"/><circle cx="1" cy="1" r="0.5" fill="none"/></g><g transform="translate(7 9)" fill="#fff" stroke="#000" stroke-width="1"><circle cx="1" cy="1" r="1" stroke="none"/><circle cx="1" cy="1" r="0.5" fill="none"/></g></g></g></svg>