<svg id="Layer_1" data-name="Layer 1" xmlns="http://www.w3.org/2000/svg" viewBox="0 0 359 359"><path d="M755.2,618H489V259H848V545.13a.56.56,0,0,1-.64.1,2.74,2.74,0,0,1-.75-2c0-.29,0-.59,0-.88a15.61,15.61,0,0,0-1.35-6.58c-.8-2.14-1.74-4.2-2.67-6.27a29.57,29.57,0,0,0-3.5-5.22,75.11,75.11,0,0,0-7.8-8.55q-11-10.94-21.93-21.89c-6.26-6.27-12.47-12.58-18.82-18.75-1.4-1.36-2.77-2.77-4.26-4a22.8,22.8,0,0,0-5.84-3.71,3.69,3.69,0,0,1-1.53-1.05c-.56-.69-1.43-.53-2.11-.87-1.92-1-4.06-1.17-6.07-1.8-3.42-1.08-6.88-.33-10.31-.58a2.31,2.31,0,0,0-1.28.3,2.51,2.51,0,0,1-1.16.33c-2.13,0-4,1-5.91,1.61a28.51,28.51,0,0,0-5.5,2.74,38.92,38.92,0,0,0-6.65,5.27c-2.47,2.32-4.77,4.8-7.21,7.14s-4.62,4.55-6.9,6.85-4.41,4.44-6.63,6.63-4,4.47-6.37,6.28a2.66,2.66,0,0,1-1.34.74c-.29-.13-.57-.39-.94-.2-.77.08-1.28-.5-1.91-.78-1.62-.71-3.13-1.66-4.81-2.24-1.23-.42-2-1.46-3.14-2a32.32,32.32,0,0,1-7.24-4.2c-.8-.69-1.78-1-2.63-1.63-2.33-1.66-4.71-3.27-7.13-4.8a17.75,17.75,0,0,1-2.59-2.06c-1.23-1.13-2.81-1.78-4-2.91-2.88-2.67-6.15-4.87-9.1-7.48a58.09,58.09,0,0,0-6.58-5.54c-.57-.37-.84-1-1.35-1.46a86.2,86.2,0,0,1-7.2-6.84c-2-2-4-4-6-6-4.24-4.36-8.21-9-12.22-13.52-1.72-2-3.47-3.91-5.14-5.92a43.21,43.21,0,0,1-4.53-6,38.44,38.44,0,0,0-2.9-3.76c-1.27-1.72-2.32-3.59-3.65-5.27-.9-1.13-1.48-2.48-2.34-3.62-2.55-3.4-4.35-7.25-6.56-10.84a36.78,36.78,0,0,1-2.48-5.4c-.4-1-1.19-1.78-1.32-3.08,0-.25.36-.49.62-.8a52.32,52.32,0,0,1,6.27-5.91c2.68-2.26,5-4.91,7.51-7.33,2.83-2.73,5.53-5.6,8.36-8.34,2.19-2.12,4.11-4.53,6.09-6.85a35.48,35.48,0,0,0,4.33-5.54,32.6,32.6,0,0,0,3.2-6.25,12.7,12.7,0,0,1,1-2.9c.22-.36.1-.81.22-1.18.59-1.87.44-3.85.81-5.73.3-1.57.62-3-.07-4.5a3.17,3.17,0,0,1-.08-1.65,11,11,0,0,0-.82-5.05,27.89,27.89,0,0,0-1.83-4.94c-1.82-3.19-3.44-6.47-6.07-9.16-1.91-1.94-3.51-4.17-5.41-6.13a7.19,7.19,0,0,0-.51-.59c-2.5-2-4.53-4.53-6.84-6.75a85.58,85.58,0,0,1-6.22-6.27c-.67-.79-1.57-1.37-2.24-2.13-1.95-2.22-4.29-4.05-6.19-6.31a12.17,12.17,0,0,0-1.75-1.69,12.4,12.4,0,0,1-2.25-2.27,4.51,4.51,0,0,0-.75-.82,72.63,72.63,0,0,1-6.07-6c-2.06-2-4.24-4-6.13-6.2-1.08-1.26-2.52-2.16-3.69-3.33-1.67-1.68-3.64-3-5.43-4.48a18.21,18.21,0,0,0-5-3.13c-1.19-.47-2.27-1.22-3.49-1.65-1.39-.48-2.86-.73-4.2-1.24-2.49-.93-5-.59-7.54-.67-3-.1-6-.12-8.93,1-.59.23-1.24.22-1.83.45-2.56,1-5,2.39-7.41,3.6s-4.49,3.33-6.72,5a27.54,27.54,0,0,0-4.63,4.41,20.21,20.21,0,0,1-2.58,2.57c-.84.68-1.44,1.6-2.22,2.31-2.19,2-4.18,4.15-6.27,6.23s-4.28,4.05-6.21,6.28a14,14,0,0,1-1.74,1.7,12.9,12.9,0,0,0-2.41,2.43,3,3,0,0,1-.45.49,60.92,60.92,0,0,0-4.67,4.7,13.56,13.56,0,0,0-2.5,3,2.54,2.54,0,0,1-.41.52,52.12,52.12,0,0,0-3.36,4.57c-1.62,2.44-2.72,5.13-4.16,7.64a24,24,0,0,0-1.82,5.05,8,8,0,0,1-1.16,3.05c-.1.12-.22.25-.21.39.2,1.62-.76,3-.76,4.63a6.38,6.38,0,0,1-.45,2.59,4.13,4.13,0,0,0-.22,1.63c-.06,2.4-.17,4.81-.13,7.19q.08,6.46.14,12.94c1,2.17.26,4.63,1.15,6.82a2,2,0,0,1,.09,1.2,1.6,1.6,0,0,0,0,.92c1,2.4,1.12,5,1.75,7.46.35,1.36.66,2.78,1,4.13.45,1.77,1.11,3.5,1.39,5.3.21,1.38,1,2.49,1.33,3.82.45,1.92,1.16,3.77,1.74,5.65a47.73,47.73,0,0,0,2.3,6.17,50.47,50.47,0,0,1,1.92,5c.59,1.65,1.33,3.26,2.07,4.86,1,2.09,1.64,4.31,2.66,6.39,1.16,2.38,2.41,4.75,3.32,7.21,1.06,2.89,3,5.28,4.13,8.09,1.34,3.31,3.37,6.28,4.7,9.61a16.87,16.87,0,0,0,1.47,2.06,15.7,15.7,0,0,1,1.3,2.55c.38,1,1.25,1.63,1.61,2.63.75,2.1,2.49,3.63,3.4,5.64a45.61,45.61,0,0,0,3,4.75,39.44,39.44,0,0,0,4.72,7.05c.73.77,1,1.84,1.68,2.7,1,1.26,1.75,2.7,2.77,4a15.1,15.1,0,0,1,1.74,2.69,4.64,4.64,0,0,0,1.42,1.81,4.29,4.29,0,0,1,1,1.3,28.31,28.31,0,0,0,3.45,4.56,21.65,21.65,0,0,1,2,2.89c1.69,2.51,3.83,4.66,5.52,7.16a9.7,9.7,0,0,0,1.14,1.35,9.43,9.43,0,0,1,2.12,2.81,1,1,0,0,0,.25.37c2.21,1.85,3.29,4.72,5.73,6.38a1.86,1.86,0,0,1,.62.77,10.43,10.43,0,0,0,2.48,3.08c2.59,2.62,4.77,5.6,7.32,8.27.86.91,1.63,1.9,2.47,2.83,2.5,2.76,5.17,5.35,7.82,8,2.41,2.38,4.69,4.89,7.23,7.15,3.22,2.85,6.34,5.82,9.51,8.73,3.44,3.15,7.1,6.06,10.67,9.08,4.89,4.14,10,8,15.07,11.93,2.83,2.17,5.88,4,8.53,6.45.81.73,1.91,1.09,2.8,1.76a57.62,57.62,0,0,0,5.39,3.62c2.12,1.27,4.08,2.77,6.21,4,1.84,1.08,3.49,2.44,5.37,3.46s3.69,1.89,5.41,3c2.35,1.54,4.93,2.66,7.21,4.27s4.62,2.43,6.86,3.74c2.88,1.68,6,2.77,8.83,4.57a33.88,33.88,0,0,0,7.74,3.73c1.5.51,2.68,1.67,4.21,2.17a24.1,24.1,0,0,1,4.58,1.88,39.56,39.56,0,0,0,5.42,2.4c2.16.83,4.3,1.74,6.52,2.38,1.39.4,2.58,1.2,4,1.64,2.55.81,5.08,1.68,7.66,2.38,1.57.43,3.05,1.1,4.6,1.55,1.19.34,2.43.48,3.63.85,1.63.5,3.36.63,5,1.23a10.11,10.11,0,0,0,2.49.4c2.37.28,4.59,1.3,7,1.31a1.45,1.45,0,0,1,.66.06c1.58.86,3.31.55,5,.6a7.33,7.33,0,0,1,2.22.62A.61.61,0,0,1,755.2,618Z" transform="translate(-489 -259)" fill="#fefefe"/><path d="M491.42,362.18a3.82,3.82,0,0,0-.64-2.42c-.13-1.74.3-3.53-.68-5.16,0-2.33-.07-4.7,0-7.06.08-2.2-.45-4.4-.19-6.58.32-2.8,0-5.58.22-8.5.93-1.19.53-2.73.64-4.27l.63-.68v-2.79c.28-.26.7-.38.89-.81V322.7L493,322v-1.35c.12-.44.54-.58.69-.94v-1.22l.66-.71V317a13.64,13.64,0,0,0,1.52-2.81,1.52,1.52,0,0,0,.69-.66v-.67a11.62,11.62,0,0,0,1.47-2.95l1.09-1.06c.19-.33,0-.68.15-1a3.87,3.87,0,0,1,1.43-1.16c-.09-1.21,1.12-1.58,1.58-2.46.25-.48.65-.88.92-1.36a3.51,3.51,0,0,1,.91-1.2,7.85,7.85,0,0,0,2.29-2.4,4.5,4.5,0,0,1,1.42-1.43,16.56,16.56,0,0,0,3.29-3.24,18.16,18.16,0,0,1,2.3-2.09c1-.78,1.55-1.85,2.46-2.67a29.24,29.24,0,0,0,2.66-2.44c.5-.59,1-1.2,1.52-1.75a34.45,34.45,0,0,0,2.67-2.45c.49-.59,1-1.19,1.52-1.74a34.43,34.43,0,0,0,2.66-2.46,17.7,17.7,0,0,1,1.53-1.73,31,31,0,0,0,2.74-2.51c.5-.59,1-1.2,1.53-1.75a29.34,29.34,0,0,0,2.65-2.45c.12-.14.32-.22.39-.37a2.29,2.29,0,0,1,1.76-1.26.73.73,0,0,1,.44-.59,22.58,22.58,0,0,0,2.56-2c1-.78,1.28-1.19,2.35-1.47.54-.15.79-.6,1.25-.84a24.38,24.38,0,0,1,4.24-2l.08-.45c1.39-.2,2.59-1.13,4-1,.25-.09.15-.39.47-.43.7.19,1.4-.42,2.07-.22.37,0,.27-.43.54-.44,1,0,2.07,0,3.1,0a6.85,6.85,0,0,0,2.06-.18c.78-.26,1.57.19,2.37.19h4.73c.66.84,1.64.66,2.65.66a2.18,2.18,0,0,0,2.12.65c1.26.92,2.9,1.07,4.12,2.19.87-.21,1.43.72,2.28.77.2.68.8.88,1.3,1.06,1,.35,1.6,1.25,2.44,1.8a37.11,37.11,0,0,0,3,2.3,2.51,2.51,0,0,1,1.41,1.6c1.18.21,1.66,1.38,2.59,2a11.27,11.27,0,0,1,2.6,2.69,17.12,17.12,0,0,0,2.36,2.16c.92.78,1.43,1.88,2.43,2.6a23.35,23.35,0,0,1,2.7,2.57c.51.52,1,1.1,1.47,1.62a33.08,33.08,0,0,1,2.74,2.56,18.5,18.5,0,0,0,1.45,1.64,34.29,34.29,0,0,1,2.65,2.48,19.16,19.16,0,0,0,1.61,1.78,18.89,18.89,0,0,1,2.65,2.49,12.27,12.27,0,0,0,1.55,1.69,27.48,27.48,0,0,1,2.72,2.57c.46.56.94,1.1,1.46,1.62a34.87,34.87,0,0,1,2.74,2.56,12.84,12.84,0,0,0,1.53,1.7,31.57,31.57,0,0,1,3.29,3.15,19,19,0,0,0,1.55,1.69,26,26,0,0,1,2.64,2.5,10.49,10.49,0,0,0,1.68,1.85,24.86,24.86,0,0,1,2.22,2.36c.46.49.77,1.14,1.22,1.68a29.61,29.61,0,0,1,2.77,3.14c.7,1.14,1.47,2.23,2.24,3.31.27.37.15.77.22,1.13.59.39.59.39.68,1.11.13.19.35.08.56.18a4.61,4.61,0,0,0,.82,1.91c.3.33.06.78.18,1.26l.61.66v1.26l.66.73v1.37c.13.42.52.57.67.88V340a4.05,4.05,0,0,1,0,4.48v4c-.1.38-.52.51-.67.91v2.07l-.66.71v1.35l-.66.47c.2,1.31-.72,2.2-1,3.33l-.4.05a17.07,17.07,0,0,1-4.34,6.6c.33.85-.61,1.27-1.06,1.67-.62.55-1,1.36-1.66,1.76s-.64,1.28-1.38,1.51c-.56,1.43-2,2-2.88,3.17-.25.16,0,.46-.15.6a38.34,38.34,0,0,0-4.19,3.78l0,.29c-1.31,1.44-2.83,2.39-4,3.74-.29.13-.09.43-.25.61-1.27,1.23-2.7,2.29-3.95,3.57-.28.14-.11.43-.13.47-3.7,3.65-7.82,6.57-11.06,10.47l.58.61,0,.85c.12.2.33.13.55.17a2.92,2.92,0,0,1,.31,1.58,10.82,10.82,0,0,1,2,4.41,7.62,7.62,0,0,1,1.47,2.48.5.5,0,0,1,.38-.05,20.36,20.36,0,0,0,3,5.27v.75a23.59,23.59,0,0,1,2.77,3.86,14.41,14.41,0,0,0,2.69,3.76c.73,1.8,2.16,3.14,3.24,4.95.42.23.68,1,1.22,1.42.91.77,1.21,2,2,2.84a14.68,14.68,0,0,1,1.52,2.13,2.49,2.49,0,0,0,1.38,1.1c-.15,1.08.89,1.38,1.37,2.07.2.28.47.55.69.86a16.44,16.44,0,0,0,1.82,2c.54.54.88,1.25,1.48,1.77.89.78,1.43,1.87,2.24,2.72,1.21,1.29,2.39,2.62,3.66,3.84.45.43.67,1,1.07,1.42.57.64,1.23,1.2,1.79,1.85a6,6,0,0,1,.7,1c.52,1,1.59,1.39,2.25,2.22a24.75,24.75,0,0,1,2.38,2.61c.34.58,1.13.89,1.64,1.46a22.58,22.58,0,0,1,2.62,2.81c.35.55,1.1.82,1.57,1.37a24.23,24.23,0,0,1,2.62,2.82,3.75,3.75,0,0,0,1.18.9,27.31,27.31,0,0,1,3,2.69c.18.15,0,.45.08.52a16,16,0,0,1,3.36,2.57c1.08.9,1.93,2.07,3.29,2.68.58.26.93,1,1.49,1.39.92.71,1.73,1.53,2.73,2.19a27.07,27.07,0,0,1,2.36,2,1.63,1.63,0,0,0,1.26.59,8.15,8.15,0,0,0,1.2,1.5c1.59,1.23,3.33,2.24,5,3.42.26.2.13.65.57.81.84.3,1.31,1.25,2.28,1.34.48,1,1.73,1,2.35,1.8a.43.43,0,0,0,.16.14,7.46,7.46,0,0,1,2.68,1.82,1.62,1.62,0,0,0,1.07.45c.46.89,1.42,1,2.29,1.5.32.62,1.16.84,2,1.38a2.07,2.07,0,0,0,.77.71c1.39.67,2.74,1.45,4.18,2,.19.08.32.3.55.52s.57,0,.66,0c2.31,2.39,5.43,2.79,8.06,4.63,0,.55,1,.11,1.37.52.24,0,.44.18.68.23a13.77,13.77,0,0,0,2.91-2.49c.43-.53,1.08-.93,1.51-1.51.05-.06.21,0,.31,0,.25-.21,0-.51.14-.67a44.71,44.71,0,0,0,4-3.59c.29-.14.14-.43.19-.6a49.24,49.24,0,0,0,4.19-3.83l0-.41a58.1,58.1,0,0,0,4.84-4.46l0-.47c1.68-.85,2.63-2.53,4.16-3.64l0-.54c1.62-.92,2.66-2.48,4.16-3.68l.07-.61a2.38,2.38,0,0,0,1.43-.93c.77-.9,1.79-1.5,2.57-2.37.41-.46.85-1,1.62-1,.76-1.59,2.64-1.79,3.75-3,.28-.31.94-.27,1.41-.38l.06-.47a2.64,2.64,0,0,0,1.51-.8,3.27,3.27,0,0,0,1.86-.5,6.68,6.68,0,0,1,1.76-.71c.63-.2,1.44,0,1.83-.76a11.49,11.49,0,0,0,3.27-.27c.13-.06.2-.27.3-.41h10.07a2.94,2.94,0,0,0,2.64.63c.77.89,1.86.7,2.81.67.38.12.22.56.57.62,1.13-.25,1.84,1.3,3.05.62a5.28,5.28,0,0,0,3.13,2.28,2.8,2.8,0,0,1,1.48.93,1,1,0,0,0,.6.39,2.68,2.68,0,0,1,1.44,1,1.15,1.15,0,0,0,1,.41,14.9,14.9,0,0,0,2.67,2.81c1.78,1.56,3.51,3.18,5.16,4.87,1.36,1.4,2.84,2.68,4.13,4.13,1.69,1.9,3.64,3.53,5.34,5.43,1.12,1.26,2.5,2.32,3.64,3.58,1.5,1.66,3.23,3.07,4.69,4.77,1.13,1.31,2.56,2.36,3.73,3.65,1.5,1.65,3.23,3.07,4.69,4.77,1.13,1.31,2.55,2.37,3.73,3.65s2.71,2.53,3.92,4c0,0,0,.15.1.18,1.66,1.08,2.62,2.9,4.15,4.07a30.33,30.33,0,0,1,3.1,3.11c.76.78,1.53,1.55,2.3,2.32.6.6,1,1.49,1.62,2.13a24.45,24.45,0,0,1,2,3c.3.41.68.77,1,1.16.53.66.48,1.61,1.27,2.08v.95c.92.35.42,1.61,1.32,1.89v1.05c.11.34.56.16.65.5v1.38c1.16.56.86,1.65.92,2.72l.58.42c.3,2.18-.37,4.3.55,6.28a.94.94,0,0,1,.19.94c-.62,1.61-.27,3.29-.39,4.94a20.19,20.19,0,0,1-1.27,5c-.63,1.89-1.59,3.62-2.29,5.47a16.06,16.06,0,0,1-3.17,5.36c-.75.8-1,1.91-1.8,2.62-2.31,2.17-4.11,4.78-6.43,7a58.27,58.27,0,0,0-6.06,6.11,9.68,9.68,0,0,1-1.6,1.53,15.23,15.23,0,0,0-2.33,2.35,7.08,7.08,0,0,1-2.22,1.95,8.89,8.89,0,0,0-2.69,2.6,52.49,52.49,0,0,1-5.44,5.91,14.3,14.3,0,0,0-1.39,1.42c-1.79,2.23-4.08,3.94-6,6-.82.92-2,1.32-2.93,2.16a29.26,29.26,0,0,1-7,4.36c-1.9,1-3.75,2-5.7,2.91a31.91,31.91,0,0,1-3.33,1.15c-1.42.47-2.88.79-4.3,1.29a10.55,10.55,0,0,1-4.29.94,5.38,5.38,0,0,0-3.37.83h-.66a.91.91,0,0,0-.83-.38l-.63,0H769.8c-.41,0-.81,0-1.09.36h-7.53c-.42-.53-1-.33-1.55-.38h-2.56a.87.87,0,0,0-.76.38H755.2c-.07-.32-.4-.4-.53-.67-.55,0-1.07,0-1.37-.44h-3.61a2.29,2.29,0,0,1-2-.66,11,11,0,0,1-3.81-.37l-.54-.51c-1.38-.06-2.83.19-4.09-.67-1,0-2.08.24-2.8-.66-1.08,0-2.16.23-2.88-.67-1.8,0-1.8,0-2.73-.66-1-.05-2,.22-2.78-.63-1.51.05-2.68-1.18-4.18-1.15-.36,0-.47-.34-.78-.44-.76,0-1.6.11-2.08-.64a2.54,2.54,0,0,1-2.12-.69,3,3,0,0,1-2.11-.57c-.6-.46-1.48-.33-2.2-.72a5.18,5.18,0,0,1-1.36-.92,2.15,2.15,0,0,1-2-.64c-1.43,0-2.48-.81-3.79-1.33-1,.28-1.68-.69-2.63-1-.47-.13-.9-.46-1.43-.38a1,1,0,0,1-.79-.29c-1-1.1-2.55-1.24-3.76-2s-2.47-.69-3.52-1.36c-.72-.46-1.62-.57-2.24-1.34a3.48,3.48,0,0,0-1.82-.8,16.08,16.08,0,0,1-3.83-1.51,13.6,13.6,0,0,1-2.9-1.74,12.89,12.89,0,0,0-3-1.64,28.31,28.31,0,0,1-4.67-2.25c-1.69-1.17-3.64-1.75-5.39-2.74-.45-.25-.8-.84-1.4-.5-.46-.71-1.25-.91-1.58-1.57-1.42-.4-6.54-3.44-6.94-4.11A21.39,21.39,0,0,1,659,580.6c-1.51-.7-2.78-1.83-4.37-2.36-.42-.14-.56-.51-.83-.77a17.75,17.75,0,0,0-1.84-1.05,33.3,33.3,0,0,0-4-2.52,12.6,12.6,0,0,1-1.46-1.12c-.48-.36-.88-.88-1.56-.86a.45.45,0,0,1-.37-.2,13,13,0,0,0-3-2.05c-1.47-.88-2.73-2-4.18-3a2.88,2.88,0,0,0-1.07-.36,28.21,28.21,0,0,0-4.78-3.85c-.79-.5-1.49-1.11-2.28-1.58-.39-.23-.64-.44-.55-.91l-.78-.07c-1.62-1.5-3.54-2.53-5.24-4.14-.35,0-.66-.43-1.08-.76a19.3,19.3,0,0,0-2.51-1.85,16.53,16.53,0,0,1-2.21-1.85c-.8-.62-1.54-1.32-2.37-1.91a16.5,16.5,0,0,0-1.82-1.39c-.23-.11-.14-.39-.17-.57-1.12-.37-1.7-1.39-2.64-2a14.74,14.74,0,0,1-2.61-2c-.78-.75-1.62-1.43-2.44-2.13a7.42,7.42,0,0,1-2.2-2.38c-.22-.11-.6.06-.91-.27a34,34,0,0,0-3-2.92,26,26,0,0,0-2.62-2.4,6.47,6.47,0,0,1-1.91-1.92,1.47,1.47,0,0,1-1.24-.76,18.47,18.47,0,0,0-2.32-2.36,14.7,14.7,0,0,1-2.38-2.11,10.56,10.56,0,0,0-2-2.29,28.64,28.64,0,0,1-3.28-3.33c-.7-.75-1.57-1.33-2.25-2.08-1.39-1.51-2.9-2.91-4.23-4.47-1-1.15-2-2.26-3-3.45a19.42,19.42,0,0,0-1.51-1.63,25.84,25.84,0,0,1-2.78-3.39,20.59,20.59,0,0,0-2.9-2.93,9,9,0,0,1-1.87-2.63c-.09-.17-.15-.35-.31-.43-1.22-.65-1.92-1.86-2.93-2.72-.46-.39-.39-1-.82-1.44a10.82,10.82,0,0,0-1.05-1.1,6.62,6.62,0,0,1-1.92-2.6c-.21-.48-.59-.67-.85-1-.58-.76-1.33-1.4-2-2.13-.2-.18-.07-.46-.16-.71a11.47,11.47,0,0,1-2.63-3.21,1.16,1.16,0,0,0-.44-.44,3.09,3.09,0,0,1-1.22-1.46,6,6,0,0,0-1-1.45,5.57,5.57,0,0,1-1.62-2.65c-1.06-.39-1.52-1.41-2.05-2.28a5.93,5.93,0,0,0-.75-.81c-.56-.64-.77-1.46-1.28-2.13a2.27,2.27,0,0,0-.63-.71,3.7,3.7,0,0,1-1.6-2.2c-.13-.38-.51-.52-.66-.86a8.74,8.74,0,0,0-2.17-2.77l-.1-.77-1.24-1.23-.08-.78c-.54-.27-.81-.83-1.27-1.26l0-.8a23.56,23.56,0,0,1-4.41-6.52l-1.08-1-.05-1a8,8,0,0,1-2-2.54c-.62-1.35-1.52-2.52-2.19-3.83a11.36,11.36,0,0,0-1.5-1.83v-.87a1.3,1.3,0,0,1-.69-1.34l-1.2-1.17c-.2-.34,0-.69-.17-1.08a1.24,1.24,0,0,1-.62-1.3c-.93-.71-1.11-2-2.07-2.45-.22-.39-.06-.74-.17-1.05-.89-.94-1-2.32-1.93-3.36l0-.89c-1.11-.85-1.33-2.26-2.2-3.41v-.48c-.85-1.73-1.73-3.16-2.4-4.79l-.45-.1-.06-1-1.29-1.19v-1.54c-.93-1-1-2.37-2-3.41l-.06-.91a2.06,2.06,0,0,1-.85-2c-.9-.35-.43-1.56-1.33-1.88v-1c-.9-.35-.46-1.57-1.33-1.92v-1.28c-.55-1.37-1.58-2.28-1.61-3.69l-.57-.52-.06-1-.62-.66V399.9c-.12-.4-.47-.54-.67-.88v-.81l-.68-.72v-1.25c-.54-1.18-1.68-2.09-1.56-3.59l-.64-.69v-1.27l-.66-.72v-1.38c-.13-.38-.46-.53-.68-.87v-1.25l-.67-.72v-1.51l-.66-.7v-1.28l-.86-.9a4.28,4.28,0,0,0-.69-2.74v-1.23l-.65-.71v-2.15l-.66-.73v-2c-.13-.42-.52-.57-.68-.88a6,6,0,0,0-.66-3.6c-.06-1.2.19-2.49-.9-3.47v-1A.48.48,0,0,0,491.42,362.18Z" transform="translate(-489 -259)"/><path d="M773.58,618c.14-.31.38-.65.68-.63s.39-.37.53-.43c1.23-.17,2.36.09,3.5-.17a22.89,22.89,0,0,1,3.12-.77c.26-.2,0-.49.26-.63a3.32,3.32,0,0,0,3-.69c.78,0,1.6.14,2.17-.66,1.24.16,2.16-.64,3.18-1.18,0,0,0-.08.06-.08,1,0,1.71-.9,2.7-1,.18-.09,0-.27.19-.47a51,51,0,0,0,7.49-4,.52.52,0,0,1,.22-.54c.92-.56,1.75-1.27,2.66-1.87a11.49,11.49,0,0,0,2.33-2.14,14.49,14.49,0,0,1,2.37-2.25,7.28,7.28,0,0,0,1.77-1.89,7.72,7.72,0,0,1,2-2,7.6,7.6,0,0,0,1.91-1.88c.62-.91,1.58-1.48,2.11-2.44.13-.22.39-.17.49-.17a9.85,9.85,0,0,1,4.38-4.42,3.36,3.36,0,0,1,1.36-1.26l.05-.52c1.38-1.26,2.69-2.46,4-3.65.29-.13.09-.43.13-.5l4.06-3.69c.29-.13.14-.42.18-.54l4.2-3.83.06-.61c.73.16.52-1,1.27-.74a1.57,1.57,0,0,1,.77-1.44,7.26,7.26,0,0,0,1.38-1.27c.35-.31.84-.63.78-1.27a1.09,1.09,0,0,1,.34-.65c.58-.63,1.19-1.23,1.81-1.88l.08-.71c.39-.06.57-.34.83-.62v-.89l.94-.79c.37-.94.2-1.88,1-2.44l.07-1c.91-.33.35-1.62,1.3-1.88v-1.58a2.29,2.29,0,0,0,.87-.7v-1.94l.67-.72c0-1.65,0-3.27,0-4.9,0-.52,0-1,.43-1.28l0-1.22H848V618Z" transform="translate(-489 -259)" fill="#fdfdfd"/><path d="M769.61,617.37h2a.46.46,0,0,1,0,.64h-2A.43.43,0,0,1,769.61,617.37Z" transform="translate(-489 -259)" fill="#5d5d5d"/><path d="M759.62,617.35a5.75,5.75,0,0,1,1.38,0c.24.17.15.41.18.61h-1.55A.47.47,0,0,1,759.62,617.35Z" transform="translate(-489 -259)" fill="#303030"/><path d="M769.61,617.37V618h-.89l0-.51A1.07,1.07,0,0,1,769.61,617.37Z" transform="translate(-489 -259)" fill="#474747"/><path d="M756.31,618v-.5c.22-.24.44-.15.66-.13a.43.43,0,0,1,0,.63Z" transform="translate(-489 -259)" fill="#b0b0b0"/><path d="M757,618v-.63h.66a.44.44,0,0,1,0,.63Z" transform="translate(-489 -259)" fill="#969696"/><path d="M757.64,618v-.63h.66a.43.43,0,0,1,0,.63Z" transform="translate(-489 -259)" fill="#7d7d7d"/><path d="M758.3,618v-.63H759a.45.45,0,0,1,0,.64Z" transform="translate(-489 -259)" fill="#626262"/><path d="M759,618c0-.21,0-.42,0-.64h.66c0,.22,0,.43,0,.65Z" transform="translate(-489 -259)" fill="#484848"/><path d="M771.59,618v-.64h.67a.45.45,0,0,1,0,.63Z" transform="translate(-489 -259)" fill="gray"/><path d="M772.26,618v-.63l.5,0c.22.21.12.44.15.65Z" transform="translate(-489 -259)" fill="#a4a4a4"/><path d="M491.42,362.18l.5,0a.39.39,0,0,1,.1.52c-.16.19-.4.09-.6.12C491.08,362.63,491.08,362.41,491.42,362.18Z" transform="translate(-489 -259)" fill="#6b6b6b"/><path d="M711.36,500.86c-.12.29-.35.18-.55.17s-.1-.26-.13-.4.09-.49.45-.42S711.32,500.63,711.36,500.86Z" transform="translate(-489 -259)" fill="#fdfdfd"/><path d="M508.25,349.56c0-1.14.05-2.29,0-3.43a6.53,6.53,0,0,0-.59-3.13.91.91,0,0,1,0-.95,3.69,3.69,0,0,0,.57-2.24c0-1.18,0-2.36,0-3.54a.51.51,0,0,0,0-.66v-.85c.05-.36.45-.25.56-.51a11.81,11.81,0,0,0,.31-3.81l.66-.71v-1.49l.66-.73V326.4c.12-.47.55-.59.69-1v-1.46c.85-.31.44-1.48,1.29-1.87l.06-.87a6.09,6.09,0,0,0,1.59-1.94,10.89,10.89,0,0,1,2.6-3.93c.15-.14.35-.09.58-.12a3.1,3.1,0,0,1,.85-1.55c.93-1,1.68-2.09,2.71-3a7.35,7.35,0,0,0,1.83-1.68,12.87,12.87,0,0,1,2.49-2.66,16.28,16.28,0,0,0,2.33-2.21,8.59,8.59,0,0,1,1.92-2.05,9.86,9.86,0,0,0,2.34-2.2,11.53,11.53,0,0,1,1.86-2,16,16,0,0,0,2.27-2.15,33.11,33.11,0,0,1,2.53-2.63c.51-.56,1.24-.9,1.68-1.56a17,17,0,0,1,2.52-2.63,11.69,11.69,0,0,0,1.75-1.61,20.29,20.29,0,0,1,2.3-2.42c.6-.65,1.36-1.08,1.93-1.76a7.66,7.66,0,0,1,1.56-1.61,4.87,4.87,0,0,1,1.28-.63,13.69,13.69,0,0,1,3.77-2.15l.09-.47a2,2,0,0,0,1.29-.07c.37-.1.85-.13,1-.61h7.07c1.13.6,2.35,1,3.47,1.56.89.46,2,.64,2.59,1.57.31.45.91.31,1.29.68a15.21,15.21,0,0,1,1.9,1.71c1,1.28,2.49,2.09,3.52,3.33a30.88,30.88,0,0,0,3.11,3.25c1.34,1.19,2.46,2.58,3.75,3.81s2.53,2.5,3.79,3.76l4.47,4.48c1.11,1.11,2.2,2.22,3.31,3.31a21.22,21.22,0,0,0,2.41,2.23,10.71,10.71,0,0,1,1.54,1.68,17.23,17.23,0,0,0,2.63,2.49,10.28,10.28,0,0,1,1.54,1.68,16,16,0,0,0,2.63,2.49A7.26,7.26,0,0,1,608,317a21.59,21.59,0,0,0,2.56,2.59,11.4,11.4,0,0,1,1.66,1.67,14,14,0,0,0,2.1,2.12,16.81,16.81,0,0,1,2.52,2.54c1,1.21,2.33,2.05,3.33,3.23.54.63,1,1.32,1.53,1.95a9.72,9.72,0,0,1,1.79,2.69c.24.59.86.89,1.26,1.44.1,1,.9,1.82.72,2.87l.65.68v6.8c-.11.29-.44.44-.63.75v1.37a8.6,8.6,0,0,0-1.34,2.65c-.16.58-.79.67-1,1.17-.17.34-.61.53-.53,1,0,.21-.13.32-.26.45-.74.75-1.52,1.47-2.21,2.26a4.21,4.21,0,0,0-.49,1.23c-1.33.62-2.12,2-3.43,3l0,.46-2.19,1.87c-.66.55-1.09,1.36-2,1.83-.1.12.05.41,0,.55a39.5,39.5,0,0,0-4.2,3.78l0,.46a37,37,0,0,0-4,3.55c-.26.16-.09.45-.2.68-.62.18-.89.81-1.44,1.12a7.34,7.34,0,0,0-1.88,1.76c-.47.56-1.1.88-1.57,1.42s-1.23,1-1.82,1.58a18.17,18.17,0,0,0-1.89,1.82c-1.45,1.75-3.46,3-4.66,4.95a.6.6,0,0,1-.51.34c-.53,1.23-1.56,2.14-2,3.4a4.65,4.65,0,0,1-.78,2.29v5.39a4,4,0,0,1,.65,2.88,7,7,0,0,1,1.41,3.67c.62.41.6,1.44,1.45,1.87a1.35,1.35,0,0,0,.68,1.38v.86c.93,1,1,2.36,1.93,3.38a5.07,5.07,0,0,0,1.59,2.84c-.28.87,1.09,1.25.66,2.24l1.35,1.19a1.37,1.37,0,0,0,.67,1.44v.78a9.05,9.05,0,0,0,2.19,2.72,1.58,1.58,0,0,0,.51,1.24c.72.71.8,1.85,1.54,2.52a15.45,15.45,0,0,1,2,2.7,8.71,8.71,0,0,0,1.43,2,4,4,0,0,0,1.46,2.44,21.67,21.67,0,0,0,1.45,1.81c.92.77,1.16,2,2,2.85s1.62,2,2.54,2.91c.44.44.44,1,.8,1.51a10.25,10.25,0,0,0,1.68,1.85,4,4,0,0,1,1.36,1.85,2.09,2.09,0,0,0,.64.85,21.45,21.45,0,0,1,2.64,2.76,21.78,21.78,0,0,0,2.37,2.94,28,28,0,0,1,2.44,2.82,24.92,24.92,0,0,1,2.44,2.88,6.77,6.77,0,0,0,1.56,1.6,7.54,7.54,0,0,1,2.42,2.78,2.39,2.39,0,0,0,1,1c1.22.68,1.78,1.93,2.69,2.87a23.07,23.07,0,0,0,2.39,2.35,9.59,9.59,0,0,1,1.8,1.8,10.57,10.57,0,0,0,2.22,2.21,11,11,0,0,1,1.5,1.47,1.17,1.17,0,0,0,.89.47c0,.05.1.08.1.11,0,.77.7,1,1.14,1.39,2.58,2.32,5,4.86,7.86,7.1.13.78,1,1,1.72,1.5s1.21,1.22,1.92,1.72,1,1.51,1.92,1.46a24.13,24.13,0,0,0,5.28,4.18c.2.12,0,.46.22.62,1.38,1.11,2.87,2,4.66,3.28a7.62,7.62,0,0,0,2.31,1.88,8.56,8.56,0,0,1,1.22.88,17.85,17.85,0,0,0,2.22,1.48,1,1,0,0,1,.56.74c1,.88,2.19,1.3,3.14,2.09a17.9,17.9,0,0,0,2.63,1.6,9.65,9.65,0,0,1,1.07.91c1.09.83,2.34,1.35,3.46,2.09a21.14,21.14,0,0,1,2.14,1.66,2.68,2.68,0,0,0,.83.48,5.77,5.77,0,0,1,3,1.7c.34.44,1,.25,1.47.58a17.73,17.73,0,0,0,2.39,1.2,1.06,1.06,0,0,0,.65.58c1.79.58,3.34,1.66,5.07,2.37a12.81,12.81,0,0,1,2.39,1.67,5.36,5.36,0,0,0,1.79.89c.65.15,1.18.72,1.93.58a1.06,1.06,0,0,1,.68.23c.82.8,1.82.62,2.79.62H714a8.84,8.84,0,0,0,3.86-1.16,12.4,12.4,0,0,1,2.55-1.11c.83-1.42,2.17-2.11,3.52-3,.14-.54.92-.67,1.19-1.32l.17.13.07-.68c1.64-.92,2.65-2.46,4.06-3.55.23-.17,0-.47.18-.69,1.68-.82,2.58-2.55,4.13-3.62l0-.56c1.67-.86,2.63-2.53,4.15-3.64l.05-.53c1.6-1,2.7-2.46,4.17-3.77l0-.46c1.64-.95,2.66-2.49,4.15-3.73l0-.49c1.63-.93,2.66-2.45,4.06-3.55.23-.18,0-.47.09-.57,2.16-1.38,3.59-3.53,6-4.27l0-.38A21.83,21.83,0,0,1,760,481.7a6.6,6.6,0,0,0,2.94-.8h2.12a6.18,6.18,0,0,0,3.61.67,17.85,17.85,0,0,1,2.56,1.37c.86.79,2.21.76,2.82,1.86,1.36.34,1.92,1.7,3,2.4.92.6,1.41,1.65,2.25,2.37a28.23,28.23,0,0,0,2.11,2c.85.58,1.28,1.56,2.09,2.21s1.29,1.42,2.1,2,1.29,1.56,2.1,2.22,1.4,1.41,2.16,2.06c1,.86,1.75,2,2.73,2.86a16.51,16.51,0,0,0,1.39,1.25c.86.62,1.35,1.6,2.16,2.29s1.36,1.36,2.09,2c1,.88,1.86,2,2.8,2.93,1.49,1.52,3,3.05,4.53,4.52s2.95,3,4.52,4.46a28.74,28.74,0,0,0,2.75,2.52,10.78,10.78,0,0,1,2.16,2.39,7.22,7.22,0,0,0,1.67,1.59A19.82,19.82,0,0,1,820,530c.56.59,1.2,1.12,1.74,1.74s1.12,1.28,1.59,1.92c.7,1,1.63,1.67,2.41,2.7-.22.71.49,1.24.85,1.75a7,7,0,0,1,1.2,2.84c.09.47.49.62.65,1,.21,1.41-.4,3,.69,4.05,0,.59-.38.62-.65.84v1.86a1.47,1.47,0,0,1,0,.66v.87c-.11.35-.45.49-.66.84.16,1-.62,1.88-.75,2.93l-1.21,1.16-.07,1c-.49.41-.82,1-1.47,1.28a1.79,1.79,0,0,1-.7,1.21c-1,.91-1.64,2.06-2.61,3-.42.4-1,.64-1.35,1.09-.6.68-1.26,1.3-1.84,2a11.62,11.62,0,0,1-1.9,1.8,11.66,11.66,0,0,0-2.12,2.2,17.54,17.54,0,0,1-2.45,2.34c-2.16,2-4.3,4.11-6.34,6.26-1.17,1.24-2.5,2.32-3.58,3.64a1.7,1.7,0,0,0-.44,1.18c-1.12.85-1.84,2-2.88,2.8a33.34,33.34,0,0,0-2.68,2.89c-1,.94-2.28,1.57-3,2.89a2.65,2.65,0,0,0-1.1.68,27.16,27.16,0,0,1-3,2.05,14.52,14.52,0,0,0-1.75,1.28,1.55,1.55,0,0,1-.55.32,31.15,31.15,0,0,0-3.82,1.83,1.32,1.32,0,0,1-.65.09,2.34,2.34,0,0,0-1.41.54,2.16,2.16,0,0,1-1.68.35c-.28.08-.17.38-.55.42-.75-.13-1.58.33-2.52.36l-.07.43a16.76,16.76,0,0,1-4.57.34c-1.51,1-10.6,1-12,0h-2.87a6.75,6.75,0,0,1-3.35-.63,4.52,4.52,0,0,0-2.35-.26,5,5,0,0,1-2.58-.65c-1.06-.19-2.4.44-3.35-.64-1.25-.22-2.59.41-3.57-.69-1-.09-2.12.27-2.88-.67-1-.06-2,.24-2.66-.69a4.37,4.37,0,0,1-3.13-.67c-.53-.39-1.34-.26-1.74-.86-.87,0-1.7.1-2.2-.71-.86.24-1.56-.38-2.38-.13a1.45,1.45,0,0,0-1.2-.65,8.12,8.12,0,0,1-2.28-.85A2.41,2.41,0,0,0,721,591a.68.68,0,0,1-.43,0,25.64,25.64,0,0,0-4-1.8c-.13-.06-.22-.2-.37-.34a4.46,4.46,0,0,1-2-.56,7.15,7.15,0,0,0-2.4-.86,5,5,0,0,1-2.67-1.42c-2.65-.62-5.09-2.18-8-3.39a1.92,1.92,0,0,1-1.83-.75,4.14,4.14,0,0,0-1.47-.78c-1.81-.79-3.55-1.74-5.35-2.51-1.29-.56-2.29-1.59-3.67-1.93-.23-.05-.27-.19-.3-.37A6.68,6.68,0,0,1,685.7,575a6.77,6.77,0,0,0-1.44-.88c-.76-.36-1.45-.9-2.23-1.23-1.2-.51-2.27-1.26-3.53-1.66a5.1,5.1,0,0,1-1.84-1.05,2.62,2.62,0,0,0-1.66-.91,1,1,0,0,1-.94-.88.81.81,0,0,1-.87-.23,6.37,6.37,0,0,0-3.07-1.75,2.89,2.89,0,0,1-1-.65c-.58-.64-1.58-.71-1.93-1.37-1-.61-1.89-.87-2.71-1.47a36.06,36.06,0,0,0-3.56-2.09,7.57,7.57,0,0,1-1.62-1.4c-1.74-1.24-3.83-1.92-5.36-3.5a2.7,2.7,0,0,1-1.29-.66c-.92-.79-2.06-1.27-3-2.07-.16-.14-.49-.09-.73-.12-.81-.93-2-1.43-2.76-2.32s-2.11-1.1-2.94-2a29.36,29.36,0,0,0-3.64-2.74c-1.15-.89-2.53-1.52-3.39-2.76-.89-.14-1.27-1.05-2-1.35a.93.93,0,0,1-.61-.55,7.14,7.14,0,0,1-2.9-2.25c-.48,0-.74-.39-1-.69a11.28,11.28,0,0,0-2.19-1.76,24.34,24.34,0,0,1-3.33-3,2.87,2.87,0,0,0-.64-.51,23.6,23.6,0,0,1-2.73-1.93c-.33-.21-.26-.63-.61-.92-.82-.68-1.77-1.15-2.6-1.8-.67-.53-1.21-1.22-1.87-1.76-1.18-1-2-2.25-3.37-3.09a13.85,13.85,0,0,1-2.14-2.13c-.3,0-.56-.26-.85-.54a36.67,36.67,0,0,0-3.3-3c-.56-.44-1-1.09-1.49-1.6-.83-.8-1.81-1.43-2.59-2.28a16,16,0,0,1-2.42-2.78,3.16,3.16,0,0,0-.94-1c-1.52-1.1-2.47-2.73-3.9-3.91-.26-.22-.55-.42-.82-.65-.78-.66-1.26-1.58-2.07-2.23a17,17,0,0,1-2.07-2,26.5,26.5,0,0,1-3-3.43,17.08,17.08,0,0,0-2.42-2.74c-.68-.74-1.41-1.44-2.08-2.19a1.33,1.33,0,0,1-.41-1c-.9-.39-1.35-1.28-2-2a26.82,26.82,0,0,1-2.93-3.52,12.71,12.71,0,0,0-2.36-2.45c-.73-.62-.94-1.54-1.53-2.23a3.09,3.09,0,0,0-.6-.66,6.7,6.7,0,0,1-2.26-2.88c-.19-.45-.56-.59-.79-.92a25.19,25.19,0,0,0-2.1-2.17l-.07-.68-1.72-1.81c-.36-.33-.15-.68-.31-.93a8.59,8.59,0,0,1-1.55-1.83,6.67,6.67,0,0,0-1-1.37,5.42,5.42,0,0,1-1.58-2.36c0-.07,0-.16-.06-.2a18.29,18.29,0,0,1-2.5-2.92,4.93,4.93,0,0,1-1.07-1.5,2.92,2.92,0,0,0-.88-1.35c-1-.86-1.44-2.16-2.37-3.06-.29-.29-.1-.64-.26-.91a4.87,4.87,0,0,1-1.35-1.84,6.55,6.55,0,0,0-1.5-2.08c-.64-.7-1.05-1.61-1.83-2.08-.22-.38-.07-.72-.18-1.11-.59-.39-.8-1.13-1.26-1.69s-.9-1.31-1.4-1.93c-.29-.37-.73-.85-.76-1.23-.06-.93-.86-1.22-1.34-2-.16-1.6-1.93-2.51-2.43-4.33L540.62,437l0-1c-.77-.28-.46-1.28-1.06-1.74-.09-.06-.21-.17-.2-.24,0-.75-.44-1.09-1-1.41a3,3,0,0,1-.56-.51l-.06-1c-.75-.46-.76-1.43-1.25-2.13-.21-.31-.4-.72-.62-1.08a12.17,12.17,0,0,1-1.47-2.9c-.1-.35-.5-.61-.68-1l-2-4-.14.05v-.91a2.29,2.29,0,0,1-.78-1.35c-.13-.44-.75-.71-.54-1.31l-.86-.78.12-.08-2-4-.13.05,0-.87a7.12,7.12,0,0,1-1.28-2.79l-.91-.72V406c-.91-1-1-2.4-2-3.46v-.8l-.68-.73v-1.28l-.62-.66c-.14-.26,0-.61-.12-1a2,2,0,0,1-.81-2c-1-.36-.39-1.65-1.35-1.89V392.6c-.9-.34-.39-1.6-1.31-1.89v-1.6a1.94,1.94,0,0,1-.8-1.53,1.88,1.88,0,0,0-.75-1.34V384.9c-1-.62-.49-2-1.34-2.73v-1.48c-1.06-.6-.47-2-1.33-2.72V376.5c-1.12-.62-.39-2.24-1.55-2.87a3.88,3.88,0,0,0-.66-2.77V369l-.65-.71v-2c-.11-.45-.54-.57-.68-1V363.2l-.64-.68c-.12-1.48.28-3-.66-4.27A22.65,22.65,0,0,0,509,355a10,10,0,0,0-.51-1,6.71,6.71,0,0,1-.2-2.27c0-.48,0-1,0-1.43A.48.48,0,0,0,508.25,349.56Z" transform="translate(-489 -259)" fill="#fdfdfd"/><path d="M508.26,335.61h.48a.44.44,0,0,1,.13.53c-.18.2-.41.1-.61.13Q507.74,335.94,508.26,335.61Z" transform="translate(-489 -259)" fill="gray"/><path d="M508.25,349.56l.5,0a.38.38,0,0,1,.1.51c-.17.19-.4.1-.6.13C507.91,350,507.91,349.78,508.25,349.56Z" transform="translate(-489 -259)" fill="#9f9f9f"/><path d="M828.51,549.34q-.51-.33,0-.66H829a.44.44,0,0,1,.12.53C829,549.41,828.72,549.31,828.51,549.34Z" transform="translate(-489 -259)" fill="#838383"/></svg>