<svg xmlns="http://www.w3.org/2000/svg" width="20.746" height="20.992" viewBox="0 0 20.746 20.992"><g transform="translate(-0.511 -0.018)" fill="none" stroke-linejoin="round"><path d="M3.614.2,4.327.018h.608L5.543.2,6.1.639l.436.383L8.885,3.4l.426.644.162.462v.7L9.217,5.8l-.488.634-.991.991L7.462,7.7h0l-.1.1-.1.109v.087l.2.567.276.52.488.7.747.894.5.536.752.747.666.6.878.666.6.5.845.406a2.062,2.062,0,0,0,.414-.175.8.8,0,0,0,.244-.231l.2-.163.892-.91.634-.52.536-.179h.845l.715.325.975.845,1.089,1.186,1.219,1.251.162.374a2.51,2.51,0,0,1-.878,2.762,26.273,26.273,0,0,1-1.885,1.869A4.567,4.567,0,0,1,16.819,21c.008,0-1.388-.132-1.714-.216-.021,0-.7-.213-1.035-.321-.244-.065-1.285-.5-1.285-.5s-.966-.523-1.178-.607C7.144,17.607,3.252,12,3.252,12L1.518,9.134l-.894-2.4-.114-1.2V4.194l.114-.618.414-.811Z" stroke="none"/><path d="M 4.454832077026367 1.018030166625977 L 4.12725830078125 1.10297966003418 L 1.856466293334961 3.362117767333984 L 1.581535339355469 3.900833129882812 L 1.510744094848633 4.285079956054688 L 1.510744094848633 5.483575820922852 L 1.607622146606445 6.503496170043945 L 2.422700881958008 8.69697093963623 L 4.090059280395508 11.45473957061768 C 4.364358901977539 11.84183788299561 7.979698181152344 16.86046028137207 11.97384357452393 18.42617034912109 C 12.19780158996582 18.51470947265625 12.82917594909668 18.85060691833496 13.21566677093506 19.05945205688477 C 13.66318893432617 19.24561882019043 14.20507717132568 19.46101951599121 14.32706356048584 19.49661064147949 C 14.34274291992188 19.50078964233398 14.35832405090332 19.50534057617188 14.3737735748291 19.51028060913086 C 14.70829010009766 19.61709594726562 15.24897956848145 19.78525352478027 15.35269355773926 19.81541633605957 C 15.35286712646484 19.81546211242676 15.35303974151611 19.81550598144531 15.3532133102417 19.81554985046387 C 15.56836128234863 19.86771583557129 16.62839698791504 19.98128700256348 16.86749267578125 20.00108337402344 C 16.89402389526367 20.00240898132324 16.92068481445312 20.00480079650879 16.94739532470703 20.00829315185547 C 17.04002380371094 19.9971809387207 17.27016448974609 19.94004440307617 17.83188247680664 19.70718002319336 C 17.83824157714844 19.70454406738281 17.84455871582031 19.70192718505859 17.85080528259277 19.6993408203125 C 18.43329238891602 19.18524932861328 18.90868377685547 18.67576789855957 19.23064422607422 18.33071136474609 C 19.36531448364258 18.1864013671875 19.4716739654541 18.07241058349609 19.55926322937012 17.98655128479004 C 19.57145309448242 17.97459983825684 19.58395385742188 17.96294975280762 19.59675407409668 17.95164108276367 C 20.44078063964844 17.20509719848633 20.26438903808594 16.47773742675781 20.20806694030762 16.31000709533691 L 20.13027000427246 16.13106918334961 L 19.03925323486328 15.01093101501465 C 19.03236389160156 15.00385093688965 19.02556419372559 14.99667072296143 19.01888275146484 14.98939037322998 L 17.96874046325684 13.84522247314453 L 17.14633560180664 13.13243293762207 L 16.76021575927734 12.95694065093994 L 16.29400062561035 12.95694065093994 L 16.0870475769043 13.02593326568604 L 15.63807106018066 13.39443206787109 L 14.78358364105225 14.26584053039551 C 14.75924301147461 14.29067039489746 14.73361396789551 14.31421089172363 14.70681381225586 14.33637046813965 L 14.59859657287598 14.42584991455078 C 14.50216102600098 14.54145240783691 14.3566837310791 14.68524265289307 14.15403366088867 14.81033039093018 C 13.89561367034912 14.96984100341797 13.58632373809814 15.06752014160156 13.49768352508545 15.09366035461426 C 13.26002311706543 15.16374015808105 13.00481414794922 15.14309120178223 12.78151321411133 15.03572082519531 L 11.93654346466064 14.62944030761719 C 11.86160373687744 14.59341049194336 11.79145336151123 14.54818058013916 11.72772312164307 14.49479103088379 L 11.14469242095947 14.00639057159424 L 10.28632354736328 13.3547306060791 C 10.26376342773438 13.33761024475098 10.241943359375 13.31954002380371 10.22092342376709 13.30055999755859 L 9.554783821105957 12.69924068450928 C 9.542943000793457 12.68855094909668 9.531363487243652 12.67758083343506 9.520053863525391 12.66634082794189 L 8.767733573913574 11.91890048980713 C 8.758463859558105 11.90969085693359 8.749373435974121 11.90030097961426 8.740473747253418 11.89074039459229 L 8.241453170776367 11.35449028015137 C 8.229423522949219 11.34156036376953 8.217733383178711 11.3283109664917 8.206403732299805 11.31477069854736 L 7.458963394165039 10.42100048065186 C 7.440303802490234 10.39868068695068 7.422613143920898 10.37556076049805 7.405973434448242 10.35170078277588 L 6.918423652648926 9.65294075012207 C 6.895353317260742 9.619880676269531 6.874313354492188 9.585460662841797 6.855403900146484 9.549870491027832 L 6.579163551330566 9.029880523681641 C 6.556373596191406 8.986980438232422 6.5367431640625 8.942480087280273 6.520423889160156 8.896730422973633 L 6.318153381347656 8.329740524291992 C 6.279683113098145 8.221900939941406 6.260013580322266 8.108240127563477 6.260013580322266 7.993740081787109 L 6.260013580322266 7.906250953674316 C 6.260013580322266 7.648150444030762 6.359813690185547 7.400040626525879 6.53852367401123 7.213820457458496 L 6.643373489379883 7.104570388793945 C 6.648013114929199 7.099740982055664 6.652693748474121 7.09496021270752 6.65743350982666 7.09022045135498 L 7.976767539978027 5.770730018615723 L 8.348480224609375 5.287567138671875 L 8.472533226013184 4.999847412109375 L 8.472533226013184 4.676795959472656 L 8.407556533813477 4.491828918457031 L 8.104345321655273 4.032865524291992 L 5.846891403198242 1.750005722045898 L 5.457975387573242 1.408214569091797 L 5.072153091430664 1.105098724365234 L 4.786115646362305 1.018030166625977 L 4.454832077026367 1.018030166625977 M 4.327274322509766 0.01803016662597656 L 4.934932708740234 0.01803016662597656 L 5.5426025390625 0.2030010223388672 L 6.097414016723633 0.6388797760009766 L 6.533323287963867 1.021970748901367 L 8.884523391723633 3.399631500244141 L 9.310063362121582 4.043760299682617 L 9.472533226013184 4.506259918212891 L 9.472533226013184 5.206240653991699 L 9.217283248901367 5.798250198364258 L 8.729733467102051 6.431980133056641 L 7.364863395690918 7.797000885009766 L 7.260013580322266 7.906250953674316 L 7.260013580322266 7.993740081787109 L 7.462283134460449 8.560730934143066 L 7.738523483276367 9.080720901489258 L 8.226073265075684 9.779480934143066 L 8.973513603210449 10.67325019836426 L 9.472533226013184 11.20950031280518 L 10.224853515625 11.95694065093994 L 10.89099311828613 12.55826091766357 L 11.76855373382568 13.22449111938477 L 12.369873046875 13.72821044921875 L 13.21484375 14.13449096679688 C 13.21484375 14.13449096679688 13.4642333984375 14.06095123291016 13.62878322601318 13.95938110351562 C 13.79333305358887 13.85781097412109 13.87304306030273 13.72821044921875 13.87304306030273 13.72821044921875 L 14.06958389282227 13.56570053100586 L 14.9619140625 12.65570068359375 L 15.59546279907227 12.13571071624756 L 16.1317138671875 11.95694065093994 L 16.97680282592773 11.95694065093994 L 17.69189453125 12.28195095062256 L 18.66687393188477 13.12698078155518 L 19.75561332702637 14.31319999694824 L 20.97436332702637 15.56448078155518 L 21.13684272766113 15.93819999694824 C 21.13684272766113 15.93819999694824 21.73520278930664 17.39523124694824 20.25927352905273 18.70067977905273 C 19.98655319213867 18.96800994873047 19.30053329467773 19.77318954467773 18.37439346313477 20.56943130493164 C 18.33481788635254 20.56640434265137 17.41486930847168 21.01016235351562 16.93155479431152 21.01016235351562 C 16.89045715332031 21.01016235351562 16.85257911682129 21.00696182250977 16.818603515625 21 C 16.82632064819336 21.00438117980957 15.43039131164551 20.86827087402344 15.10485363006592 20.78421020507812 C 15.08417320251465 20.78169059753418 14.40945339202881 20.57142066955566 14.06958389282227 20.462890625 C 13.82561302185059 20.39788055419922 12.78430366516113 19.96304130554199 12.78430366516113 19.96304130554199 C 12.78430366516113 19.96304130554199 11.81805324554443 19.43988990783691 11.60620307922363 19.35614013671875 C 7.143553733825684 17.60678100585938 3.252193450927734 12.00171089172363 3.252193450927734 12.00171089172363 L 1.518182754516602 9.133700370788574 L 0.6245136260986328 6.728730201721191 L 0.5107440948486328 5.530970573425293 L 0.5107440948486328 4.193719863891602 L 0.6245136260986328 3.576200485229492 L 1.038204193115234 2.765590667724609 L 3.614013671875 0.2030010223388672 L 4.327274322509766 0.01803016662597656 Z" stroke="none" fill="#010101"/></g></svg>