<svg xmlns="http://www.w3.org/2000/svg" width="13.705" height="13.705" viewBox="0 0 13.705 13.705"><g transform="translate(0 0)"><g transform="translate(0 0)"><path d="M13.7,11.045a2.027,2.027,0,0,0-.622-1.393,4.979,4.979,0,0,0-1.971-1.31,2.206,2.206,0,0,0-2.266.643l0,0-.724.718A10.847,10.847,0,0,1,5.836,7.941l-.07-.07A10.848,10.848,0,0,1,4,5.589l.718-.724,0,0A2.206,2.206,0,0,0,5.365,2.6,4.98,4.98,0,0,0,4.055.625a2.037,2.037,0,0,0-2.827-.1L1.213.537l-.021.02A4.344,4.344,0,0,0,0,3.738a10.167,10.167,0,0,0,3.236,6.733,13.048,13.048,0,0,0,1.284,1.118.535.535,0,0,0,.651-.85A11.988,11.988,0,0,1,3.993,9.714,9.092,9.092,0,0,1,1.071,3.733a3.308,3.308,0,0,1,.868-2.41l0,0a.963.963,0,0,1,1.341.048C4.67,2.805,4.57,3.484,3.958,4.112l-.992,1a.535.535,0,0,0-.109.595A10.818,10.818,0,0,0,5.009,8.628l.07.07A10.816,10.816,0,0,0,8,10.851a.535.535,0,0,0,.595-.109l1-.992c.628-.612,1.307-.713,2.744.673a.963.963,0,0,1,.048,1.341l0,0A3.3,3.3,0,0,1,10,12.636H9.974a6.942,6.942,0,0,1-2.642-.625.535.535,0,0,0-.424.983,7.9,7.9,0,0,0,3.06.713H10a4.334,4.334,0,0,0,3.152-1.191l.02-.021.014-.015A2.027,2.027,0,0,0,13.7,11.045Z" transform="translate(0 -0.002)"/></g></g></svg>