<svg id="Layer_1" data-name="Layer 1" xmlns="http://www.w3.org/2000/svg" viewBox="0 0 393 393"><path d="M462.25,391.5c0-62.34.2-124.69-.25-187-.06-8,1.47-9.5,9.48-9.48q187,.51,374,0c8,0,9.49,1.47,9.47,9.47q-.51,187,0,374.06c0,8-1.47,9.49-9.47,9.47q-187-.51-374,0c-8,0-9.54-1.46-9.48-9.48C462.45,516.19,462.25,453.84,462.25,391.5Z" transform="translate(-462 -195)" fill="#fefefe"/><path d="M660.91,573.37c-36.87,0-73.75.22-110.62,0-32.73-.24-47.33-15.09-47.45-48.11q-.27-71.45,0-142.88c.11-32.37,9.94-44.11,42.29-48.18,8.59-1.09,9.15-4.59,10-11.34,3.42-25.46,11.77-49,28.23-69.34,41.41-51.25,114-51.17,155.21.18,15.88,19.77,24.41,42.49,27.58,67.18,1.13,8.83,2.56,12.52,12.93,13.45,27.21,2.42,39.72,16.63,39.91,43.51q.54,76,0,152.09c-.23,27-15.82,42.89-42.89,43.33C737.73,573.84,699.31,573.37,660.91,573.37Z" transform="translate(-462 -195)"/><path d="M661.28,361.49c36.08,0,72.17-.12,108.25,0,21.56.09,24.29,2.59,24.39,23.33q.32,69.11,0,138.2c-.1,19.13-3.9,23-22.76,23.06q-110.57.28-221.12,0c-17.91-.05-21.88-3.86-22-21.45q-.46-71.4,0-142.81c.12-16.93,3.45-20.12,20.38-20.27C586,361.27,623.65,361.49,661.28,361.49Z" transform="translate(-462 -195)" fill="#fefefe"/><path d="M658.46,333.77c-21.44,0-42.88-.24-64.32.13-8.17.14-12.44-1-11.95-11.07,1.82-37.39,31.13-72.93,67.41-80.36,16.65-3.4,32.46.61,46.32,8.93,26.69,16,40.33,40.83,43.51,71.66.79,7.68-1.42,11-9.77,10.85C705.93,333.5,682.19,333.77,658.46,333.77Z" transform="translate(-462 -195)" fill="#fefefe"/><path d="M662,407.76c19.29.76,32.76,22.21,21.31,37.41-8.49,11.27-8.3,22.21-8.69,34.23-.13,3.78.11,8-1.44,11.19-2.31,4.79-6.05,9-12.23,9.05s-10.15-4.17-12.3-8.94c-1.78-3.93-1.65-8.91-1.65-13.41,0-11.46-1-21.38-8.57-32C626.74,429,641.69,407,662,407.76Z" transform="translate(-462 -195)" fill="#020202"/></svg>