<svg xmlns="http://www.w3.org/2000/svg" width="13.008" height="12.389" viewBox="0 0 13.008 12.389"><g transform="translate(0 0)"><path d="M133.469,20.368a3.476,3.476,0,1,0-3.482-3.482A3.482,3.482,0,0,0,133.469,20.368Zm0-6.045a2.563,2.563,0,1,1-2.563,2.563A2.571,2.571,0,0,1,133.469,14.323Z" transform="translate(-126.986 -13.415)"/><path d="M.459,345.753h12.09a.456.456,0,0,0,.459-.459,4.373,4.373,0,0,0-4.368-4.368H4.368A4.373,4.373,0,0,0,0,345.294.456.456,0,0,0,.459,345.753Zm3.909-3.909H8.64a3.447,3.447,0,0,1,3.418,2.99H.951A3.457,3.457,0,0,1,4.368,341.845Z" transform="translate(0 -333.365)"/></g></svg>