<svg id="Layer_1" data-name="Layer 1" xmlns="http://www.w3.org/2000/svg" viewBox="0 0 707 716.96"><path d="M329.61,242.22c0-66.84.9-133.69-.56-200.5-.44-19.93,2.67-25.72,24.5-25.61Q681.08,17.7,1008.62,16c24.08-.14,27.2,6,27.1,28-1,220.06-1.26,440.14.28,660.21.19,27.53-9.91,28.6-31.42,28.51-172.72-.69-345.46-.39-518.19-.39a25.79,25.79,0,0,1-6.13-14.3c5.35-29.76-12.2-48.79-30.75-68-11-11.43-27.36-24.12-20.82-41.3,7.68-20.2,30-16.62,47.19-16.79,114.3-1.11,228.6-.35,342.9-.55,21.22,0,42.46.44,63.56-2.79,90.94-13.94,133.82-72.56,118.78-162.75-1.26-7.56-.42-19.57-10.75-18.74-8.51.68-8.3,12.22-9.55,20.12-21,132.42-21,132.43-156,132.43q-169,0-338-.06c-16.32,0-32.71.57-48.77-3.23-21.32-5-26.39-16.91-14.66-35.61,5.24-8.35,13-14.82,18.41-22.83,10.07-14.82,41.25-27.37,25.94-43.53-10.32-10.9-28.3,19.85-43.56,31-31.76,23.18-47.21,68.26-94.54,70.54V379.46c27.14-14.69,36.4-36.65,36.59-68.07C366.76,221,389.58,200,480.84,199.7c124.08-.36,248.15-.13,372.23-.06,13,0,26.14-.26,39.1,1.76,27,4.22,33.38,17.49,17.28,40.22-10.42,14.72-24.82,26-35.49,40.47-4.74,6.44-11.08,14.41-4.47,21.87s15.53,3.14,21.58-2.34c33.86-30.69,67.5-61.73,95.72-97.87,11.32-14.5,11.11-30.66-1.52-44.82-29.35-32.93-61.35-63.29-93-94-5.55-5.39-13.22-12.26-20.35-3.72-4.72,5.65,1.14,12.37,5.11,17.39,10.15,12.83,23.11,23.13,33.34,35.84,8.9,11.07,23.34,22.05,15.66,38-7.32,15.19-24.83,13.33-39.23,14.18-21.19,1.26-42.43.54-63.66.55-106.11,0-212.24.57-318.35-.19-61.59-.45-117.16,10.66-154.34,66.34C346,240.11,339,244.89,329.61,242.22Z" transform="translate(-329 -16)" fill="#fefefe"/><path d="M329.61,242.22c37.22-68,95.47-87.37,170.71-84.88,130.38,4.32,261,1.29,391.52,1,9.25,0,23.43.18,26.68-5.07,6.11-9.87-7.13-15.92-13.35-22.46-16.86-17.73-33.83-35.46-52-51.86-13.45-12.18-16.38-21.41-1.33-35.14C864.82,32,873.1,27.92,887.36,43c37,39.12,75.35,76.95,114,114.39,18.06,17.48,17.58,33.52.87,50.39-37.89,38.26-76.69,75.65-113.67,114.76-14.1,14.91-22.74,11.61-35.43-.73s-16.92-21.79-1.51-35.47c18.27-16.22,35.06-34.14,51.89-51.9,5.12-5.4,12.21-13.24,11.42-19-1.44-10.44-13-6.83-20.21-6.85-148.47-.24-297-1.13-445.4.52-44.19.49-67.23,29-70.43,72.52-1.19,16.24-2.4,33,.18,48.89,6.64,40.89-8.75,57.17-49.5,48.93Z" transform="translate(-329 -16)" fill="#3d3d3d"/><path d="M329.61,555.91c48.31-30.67,82-77,122.83-115.67,15.23-14.43,24.68-21.47,42.72-2.83,19.71,20.35.86,27.41-8.59,38.53-19.73,23.23-46.63,39.93-61.5,67.6,30.4,15.54,62.88,6.18,94.2,6.56,114.17,1.4,228.38.77,342.57.48,83-.21,104.52-21.82,104.62-103.54,0-16.32.55-32.66-.08-49-.6-15.49,7.18-20.09,21-18.66,11.83,1.22,28.78-5,27.86,16.3-1.68,38.89,6.44,78.3-5.55,116.65C991.65,570.21,948,599.3,873.29,600.19c-91.35,1.09-182.71.27-274.07.28-45.67,0-91.36-.29-137,.21-10.78.12-25.73-5.53-31.44,5.27-6.72,12.73,9.59,18.23,16.39,26.07,11.73,13.53,23.66,27.65,38.07,37.91,26.05,18.53,21,35.61,1.67,54.3-13.94,6.66-26.62.77-35.59-8-42.55-41.73-90.74-78.34-121.68-130.89Z" transform="translate(-329 -16)" fill="#3d3d3d"/><path d="M329.61,585.32c39.23,38.77,78.17,77.86,117.9,116.12,10.95,10.54,18.66,28.44,39.37,22.79q-.21,4.07-.49,8.13c-45.73,0-91.49-1-137.17.54-17.08.59-20.81-3.06-20.15-20.16C330.7,670.32,329.61,627.8,329.61,585.32Z" transform="translate(-329 -16)" fill="#fbfbfb"/></svg>