<svg id="Layer_1" data-name="Layer 1" xmlns="http://www.w3.org/2000/svg" width="649.25" height="676.35" viewBox="0 0 649.25 676.35"><path d="M40.53,688.09c-53.81-56-20.08-177,57.55-203,35.62-12,72.28-20.94,108.72-30.27,26.62-6.82,39.18,7.63,47,31.51,14.94,45.9,31.58,91.25,47.51,136.83,3.1,5.29,2.23,12,6.2,17l-.05-.15c4.25,2.43,4.41,6.26,3.6,10.42,1.61-3.63,1.15-8,4.09-11.14C313,602.49,335,564,303.33,528.81c-8.79-9.76,9.26-19.54,17.6-27.33,12.82-12,26.45-11.72,39.1.24,8.27,7.81,26.51,17.54,17.69,27.23-34.42,37.77-8.69,78.76-11,118,1.41,3.27,2.87,3.46,4.35,0a8.69,8.69,0,0,0,2.26-6.79c4.32-4.89,3-11.93,6.56-17.12C395.65,577.43,412,532,426.89,486c9.24-28.48,25.32-39.07,54.89-28.83,22.82,7.91,46.11,17,69.82,19.38,115,11.58,129.19,135.56,96.83,211.54Z" transform="translate(-14.28 -11.76)" fill="#010101"/><path d="M339.88,419.51c-71.11,13.61-96.58-41.31-126.61-86.41-13.76-20.68-19.8-46.28-36.56-66.2-5.49-6.53-10-18.77-7.72-26.11,14.56-46.24,2.38-96.59,22-141.58C212.46,49.8,248.5,19.4,304.86,17.81c9.38-.27,18.91-.71,28.06-2.59,67-13.73,125.41,13.91,152.45,74,21.84,48.47,26.43,103.43,23.35,152.57-2.86,45.8-38.23,88.83-66.86,129.2C416.47,406.74,385.74,428.66,339.88,419.51Z" transform="translate(-14.28 -11.76)" fill="#020202"/><path d="M307.47,640.15c-6.78-4-7.7-10-6.2-17C308.29,627,310.1,632.77,307.47,640.15Z" transform="translate(-14.28 -11.76)" fill="#cacaca"/><path d="M379.9,623.07c1.81,7.23.71,13.35-6.56,17.12C370.34,632.5,373.35,627.11,379.9,623.07Z" transform="translate(-14.28 -11.76)" fill="#b8b8b8"/><path d="M315.11,639.28l-2.67,14.38q-2.51-6.82-5-13.66A27.48,27.48,0,0,1,315.11,639.28Z" transform="translate(-14.28 -11.76)" fill="#cacaca"/><path d="M371.09,647c-.79,2.26-1.58,4.51-2.36,6.77-.67-2.27-1.33-4.54-2-6.82A3.53,3.53,0,0,1,371.09,647Z" transform="translate(-14.28 -11.76)" fill="#b8b8b8"/><path d="M276.54,655.51c-70.37,0-136.22-.71-202,.42-20.72.36-23.49-8.4-24.14-26.23-2.88-79.06,12.13-100.41,89.78-122.58,77.3-22.07,77.34-22.09,104.44,55.58C255,592.61,265.22,622.6,276.54,655.51Z" transform="translate(-14.28 -11.76)" fill="#fdfdfd"/><path d="M404.17,655.44c17.79-53.23,34.77-103.61,51.39-154.11,4.05-12.32,8.84-16.33,23.3-11.53,30.43,10.09,62.44,15.43,92.89,25.48,47,15.51,76.85,86.11,57.65,130.7-5.27,12.24-14.89,9.28-23.53,9.32C540,655.56,474.22,655.44,404.17,655.44Z" transform="translate(-14.28 -11.76)" fill="#fdfdfd"/><path d="M341.5,388.17c-64.84,8-80.29-42.86-104.87-81-10.63-16.5-14.25-36.36-28.34-52.31-14.36-16.25-11.88-35.12,11.14-45.73,1.21-.56,2.27-1.49,3.5-2C256.89,193,283,161.37,315,151.3c33.49-10.54,55.36,37.65,90.16,45.95,18.22,4.35,35.88,11.09,54.15,15.16,21.87,4.87,28.54,22,17.45,35.53-25.87,31.53-33.78,72.18-60,103.73C395,377.86,373.8,395.66,341.5,388.17Z" transform="translate(-14.28 -11.76)" fill="#fefefe"/><path d="M213.5,176.05c-4.46-81,30.83-121.79,105-126.24,23.8-1.44,46.2-13.67,71.5-5.74,45.32,14.22,83.58,71.58,80.29,119.44-1.44,20.9-12.83,16.82-24.21,13.71-32.88-9-63.84-23-87.48-47.85-24.38-25.65-45.62-28.69-71.21-1.53C268.1,148.33,243.22,162,213.5,176.05Z" transform="translate(-14.28 -11.76)" fill="#fdfdfd"/></svg>