<svg id="Layer_1" data-name="Layer 1" xmlns="http://www.w3.org/2000/svg" viewBox="0 0 690 690"><path d="M389.53,727.09H349V39.53c221.56,0,443.13.31,664.69-.53,20.27-.08,24.94,4.57,24.85,24.8-.86,207.61-1.51,415.24.45,622.84.32,34.28-7.21,47.71-41.51,40.45.21-38.25,10.43-76-.06-114.91-9.07-33.67-26.17-57.82-57.84-72.3-35.78-16.36-74.39-22.51-112.13-31.77-25.81-6.33-36,10.09-43.66,30.75-14.9,40.16-26.18,81.67-44.58,120.54-3.48,7.08-6.71,14.28-10.36,21.29a23.53,23.53,0,0,1-8.32,8.21A12.07,12.07,0,0,1,710.22,685c-6.28-36.09-20.67-71.94-2.56-108.76,4.58-9.32,3-18.34-6-24.77-7.17-5.11-15-5.52-22.6-1.17-9.37,5.38-13.85,14.56-8.44,23.69,19.3,32.56,4,65,1.24,97.46a22.33,22.33,0,0,1-7.12,9.11,14.37,14.37,0,0,1-11.17-2.45c-5.89-5.56-9.93-12.41-13.79-19.4-19.68-37-30.54-77.45-43.33-117-9.78-30.23-27-41.18-57.87-31.22-16.61,5.36-33.7,9.94-50.92,12.61-107.72,16.76-131.37,116.76-98.39,192.36A14.73,14.73,0,0,1,389.53,727.09Z" transform="translate(-349 -39)" fill="#fefefe"/><path d="M389.53,727.09c-53.81-56-20.08-177,57.55-203,35.62-12,72.28-20.94,108.72-30.27,26.62-6.82,39.18,7.63,47,31.51,14.94,45.9,31.58,91.25,47.51,136.83,3.1,5.29,2.23,12,6.2,17l-.05-.15c4.25,2.43,4.41,6.26,3.6,10.42,1.61-3.63,1.15-8,4.09-11.14C662,641.49,684,603,652.33,567.81c-8.79-9.76,9.26-19.54,17.6-27.33,12.82-12,26.45-11.72,39.1.24,8.27,7.81,26.51,17.54,17.69,27.23-34.42,37.77-8.69,78.76-11,118,1.41,3.27,2.87,3.46,4.35.05a8.7,8.7,0,0,0,2.26-6.79c4.32-4.89,3-11.93,6.56-17.12,15.76-45.66,32.14-91.13,47-137.07,9.24-28.48,25.32-39.07,54.89-28.83,22.82,7.91,46.11,17,69.82,19.38,115.05,11.58,129.19,135.56,96.83,211.54Z" transform="translate(-349 -39)" fill="#010101"/><path d="M688.88,458.51c-71.11,13.61-96.58-41.31-126.61-86.41-13.76-20.68-19.8-46.28-36.56-66.2-5.49-6.53-10-18.77-7.72-26.11,14.56-46.24,2.38-96.59,22-141.58C561.46,88.8,597.5,58.4,653.86,56.81c9.38-.27,18.91-.71,28.06-2.59,67-13.73,125.41,13.91,152.45,73.95,21.84,48.47,26.43,103.43,23.35,152.57-2.86,45.8-38.23,88.83-66.86,129.2C765.47,445.74,734.74,467.66,688.88,458.51Z" transform="translate(-349 -39)" fill="#020202"/><path d="M656.47,679.15c-6.78-4-7.7-10-6.2-17C657.29,666,659.1,671.77,656.47,679.15Z" transform="translate(-349 -39)" fill="#cacaca"/><path d="M728.9,662.07c1.81,7.23.71,13.35-6.56,17.12C719.34,671.5,722.35,666.11,728.9,662.07Z" transform="translate(-349 -39)" fill="#b8b8b8"/><path d="M664.11,678.28l-2.67,14.38q-2.51-6.82-5-13.66A27.62,27.62,0,0,1,664.11,678.28Z" transform="translate(-349 -39)" fill="#cacaca"/><path d="M720.09,686c-.79,2.26-1.58,4.51-2.36,6.77q-1-3.4-2-6.82A3.54,3.54,0,0,1,720.09,686Z" transform="translate(-349 -39)" fill="#b8b8b8"/><path d="M625.54,694.51c-70.37,0-136.22-.71-202,.42-20.72.36-23.49-8.4-24.14-26.23-2.88-79.06,12.13-100.41,89.78-122.58,77.3-22.07,77.34-22.09,104.44,55.58C604,631.61,614.22,661.6,625.54,694.51Z" transform="translate(-349 -39)" fill="#fdfdfd"/><path d="M753.17,694.44c17.79-53.23,34.77-103.61,51.39-154.11,4.05-12.32,8.84-16.33,23.3-11.53,30.43,10.09,62.44,15.43,92.89,25.48,47,15.51,76.85,86.11,57.65,130.7-5.27,12.24-14.89,9.28-23.53,9.32C889,694.56,823.22,694.44,753.17,694.44Z" transform="translate(-349 -39)" fill="#fdfdfd"/><path d="M690.5,427.17c-64.84,8-80.29-42.86-104.87-81-10.63-16.5-14.25-36.36-28.34-52.31-14.36-16.25-11.88-35.12,11.14-45.73,1.21-.56,2.27-1.49,3.5-2C605.89,232,632,200.37,664,190.3c33.49-10.54,55.36,37.65,90.16,45.95,18.22,4.35,35.88,11.09,54.15,15.16,21.87,4.87,28.54,22,17.45,35.53-25.87,31.53-33.78,72.18-60,103.73C744,416.86,722.8,434.66,690.5,427.17Z" transform="translate(-349 -39)" fill="#fefefe"/><path d="M562.5,215.05c-4.46-81,30.83-121.79,105-126.24C691.3,87.37,713.7,75.14,739,83.07c45.32,14.22,83.58,71.58,80.29,119.44-1.44,20.9-12.83,16.82-24.21,13.71-32.88-9-63.84-23-87.48-47.85-24.38-25.65-45.62-28.69-71.21-1.53C617.1,187.33,592.22,201,562.5,215.05Z" transform="translate(-349 -39)" fill="#fdfdfd"/></svg>