<svg id="Layer_1" data-name="Layer 1" xmlns="http://www.w3.org/2000/svg" viewBox="0 0 692 692"><path d="M324,643.65V42.53c221.73,0,443.46.32,665.18-.53,20.29-.08,25,4.59,24.87,24.9q-1.29,320.87,0,641.74c.08,20.31-4.58,25-24.87,24.9-208.2-.87-416.42-1.52-624.61.45-34.38.33-47.71-7.2-40.72-41.63,1.06-5.2.15-10.8.15-16.21,115.62,26.14,232.86,8.78,349.3,12.43,85,2.67,170.06,1,255.1.23,24.71-.23,55.33,6,63.27-28.3,5.85-25.26-41-76.79-68.17-77.79-49.92-1.82-99.89.22-149.81-1.12-23.17-.62-50.77,5.83-60.87-26.29-10.94-34.76-.9-74.46,25.64-92.08,12-7.94,14.53-15.26,6.85-26-19.62-27.47-41-53.6-62.62-79.48-14.94-17.87-28-10.24-39.91,4-18.16,21.7-32.28,46.7-53.35,66a38.14,38.14,0,0,1-17.94,9c-12.27,1.6-21.12-7.34-31.93-10.26C483,412,459.6,422.34,435,472.49c-15.18,30.93-6.2,49.39,28.47,52.74,30.84,3,62,.59,93.07,1.07,54.71.84,59.72,6.13,62.82,59.91.77,13.46-6.29,34.89,15.21,35.86,25.21,1.14,57,15.93,74.55-11.51,14.27-22.34,31.78-27,54-27.23,49.93-.48,99.87-.64,149.8.11,16.38.25,33.43,1.52,44.77,14.89,15.77,18.59,33.1,39.59,25.82,65-8.08,28.24-36,24.26-58.36,24.33q-261.15.78-522.29-.09c-23.39-.09-51.93,3.89-58.52-29.24-5.37-27,28.09-69.83,57.24-73.38,38.44-4.69,77.27-.89,123.87-2.34-29.26-.49-50.61.61-71.87-.41-44-2.12-87.22-4.15-106.52,48.79A20,20,0,0,1,324,643.65Z" transform="translate(-322 -42)" fill="#fefefe"/><path d="M569.76,433.48c25.46-31.25,51.48-62.07,76.15-93.93,13.53-17.46,23.93-18.27,37.58-.19,26,34.46,53.13,68.1,80,101.9,15,18.88,16.79,33-13.17,30.29-25.71-2.34-27.44,10.44-27.55,31-.34,68.81-1,68.8,66.57,68.8,45.9,0,91.82-.49,137.72.18,33.27.48,85.47,66.1,77.15,97.45-6.91,26-28.52,29.15-51.46,29.09-79.66-.19-159.33-.07-239-.07-109.37,0-218.74-.49-328.1.39-24.16.19-45.16-3.6-61.72-22.23v-32.5c29.62-77.39,93-79,160.65-72.6,20.07,1.91,40.48.64,60.72.23,9.34-.19,17.77,3.52,17.75,12,0,9.36-9.44,11.24-18.27,11.21q-66.82-.24-133.65,0c-25.06.13-64.83,41.86-62.44,65.72,1.89,18.9,17.34,13.58,28.23,13.67,56.7.5,113.41.24,170.11.24q198.47,0,396.93-.06c44.18-.06,43.38-1.35,24.3-42.5-13-28-28.88-40.12-61.28-38-51.09,3.32-102.55.64-153.85,1.09-10,.09-28.54-4.37-28.07,7.64,2.11,53.81-36.89,34.27-61.35,35.14-57.14,2-59.69.5-56.34-57.58,2.16-37.6-9.35-49.71-46.47-46.25-34.8,3.24-70.19,1.78-105.23.36-41-1.67-52.2-22-34.22-58.4,33.52-67.86,49.86-75.37,127.79-58.77,8.73,29.95-15.85,24.35-29.71,25.43-24,1.87-45.22,5.2-57.76,29.52-10.68,20.71-5.81,30.47,17.54,30.84,32.43.5,64.86-.18,97.29.33,50.63.78,55.9,5.9,58.2,55.3.37,8.11.14,16.24,1.24,24.31,2.49,18.26,14,25.09,31.19,24.45,16.14-.59,24.88-9.34,26.16-25.17,2.07-25.66.44-51.4,1-77.1.48-20.12-.65-40,10.2-59,15.32-26.94-14.14-36.78-24.19-53.76-6.08-10.28-18.12-14.91-27.17-4-13.16,15.81-37.28,27.49-31,52.69,3.71,14.89,13.79,29-5.7,37.54-19.2,8.45-41.5,10.17-57.84-4C538.81,456.78,552.88,443.56,569.76,433.48Z" transform="translate(-322 -42)" fill="#040404"/><path d="M569.76,433.48c.38,12.81-29.21,24.44-6,35.71,16.66,8.12,39.39,6.13,58.78-1.24,1.81-.69,3-7.86,1.77-10.87-5.61-13.4-19.6-4.08-28.4-9.86.29-2.34-.3-5.59,1-7.41,69.8-95,69.82-95,139.81,8.51-31.76-4.11-35.57,13-34.26,37.46,1.86,35-.92,70.2.87,105.18,1.67,32.58-20.72,25.07-38,24.81-16.85-.25-39.33,8.81-39-24.14.27-24.92,12.85-59.73-6.39-72.59-18.9-12.65-51.63-5-78.31-5.47q-40.39-.77-80.82,0c-23.88.44-28.12-9.47-18.56-30.06C456.5,453,471,425.76,513.4,434.2c12.15,2.42,35,10.77,35.86-17.37Z" transform="translate(-322 -42)" fill="#fcfcfc"/><path d="M667.06,252.37c17.57,0,35.59,2.56,52.62-.47,53.33-9.52,82.91,14.77,101.05,62.72,7.38,19.52,13.2,36.44-5.18,50.67-22.49,17.41-48.81,11.94-73.29,5.73-8.68-2.2-6.83-13.38,1.88-18.47,3.19-1.86,8-.65,11.8-1.83,15.78-5,41.22,12.9,46.66-14.22,4.89-24.43-34.18-61-60.7-61.18q-77-.4-154.06,0c-26.71.14-61.68,35.51-62,61.17-.2,14.62,9.76,13.81,19.13,14.19,12.14.5,24.31.29,36.44.88,5.93.29,10.94,4.19,10.23,10-.53,4.42-4.93,11.93-7.73,12-24.95.47-52.27,10.49-73.15-11-17.81-18.34-5.38-36,2.17-55.43,17.2-44.19,46.31-62.34,93.41-55.2C626.14,254.88,646.79,252.37,667.06,252.37Z" transform="translate(-322 -42)" fill="#0b0b0b"/><path d="M738.19,171.57c.61,24.77-8.28,35.49-24.11,40.45-6.41,2-13.61,2.17-17.55-5.21-2.93-5.49-1.19-11.12,3.84-13.82,9.8-5.25,20.92-9.82,12.74-23.55-14.36-24.07-22.76-51.76-43.25-72.06-1.51-1.5-5.08-1.78-7.48-1.37-19.23,3.21-47.75,79.53-35.21,94.69,4.34,5.24,10.3,9.65,5.2,16.89-5.88,8.35-14.36,6.12-21.65,2.59-21.27-10.31-24.63-28.9-16.12-47.83A590.67,590.67,0,0,1,635,88c11.72-18.43,33.39-25.25,48.66-10.14C711.43,105.31,726.61,141.77,738.19,171.57Z" transform="translate(-322 -42)" fill="#0c0c0c"/><path d="M831.83,534.54c-16.18,0-32.36.08-48.53,0-8.36-.06-18.14-1.45-18.37-11.17-.25-11.19,10.55-9.89,18.25-10,28.31-.24,56.63-.57,84.93,0,23.41.49,27.95-8.31,19.3-29.75-14-34.69-34.28-56.25-75.43-48.73-9,1.65-25,5.34-25.93-10.18-1-15.67,14.31-12.27,24.26-13.09,58.63-4.81,94.49,21.88,105.84,80,4.79,24.55-7.6,39.32-31.83,41.81-17.33,1.78-35,.34-52.49.34Z" transform="translate(-322 -42)" fill="#0e0e0e"/></svg>