<svg id="Layer_1" data-name="Layer 1" xmlns="http://www.w3.org/2000/svg" width="681.17" height="628.83" viewBox="0 0 681.17 628.83"><path d="M251.25,395.5c25.46-31.25,51.48-62.07,76.15-93.93,13.53-17.46,23.93-18.27,37.58-.19,26,34.46,53.13,68.1,80,101.9,15,18.88,16.79,33-13.17,30.29-25.71-2.34-27.44,10.44-27.55,31-.34,68.81-1,68.8,66.57,68.8,45.9,0,91.82-.49,137.72.18C641.82,534,694,599.65,685.7,631c-6.91,26-28.52,29.15-51.46,29.09-79.66-.19-159.33-.07-239-.07-109.37,0-218.74-.49-328.1.39C43,660.6,22,656.81,5.42,638.18v-32.5c29.62-77.39,93-79,160.65-72.6,20.07,1.91,40.48.64,60.72.23,9.34-.19,17.77,3.52,17.75,12,0,9.36-9.44,11.24-18.27,11.21q-66.83-.24-133.65,0c-25.06.13-64.83,41.86-62.44,65.72,1.89,18.9,17.34,13.58,28.23,13.67,56.7.5,113.41.24,170.11.24q198.47,0,396.93-.06c44.18-.06,43.38-1.35,24.3-42.5-13-28-28.88-40.12-61.28-38-51.09,3.32-102.55.64-153.85,1.09-10,.09-28.54-4.37-28.07,7.64,2.11,53.81-36.89,34.27-61.35,35.14-57.14,2-59.69.5-56.34-57.58,2.16-37.6-9.35-49.71-46.47-46.25-34.8,3.24-70.19,1.78-105.23.36-41-1.67-52.2-22-34.22-58.4,33.52-67.86,49.86-75.37,127.79-58.77,8.73,29.95-15.85,24.35-29.71,25.43-24,1.87-45.22,5.2-57.76,29.52-10.68,20.71-5.81,30.47,17.54,30.84,32.43.5,64.86-.18,97.29.33,50.63.78,55.9,5.9,58.2,55.3.37,8.11.14,16.24,1.24,24.31,2.49,18.26,14,25.09,31.19,24.45,16.14-.59,24.88-9.34,26.16-25.17,2.07-25.66.44-51.4,1-77.1.48-20.12-.65-40,10.2-59C401.4,380.79,371.94,371,361.89,354c-6.08-10.28-18.12-14.91-27.17-4-13.16,15.81-37.28,27.49-31,52.69,3.71,14.89,13.79,29-5.7,37.54-19.2,8.45-41.5,10.17-57.84-4C220.3,418.8,234.37,405.58,251.25,395.5Z" transform="translate(-5.42 -31.59)" fill="#040404"/><path d="M348.55,214.39c17.57,0,35.59,2.56,52.62-.47,53.33-9.52,82.91,14.77,101.05,62.72,7.38,19.52,13.2,36.44-5.18,50.67-22.49,17.41-48.81,11.94-73.29,5.73-8.68-2.2-6.83-13.38,1.88-18.47,3.19-1.86,8-.65,11.8-1.83,15.78-5,41.22,12.9,46.66-14.22,4.89-24.43-34.18-61-60.7-61.18q-77-.41-154.06,0c-26.71.14-61.68,35.51-62,61.17-.2,14.62,9.76,13.81,19.13,14.19,12.14.5,24.31.29,36.44.88,5.93.29,10.94,4.19,10.23,10-.53,4.42-4.93,11.93-7.73,12-24.95.47-52.27,10.49-73.15-11-17.81-18.34-5.38-36,2.17-55.43,17.2-44.19,46.31-62.34,93.41-55.2C307.63,216.9,328.28,214.39,348.55,214.39Z" transform="translate(-5.42 -31.59)" fill="#0b0b0b"/><path d="M419.68,133.59c.61,24.77-8.28,35.49-24.11,40.45-6.41,2-13.61,2.17-17.55-5.21-2.93-5.49-1.19-11.12,3.84-13.82,9.8-5.25,20.92-9.82,12.74-23.55-14.36-24.07-22.76-51.76-43.25-72.06-1.51-1.5-5.08-1.78-7.48-1.37-19.23,3.21-47.75,79.53-35.21,94.69,4.34,5.24,10.3,9.65,5.2,16.89-5.88,8.35-14.36,6.12-21.65,2.59-21.27-10.31-24.63-28.9-16.12-47.83A589.45,589.45,0,0,1,316.49,50c11.72-18.43,33.39-25.25,48.66-10.14C392.92,67.33,408.1,103.79,419.68,133.59Z" transform="translate(-5.42 -31.59)" fill="#0c0c0c"/><path d="M513.32,496.56c-16.18,0-32.36.08-48.53,0-8.36-.06-18.14-1.45-18.37-11.17-.25-11.19,10.55-9.89,18.25-10,28.31-.24,56.63-.57,84.93,0,23.41.49,27.95-8.31,19.3-29.75-14-34.69-34.28-56.25-75.43-48.73-9,1.65-25,5.34-25.93-10.18-1-15.67,14.31-12.27,24.26-13.09,58.63-4.81,94.49,21.88,105.84,80,4.79,24.55-7.6,39.32-31.83,41.81-17.33,1.78-35,.34-52.49.34Z" transform="translate(-5.42 -31.59)" fill="#0e0e0e"/></svg>