<svg xmlns="http://www.w3.org/2000/svg" width="16.377" height="17.59" viewBox="0 0 16.377 17.59"><path d="M18.377,7.144,11.695.611a2.16,2.16,0,0,0-3.012,0L2,7.144V17.59H18.377Z" transform="translate(-2 0.001)" fill="#2a55c5"/><path d="M25.763,15.213,23.641,13.09a.3.3,0,0,0-.1-.066.3.3,0,0,0-.331.066l-2.123,2.123a.3.3,0,1,0,.429.429l1.605-1.605v5.03a.3.3,0,0,0,.607,0v-5.03l1.605,1.605a.3.3,0,0,0,.429-.429Z" transform="translate(-15.238 -9.058)" fill="#fff"/><path d="M18.377,44.835l-6.84-5.3a2.469,2.469,0,0,0-2.782-.008C6.4,41.125,2,44.835,2,44.835Z" transform="translate(-2 -27.245)" fill="#86d7fb"/><path d="M9.023,28.852H8.975L2,24V34.312s4.4-3.71,6.755-5.306A2.464,2.464,0,0,1,9.023,28.852Z" transform="translate(-2 -16.721)" fill="#31b6f3"/><path d="M32.67,28.852h-.143a2.467,2.467,0,0,1,.278.162l6.84,5.3V24Z" transform="translate(-23.269 -16.721)" fill="#167cd8"/></svg>