<svg id="Layer_1" data-name="Layer 1" xmlns="http://www.w3.org/2000/svg" viewBox="0 0 657 657"><path d="M487.94,38.58H868.46c57.95,22.32,95.61,69.34,136.4,112.59,15.53,16.45,17.52,37,17.7,57.84,1.15,131.62,1.73,263.25-.23,394.86-.8,54-25.24,77.47-80.63,77.8q-214.58,1.26-429.17,0c-58.11-.33-80.74-23.17-81.34-82.44-1.58-158.25.27-316.51-1.08-474.74C429.73,79.87,444.33,50.79,487.94,38.58Z" transform="translate(-397 -30)" fill="#3b7bd0"/><path d="M487.94,38.58c-30,25.83-38.16,58.31-37.67,97.72,1.88,152,1.59,304,.36,456.05-.48,59.32,24.53,86.35,84.64,85.65,129.5-1.52,259-1,388.55-.23,53.16.3,79-24.47,78.91-77.62-.17-131.36-.49-262.72.41-394.07.15-21.31-7.83-35.62-22.1-50-38.2-38.49-75.14-78.24-112.58-117.49,59,0,141-23.09,170.51,6.49s6.48,111.83,6.48,171c0,147.9-.58,295.81.61,443.7.18,22.38-4.86,27.36-27.16,27.24q-296.45-1.57-592.9,0c-22.31.12-27.3-4.86-27.16-27.23,1.09-177.48,5.21-355.14-1.56-532.37C394.39,51.84,413.08,22.67,487.94,38.58Z" transform="translate(-397 -30)" fill="#fdfefe"/><path d="M492.55,355.32c0-75.41,1.19-150.84-.52-226.21-.83-36.69,13-49.47,49.42-48.18,64.8,2.28,130.24,5.74,194.48-.67,78.56-7.85,137.18,15.23,187.79,76.85,25.21,30.69,39.22,57.52,38.34,97.46-2.41,109.36-1.77,218.82-.32,328.21.49,36.62-9.22,53.28-49.73,52.57-123.81-2.16-247.7-1.92-371.53-.1-37.38.55-49.17-13.59-48.43-49.28C493.65,509.11,492.54,432.21,492.55,355.32Z" transform="translate(-397 -30)" fill="#fefefe"/><path d="M731.27,335.19c38.23,0,76.46-.12,114.69.07,14.91.08,29.94-.78,30.4,21.69C876.79,378,864.67,381,848.18,381q-121.3-.18-242.61,0C589.1,381,577,378.06,577.38,357c.46-22.43,15.43-21.66,30.38-21.72C648.93,335.07,690.1,335.18,731.27,335.19Z" transform="translate(-397 -30)" fill="#4b86d4"/><path d="M725.94,507.58c-39.81,0-79.61-.14-119.42.08-16.08.09-29-1.34-28.89-23.1.11-20.09,12.38-20.14,26.33-20.13,82.56.06,165.12.18,247.69-.08,15.48,0,25.06,3.49,24.42,22.09s-11.53,21.26-26.28,21.19C808.51,507.44,767.22,507.57,725.94,507.58Z" transform="translate(-397 -30)" fill="#3f7ed1"/><path d="M685.36,251.6c-27.86,0-55.72-.29-83.56.15-15.55.24-25.07-3.81-24.08-22.16.79-14.82,7.31-21,21.67-21q85.76.26,171.52.08c15.84,0,19,9.47,19.42,23,.49,15.73-7.35,20.19-21.41,20C741.07,251.29,713.21,251.57,685.36,251.6Z" transform="translate(-397 -30)" fill="#407fd2"/></svg>