<svg xmlns="http://www.w3.org/2000/svg" width="19.676" height="19.676" viewBox="0 0 19.676 19.676"><g transform="translate(0 0)"><path d="M16.823,2.828A9.954,9.954,0,0,0,9.875,0,9.766,9.766,0,0,0,1.39,14.624L0,19.676l5.194-1.354A10.3,10.3,0,0,0,9.88,19.508,9.764,9.764,0,0,0,16.81,2.86Z" transform="translate(0 0)" fill="#eceff1"/><path d="M10.277,18.186h-.018a8.26,8.26,0,0,1-4.439-1.307l-3.074.8.824-2.988-.2-.307a8.126,8.126,0,1,1,6.9,3.8Z" transform="translate(-0.384 -0.354)" fill="#4caf50"/><path d="M15.429,12.874l-.007.061c-.247-.123-1.449-.711-1.672-.792-.5-.186-.361-.03-1.326,1.076-.143.16-.286.172-.53.061a6.654,6.654,0,0,1-1.97-1.217,7.438,7.438,0,0,1-1.361-1.7c-.24-.415.262-.474.72-1.34a.451.451,0,0,0-.02-.43c-.061-.123-.551-1.328-.756-1.809s-.4-.418-.551-.418a1.22,1.22,0,0,0-1.122.282c-1.323,1.454-.99,2.955.143,4.55,2.225,2.912,3.41,3.448,5.578,4.193a3.392,3.392,0,0,0,1.541.1,2.523,2.523,0,0,0,1.653-1.169,2.029,2.029,0,0,0,.148-1.168c-.061-.111-.221-.172-.467-.283Z" transform="translate(-1.077 -1.145)" fill="#fafafa"/></g></svg>