<svg xmlns="http://www.w3.org/2000/svg" width="14.802" height="14.802" viewBox="0 0 14.802 14.802"><g transform="translate(0 0)"><path d="M12.7,2.1A7.131,7.131,0,0,0,7.624,0h0A7.18,7.18,0,0,0,1.244,10.47L.038,13.917a.666.666,0,0,0,.625.885.67.67,0,0,0,.222-.038l3.447-1.206A7.179,7.179,0,0,0,12.7,2.1Zm-.614,9.538a6.312,6.312,0,0,1-7.424,1.11.669.669,0,0,0-.533-.041L1,13.805l1.1-3.132a.669.669,0,0,0-.041-.533A6.311,6.311,0,0,1,7.623.868h0A6.31,6.31,0,0,1,12.086,11.64Zm0,0" transform="translate(0 0)"/><path d="M133.957,118.315a.848.848,0,0,0-1.2,0l-.361.361a5.257,5.257,0,0,1-2.111-2.111l.361-.361a.848.848,0,0,0,0-1.2l-.973-.973a.848.848,0,0,0-1.2,0l-.779.779c-.446.446-.468,1.213-.063,2.159a9.476,9.476,0,0,0,4.357,4.357,3.143,3.143,0,0,0,1.212.289,1.291,1.291,0,0,0,.947-.351l.779-.779h0a.847.847,0,0,0,0-1.2Zm-.419,2.336c-.127.127-.519.172-1.2-.121a8.631,8.631,0,0,1-3.9-3.9c-.293-.684-.249-1.076-.121-1.2l.764-.764.943.943-.452.452a.663.663,0,0,0-.123.771,6.125,6.125,0,0,0,2.69,2.69.663.663,0,0,0,.772-.123l.452-.452.943.943Zm0,0" transform="translate(-123.665 -110.496)"/></g></svg>