<svg height="95" viewBox="0 0 95 95" width="95" xmlns="http://www.w3.org/2000/svg" xmlns:xlink="http://www.w3.org/1999/xlink"><filter id="a" filterUnits="userSpaceOnUse" height="95" width="95" x="0" y="0"><feOffset/><feGaussianBlur result="b" stdDeviation="2"/><feFlood flood-opacity=".161"/><feComposite in2="b" operator="in"/><feComposite in="SourceGraphic"/></filter><g filter="url(#a)" transform="translate(-.004)"><rect fill="#fff" height="83" rx="5" transform="translate(6 6)" width="83"/></g><g opacity=".71" transform="translate(29.471 29.817)"><path d="m32.97 131.809h-30.701a2.269 2.269 0 0 1 -2.269-2.27v-23.653a2.269 2.269 0 0 1 2.269-2.269h32.971v25.922a2.269 2.269 0 0 1 -2.27 2.27z" fill="#d1d1d1" transform="translate(0 -99.61)"/><path d="m2.488 6.703h30.265v23.009h-30.265z" fill="#f4f4f4"/><path d="m150.891 217.633-.14-.337a1.343 1.343 0 0 0 -1.24-.827h-5.011a1.343 1.343 0 0 0 -1.24.827l-.14.337a1.343 1.343 0 0 1 -1.24.827 1.343 1.343 0 0 0 -1.343 1.343v6.1a1.343 1.343 0 0 0 1.343 1.343h10.249a1.343 1.343 0 0 0 1.343-1.343v-6.1a1.343 1.343 0 0 0 -1.343-1.343 1.343 1.343 0 0 1 -1.238-.827z" fill="#53bce9" transform="translate(-129.387 -203.508)"/><circle cx="17.619" cy="18.766" fill="#435054" r="2.584"/><circle cx="33.54" cy="7.089" fill="#47c97f" r="7.089"/><g fill="#fff"><path d="m415.45 96.307a.622.622 0 0 1 -.622-.622v-7.462a.622.622 0 0 1 1.244 0v7.462a.622.622 0 0 1 -.622.622z" transform="translate(-381.91 -84.865)"/><path d="m375.894 135.862h-7.462a.622.622 0 0 1 0-1.244h7.462a.622.622 0 0 1 0 1.244z" transform="translate(-338.623 -128.151)"/></g></g><path d="m14 0h2v1h-2zm6 0h2v1h-2zm6 0h2v1h-2zm6 0h2v1h-2zm6 0h2v1h-2zm6 0h2v1h-2zm5.994.141q.593.084 1.168.218h.021l.031.007.031.007h.021l.034.018h.021.011l.019.009.02.005h.011l.02.005.02.005h.011l.02.005.02.005h.01l.02.005.02.005h.01l.02.005.02.005h.01l.02.005h.01.011.01l.019.005h.011.011.01l.02.005h.01.011.009l.019.005h.01.011.01.011.01.01.012.009.011.01.01.011.009.01.01.01.011l-.281.96a12.968 12.968 0 0 0 -1.813-.393l.141-.99zm5.578 2.081.168.11.017.011h.007l.008.006.008.005h.006l.008.005h.006l.008.005h.007l.008.005.008.005h.006l.009.006.008.005.01.007h.005.005l.018.013.025.017.025.018a14.06 14.06 0 0 1 1.182.92l-.655.755a13.1 13.1 0 0 0 -1.439-1.052zm4.21 4.212.1.154.005.008.005.009v.008.007.008.006.006.007.008l.006.011v.006a13.962 13.962 0 0 1 .78 1.469l-.91.416a13.016 13.016 0 0 0 -.89-1.628l.841-.541zm2.079 5.579v.258.153.076.175.077.077.021.055.021.055.022.021.01.021.021.055.043.033.043.056.021.073.022.056.043.033.046.056.021.056.022.056.021.068.021.023s0 .007 0 .01 0 .006 0 .008 0 .007 0 .01 0 0 0 0 0 .006 0 .008 0 0 0 0 .139.02.139.02v.006h-1v-.006a13.172 13.172 0 0 0 -.13-1.847l.99-.141zm-.861 5.993h1v2h-1zm0 6h1v2h-1zm0 6h1v2h-1zm0 6h1v2h-1zm0 6h1v2h-1zm0 6h1c0 .187 0 .372-.011.557v.022.022.033.022.022.016.022.021.022.033.022.022.011.022.025.022.011.022.022.055.022.022.011.022.022.022.011.022.022c0 .044-.008.088-.012.133q-.031.331-.078.657l-.99-.142a13.168 13.168 0 0 0 .091-1.85zm-1.174 5.4.909.416q-.18.394-.384.774v.008.009.008.007.008.006.006.008.005.006.007.005l-.007.013v.006l-.011.02q-.225.406-.477.8l-.84-.542a13.013 13.013 0 0 0 .81-1.568zm-3.319 4.423.655.756a14.054 14.054 0 0 1 -1.6 1.2l-.541-.841a13.1 13.1 0 0 0 1.485-1.113zm-4.853 2.651.281.96c-.093.027-.185.053-.279.078h-.01l-.02.005-.02.005h-.01-.011-.01-.01-.011-.009-.012-.009-.009-.012-.009-.008-.013-.009-.019-.009l-.022.006-.022.006a13.935 13.935 0 0 1 -1.407.274l-.14-.99a12.969 12.969 0 0 0 1.809-.344zm-7.667.52h2v1h-2zm-6 0h2v1h-2zm-6 0h2v1h-2zm-6 0h2v1h-2zm-6 0h2v1h-2zm-6 0h2v1h-2zm-5.4-1.177a12.943 12.943 0 0 0 1.737.65l-.282.959a13.89 13.89 0 0 1 -1.871-.7zm-4.422-3.323a13.13 13.13 0 0 0 1.311 1.314l-.656.755q-.377-.328-.731-.682l-.022-.022-.021-.021-.016-.016-.014-.015-.014-.014-.007-.007-.006-.006-.006-.006v-.005l-.083-.075-.005-.006-.006-.007-.006-.006-.006-.006-.005-.005-.013-.014-.006-.007-.014-.015-.031-.034-.014-.015q-.2-.209-.385-.427zm-2.646-4.852a12.945 12.945 0 0 0 .646 1.738l-.91.415-.064-.142-.012-.028-.009-.02v-.007l-.006-.013v-.006-.005-.009-.005-.008-.006-.006-.005-.006-.005-.008-.008-.005-.006-.007-.006-.008-.007-.006-.008-.007-.007-.009-.007-.009-.007-.006-.008-.007-.007-.009-.007-.008-.008l-.164-.155v-.008-.006-.006-.008-.006-.006-.008-.006-.008-.007-.006-.008-.005-.005-.007-.006-.006-.005-.008-.008-.005-.005-.009-.009-.005l-.122-.144v-.005-.009-.005-.006-.011-.006l-.007-.019v-.006l-.007-.02-.008-.021v-.007l-.008-.021v-.007l-.04-.047-.008-.032-.007-.021v-.007l-.007-.021-.01-.029-.01-.029-.01-.029-.007-.022-.01-.029-.007-.022v-.007l-.007-.021v-.007l-.025-.03v-.022-.007l-.007-.021v-.007l-.007-.021v-.006-.012-.006-.006-.012-.006-.012-.005-.005-.008-.009-.007-.005-.005-.005-.008-.006-.008-.009-.007l-.006-.019v-.009l-.08-.08-.039-.131zm-1.519-5.667h1v2h-1zm0-6h1v2h-1zm0-6h1v2h-1zm0-6h1v2h-1zm0-6h1v2h-1zm0-6h1v2h-1zm.569-5.946.959.283a12.967 12.967 0 0 0 -.4 1.812l-.99-.142q.077-.534.193-1.054v-.021-.009-.01-.009-.009-.009-.007-.008-.024-.007-.031-.009-.012-.02-.007-.015-.007q.139-.347.238-.685zm2.864-5.22.754.656a13.1 13.1 0 0 0 -1.115 1.484l-.84-.543q.364-.563.78-1.089l.02-.023.019-.024.013-.016.006-.01.006-.007.006-.008v-.006-.006l.018-.014v-.006-.006l.006-.007.006-.008.014-.017v-.006q.182-.199.307-.343zm4.767-3.563.414.91a13.014 13.014 0 0 0 -1.624.888l-.54-.842.05-.031.026-.017.017-.011.008-.005.017-.011h.008l.024-.017h.007l.008-.016h.008.007l.008-.005h.007.008l.008-.005h.006.007.008.006.007.008.008.007.005l.008-.005h.008.006l.039-.085h.008.005.005.008.008.006.007.008.006.006.008.007.005.008.007.005.008.007.008.008.006.008.006.008.005.006.008.008.007.008.008.007.008.005.007.008.005.006.008.006.005.008.006.005.008.008.008.008.009.008.008.005.008.008.006.007.009.008.006.008.008.006.009.008.006.006.008.006.007.008.006.007.007.006.008.007.006.008.007.007.008.007.008.009.007.008.009.007l.017-.009h.007.009.008.008.009.008.008.009.008l.018-.009h.009l.018-.009.028-.014.226-.513c.135-.067.27-.131.407-.193zm5.8-1.252v1a13.172 13.172 0 0 0 -1.829.128l-.139-.99q.594-.084 1.2-.117h.768z" fill="#707070" opacity=".71" transform="translate(17.001 17)"/></svg>