<svg height="17.667" viewBox="0 0 17.667 17.667" width="17.667" xmlns="http://www.w3.org/2000/svg"><path d="m9.523 4.762v3.786l2.512 2.512a.69.69 0 0 1 -.976.976l-2.714-2.715a.69.69 0 0 1 -.2-.488v-4.071a.69.69 0 0 1 1.38 0zm2.025-4.762h-5.429a6.1 6.1 0 0 0 -4.012 1.5v-.81a.69.69 0 1 0 -1.38 0v2.71a.692.692 0 0 0 .69.69h2.714a.69.69 0 1 0 0-1.38h-1.306a4.755 4.755 0 0 1 3.294-1.33h5.429a4.744 4.744 0 0 1 4.739 4.739v5.429a4.744 4.744 0 0 1 -4.739 4.739h-5.429a4.744 4.744 0 0 1 -4.739-4.739v-2.715a.69.69 0 0 0 -1.38 0v2.714a6.126 6.126 0 0 0 6.119 6.119h5.429a6.126 6.126 0 0 0 6.119-6.119v-5.428a6.126 6.126 0 0 0 -6.119-6.119z" fill="#3a3a3a"/></svg>