<svg height="22.9" viewBox="0 0 22.9 22.9" width="22.9" xmlns="http://www.w3.org/2000/svg"><g fill="#535353"><path d="m54.851 33.5h-19.839a1.723 1.723 0 0 0 0 3.42h19.876a1.6 1.6 0 0 0 1.512-1.71 1.655 1.655 0 0 0 -1.549-1.71z" transform="translate(-33.5 -33.5)"/><path d="m54.851 87.4h-19.839a1.723 1.723 0 0 0 0 3.42h19.876a1.6 1.6 0 0 0 1.512-1.71 1.655 1.655 0 0 0 -1.549-1.71z" transform="translate(-33.5 -67.92)"/><path d="m54.851 60.4h-19.839a1.723 1.723 0 0 0 0 3.42h19.876a1.6 1.6 0 0 0 1.512-1.71 1.655 1.655 0 0 0 -1.549-1.71z" transform="translate(-33.5 -50.678)"/></g></svg>