<svg height="19.419" viewBox="0 0 20.986 19.419" width="20.986" xmlns="http://www.w3.org/2000/svg"><path d="m20.761 16.919a3.395 3.395 0 1 0 -3.431-3.431 3.439 3.439 0 0 0 3.431 3.431zm-.073-5.388a2.029 2.029 0 0 1 2.03 2.03 1.994 1.994 0 0 1 -3.987 0 2.014 2.014 0 0 1 1.957-2.03z" transform="translate(-10.336 -7.783)"/><path d="m38.086 20.678a6.928 6.928 0 0 0 -4.9-1.752h-.556a4.728 4.728 0 0 1 -.63 1.468 6.979 6.979 0 0 1 1.191-.068 5.841 5.841 0 0 1 3.7 1.118v5.037h1.4v-5.593z" transform="translate(-17.309 -11.961)"/><path d="m30.311 8.18a1.708 1.708 0 1 1 1.611 2.377 1.235 1.235 0 0 1 -.493-.068 4.732 4.732 0 0 1 .073.981v.42c.136 0 .278.068.42.068a3.114 3.114 0 0 0 .068-6.228 3.006 3.006 0 0 0 -2.66 1.542 2.951 2.951 0 0 1 .981.908z" transform="translate(-16.04 -5.691)"/><path d="m10.3 20.534a4.782 4.782 0 0 1 -.63-1.469h-.57a7.162 7.162 0 0 0 -4.9 1.679l-.21.21v5.593h1.41v-5.037a5.968 5.968 0 0 1 3.7-1.118 5.927 5.927 0 0 1 1.2.142z" transform="translate(-4 -12.027)"/><path d="m10.908 11.855a.84.84 0 0 0 .42-.073v-.42a4.079 4.079 0 0 1 .073-.976 1.235 1.235 0 0 1 -.493.068 1.679 1.679 0 0 1 0-3.358 1.764 1.764 0 0 1 1.611 1.049 6.9 6.9 0 0 1 1.049-.981 3.108 3.108 0 1 0 -2.66 4.69z" transform="translate(-5.802 -5.656)"/><path d="m24.594 27.919-.142-.21a7.053 7.053 0 0 0 -5.452-2.382 7.2 7.2 0 0 0 -5.525 2.382l-.142.21v5.315a1.183 1.183 0 0 0 1.191 1.191h8.956a1.224 1.224 0 0 0 1.186-1.191v-5.315zm-1.4 5.1h-8.463v-4.613a5.976 5.976 0 0 1 4.269-1.678 5.647 5.647 0 0 1 4.2 1.679z" transform="translate(-8.434 -15.005)"/></svg>