<svg height="17.971" viewBox="0 0 17.516 17.971" width="17.516" xmlns="http://www.w3.org/2000/svg"><g fill="#3a3a3a" transform="translate(-.324)"><path d="m16.592 232.326a1.877 1.877 0 0 1 -1.877 1.877h-12.252l2.471-2.471-.885-.885-3.539 3.539a.626.626 0 0 0 0 .885l3.539 3.539.885-.885-2.471-2.471h12.252a3.132 3.132 0 0 0 3.128-3.128v-2.5h-1.251zm0 0" transform="translate(-.003 -220.839)"/><path d="m1.575 6.483a1.877 1.877 0 0 1 1.877-1.876h12.248l-2.467 2.47.885.885 3.539-3.539a.626.626 0 0 0 0-.885l-3.539-3.538-.885.885 2.467 2.47h-12.248a3.132 3.132 0 0 0 -3.128 3.128v2.5h1.251zm0 0"/></g></svg>