<svg height="16.863" viewBox="0 0 20.986 16.863" width="20.986" xmlns="http://www.w3.org/2000/svg"><path d="m7.709 235.318h-7.384a.325.325 0 1 0 0 .649h7.384a.325.325 0 1 0 0-.649z" transform="translate(4.476 -222.124)"/><path d="m.325 235.068h7.384a.575.575 0 1 1 0 1.149h-7.384a.575.575 0 1 1 0-1.149zm7.385.649a.075.075 0 1 0 0-.149h-7.385a.075.075 0 1 0 0 .149z" transform="translate(4.476 -222.124)"/><path d="m.784 61.924 2.54-2.54a.325.325 0 0 0 -.459-.459l-2.765 2.769a.325.325 0 0 0 0 .459l2.769 2.769a.325.325 0 1 0 .459-.459z" transform="translate(4.476 -48.405)"/><path d="m3.094 65.267a.571.571 0 0 1 -.406-.168l-2.769-2.769a.575.575 0 0 1 0-.812l2.769-2.769a.575.575 0 0 1 .813.812l-2.364 2.363 2.363 2.363a.575.575 0 0 1 -.406.981zm0-6.187a.073.073 0 0 0 -.053.022l-2.769 2.769a.075.075 0 0 0 0 .105l2.769 2.769a.074.074 0 0 0 .105 0 .075.075 0 0 0 0-.105l-2.716-2.716 2.717-2.717a.075.075 0 0 0 0-.105.073.073 0 0 0 -.053-.022z" transform="translate(4.476 -48.405)"/><path d="m.325 235.318h7.384a.325.325 0 1 1 0 .649h-7.384a.325.325 0 1 1 0-.649z" transform="translate(8.476 -222.124)"/><path d="m.325 235.068h7.384a.575.575 0 1 1 0 1.149h-7.384a.575.575 0 1 1 0-1.149zm7.385.649a.075.075 0 1 0 0-.149h-7.385a.075.075 0 1 0 0 .149z" transform="translate(8.476 -222.124)"/><path d="m2.635 61.924-2.535-2.54a.325.325 0 0 1 .459-.459l2.769 2.769a.325.325 0 0 1 0 .459l-2.774 2.769a.325.325 0 0 1 -.454-.459z" transform="translate(13.091 -48.405)"/><path d="m.325 65.267a.575.575 0 0 1 -.406-.981l2.363-2.363-2.363-2.362a.575.575 0 0 1 .406-.981.571.571 0 0 1 .406.168l2.769 2.769a.575.575 0 0 1 0 .812l-2.769 2.771a.571.571 0 0 1 -.406.167zm0-6.187a.075.075 0 0 0 -.053.127l2.717 2.717-2.717 2.716a.075.075 0 0 0 .105.105l2.769-2.769a.075.075 0 0 0 0-.105l-2.769-2.771a.073.073 0 0 0 -.052-.02z" transform="translate(13.091 -48.405)"/><path d="m20.761 16.919a3.395 3.395 0 1 0 -3.431-3.431 3.439 3.439 0 0 0 3.431 3.431zm-.073-5.388a2.029 2.029 0 0 1 2.03 2.03 1.994 1.994 0 0 1 -3.987 0 2.014 2.014 0 0 1 1.957-2.03z" transform="translate(-10.336 -7.784)"/><path d="m38.086 20.678a6.928 6.928 0 0 0 -4.9-1.752h-.556a4.728 4.728 0 0 1 -.63 1.468 6.979 6.979 0 0 1 1.191-.068 5.841 5.841 0 0 1 3.7 1.118v5.037h1.4v-5.593z" transform="translate(-17.309 -11.962)"/><path d="m30.311 8.18a1.708 1.708 0 1 1 1.611 2.377 1.235 1.235 0 0 1 -.493-.068 4.732 4.732 0 0 1 .073.981v.42c.136 0 .278.068.42.068a3.114 3.114 0 0 0 .068-6.228 3.006 3.006 0 0 0 -2.66 1.542 2.951 2.951 0 0 1 .981.908z" transform="translate(-16.04 -5.692)"/><path d="m10.3 20.534a4.782 4.782 0 0 1 -.63-1.469h-.57a7.162 7.162 0 0 0 -4.9 1.679l-.21.21v5.593h1.41v-5.037a5.968 5.968 0 0 1 3.7-1.118 5.927 5.927 0 0 1 1.2.142z" transform="translate(-4 -12.028)"/><path d="m10.908 11.855a.84.84 0 0 0 .42-.073v-.42a4.079 4.079 0 0 1 .073-.976 1.235 1.235 0 0 1 -.493.068 1.679 1.679 0 0 1 0-3.358 1.764 1.764 0 0 1 1.611 1.049 6.9 6.9 0 0 1 1.049-.981 3.108 3.108 0 1 0 -2.66 4.69z" transform="translate(-5.802 -5.657)"/></svg>