<svg height="18" viewBox="0 0 18 18" width="18" xmlns="http://www.w3.org/2000/svg"><path d="m7.4 8.4h-.6v1.2h.6zm7.2 1.2h.6v-1.2h-.6zm-7.2 2.4h-.6v1.2h.6zm7.2 1.2h.6v-1.2h-.6zm-7.2-8.4h-.6v1.2h.6zm4.8 1.2h.6v-1.2h-.6zm2.4-5.4.424-.424-.177-.176h-.247zm3.6 3.6h.6v-.248l-.176-.176zm-10.8 5.4h7.2v-1.2h-7.2zm0 3.6 7.2.008v-1.208l-7.2-.007zm0-7.2h4.8v-1.2h-4.8zm9.6 10.8h-12v1.2h12zm-12.6-.6v-14.4h-1.2v14.4zm.6-15h9.6v-1.2h-9.6zm12.6 3v12h1.2v-12zm-3.424-3.176 3.6 3.6.848-.847-3.6-3.6zm-9.176 15.776a.6.6 0 0 1 -.6-.6h-1.2a1.8 1.8 0 0 0 1.8 1.8zm12 1.2a1.8 1.8 0 0 0 1.8-1.8h-1.2a.6.6 0 0 1 -.6.6zm-12.6-16.2a.6.6 0 0 1 .6-.6v-1.2a1.8 1.8 0 0 0 -1.8 1.8z" fill="#3a7bd1" transform="translate(-2)"/><path d="m0 0h18v18h-18z" fill="none"/></svg>