<svg height="99.434" viewBox="0 0 98.839 99.434" width="98.839" xmlns="http://www.w3.org/2000/svg" xmlns:xlink="http://www.w3.org/1999/xlink"><filter id="a" filterUnits="userSpaceOnUse" height="99.327" width="98.839" x="0" y=".107"><feOffset dy="14"/><feGaussianBlur result="b" stdDeviation="4.5"/><feFlood flood-opacity=".051"/><feComposite in2="b" operator="in"/><feComposite in="SourceGraphic"/></filter><g filter="url(#a)" transform="translate(-.001)"><path d="m64.3 65.763c-11.007 8.985-45.376 8.985-56.159 0-11.007-8.985-9.884-47.4 0-57.507s46.275-10.109 56.159 0 11.007 48.522 0 57.507z" fill="#8dc640" transform="translate(13.2 -.57)"/></g><g fill="#fff"><path d="m36.62 49.471c-9.884 7.862-20.891 11.905-31.22 12.129-7.641-13.028-6.069-44.7 2.916-53.911 8.084-8.312 33.471-9.889 48.072-4.718 3.595 14.829-3.818 33.695-19.768 46.5z" opacity=".2" transform="translate(13.024)"/><path d="m100.471 141.359a4.8 4.8 0 0 1 -4.043-2.022l-12.58-16.173a5.122 5.122 0 0 1 8.087-6.29l8.536 11.007 18.87-24.481a5.122 5.122 0 1 1 8.087 6.29l-22.913 29.652a5.875 5.875 0 0 1 -4.044 2.017z" transform="translate(-56.218 -85.374)"/></g></svg>