<svg id="Layer_1" data-name="Layer 1" xmlns="http://www.w3.org/2000/svg" width="621.35" height="601" viewBox="0 0 621.35 601"><path d="M372,663q0-299.79,0-599.6c0-1.12.25-1.37,1.37-1.37Q682.69,62,992,62c1.12,0,1.37.25,1.37,1.37q0,299.13,0,598.26c0,1.12-.25,1.37-1.37,1.37Q682,663,372,663Z" transform="translate(-372 -62)" fill="#fdfdfd"/><path d="M958.37,589.7a11.3,11.3,0,0,0-1.31,5.41c.08,1,.24,2.35-1,3.09-.17.1-.08.66-.1,1,0,.95.22,1.89-1,2.57-.47.27-.2,1.59-.57,2.27-.62,1.19-.52,2.76-1.81,3.59a.45.45,0,0,0-.24.47c.16,1-.49,1.48-1.1,2.17a7.9,7.9,0,0,0-1.49,2.4,12.55,12.55,0,0,1-2.57,4.16c-1.14,1.18-2,2.62-3.26,3.67-1,.85-1.77,1.86-2.7,2.75-1.65,1.58-3.54,2.88-5.18,4.49a7.57,7.57,0,0,1-3.32,1.71c-1,.24-1.48,1-2.19,1.54s-1.1,1-2,.94c-.66,0-.68,1-1.39,1-1.61.2-2.79,1.9-4.63,1.32-.93,1.39-2.76.68-3.68,1.31-2,1.36-4,1.13-6.05,1.08-.91,0-.2,1-1,.9-.52-.08-1.18-.29-1.67.23-1,.52-2.06,0-3.08.16-.83.06-1.66,0-2.49,0a15.66,15.66,0,0,1-1.94,0H463.22a18.18,18.18,0,0,1-2.09,0c-.82,0-1.63,0-2.44,0a20.25,20.25,0,0,0-3.21.15,17.54,17.54,0,0,0-5.28-1.49c-1.42-.1-2.84,0-4.13-1-.68-.54-2,.19-2.8-.56a3.4,3.4,0,0,0-1.77-.87,19.34,19.34,0,0,1-7.93-4c-1-.81-2.32-1-3.38-1.84a51.83,51.83,0,0,1-7.46-6.17c-1.94-2.15-4.34-4-5.46-6.85-.22-.55-.73-.83-1-1.23-1.08-1.36-1.45-3.07-2.7-4.39a11,11,0,0,1-2.31-4.84,10.15,10.15,0,0,0-1.62-3.72c-.85-1.11-.11-2.55-.78-3.66-1.29-2.11-.68-4.53-1.18-6.76-.1-.44-.53-.58-.65-1a17.66,17.66,0,0,0,.22-3.17c-.05-.82,0-1.63,0-2.45a15.67,15.67,0,0,1,0-1.94q0-182.68,0-365.36a20.88,20.88,0,0,1,0-2.24c0-.81,0-1.63,0-2.44a19,19,0,0,0-.15-3.2c-.32-.61-.73-1.2.25-1.66a1.29,1.29,0,0,0,.64-1.38c-.05-.94,0-1.89,0-2.84,0-.75-.22-1.58.79-2,.41-.16.41-.61.41-1,0-1-.28-2.17,1-2.77.31-.15.17-.54.18-.83a8.77,8.77,0,0,1,.83-3.13c.51-1.17,1.88-2.1,1.57-3.61-.08-.4.24-.45.48-.61s.73-.45.7-.9c-.08-1.44,1-2.13,1.9-2.9.29-.25.21-.53.27-.79.3-1.26,1.49-1.87,2.09-2.85.88-1.46,2.78-2.09,3-4.09.07-.61,1.09-1.07,1.63-1.65a8.86,8.86,0,0,1,2.4-1.47c.58-.31.69-1.25,1.52-1.71,1.43-.8,2.25-2.5,4-2.93.8-.19,1.08-1,1.72-1.41,1.54-.93,3.25-1.57,4.74-2.5a21.1,21.1,0,0,1,3.43-1.76c1.31-.48,2.36-2.05,4.14-1.48a1.63,1.63,0,0,0,1.79-.91c.32-.65,1.1-.3,1.63-.29,1.41,0,3.1.1,4.05-.57,1.21-.84,2.16-.43,3.25-.43a16.83,16.83,0,0,0,3.17.19c.8-.05,1.6,0,2.4,0,11.34-.1,22.67,0,34,0,.69,0,1.39,0,2.08-.05a1.74,1.74,0,0,0,1.42-.68h0a1.74,1.74,0,0,0,.68-1.42c0-.6,0-1.19,0-1.79q0-25.69,0-51.38a23.34,23.34,0,0,0-.12-3.13c-.34-1.1-.82-2.22.5-3a.89.89,0,0,0,.41-.89c0-.57-.12-1.18.68-1.41a.89.89,0,0,0,.48-.68c-.14-1.56,1.3-2,2-3a17.37,17.37,0,0,1,2.92-3,3.6,3.6,0,0,1,2.12-1.38c1-.1,1.68-1.15,2.81-1.36.68-.12,1.79.15,1.93-.25.41-1.23,1.18-.37,1.75-.51a14.26,14.26,0,0,0,4.79,0A31.3,31.3,0,0,1,524,87.71c3.18,1.3,5.52,3.76,7.78,6.25a13.06,13.06,0,0,1,2,4c.06.14,0,.37.07.43,1.8,1.31.92,3.25,1.16,4.92a2.81,2.81,0,0,1,.21,1.31c-.11,17.67,0,35.33,0,53a3.84,3.84,0,0,0,.45,2.59,2,2,0,0,0,1.41.36c.7.06,1.4,0,2.1,0H826.39a6.68,6.68,0,0,0,3.37-.37c.8-.68.63-1.64.64-2.5,0-3.39,0-6.77,0-10.16,0-14.84.07-29.67,0-44.51a8.89,8.89,0,0,0-.07-.89c-.35-1.1-.83-2.21.49-3a.89.89,0,0,0,.41-.89c0-.58-.12-1.19.68-1.41a.73.73,0,0,0,.46-.54c-.16-2.13,1.86-2.8,2.84-4.14.81-1.11,2.23-1.78,3-2.91.48-.69.94-.22,1.36-.48,1.37-.86,2.75-1.79,4.51-1.55.31-1.1,1.14-.6,1.81-.58a14.53,14.53,0,0,0,4.79,0,33.47,33.47,0,0,1,4.78,1.3c2,.76,3.41,2.42,5.37,3.17a1,1,0,0,1,.55.78,1.84,1.84,0,0,0,.61,1.12c1.67,1.37,2.11,3.5,3.24,5.16s.88,3.43,1,5.18a2.81,2.81,0,0,1,.21,1.31c-.11,17.5,0,35,0,52.48,0,1-.23,2,.71,2.77h0c.73.94,1.8.72,2.76.72q16.23,0,32.47,0a20.93,20.93,0,0,1,2.24,0c.79,0,1.58,0,2.38,0a6.3,6.3,0,0,0,3.24-.42c1.36-.43,2.31.79,3.58.91s2.23.22,3.36.24c.2,0,.45-.06.59,0,2.22,1.52,5.2,1.33,7.28,3.19.17.16.45.34.63.3,2-.4,3,1.41,4.46,2.16s3.07,1.45,4.54,2.33c.61.37.78,1,1.41,1.36a31.88,31.88,0,0,1,7.57,6.36,54,54,0,0,1,4.89,6.21,15.74,15.74,0,0,1,2.27,3.42c.4,1.25,1.38,2.11,1.65,3.43a10.9,10.9,0,0,0,1.5,3,4,4,0,0,1,.82,2.53.25.25,0,0,0,0,.15c1.06,1.66.87,3.8,2.06,5.39a2.26,2.26,0,0,1,.33,1.38c.14,1.71-.54,3.59,1.11,5,.24.21.09.86.13,1.3.36,1,0,2.08.08,3.11.06.84,0,1.67,0,2.5a15.66,15.66,0,0,1,0,1.94V582a18.23,18.23,0,0,1,0,2.09c0,.83,0,1.66,0,2.49A18.28,18.28,0,0,1,958.37,589.7Z" transform="translate(-372 -62)"/><path d="M460.86,637.6c.6,0,1.19-.05,1.79-.05H903c.6,0,1.2,0,1.79.05a.86.86,0,0,1,0,1.1c-.6,0-1.19,0-1.79,0H462.67c-.6,0-1.19,0-1.79,0A.86.86,0,0,1,460.86,637.6Z" transform="translate(-372 -62)" fill="#777"/><path d="M958.08,584.31c0-.89-.05-1.79-.05-2.68v-366c0-.44,0-.89.05-1.34a.86.86,0,0,1,1.1,0c0,.8,0,1.6,0,2.39V581.75c0,.85,0,1.69-.05,2.54A.82.82,0,0,1,958.08,584.31Z" transform="translate(-372 -62)" fill="#727272"/><path d="M407.57,214.27c0,.5.05,1,.05,1.49q0,183.67,0,367.36c0,.4,0,.8-.05,1.19a.84.84,0,0,1-1.1,0c0-.8-.05-1.59-.05-2.39V216.53c0-.74,0-1.49,0-2.24A.86.86,0,0,1,407.57,214.27Z" transform="translate(-372 -62)" fill="#727272"/><path d="M830,160.45c0,.33-.18.57-.55.57l-1.2,0H537.35c-.7,0-1.54.32-2-.58-.13-.53.26-.57.61-.63l1.35,0h291l1.34,0C830,159.94,830.15,160.12,830,160.45Z" transform="translate(-372 -62)" fill="#333"/><path d="M830,160.45l-.31-.63q0-27.63,0-55.25c0-.85-.23-1.79.59-2.46.69.24.61.81.61,1.36q0,27.63,0,55.27A1.65,1.65,0,0,1,830,160.45Z" transform="translate(-372 -62)" fill="#515151"/><path d="M499.15,102.11c.68.24.62.81.62,1.36q0,27.56,0,55.1c0,.91-.16,1.47-1.22,1.26q0-27.71,0-55.41C498.57,103.61,498.38,102.73,499.15,102.11Z" transform="translate(-372 -62)" fill="#404040"/><path d="M536,159.82l-.61.63c-.65-.27-.6-.83-.6-1.39q0-27,0-54a10.72,10.72,0,0,1,.34-1.74c.85.43.88,1.18.88,2Q535.95,132.54,536,159.82Z" transform="translate(-372 -62)" fill="#515151"/><path d="M867.1,159.83c-1.41.27-1.21-.72-1.21-1.55V120.82c0-5.07,0-10.14,0-15.21a7.37,7.37,0,0,1,.34-2.34c.84.43.88,1.18.88,2Q867.09,132.55,867.1,159.83Z" transform="translate(-372 -62)" fill="#404040"/><path d="M498.55,159.83c.15.9-.18,1.23-1.12,1.22q-18.29,0-36.57-.05a.78.78,0,0,1,0-1.11l31.7,0Z" transform="translate(-372 -62)" fill="#333"/><path d="M904.79,161q-18.28,0-36.56.05c-.94,0-1.28-.32-1.13-1.22h36l1.64,0A.77.77,0,0,1,904.79,161Z" transform="translate(-372 -62)" fill="#333"/><path d="M519.5,86.56c0,.1,0,.24,0,.28-.8.6-4,.4-4.75-.28A4.72,4.72,0,0,1,519.5,86.56Z" transform="translate(-372 -62)" fill="#7a7a7a"/><path d="M850.64,86.56c0,.09,0,.24,0,.28-.8.6-4,.4-4.75-.28A4.77,4.77,0,0,1,850.64,86.56Z" transform="translate(-372 -62)" fill="#7b7b7b"/><path d="M458.46,161c-1-.18-2.17.64-3-.56.83-1.15,2-.4,3-.54A.75.75,0,0,1,458.46,161Z" transform="translate(-372 -62)" fill="#5a5a5a"/><path d="M455.48,638.12c.82-1.16,2-.35,3-.52a.75.75,0,0,1,0,1.09C457.48,638.56,456.3,639.29,455.48,638.12Z" transform="translate(-372 -62)" fill="#a8a8a8"/><path d="M407.05,208.9c1.16.82.36,2,.52,3a.76.76,0,0,1-1.1,0C406.49,210.87,406.1,209.75,407.05,208.9Z" transform="translate(-372 -62)" fill="#9f9f9f"/><path d="M407.57,586.71c-.1,1,.55,2.18-.59,3-1-.86-.41-2-.5-3A.74.74,0,0,1,407.57,586.71Z" transform="translate(-372 -62)" fill="#a6a6a6"/><path d="M910.19,160.19c-.67,1.51-2,.63-3,.8a.75.75,0,0,1,0-1.1A5.88,5.88,0,0,1,910.19,160.19Z" transform="translate(-372 -62)" fill="#5a5a5a"/><path d="M958.37,589.7c-.64-.94-.26-2-.29-3a.75.75,0,0,1,1.1,0C959.17,587.76,959.62,589,958.37,589.7Z" transform="translate(-372 -62)" fill="#a9a9a9"/><path d="M907.18,637.6a6.89,6.89,0,0,1,3,.21c-.59,1.65-1.95.7-3,.88A.75.75,0,0,1,907.18,637.6Z" transform="translate(-372 -62)" fill="#a8a8a8"/><path d="M958.08,211.88a5.79,5.79,0,0,1,.29-3c1.25.75.81,1.94.8,3A.75.75,0,0,1,958.08,211.88Z" transform="translate(-372 -62)" fill="#a2a2a2"/><path d="M958.08,211.88l1.09,0c0,.8,0,1.6,0,2.39l-1.1,0Z" transform="translate(-372 -62)" fill="#878787"/><path d="M406.47,211.9l1.1,0v2.39l-1.1,0Z" transform="translate(-372 -62)" fill="#8b8b8b"/><path d="M458.46,161l0-1.1h2.39c0,.37,0,.74,0,1.11Z" transform="translate(-372 -62)" fill="#414141"/><path d="M907.17,159.89c0,.37,0,.74,0,1.1h-2.4c0-.37,0-.74,0-1.11Z" transform="translate(-372 -62)" fill="#414141"/><path d="M407.57,586.71l-1.09,0v-2.39l1.1,0Z" transform="translate(-372 -62)" fill="#8b8b8b"/><path d="M959.18,586.68l-1.1,0v-2.4l1.09,0Z" transform="translate(-372 -62)" fill="#8c8c8c"/><path d="M458.49,638.69l0-1.09h2.39l0,1.1Z" transform="translate(-372 -62)" fill="#8d8d8d"/><path d="M907.18,637.6l0,1.09h-2.39c0-.37,0-.73,0-1.1Z" transform="translate(-372 -62)" fill="#8d8d8d"/><path d="M460.27,601.62c-1.85.06-3.47-1-5.2-1.38a7.14,7.14,0,0,1-4.67-3.13c-.34-.61-1-.71-1.45-1.21a27.55,27.55,0,0,1-3.85-5.09c-.82-1.57-.86-3.11-1.24-4.66-.13-.54-.49-.81-.69-1.24.26-2.88.16-5.77.16-8.66q0-132.51,0-265c0-1.13-.25-2.3.39-3.36a2.47,2.47,0,0,1,1.56-.43c.49,0,1,0,1.49,0h472a5.41,5.41,0,0,1,3.07.39,2.61,2.61,0,0,1,.43,1.7c0,.69,0,1.39,0,2.09V581.19a16,16,0,0,1-.14,3.72c-.26,1.49-1.68,2.65-1.25,4.35.15.58-.28.89-.66,1.22-.17.15-.59.09-.51.41.33,1.24-.61,1.8-1.25,2.53a13.31,13.31,0,0,0-2.58,3.35c-.12.3-1.31.62-2,1.16a10.59,10.59,0,0,1-6.08,2.69,9.4,9.4,0,0,0-2.54,1,1.8,1.8,0,0,1-1.28.27q-220.79-.12-441.58,0A5.38,5.38,0,0,1,460.27,601.62Z" transform="translate(-372 -62)" fill="#fdfdfd"/><path d="M443.25,213.68c-.49-.71-.56-1.32.36-1.74.17-.08.4-.27.41-.42.08-1.46,0-2.88,1.23-4.09.31-.32.14-1.25.86-1.6a.73.73,0,0,0,.37-.59c-.22-1.58,1.38-1.89,1.94-2.89s1.79-.8,2.05-1.92c.13-.57.5.08.82,0a4.56,4.56,0,0,0,2.52-1.88c.5-1,1.23-.58,1.62-.59.54,0,1,0,1.38-.37,1-1.11,2.22-.92,3.46-.62,3.34.18,6.68.1,10,.1H901.05c1.34,0,2.69,0,4-.1a3.62,3.62,0,0,1,2.7.33,62.63,62.63,0,0,1,5.64,2.73,9.84,9.84,0,0,1,4.79,3.93c1,2.06,3,3.93,2.75,6.59a1.37,1.37,0,0,0,.43,1,2.31,2.31,0,0,1,.79,2.11,7.44,7.44,0,0,1,.15,1.63q0,26.1,0,52.18c0,.93.2,1.92-.49,2.73h0a2.25,2.25,0,0,1-1.53.49c-.65,0-1.3,0-1.95,0H447.16c-1.12,0-2.32.29-3.34-.49h0c-.69-.81-.49-1.8-.49-2.73q0-25,0-50.07C443.33,216.17,443.33,214.92,443.25,213.68Z" transform="translate(-372 -62)" fill="#fefefe"/><path d="M921.82,307.91H444.9l-1,0a.73.73,0,0,1-.63-.63c0-.62.31-.9.92-.9h476c.86,0,1.85-.27,2.28.87C922.23,307.53,922.42,308.07,921.82,307.91Z" transform="translate(-372 -62)" fill="#878787"/><path d="M443.82,270.21h478c.14.9-.2,1.32-1.14,1.21-.29,0-.6,0-.9,0q-237,0-473.93,0C445.06,271.39,443.63,272.08,443.82,270.21Z" transform="translate(-372 -62)" fill="#333"/><path d="M460.27,601.62c.36-.53.91-.26,1.36-.26H902.15a9.58,9.58,0,0,1,3.2.26,1.1,1.1,0,0,1-1.29.93c-.59,0-1.2,0-1.8,0H463.31c-.65,0-1.29,0-1.94,0S460.3,602.33,460.27,601.62Z" transform="translate(-372 -62)" fill="#444"/><path d="M905.08,196.94c0,.46-.2.61-.63.6h-2.24q-219.39,0-438.78,0c-1,0-2.3.67-3.16-.56a1,1,0,0,1,1.07-.6c.7,0,1.4,0,2.09,0q219.41,0,438.79,0C903.17,196.36,904.33,195.8,905.08,196.94Z" transform="translate(-372 -62)" fill="#878787"/><path d="M443.22,307.31a1,1,0,0,1,.63.63c0,.65,0,1.3,0,1.94q0,136.72,0,273.44c0,.64,0,1.26-.66,1.59a1.25,1.25,0,0,1-.54-1.29c0-.65,0-1.29,0-1.94q0-135.94,0-271.87C442.63,308.94,442.39,308,443.22,307.31Z" transform="translate(-372 -62)" fill="#434343"/><path d="M921.82,307.91l.57-.62a2.77,2.77,0,0,1,.65,2.2q0,21.24,0,42.47,0,114.92,0,229.84c0,1.08.45,2.35-.83,3.11-.47-.49-.35-1.1-.35-1.69V308.36C921.83,308.21,921.83,308.06,921.82,307.91Z" transform="translate(-372 -62)" fill="#434343"/><path d="M443.25,213.68c.9.38.56,1.18.56,1.82q0,27.34,0,54.71c-1.42.27-1.21-.73-1.21-1.56V215.72C442.62,215,442.54,214.21,443.25,213.68Z" transform="translate(-372 -62)" fill="#434343"/><path d="M921.82,270.21q0-27.34,0-54.7c0-.63-.14-1.3.35-1.84a1.8,1.8,0,0,1,.86,1.76q0,26.76,0,53.52C923,269.86,922.88,270.42,921.82,270.21Z" transform="translate(-372 -62)" fill="#434343"/><path d="M608,564.28c-1.24-.62-2.64-.56-4-1.09a22,22,0,0,1-6-3.63,11,11,0,0,1-3.16-3.69c-.61-1.38-2.1-2.63-1.54-4.47a1.24,1.24,0,0,0-.64-1.38,1.43,1.43,0,0,1-.52-1.58,8.61,8.61,0,0,0,.29-4.82c-.48-.71-.55-1.31.36-1.75.21-.09.46-.35.46-.54a8.93,8.93,0,0,1,1.06-3.84,15.1,15.1,0,0,1,1.66-2.46c1.34-1.74,3.3-2.94,4.6-4.75,1.64.49,2.3-1.81,4-1.35a2,2,0,0,0,2.19-1.12c.48-.74,1,.31,1.49,0,5.6.27,11.19.07,16.79.12a2.9,2.9,0,0,0,2-.45c.9-.74.78-1.78.79-2.76q0-10.24,0-20.48c0-10.76,0-21.52,0-32.28a8.34,8.34,0,0,0-.41-3.71c-.44-1.17,1.24-1.58,1-2.82a10,10,0,0,1,.16-1.85c.06-.75-.2-1.6.82-2,.12,0,.32-.23.3-.3-.53-1.81,1.07-3,1.27-4.63.05-.38.11-.59.49-.77s.76-.44.7-.88c-.18-1.52,1.18-2,1.89-2.93.15-.18.48-.34.47-.51-.07-2.11,1.94-2.7,2.93-4,1.25-1.66,3.13-2.74,4.3-4.47.35-.51.56,0,.82-.05a5.37,5.37,0,0,0,2.65-2.1c.47-.68.86-.1,1.19-.43,1.14-1.16,3-1.17,4.07-2.51a1.44,1.44,0,0,1,1.32-.21,1.63,1.63,0,0,0,1.79-.38c1.08-1.36,2.51-.66,3.75-.81a9.82,9.82,0,0,0,3-.61,14.22,14.22,0,0,1,3.26-.18q19.17-.1,38.35,0a12.21,12.21,0,0,1,3.25.19c1,1,2.24.49,3.37.53a3.49,3.49,0,0,1,2.72.82,1,1,0,0,0,.63.32c2.35-.07,3.93,1.66,5.91,2.43,2.2.86,3.83,2.51,5.78,3.71a14.3,14.3,0,0,1,4.3,4.12c.36.52.88.69,1.28,1.12,1.26,1.37,2,3.1,3.14,4.54a5.66,5.66,0,0,1,1.6,3.37c0,.49.35.68.59,1s.56.45.55.66c0,1.36,1,2.59,1,3.62.17,2.3,1.47,4.16,1.69,6.35a24.81,24.81,0,0,0-.13,3.34c.07,17.57,0,35.14,0,52.72,0,1-.24,2,.57,2.83a1.94,1.94,0,0,0,1.53.45c5.72,0,11.44.16,17.15-.11.18-.07.46-.25.51-.2,1.4,1.49,3.51,1.3,5.18,2.22a19.36,19.36,0,0,1,5.25,4.07c1.71,1.93,3.78,3.78,3.74,6.75a1.25,1.25,0,0,0,.43.89,2.21,2.21,0,0,1,.78,2.1,21.67,21.67,0,0,1,0,4.83c0,.83,0,1.64-1,2.13-.6.29-.22,1.06-.26,1.62-.06.87.19,1.83-1,2.23a.44.44,0,0,0-.23.31c.31,1.7-1.23,2.24-2,3.24-.08.1-.31.12-.33.21-.37,1.72-2.24,1.92-3.14,3.11-.23.31-.71.26-.88.83s-.87.76-1.53.72a2.55,2.55,0,0,0-2.09.68c-.91.82-2.26.49-3.44.47a3.2,3.2,0,0,1-1.47.19q-72.23-.06-144.45,0A25.06,25.06,0,0,1,608,564.28Z" transform="translate(-372 -62)"/><path d="M679.5,409c-.77-.66-1.71-.16-2.56-.39-1.78-.5-3.36-1.52-5-2.14a15.47,15.47,0,0,1-7.16-5.16c-1.55-2.07-3.31-4.12-4-7-.34-1.49-.1-3.49-1.57-4.75a1.15,1.15,0,0,1-.31-1.22,5.07,5.07,0,0,0,.29-3.63c1.2-1,.87-2.39.88-3.68,0-.68-.12-1.36.72-1.7.23-.09.55-.35.47-.7-.52-2.2,1.66-3.85,1.21-6,1.63-1.11.41-3.58,2.2-4.62.35-.21.17-.64.18-1,0-.93-.28-2,.92-2.51.39-.17.29-.59.28-.93,0-.5-.06-1,.61-1.14.12,0,.3-.21.29-.31-.1-1.47,1.56-2.21,1.49-3.64a.71.71,0,0,1,.48-.78,1,1,0,0,0,.72-1c-.12-1.39,1-1.83,1.86-2.48.23-.18.66-.42.64-.57-.24-1.38.85-2.21,1.47-3.05,1-1.33,1.34-3.14,2.78-4,.59-.37.74-1,1.26-1.33a14,14,0,0,1,3.36-1.44,4.05,4.05,0,0,1,3,.23c2.94.08,4.47,2.31,6.25,4.14,1.33,1.37,1.76,3.21,2.55,4.86A3.18,3.18,0,0,0,694,354.5a2.28,2.28,0,0,1,1.39,2c0,.94,1,1.55,1.33,2.46.44,1.08,1.13,2.29,1.67,3.39.66,1.35,2,2.52,1.74,4.25a1.63,1.63,0,0,0,.3,1.1c1.1,1.8,1.39,4,2.27,5.73,1,2.07.19,4.62,2.08,6.32.28.26.19,1.05.13,1.57a3.71,3.71,0,0,0,1.26,3.42,13.3,13.3,0,0,1,0,3.62c-.05.83.08,1.74-1,2.09-.41.14-.26.49-.26.75a15.61,15.61,0,0,1-1,4.3c-.53,1.67-2,2.53-2.35,3.75A7.6,7.6,0,0,1,699,402.9a25.1,25.1,0,0,1-3.21,2.44c-1.14.7-2.47,1-3.6,1.76a9.67,9.67,0,0,1-6.61,1.64C683.54,409,681.51,408.7,679.5,409Z" transform="translate(-372 -62)"/><path d="M608,564.28a2.9,2.9,0,0,1,2.06-.63H755.32a3.05,3.05,0,0,1,1.73.32c-.07.41.09,1-.66.88-.34,0-.69,0-1,0H609.84C609.19,564.85,608.41,565.15,608,564.28Z" transform="translate(-372 -62)" fill="#333"/><path d="M738.15,527.8c-1.16-.13-.87-1-.88-1.72q0-15.32,0-30.64,0-12,.05-23.92a1,1,0,0,1,1.39,0q0,10.76,0,21.51,0,17,0,34.08C738.92,527.69,738.5,527.72,738.15,527.8Z" transform="translate(-372 -62)" fill="#7d7d7d"/><path d="M628.33,471.52c0,1.15,0,2.29,0,3.43q0,25.41,0,50.81c0,.93,0,1.84-1.18,2-.29-.13-.5-.3-.34-.66q0-26.46,0-52.91c0-.89,0-1.79.05-2.69A1,1,0,0,1,628.33,471.52Z" transform="translate(-372 -62)" fill="#7d7d7d"/><path d="M702.28,436.18l-28.18.05c-3.57,0-7.15,0-10.72-.05a.75.75,0,0,1,0-1.11h38.85A.76.76,0,0,1,702.28,436.18Z" transform="translate(-372 -62)" fill="#bababa"/><path d="M626.87,527.14l.34.66c0,.71-.55.56-1,.56H609.55c-.51,0-1,0-1.21-.6.32-.84,1.06-.59,1.66-.59C615.63,527.15,621.25,527.15,626.87,527.14Z" transform="translate(-372 -62)" fill="#888"/><path d="M738.15,527.8l.63-.66c5.52,0,11.05,0,16.57,0,.6,0,1.34-.25,1.66.59,0,.73-.5.59-.92.59h-16.7C738.88,528.37,738.4,528.36,738.15,527.8Z" transform="translate(-372 -62)" fill="#888"/><path d="M679.5,409c2-1.12,4-.69,6-.3-.13.31.17.86-.5.86-1.64,0-3.27,0-4.91,0C679.82,409.58,679.66,409.28,679.5,409Z" transform="translate(-372 -62)" fill="#393939"/><path d="M592.51,543.62c1,1.08.81,4.08-.29,4.82C591.78,546.8,591.45,545.17,592.51,543.62Z" transform="translate(-372 -62)" fill="#969696"/><path d="M772.91,548.43a7.53,7.53,0,0,1,0-4.83A3.61,3.61,0,0,1,772.91,548.43Z" transform="translate(-372 -62)" fill="#979797"/><path d="M628.33,471.52l-1.39,0a4.62,4.62,0,0,1,.58-3.33C629,469,628.24,470.38,628.33,471.52Z" transform="translate(-372 -62)" fill="#959595"/><path d="M738.71,471.55l-1.39,0c0-1-.43-2.13.53-3C739.23,469.23,738.68,470.47,738.71,471.55Z" transform="translate(-372 -62)" fill="#979797"/><path d="M659.21,384.78a2.5,2.5,0,0,1-.29,3.63C658.49,387.16,658.21,385.92,659.21,384.78Z" transform="translate(-372 -62)" fill="#b1b1b1"/><path d="M684,344.06c-1-.05-2,.34-3-.23.26-1.51,1.44-.79,2.25-.89S684,343.54,684,344.06Z" transform="translate(-372 -62)" fill="#d4d4d4"/><path d="M706.2,388.39a4.4,4.4,0,0,1,0-3.62A2.24,2.24,0,0,1,706.2,388.39Z" transform="translate(-372 -62)" fill="#b2b2b2"/><path d="M663.4,435.07l0,1.11c-1-.05-2,.35-3-.21.06-.91.7-1,1.39-.93S662.85,435.06,663.4,435.07Z" transform="translate(-372 -62)" fill="#d1d1d1"/><path d="M702.28,436.18l0-1.11c1.06.09,2.34-.53,3,.91A6.32,6.32,0,0,1,702.28,436.18Z" transform="translate(-372 -62)" fill="#d1d1d1"/><path d="M664.62,472.75H701a2.56,2.56,0,0,1,.52,2q0,25.32,0,50.64a3,3,0,0,1-.38,1.86,3,3,0,0,1-2,.44H666.54a3.21,3.21,0,0,1-2-.39,3.25,3.25,0,0,1-.43-2.15q0-25.12,0-50.24A2.72,2.72,0,0,1,664.62,472.75Z" transform="translate(-372 -62)" fill="#fefefe"/><path d="M664.62,472.75q0,16.51,0,33,0,10.68,0,21.37c.1.55-.31.58-.67.65-.59-.32-.56-.87-.56-1.43q0-26.19,0-52.37C663.37,473,663.6,472.56,664.62,472.75Z" transform="translate(-372 -62)" fill="#383838"/><path d="M701,527.14V472.75c1.2-.23,1.24.48,1.24,1.39q0,15.71,0,31.41c0,6.73,0,13.45,0,20.18,0,.84,0,1.61-.87,2.06C701.1,527.68,700.91,527.5,701,527.14Z" transform="translate(-372 -62)" fill="#383838"/><path d="M701,527.14l.37.65c0,.68-.54.57-1,.57H665.19c-.53,0-1,0-1.25-.58l.67-.65Z" transform="translate(-372 -62)" fill="#878787"/></svg>